G75*
%MOIN*%
%OFA0B0*%
%FSLAX24Y24*%
%IPPOS*%
%LPD*%
%AMOC8*
5,1,8,0,0,1.08239X$1,22.5*
%
%ADD10C,0.0000*%
%ADD11R,0.0870X0.0240*%
%ADD12R,0.0394X0.0433*%
%ADD13R,0.0433X0.0394*%
%ADD14R,0.0551X0.0394*%
%ADD15R,0.0240X0.0870*%
%ADD16R,0.0551X0.0315*%
%ADD17R,0.0866X0.0709*%
%ADD18R,0.0630X0.0709*%
%ADD19R,0.0591X0.1142*%
%ADD20R,0.0709X0.0630*%
%ADD21R,0.0236X0.0866*%
%ADD22R,0.0512X0.0748*%
%ADD23R,0.0787X0.0748*%
%ADD24R,0.0630X0.0460*%
D10*
X001927Y006470D02*
X001927Y036785D01*
X005076Y040328D02*
X018068Y040328D01*
X018184Y040326D01*
X018300Y040320D01*
X018415Y040311D01*
X018530Y040298D01*
X018645Y040281D01*
X018759Y040260D01*
X018873Y040235D01*
X018985Y040207D01*
X019096Y040175D01*
X019207Y040140D01*
X019316Y040101D01*
X019424Y040058D01*
X019530Y040012D01*
X019635Y039963D01*
X019738Y039910D01*
X019840Y039853D01*
X019939Y039794D01*
X020036Y039731D01*
X020132Y039665D01*
X020225Y039596D01*
X020316Y039524D01*
X020404Y039449D01*
X020490Y039371D01*
X020573Y039290D01*
X020654Y039207D01*
X020732Y039121D01*
X020807Y039033D01*
X020879Y038942D01*
X020948Y038849D01*
X021014Y038753D01*
X021077Y038656D01*
X021136Y038557D01*
X021193Y038455D01*
X021246Y038352D01*
X021295Y038247D01*
X021341Y038141D01*
X021384Y038033D01*
X021423Y037924D01*
X021458Y037813D01*
X021490Y037702D01*
X021518Y037590D01*
X021543Y037476D01*
X021564Y037362D01*
X021581Y037247D01*
X021594Y037132D01*
X021603Y037017D01*
X021609Y036901D01*
X021611Y036785D01*
X021612Y036785D02*
X021612Y006470D01*
X017418Y006470D02*
X017420Y006523D01*
X017426Y006576D01*
X017436Y006628D01*
X017449Y006679D01*
X017467Y006729D01*
X017488Y006778D01*
X017513Y006825D01*
X017541Y006869D01*
X017573Y006912D01*
X017607Y006952D01*
X017645Y006990D01*
X017685Y007024D01*
X017728Y007056D01*
X017773Y007084D01*
X017819Y007109D01*
X017868Y007130D01*
X017918Y007148D01*
X017969Y007161D01*
X018021Y007171D01*
X018074Y007177D01*
X018127Y007179D01*
X018180Y007177D01*
X018233Y007171D01*
X018285Y007161D01*
X018336Y007148D01*
X018386Y007130D01*
X018435Y007109D01*
X018482Y007084D01*
X018526Y007056D01*
X018569Y007024D01*
X018609Y006990D01*
X018647Y006952D01*
X018681Y006912D01*
X018713Y006869D01*
X018741Y006824D01*
X018766Y006778D01*
X018787Y006729D01*
X018805Y006679D01*
X018818Y006628D01*
X018828Y006576D01*
X018834Y006523D01*
X018836Y006470D01*
X018834Y006417D01*
X018828Y006364D01*
X018818Y006312D01*
X018805Y006261D01*
X018787Y006211D01*
X018766Y006162D01*
X018741Y006115D01*
X018713Y006071D01*
X018681Y006028D01*
X018647Y005988D01*
X018609Y005950D01*
X018569Y005916D01*
X018526Y005884D01*
X018481Y005856D01*
X018435Y005831D01*
X018386Y005810D01*
X018336Y005792D01*
X018285Y005779D01*
X018233Y005769D01*
X018180Y005763D01*
X018127Y005761D01*
X018074Y005763D01*
X018021Y005769D01*
X017969Y005779D01*
X017918Y005792D01*
X017868Y005810D01*
X017819Y005831D01*
X017772Y005856D01*
X017728Y005884D01*
X017685Y005916D01*
X017645Y005950D01*
X017607Y005988D01*
X017573Y006028D01*
X017541Y006071D01*
X017513Y006116D01*
X017488Y006162D01*
X017467Y006211D01*
X017449Y006261D01*
X017436Y006312D01*
X017426Y006364D01*
X017420Y006417D01*
X017418Y006470D01*
X018128Y002926D02*
X018245Y002929D01*
X018362Y002936D01*
X018479Y002947D01*
X018596Y002961D01*
X018712Y002980D01*
X018827Y003002D01*
X018941Y003029D01*
X019055Y003059D01*
X019167Y003093D01*
X019279Y003130D01*
X019388Y003172D01*
X019497Y003216D01*
X019604Y003265D01*
X019709Y003317D01*
X019813Y003373D01*
X019914Y003432D01*
X020014Y003494D01*
X020111Y003560D01*
X020206Y003629D01*
X020299Y003701D01*
X020389Y003776D01*
X020477Y003854D01*
X020562Y003935D01*
X020644Y004018D01*
X020724Y004105D01*
X020800Y004194D01*
X020874Y004285D01*
X020944Y004379D01*
X021012Y004476D01*
X021076Y004574D01*
X021136Y004675D01*
X021194Y004777D01*
X021248Y004882D01*
X021298Y004988D01*
X021345Y005095D01*
X021388Y005205D01*
X021427Y005315D01*
X021463Y005427D01*
X021495Y005540D01*
X021523Y005654D01*
X021547Y005769D01*
X021568Y005885D01*
X021584Y006001D01*
X021597Y006118D01*
X021606Y006235D01*
X021611Y006352D01*
X021612Y006470D01*
X018127Y002927D02*
X005470Y002927D01*
X004761Y006470D02*
X004763Y006523D01*
X004769Y006576D01*
X004779Y006628D01*
X004792Y006679D01*
X004810Y006729D01*
X004831Y006778D01*
X004856Y006825D01*
X004884Y006869D01*
X004916Y006912D01*
X004950Y006952D01*
X004988Y006990D01*
X005028Y007024D01*
X005071Y007056D01*
X005116Y007084D01*
X005162Y007109D01*
X005211Y007130D01*
X005261Y007148D01*
X005312Y007161D01*
X005364Y007171D01*
X005417Y007177D01*
X005470Y007179D01*
X005523Y007177D01*
X005576Y007171D01*
X005628Y007161D01*
X005679Y007148D01*
X005729Y007130D01*
X005778Y007109D01*
X005825Y007084D01*
X005869Y007056D01*
X005912Y007024D01*
X005952Y006990D01*
X005990Y006952D01*
X006024Y006912D01*
X006056Y006869D01*
X006084Y006824D01*
X006109Y006778D01*
X006130Y006729D01*
X006148Y006679D01*
X006161Y006628D01*
X006171Y006576D01*
X006177Y006523D01*
X006179Y006470D01*
X006177Y006417D01*
X006171Y006364D01*
X006161Y006312D01*
X006148Y006261D01*
X006130Y006211D01*
X006109Y006162D01*
X006084Y006115D01*
X006056Y006071D01*
X006024Y006028D01*
X005990Y005988D01*
X005952Y005950D01*
X005912Y005916D01*
X005869Y005884D01*
X005824Y005856D01*
X005778Y005831D01*
X005729Y005810D01*
X005679Y005792D01*
X005628Y005779D01*
X005576Y005769D01*
X005523Y005763D01*
X005470Y005761D01*
X005417Y005763D01*
X005364Y005769D01*
X005312Y005779D01*
X005261Y005792D01*
X005211Y005810D01*
X005162Y005831D01*
X005115Y005856D01*
X005071Y005884D01*
X005028Y005916D01*
X004988Y005950D01*
X004950Y005988D01*
X004916Y006028D01*
X004884Y006071D01*
X004856Y006116D01*
X004831Y006162D01*
X004810Y006211D01*
X004792Y006261D01*
X004779Y006312D01*
X004769Y006364D01*
X004763Y006417D01*
X004761Y006470D01*
X001927Y006470D02*
X001929Y006354D01*
X001935Y006238D01*
X001944Y006123D01*
X001957Y006008D01*
X001974Y005893D01*
X001995Y005779D01*
X002020Y005665D01*
X002048Y005553D01*
X002080Y005442D01*
X002115Y005331D01*
X002154Y005222D01*
X002197Y005114D01*
X002243Y005008D01*
X002292Y004903D01*
X002345Y004800D01*
X002402Y004698D01*
X002461Y004599D01*
X002524Y004502D01*
X002590Y004406D01*
X002659Y004313D01*
X002731Y004222D01*
X002806Y004134D01*
X002884Y004048D01*
X002965Y003965D01*
X003048Y003884D01*
X003134Y003806D01*
X003222Y003731D01*
X003313Y003659D01*
X003406Y003590D01*
X003502Y003524D01*
X003599Y003461D01*
X003699Y003402D01*
X003800Y003345D01*
X003903Y003292D01*
X004008Y003243D01*
X004114Y003197D01*
X004222Y003154D01*
X004331Y003115D01*
X004442Y003080D01*
X004553Y003048D01*
X004665Y003020D01*
X004779Y002995D01*
X004893Y002974D01*
X005008Y002957D01*
X005123Y002944D01*
X005238Y002935D01*
X005354Y002929D01*
X005470Y002927D01*
X009245Y004220D02*
X009247Y004257D01*
X009253Y004294D01*
X009263Y004330D01*
X009276Y004365D01*
X009293Y004398D01*
X009314Y004429D01*
X009338Y004457D01*
X009365Y004483D01*
X009394Y004506D01*
X009425Y004526D01*
X009459Y004542D01*
X009494Y004555D01*
X009530Y004564D01*
X009567Y004569D01*
X009604Y004570D01*
X009641Y004567D01*
X009678Y004560D01*
X009714Y004549D01*
X009748Y004535D01*
X009781Y004517D01*
X009811Y004495D01*
X009839Y004471D01*
X009864Y004443D01*
X009887Y004413D01*
X009906Y004381D01*
X009921Y004347D01*
X009933Y004312D01*
X009941Y004276D01*
X009945Y004239D01*
X009945Y004201D01*
X009941Y004164D01*
X009933Y004128D01*
X009921Y004093D01*
X009906Y004059D01*
X009887Y004027D01*
X009864Y003997D01*
X009839Y003969D01*
X009811Y003945D01*
X009781Y003923D01*
X009748Y003905D01*
X009714Y003891D01*
X009678Y003880D01*
X009641Y003873D01*
X009604Y003870D01*
X009567Y003871D01*
X009530Y003876D01*
X009494Y003885D01*
X009459Y003898D01*
X009425Y003914D01*
X009394Y003934D01*
X009365Y003957D01*
X009338Y003983D01*
X009314Y004011D01*
X009293Y004042D01*
X009276Y004075D01*
X009263Y004110D01*
X009253Y004146D01*
X009247Y004183D01*
X009245Y004220D01*
X015245Y004220D02*
X015247Y004257D01*
X015253Y004294D01*
X015263Y004330D01*
X015276Y004365D01*
X015293Y004398D01*
X015314Y004429D01*
X015338Y004457D01*
X015365Y004483D01*
X015394Y004506D01*
X015425Y004526D01*
X015459Y004542D01*
X015494Y004555D01*
X015530Y004564D01*
X015567Y004569D01*
X015604Y004570D01*
X015641Y004567D01*
X015678Y004560D01*
X015714Y004549D01*
X015748Y004535D01*
X015781Y004517D01*
X015811Y004495D01*
X015839Y004471D01*
X015864Y004443D01*
X015887Y004413D01*
X015906Y004381D01*
X015921Y004347D01*
X015933Y004312D01*
X015941Y004276D01*
X015945Y004239D01*
X015945Y004201D01*
X015941Y004164D01*
X015933Y004128D01*
X015921Y004093D01*
X015906Y004059D01*
X015887Y004027D01*
X015864Y003997D01*
X015839Y003969D01*
X015811Y003945D01*
X015781Y003923D01*
X015748Y003905D01*
X015714Y003891D01*
X015678Y003880D01*
X015641Y003873D01*
X015604Y003870D01*
X015567Y003871D01*
X015530Y003876D01*
X015494Y003885D01*
X015459Y003898D01*
X015425Y003914D01*
X015394Y003934D01*
X015365Y003957D01*
X015338Y003983D01*
X015314Y004011D01*
X015293Y004042D01*
X015276Y004075D01*
X015263Y004110D01*
X015253Y004146D01*
X015247Y004183D01*
X015245Y004220D01*
X015245Y020220D02*
X015247Y020257D01*
X015253Y020294D01*
X015263Y020330D01*
X015276Y020365D01*
X015293Y020398D01*
X015314Y020429D01*
X015338Y020457D01*
X015365Y020483D01*
X015394Y020506D01*
X015425Y020526D01*
X015459Y020542D01*
X015494Y020555D01*
X015530Y020564D01*
X015567Y020569D01*
X015604Y020570D01*
X015641Y020567D01*
X015678Y020560D01*
X015714Y020549D01*
X015748Y020535D01*
X015781Y020517D01*
X015811Y020495D01*
X015839Y020471D01*
X015864Y020443D01*
X015887Y020413D01*
X015906Y020381D01*
X015921Y020347D01*
X015933Y020312D01*
X015941Y020276D01*
X015945Y020239D01*
X015945Y020201D01*
X015941Y020164D01*
X015933Y020128D01*
X015921Y020093D01*
X015906Y020059D01*
X015887Y020027D01*
X015864Y019997D01*
X015839Y019969D01*
X015811Y019945D01*
X015781Y019923D01*
X015748Y019905D01*
X015714Y019891D01*
X015678Y019880D01*
X015641Y019873D01*
X015604Y019870D01*
X015567Y019871D01*
X015530Y019876D01*
X015494Y019885D01*
X015459Y019898D01*
X015425Y019914D01*
X015394Y019934D01*
X015365Y019957D01*
X015338Y019983D01*
X015314Y020011D01*
X015293Y020042D01*
X015276Y020075D01*
X015263Y020110D01*
X015253Y020146D01*
X015247Y020183D01*
X015245Y020220D01*
X009245Y020220D02*
X009247Y020257D01*
X009253Y020294D01*
X009263Y020330D01*
X009276Y020365D01*
X009293Y020398D01*
X009314Y020429D01*
X009338Y020457D01*
X009365Y020483D01*
X009394Y020506D01*
X009425Y020526D01*
X009459Y020542D01*
X009494Y020555D01*
X009530Y020564D01*
X009567Y020569D01*
X009604Y020570D01*
X009641Y020567D01*
X009678Y020560D01*
X009714Y020549D01*
X009748Y020535D01*
X009781Y020517D01*
X009811Y020495D01*
X009839Y020471D01*
X009864Y020443D01*
X009887Y020413D01*
X009906Y020381D01*
X009921Y020347D01*
X009933Y020312D01*
X009941Y020276D01*
X009945Y020239D01*
X009945Y020201D01*
X009941Y020164D01*
X009933Y020128D01*
X009921Y020093D01*
X009906Y020059D01*
X009887Y020027D01*
X009864Y019997D01*
X009839Y019969D01*
X009811Y019945D01*
X009781Y019923D01*
X009748Y019905D01*
X009714Y019891D01*
X009678Y019880D01*
X009641Y019873D01*
X009604Y019870D01*
X009567Y019871D01*
X009530Y019876D01*
X009494Y019885D01*
X009459Y019898D01*
X009425Y019914D01*
X009394Y019934D01*
X009365Y019957D01*
X009338Y019983D01*
X009314Y020011D01*
X009293Y020042D01*
X009276Y020075D01*
X009263Y020110D01*
X009253Y020146D01*
X009247Y020183D01*
X009245Y020220D01*
X004761Y036549D02*
X004763Y036602D01*
X004769Y036655D01*
X004779Y036707D01*
X004792Y036758D01*
X004810Y036808D01*
X004831Y036857D01*
X004856Y036904D01*
X004884Y036948D01*
X004916Y036991D01*
X004950Y037031D01*
X004988Y037069D01*
X005028Y037103D01*
X005071Y037135D01*
X005116Y037163D01*
X005162Y037188D01*
X005211Y037209D01*
X005261Y037227D01*
X005312Y037240D01*
X005364Y037250D01*
X005417Y037256D01*
X005470Y037258D01*
X005523Y037256D01*
X005576Y037250D01*
X005628Y037240D01*
X005679Y037227D01*
X005729Y037209D01*
X005778Y037188D01*
X005825Y037163D01*
X005869Y037135D01*
X005912Y037103D01*
X005952Y037069D01*
X005990Y037031D01*
X006024Y036991D01*
X006056Y036948D01*
X006084Y036903D01*
X006109Y036857D01*
X006130Y036808D01*
X006148Y036758D01*
X006161Y036707D01*
X006171Y036655D01*
X006177Y036602D01*
X006179Y036549D01*
X006177Y036496D01*
X006171Y036443D01*
X006161Y036391D01*
X006148Y036340D01*
X006130Y036290D01*
X006109Y036241D01*
X006084Y036194D01*
X006056Y036150D01*
X006024Y036107D01*
X005990Y036067D01*
X005952Y036029D01*
X005912Y035995D01*
X005869Y035963D01*
X005824Y035935D01*
X005778Y035910D01*
X005729Y035889D01*
X005679Y035871D01*
X005628Y035858D01*
X005576Y035848D01*
X005523Y035842D01*
X005470Y035840D01*
X005417Y035842D01*
X005364Y035848D01*
X005312Y035858D01*
X005261Y035871D01*
X005211Y035889D01*
X005162Y035910D01*
X005115Y035935D01*
X005071Y035963D01*
X005028Y035995D01*
X004988Y036029D01*
X004950Y036067D01*
X004916Y036107D01*
X004884Y036150D01*
X004856Y036195D01*
X004831Y036241D01*
X004810Y036290D01*
X004792Y036340D01*
X004779Y036391D01*
X004769Y036443D01*
X004763Y036496D01*
X004761Y036549D01*
X001927Y036785D02*
X001922Y036900D01*
X001921Y037014D01*
X001924Y037128D01*
X001931Y037243D01*
X001942Y037357D01*
X001957Y037470D01*
X001975Y037583D01*
X001998Y037695D01*
X002024Y037807D01*
X002054Y037917D01*
X002088Y038026D01*
X002125Y038135D01*
X002167Y038241D01*
X002211Y038347D01*
X002260Y038450D01*
X002312Y038552D01*
X002367Y038653D01*
X002426Y038751D01*
X002488Y038847D01*
X002553Y038941D01*
X002622Y039033D01*
X002693Y039122D01*
X002768Y039209D01*
X002845Y039293D01*
X002925Y039375D01*
X003009Y039453D01*
X003094Y039529D01*
X003182Y039602D01*
X003273Y039672D01*
X003366Y039739D01*
X003461Y039802D01*
X003559Y039862D01*
X003658Y039919D01*
X003759Y039973D01*
X003862Y040023D01*
X003967Y040069D01*
X004073Y040112D01*
X004181Y040151D01*
X004289Y040186D01*
X004399Y040218D01*
X004510Y040246D01*
X004622Y040270D01*
X004735Y040291D01*
X004848Y040307D01*
X004962Y040320D01*
X005076Y040328D01*
X017418Y036549D02*
X017420Y036602D01*
X017426Y036655D01*
X017436Y036707D01*
X017449Y036758D01*
X017467Y036808D01*
X017488Y036857D01*
X017513Y036904D01*
X017541Y036948D01*
X017573Y036991D01*
X017607Y037031D01*
X017645Y037069D01*
X017685Y037103D01*
X017728Y037135D01*
X017773Y037163D01*
X017819Y037188D01*
X017868Y037209D01*
X017918Y037227D01*
X017969Y037240D01*
X018021Y037250D01*
X018074Y037256D01*
X018127Y037258D01*
X018180Y037256D01*
X018233Y037250D01*
X018285Y037240D01*
X018336Y037227D01*
X018386Y037209D01*
X018435Y037188D01*
X018482Y037163D01*
X018526Y037135D01*
X018569Y037103D01*
X018609Y037069D01*
X018647Y037031D01*
X018681Y036991D01*
X018713Y036948D01*
X018741Y036903D01*
X018766Y036857D01*
X018787Y036808D01*
X018805Y036758D01*
X018818Y036707D01*
X018828Y036655D01*
X018834Y036602D01*
X018836Y036549D01*
X018834Y036496D01*
X018828Y036443D01*
X018818Y036391D01*
X018805Y036340D01*
X018787Y036290D01*
X018766Y036241D01*
X018741Y036194D01*
X018713Y036150D01*
X018681Y036107D01*
X018647Y036067D01*
X018609Y036029D01*
X018569Y035995D01*
X018526Y035963D01*
X018481Y035935D01*
X018435Y035910D01*
X018386Y035889D01*
X018336Y035871D01*
X018285Y035858D01*
X018233Y035848D01*
X018180Y035842D01*
X018127Y035840D01*
X018074Y035842D01*
X018021Y035848D01*
X017969Y035858D01*
X017918Y035871D01*
X017868Y035889D01*
X017819Y035910D01*
X017772Y035935D01*
X017728Y035963D01*
X017685Y035995D01*
X017645Y036029D01*
X017607Y036067D01*
X017573Y036107D01*
X017541Y036150D01*
X017513Y036195D01*
X017488Y036241D01*
X017467Y036290D01*
X017449Y036340D01*
X017436Y036391D01*
X017426Y036443D01*
X017420Y036496D01*
X017418Y036549D01*
D11*
X008781Y026222D03*
X008781Y025722D03*
X008781Y025222D03*
X008781Y024722D03*
X006721Y024722D03*
X006721Y025222D03*
X006721Y025722D03*
X006721Y026222D03*
D12*
X006055Y027470D03*
X005385Y027470D03*
X007512Y027439D03*
X007512Y028564D03*
X008182Y028564D03*
X008182Y027439D03*
X009633Y027376D03*
X010303Y027376D03*
X015168Y026885D03*
X015837Y026885D03*
D13*
X012220Y025805D03*
X012220Y025135D03*
X012220Y024180D03*
X012220Y023510D03*
X011968Y032417D03*
X011968Y033086D03*
X012220Y036635D03*
X012220Y037305D03*
X008531Y033398D03*
X008531Y032729D03*
X005251Y025932D03*
X005251Y025262D03*
X017436Y015555D03*
X017436Y014885D03*
D14*
X013202Y024189D03*
X013202Y024937D03*
X014068Y024563D03*
D15*
X015127Y023605D03*
X015627Y023605D03*
X016127Y023605D03*
X016627Y023605D03*
X016627Y025665D03*
X016127Y025665D03*
X015627Y025665D03*
X015127Y025665D03*
D16*
X020500Y014061D03*
X020500Y013470D03*
X020500Y012879D03*
D17*
X019287Y013470D03*
D18*
X019169Y010470D03*
X020271Y010470D03*
X010269Y029001D03*
X009167Y029001D03*
X008023Y023064D03*
X006921Y023064D03*
D19*
X019129Y015220D03*
X020311Y015220D03*
X020311Y011720D03*
X019129Y011720D03*
D20*
X005845Y021169D03*
X005845Y022271D03*
X003722Y025887D03*
X003722Y026990D03*
X008988Y036309D03*
X008988Y037411D03*
X005345Y017646D03*
X005345Y016544D03*
D21*
X009972Y035915D03*
X010472Y035915D03*
X010972Y035915D03*
X011472Y035915D03*
X011472Y037962D03*
X010972Y037962D03*
X010472Y037962D03*
X009972Y037962D03*
D22*
X009736Y031770D03*
X010736Y031770D03*
D23*
X010236Y033778D03*
D24*
X014780Y031698D03*
X014780Y031098D03*
X014780Y030498D03*
M02*
