%
M48
M72
T01C0.0400
T02C0.0630
T03C0.1180
T04C0.1260
%
T01
X14783Y13675
X14883Y14675
X14783Y15675
X14883Y16675
X14783Y17675
X14883Y18675
X14783Y19675
X14883Y20675
X16083Y17550
X17083Y17550
X18083Y17550
X19083Y17550
X20083Y17550
X21083Y17550
X22083Y17550
X23083Y17550
X24083Y17550
X25083Y17550
X26083Y17550
X27083Y17550
X27208Y19375
X26208Y19475
X25208Y19375
X24208Y19475
X19083Y18800
X16083Y14550
X16083Y13550
X16083Y12550
X16083Y11550
X17083Y11550
X18083Y11550
X19083Y11550
X20083Y11550
X21083Y11550
X22083Y11550
X23083Y11550
X24083Y11550
X25083Y11550
X26083Y11550
X27083Y11550
X23583Y12550
X22583Y12550
X22633Y4050
X21533Y4050
T02
X9708Y5925
X11598Y4035
X14157Y4232
X12503Y6831
X12897Y7894
T03
X24689Y4550
X25870Y6400
X27051Y4550
T04
X21458Y8675
X21458Y20175
M30
