G75*
%MOIN*%
%OFA0B0*%
%FSLAX24Y24*%
%IPPOS*%
%LPD*%
%AMOC8*
5,1,8,0,0,1.08239X$1,22.5*
%
%ADD10C,0.0010*%
%ADD11C,0.0640*%
%ADD12R,0.0740X0.0740*%
%ADD13C,0.0740*%
%ADD14C,0.1700*%
%ADD15C,0.0600*%
%ADD16C,0.1000*%
%ADD17C,0.0120*%
D10*
X009708Y005925D02*
X009708Y006325D01*
X009708Y005925D02*
X009308Y005525D01*
X010108Y005525D01*
X009708Y005925D01*
X011598Y004435D02*
X011598Y004035D01*
X011198Y003635D01*
X011998Y003635D01*
X011598Y004035D01*
X014157Y004232D02*
X014157Y004632D01*
X014157Y004232D02*
X013757Y003832D01*
X014557Y003832D01*
X014157Y004232D01*
X012503Y006831D02*
X012503Y007231D01*
X012503Y006831D02*
X012103Y006431D01*
X012903Y006431D01*
X012503Y006831D01*
X012897Y007894D02*
X012897Y008294D01*
X012897Y007894D02*
X012497Y007494D01*
X013297Y007494D01*
X012897Y007894D01*
X015683Y011150D02*
X016483Y011950D01*
X016483Y011150D01*
X015683Y011950D01*
X015683Y011150D01*
X016683Y011150D02*
X017483Y011950D01*
X017483Y011150D01*
X016683Y011950D01*
X016683Y011150D01*
X017683Y011150D02*
X018483Y011950D01*
X018483Y011150D01*
X017683Y011950D01*
X017683Y011150D01*
X018683Y011150D02*
X019483Y011950D01*
X019483Y011150D01*
X018683Y011950D01*
X018683Y011150D01*
X019683Y011150D02*
X020483Y011950D01*
X020483Y011150D01*
X019683Y011950D01*
X019683Y011150D01*
X020683Y011150D02*
X021483Y011950D01*
X021483Y011150D01*
X020683Y011950D01*
X020683Y011150D01*
X021683Y011150D02*
X022483Y011950D01*
X022483Y011150D01*
X021683Y011950D01*
X021683Y011150D01*
X022683Y011150D02*
X023483Y011950D01*
X023483Y011150D01*
X022683Y011950D01*
X022683Y011150D01*
X023683Y011150D02*
X024483Y011950D01*
X024483Y011150D01*
X023683Y011950D01*
X023683Y011150D01*
X024683Y011150D02*
X025483Y011950D01*
X025483Y011150D01*
X024683Y011950D01*
X024683Y011150D01*
X025683Y011150D02*
X026483Y011950D01*
X026483Y011150D01*
X025683Y011950D01*
X025683Y011150D01*
X026683Y011150D02*
X027483Y011950D01*
X027483Y011150D01*
X026683Y011950D01*
X026683Y011150D01*
X023983Y012950D02*
X023183Y012150D01*
X023983Y012150D02*
X023983Y012950D01*
X023983Y012150D02*
X023183Y012950D01*
X023183Y012150D01*
X022983Y012950D02*
X022183Y012150D01*
X022983Y012150D02*
X022983Y012950D01*
X022983Y012150D02*
X022183Y012950D01*
X022183Y012150D01*
X021858Y008675D02*
X021058Y008675D01*
X021458Y008275D02*
X021458Y009075D01*
X021068Y008675D02*
X021070Y008714D01*
X021076Y008752D01*
X021085Y008790D01*
X021099Y008826D01*
X021115Y008862D01*
X021136Y008895D01*
X021159Y008926D01*
X021186Y008954D01*
X021215Y008980D01*
X021246Y009003D01*
X021280Y009022D01*
X021316Y009038D01*
X021352Y009050D01*
X021390Y009059D01*
X021429Y009064D01*
X021468Y009065D01*
X021506Y009062D01*
X021545Y009055D01*
X021582Y009045D01*
X021618Y009030D01*
X021653Y009013D01*
X021686Y008992D01*
X021716Y008967D01*
X021744Y008940D01*
X021769Y008910D01*
X021791Y008878D01*
X021809Y008844D01*
X021824Y008808D01*
X021836Y008771D01*
X021844Y008733D01*
X021848Y008694D01*
X021848Y008656D01*
X021844Y008617D01*
X021836Y008579D01*
X021824Y008542D01*
X021809Y008506D01*
X021791Y008472D01*
X021769Y008440D01*
X021744Y008410D01*
X021716Y008383D01*
X021686Y008358D01*
X021653Y008337D01*
X021618Y008320D01*
X021582Y008305D01*
X021545Y008295D01*
X021506Y008288D01*
X021468Y008285D01*
X021429Y008286D01*
X021390Y008291D01*
X021352Y008300D01*
X021316Y008312D01*
X021280Y008328D01*
X021246Y008347D01*
X021215Y008370D01*
X021186Y008396D01*
X021159Y008424D01*
X021136Y008455D01*
X021115Y008488D01*
X021099Y008524D01*
X021085Y008560D01*
X021076Y008598D01*
X021070Y008636D01*
X021068Y008675D01*
X021263Y008675D02*
X021265Y008703D01*
X021271Y008730D01*
X021281Y008756D01*
X021294Y008780D01*
X021311Y008803D01*
X021330Y008822D01*
X021353Y008839D01*
X021377Y008852D01*
X021403Y008862D01*
X021430Y008868D01*
X021458Y008870D01*
X021486Y008868D01*
X021513Y008862D01*
X021539Y008852D01*
X021563Y008839D01*
X021586Y008822D01*
X021605Y008803D01*
X021622Y008780D01*
X021635Y008756D01*
X021645Y008730D01*
X021651Y008703D01*
X021653Y008675D01*
X021651Y008647D01*
X021645Y008620D01*
X021635Y008594D01*
X021622Y008570D01*
X021605Y008547D01*
X021586Y008528D01*
X021563Y008511D01*
X021539Y008498D01*
X021513Y008488D01*
X021486Y008482D01*
X021458Y008480D01*
X021430Y008482D01*
X021403Y008488D01*
X021377Y008498D01*
X021353Y008511D01*
X021330Y008528D01*
X021311Y008547D01*
X021294Y008570D01*
X021281Y008594D01*
X021271Y008620D01*
X021265Y008647D01*
X021263Y008675D01*
X024299Y004550D02*
X024301Y004589D01*
X024307Y004627D01*
X024316Y004665D01*
X024330Y004701D01*
X024346Y004737D01*
X024367Y004770D01*
X024390Y004801D01*
X024417Y004829D01*
X024446Y004855D01*
X024477Y004878D01*
X024511Y004897D01*
X024547Y004913D01*
X024583Y004925D01*
X024621Y004934D01*
X024660Y004939D01*
X024699Y004940D01*
X024737Y004937D01*
X024776Y004930D01*
X024813Y004920D01*
X024849Y004905D01*
X024884Y004888D01*
X024917Y004867D01*
X024947Y004842D01*
X024975Y004815D01*
X025000Y004785D01*
X025022Y004753D01*
X025040Y004719D01*
X025055Y004683D01*
X025067Y004646D01*
X025075Y004608D01*
X025079Y004569D01*
X025079Y004531D01*
X025075Y004492D01*
X025067Y004454D01*
X025055Y004417D01*
X025040Y004381D01*
X025022Y004347D01*
X025000Y004315D01*
X024975Y004285D01*
X024947Y004258D01*
X024917Y004233D01*
X024884Y004212D01*
X024849Y004195D01*
X024813Y004180D01*
X024776Y004170D01*
X024737Y004163D01*
X024699Y004160D01*
X024660Y004161D01*
X024621Y004166D01*
X024583Y004175D01*
X024547Y004187D01*
X024511Y004203D01*
X024477Y004222D01*
X024446Y004245D01*
X024417Y004271D01*
X024390Y004299D01*
X024367Y004330D01*
X024346Y004363D01*
X024330Y004399D01*
X024316Y004435D01*
X024307Y004473D01*
X024301Y004511D01*
X024299Y004550D01*
X024289Y004150D02*
X025089Y004950D01*
X025480Y006400D02*
X025482Y006439D01*
X025488Y006477D01*
X025497Y006515D01*
X025511Y006551D01*
X025527Y006587D01*
X025548Y006620D01*
X025571Y006651D01*
X025598Y006679D01*
X025627Y006705D01*
X025658Y006728D01*
X025692Y006747D01*
X025728Y006763D01*
X025764Y006775D01*
X025802Y006784D01*
X025841Y006789D01*
X025880Y006790D01*
X025918Y006787D01*
X025957Y006780D01*
X025994Y006770D01*
X026030Y006755D01*
X026065Y006738D01*
X026098Y006717D01*
X026128Y006692D01*
X026156Y006665D01*
X026181Y006635D01*
X026203Y006603D01*
X026221Y006569D01*
X026236Y006533D01*
X026248Y006496D01*
X026256Y006458D01*
X026260Y006419D01*
X026260Y006381D01*
X026256Y006342D01*
X026248Y006304D01*
X026236Y006267D01*
X026221Y006231D01*
X026203Y006197D01*
X026181Y006165D01*
X026156Y006135D01*
X026128Y006108D01*
X026098Y006083D01*
X026065Y006062D01*
X026030Y006045D01*
X025994Y006030D01*
X025957Y006020D01*
X025918Y006013D01*
X025880Y006010D01*
X025841Y006011D01*
X025802Y006016D01*
X025764Y006025D01*
X025728Y006037D01*
X025692Y006053D01*
X025658Y006072D01*
X025627Y006095D01*
X025598Y006121D01*
X025571Y006149D01*
X025548Y006180D01*
X025527Y006213D01*
X025511Y006249D01*
X025497Y006285D01*
X025488Y006323D01*
X025482Y006361D01*
X025480Y006400D01*
X025470Y006000D02*
X026270Y006800D01*
X026661Y004550D02*
X026663Y004589D01*
X026669Y004627D01*
X026678Y004665D01*
X026692Y004701D01*
X026708Y004737D01*
X026729Y004770D01*
X026752Y004801D01*
X026779Y004829D01*
X026808Y004855D01*
X026839Y004878D01*
X026873Y004897D01*
X026909Y004913D01*
X026945Y004925D01*
X026983Y004934D01*
X027022Y004939D01*
X027061Y004940D01*
X027099Y004937D01*
X027138Y004930D01*
X027175Y004920D01*
X027211Y004905D01*
X027246Y004888D01*
X027279Y004867D01*
X027309Y004842D01*
X027337Y004815D01*
X027362Y004785D01*
X027384Y004753D01*
X027402Y004719D01*
X027417Y004683D01*
X027429Y004646D01*
X027437Y004608D01*
X027441Y004569D01*
X027441Y004531D01*
X027437Y004492D01*
X027429Y004454D01*
X027417Y004417D01*
X027402Y004381D01*
X027384Y004347D01*
X027362Y004315D01*
X027337Y004285D01*
X027309Y004258D01*
X027279Y004233D01*
X027246Y004212D01*
X027211Y004195D01*
X027175Y004180D01*
X027138Y004170D01*
X027099Y004163D01*
X027061Y004160D01*
X027022Y004161D01*
X026983Y004166D01*
X026945Y004175D01*
X026909Y004187D01*
X026873Y004203D01*
X026839Y004222D01*
X026808Y004245D01*
X026779Y004271D01*
X026752Y004299D01*
X026729Y004330D01*
X026708Y004363D01*
X026692Y004399D01*
X026678Y004435D01*
X026669Y004473D01*
X026663Y004511D01*
X026661Y004550D01*
X026651Y004150D02*
X027451Y004950D01*
X023033Y004450D02*
X022233Y003650D01*
X023033Y003650D02*
X023033Y004450D01*
X023033Y003650D02*
X022233Y004450D01*
X022233Y003650D01*
X021933Y004450D02*
X021133Y003650D01*
X021933Y003650D02*
X021933Y004450D01*
X021933Y003650D02*
X021133Y004450D01*
X021133Y003650D01*
X015683Y012150D02*
X016483Y012950D01*
X016483Y012150D01*
X015683Y012950D01*
X015683Y012150D01*
X015683Y013150D02*
X016483Y013950D01*
X016483Y013150D01*
X015683Y013950D01*
X015683Y013150D01*
X015183Y014075D02*
X014383Y013275D01*
X015183Y013275D02*
X015183Y014075D01*
X015183Y013275D02*
X014383Y014075D01*
X014383Y013275D01*
X014483Y014275D02*
X015283Y015075D01*
X015283Y014275D01*
X014483Y015075D01*
X014483Y014275D01*
X014383Y015275D02*
X015183Y016075D01*
X015183Y015275D01*
X014383Y016075D01*
X014383Y015275D01*
X014483Y016275D02*
X015283Y017075D01*
X015283Y016275D01*
X014483Y017075D01*
X014483Y016275D01*
X014383Y017275D02*
X015183Y018075D01*
X015183Y017275D01*
X014383Y018075D01*
X014383Y017275D01*
X014483Y018275D02*
X015283Y019075D01*
X015283Y018275D01*
X014483Y019075D01*
X014483Y018275D01*
X014383Y019275D02*
X015183Y020075D01*
X015183Y019275D01*
X014383Y020075D01*
X014383Y019275D01*
X014483Y020275D02*
X015283Y021075D01*
X015283Y020275D01*
X014483Y021075D01*
X014483Y020275D01*
X016483Y017950D02*
X015683Y017150D01*
X016483Y017150D02*
X016483Y017950D01*
X016483Y017150D02*
X015683Y017950D01*
X015683Y017150D01*
X016683Y017150D02*
X017483Y017950D01*
X017483Y017150D01*
X016683Y017950D01*
X016683Y017150D01*
X017683Y017150D02*
X018483Y017950D01*
X018483Y017150D01*
X017683Y017950D01*
X017683Y017150D01*
X018683Y017150D02*
X019483Y017950D01*
X019483Y017150D01*
X018683Y017950D01*
X018683Y017150D01*
X019683Y017150D02*
X020483Y017950D01*
X020483Y017150D01*
X019683Y017950D01*
X019683Y017150D01*
X020683Y017150D02*
X021483Y017950D01*
X021483Y017150D01*
X020683Y017950D01*
X020683Y017150D01*
X021683Y017150D02*
X022483Y017950D01*
X022483Y017150D01*
X021683Y017950D01*
X021683Y017150D01*
X022683Y017150D02*
X023483Y017950D01*
X023483Y017150D01*
X022683Y017950D01*
X022683Y017150D01*
X023683Y017150D02*
X024483Y017950D01*
X024483Y017150D01*
X023683Y017950D01*
X023683Y017150D01*
X024683Y017150D02*
X025483Y017950D01*
X025483Y017150D01*
X024683Y017950D01*
X024683Y017150D01*
X025683Y017150D02*
X026483Y017950D01*
X026483Y017150D01*
X025683Y017950D01*
X025683Y017150D01*
X026683Y017150D02*
X027483Y017950D01*
X027483Y017150D01*
X026683Y017950D01*
X026683Y017150D01*
X026808Y018975D02*
X027608Y019775D01*
X027608Y018975D01*
X026808Y019775D01*
X026808Y018975D01*
X026608Y019875D02*
X025808Y019075D01*
X026608Y019075D02*
X026608Y019875D01*
X026608Y019075D02*
X025808Y019875D01*
X025808Y019075D01*
X025608Y019775D02*
X024808Y018975D01*
X025608Y018975D02*
X025608Y019775D01*
X025608Y018975D02*
X024808Y019775D01*
X024808Y018975D01*
X024608Y019875D02*
X023808Y019075D01*
X024608Y019075D02*
X024608Y019875D01*
X024608Y019075D02*
X023808Y019875D01*
X023808Y019075D01*
X021858Y020175D02*
X021058Y020175D01*
X021458Y019775D02*
X021458Y020575D01*
X021068Y020175D02*
X021070Y020214D01*
X021076Y020252D01*
X021085Y020290D01*
X021099Y020326D01*
X021115Y020362D01*
X021136Y020395D01*
X021159Y020426D01*
X021186Y020454D01*
X021215Y020480D01*
X021246Y020503D01*
X021280Y020522D01*
X021316Y020538D01*
X021352Y020550D01*
X021390Y020559D01*
X021429Y020564D01*
X021468Y020565D01*
X021506Y020562D01*
X021545Y020555D01*
X021582Y020545D01*
X021618Y020530D01*
X021653Y020513D01*
X021686Y020492D01*
X021716Y020467D01*
X021744Y020440D01*
X021769Y020410D01*
X021791Y020378D01*
X021809Y020344D01*
X021824Y020308D01*
X021836Y020271D01*
X021844Y020233D01*
X021848Y020194D01*
X021848Y020156D01*
X021844Y020117D01*
X021836Y020079D01*
X021824Y020042D01*
X021809Y020006D01*
X021791Y019972D01*
X021769Y019940D01*
X021744Y019910D01*
X021716Y019883D01*
X021686Y019858D01*
X021653Y019837D01*
X021618Y019820D01*
X021582Y019805D01*
X021545Y019795D01*
X021506Y019788D01*
X021468Y019785D01*
X021429Y019786D01*
X021390Y019791D01*
X021352Y019800D01*
X021316Y019812D01*
X021280Y019828D01*
X021246Y019847D01*
X021215Y019870D01*
X021186Y019896D01*
X021159Y019924D01*
X021136Y019955D01*
X021115Y019988D01*
X021099Y020024D01*
X021085Y020060D01*
X021076Y020098D01*
X021070Y020136D01*
X021068Y020175D01*
X021263Y020175D02*
X021265Y020203D01*
X021271Y020230D01*
X021281Y020256D01*
X021294Y020280D01*
X021311Y020303D01*
X021330Y020322D01*
X021353Y020339D01*
X021377Y020352D01*
X021403Y020362D01*
X021430Y020368D01*
X021458Y020370D01*
X021486Y020368D01*
X021513Y020362D01*
X021539Y020352D01*
X021563Y020339D01*
X021586Y020322D01*
X021605Y020303D01*
X021622Y020280D01*
X021635Y020256D01*
X021645Y020230D01*
X021651Y020203D01*
X021653Y020175D01*
X021651Y020147D01*
X021645Y020120D01*
X021635Y020094D01*
X021622Y020070D01*
X021605Y020047D01*
X021586Y020028D01*
X021563Y020011D01*
X021539Y019998D01*
X021513Y019988D01*
X021486Y019982D01*
X021458Y019980D01*
X021430Y019982D01*
X021403Y019988D01*
X021377Y019998D01*
X021353Y020011D01*
X021330Y020028D01*
X021311Y020047D01*
X021294Y020070D01*
X021281Y020094D01*
X021271Y020120D01*
X021265Y020147D01*
X021263Y020175D01*
X019483Y019200D02*
X018683Y018400D01*
X019483Y018400D02*
X019483Y019200D01*
X019483Y018400D02*
X018683Y019200D01*
X018683Y018400D01*
X016483Y014950D02*
X015683Y014150D01*
X016483Y014150D02*
X016483Y014950D01*
X016483Y014150D02*
X015683Y014950D01*
X015683Y014150D01*
D11*
X016083Y014550D03*
X016083Y013550D03*
X016083Y012550D03*
X016083Y011550D03*
X017083Y011550D03*
X018083Y011550D03*
X019083Y011550D03*
X020083Y011550D03*
X021083Y011550D03*
X022083Y011550D03*
X023083Y011550D03*
X024083Y011550D03*
X025083Y011550D03*
X026083Y011550D03*
X027083Y011550D03*
X023583Y012550D03*
X022583Y012550D03*
X023083Y017550D03*
X024083Y017550D03*
X025083Y017550D03*
X026083Y017550D03*
X027083Y017550D03*
X022083Y017550D03*
X021083Y017550D03*
X020083Y017550D03*
X019083Y017550D03*
X018083Y017550D03*
X017083Y017550D03*
X016083Y017550D03*
D12*
X014883Y020675D03*
X027208Y019375D03*
D13*
X026208Y019475D03*
X025208Y019375D03*
X024208Y019475D03*
X019083Y018800D03*
X014883Y018675D03*
X014783Y019675D03*
X014783Y017675D03*
X014883Y016675D03*
X014783Y015675D03*
X014883Y014675D03*
X014783Y013675D03*
D14*
X024689Y004550D03*
X025870Y006400D03*
X027051Y004550D03*
D15*
X022633Y004350D02*
X022633Y003750D01*
X021533Y003750D02*
X021533Y004350D01*
D16*
X014157Y004232D03*
X011598Y004035D03*
X009708Y005925D03*
X012503Y006831D03*
X012897Y007894D03*
D17*
X009062Y003290D02*
X009136Y003062D01*
X009277Y002869D01*
X009470Y002728D01*
X009698Y002654D01*
X009817Y002645D01*
X027099Y002645D01*
X027218Y002654D01*
X027446Y002728D01*
X027639Y002869D01*
X027780Y003062D01*
X027854Y003290D01*
X027863Y003409D01*
X027863Y003948D01*
X027806Y003876D01*
X027726Y003796D01*
X027637Y003725D01*
X027541Y003665D01*
X027439Y003615D01*
X027331Y003578D01*
X027221Y003553D01*
X027111Y003540D01*
X027111Y004490D01*
X026991Y004490D01*
X026042Y004490D01*
X026054Y004381D01*
X026079Y004270D01*
X026117Y004163D01*
X026166Y004061D01*
X026226Y003965D01*
X026226Y003966D02*
X025587Y003966D01*
X025545Y003893D02*
X025686Y004137D01*
X025759Y004409D01*
X025759Y004691D01*
X025686Y004963D01*
X025545Y005207D01*
X025346Y005406D01*
X025102Y005547D01*
X024830Y005620D01*
X024548Y005620D01*
X024276Y005547D01*
X024032Y005406D01*
X023833Y005207D01*
X023692Y004963D01*
X023619Y004691D01*
X023619Y004409D01*
X023692Y004137D01*
X023833Y003893D01*
X024032Y003694D01*
X024276Y003553D01*
X024548Y003480D01*
X024830Y003480D01*
X025102Y003553D01*
X025346Y003694D01*
X025545Y003893D01*
X025499Y003847D02*
X026326Y003847D01*
X026297Y003876D02*
X026377Y003796D01*
X026466Y003725D01*
X026562Y003665D01*
X026664Y003615D01*
X026771Y003578D01*
X026882Y003553D01*
X026991Y003540D01*
X026991Y004490D01*
X026991Y004610D01*
X026042Y004610D01*
X026054Y004719D01*
X026079Y004830D01*
X026117Y004937D01*
X026166Y005039D01*
X026226Y005135D01*
X026297Y005224D01*
X026377Y005304D01*
X026466Y005375D01*
X026562Y005435D01*
X026664Y005485D01*
X026771Y005522D01*
X026882Y005547D01*
X026991Y005560D01*
X026991Y004610D01*
X027111Y004610D01*
X027111Y005560D01*
X027221Y005547D01*
X027331Y005522D01*
X027439Y005485D01*
X027541Y005435D01*
X027637Y005375D01*
X027726Y005304D01*
X027806Y005224D01*
X027863Y005152D01*
X027863Y021066D01*
X027854Y021185D01*
X027780Y021413D01*
X027639Y021606D01*
X027446Y021747D01*
X027218Y021821D01*
X027099Y021830D01*
X009817Y021830D01*
X009698Y021821D01*
X009470Y021747D01*
X009277Y021606D01*
X009136Y021413D01*
X009062Y021185D01*
X009053Y021066D01*
X009053Y006006D01*
X009059Y006054D01*
X009082Y006138D01*
X009115Y006218D01*
X009158Y006292D01*
X009211Y006361D01*
X009272Y006422D01*
X009340Y006475D01*
X009415Y006518D01*
X009495Y006551D01*
X009579Y006574D01*
X009648Y006583D01*
X009648Y005985D01*
X009768Y005985D01*
X010366Y005985D01*
X010357Y006054D01*
X010334Y006138D01*
X010301Y006218D01*
X010258Y006292D01*
X010205Y006361D01*
X010144Y006422D01*
X010075Y006475D01*
X010000Y006518D01*
X009921Y006551D01*
X009837Y006574D01*
X009768Y006583D01*
X009768Y005985D01*
X009768Y005865D01*
X010366Y005865D01*
X010357Y005796D01*
X010334Y005712D01*
X010301Y005632D01*
X010258Y005558D01*
X010205Y005489D01*
X010144Y005428D01*
X010075Y005375D01*
X010000Y005332D01*
X009921Y005299D01*
X009837Y005276D01*
X009768Y005267D01*
X009768Y005865D01*
X009648Y005865D01*
X009648Y005267D01*
X009579Y005276D01*
X009495Y005299D01*
X009415Y005332D01*
X009340Y005375D01*
X009272Y005428D01*
X009211Y005489D01*
X009158Y005558D01*
X009115Y005632D01*
X009082Y005712D01*
X009059Y005796D01*
X009053Y005844D01*
X009053Y003409D01*
X009062Y003290D01*
X009074Y003255D02*
X021370Y003255D01*
X021430Y003230D02*
X021238Y003309D01*
X021092Y003455D01*
X021013Y003647D01*
X021013Y004453D01*
X021092Y004645D01*
X021238Y004791D01*
X021430Y004870D01*
X021636Y004870D01*
X021827Y004791D01*
X021974Y004645D01*
X022053Y004453D01*
X022053Y003647D01*
X021974Y003455D01*
X021827Y003309D01*
X021636Y003230D01*
X021430Y003230D01*
X021696Y003255D02*
X022470Y003255D01*
X022530Y003230D02*
X022736Y003230D01*
X022927Y003309D01*
X023074Y003455D01*
X023153Y003647D01*
X023153Y004453D01*
X023074Y004645D01*
X022927Y004791D01*
X022736Y004870D01*
X022530Y004870D01*
X022338Y004791D01*
X022192Y004645D01*
X022113Y004453D01*
X022113Y003647D01*
X022192Y003455D01*
X022338Y003309D01*
X022530Y003230D01*
X022796Y003255D02*
X027842Y003255D01*
X027860Y003373D02*
X022991Y003373D01*
X023089Y003492D02*
X024505Y003492D01*
X024177Y003610D02*
X023138Y003610D01*
X023153Y003729D02*
X023998Y003729D01*
X023879Y003847D02*
X023153Y003847D01*
X023153Y003966D02*
X023791Y003966D01*
X023723Y004084D02*
X023153Y004084D01*
X023153Y004203D02*
X023675Y004203D01*
X023643Y004321D02*
X023153Y004321D01*
X023153Y004440D02*
X023619Y004440D01*
X023619Y004558D02*
X023110Y004558D01*
X023042Y004677D02*
X023619Y004677D01*
X023647Y004795D02*
X022917Y004795D01*
X022348Y004795D02*
X021817Y004795D01*
X021942Y004677D02*
X022224Y004677D01*
X022156Y004558D02*
X022010Y004558D01*
X022053Y004440D02*
X022113Y004440D01*
X022113Y004321D02*
X022053Y004321D01*
X022053Y004203D02*
X022113Y004203D01*
X022113Y004084D02*
X022053Y004084D01*
X022053Y003966D02*
X022113Y003966D01*
X022113Y003847D02*
X022053Y003847D01*
X022053Y003729D02*
X022113Y003729D01*
X022128Y003610D02*
X022038Y003610D01*
X021989Y003492D02*
X022177Y003492D01*
X022275Y003373D02*
X021891Y003373D01*
X021175Y003373D02*
X011880Y003373D01*
X012006Y003425D02*
X012208Y003627D01*
X012318Y003892D01*
X012318Y004178D01*
X012208Y004443D01*
X012006Y004646D01*
X011741Y004755D01*
X011454Y004755D01*
X011190Y004646D01*
X010987Y004443D01*
X010878Y004178D01*
X010878Y003892D01*
X010987Y003627D01*
X011190Y003425D01*
X011454Y003315D01*
X011741Y003315D01*
X012006Y003425D01*
X012072Y003492D02*
X021077Y003492D01*
X021028Y003610D02*
X014536Y003610D01*
X014565Y003622D02*
X014767Y003824D01*
X014877Y004089D01*
X014877Y004375D01*
X014767Y004640D01*
X014565Y004842D01*
X014300Y004952D01*
X014014Y004952D01*
X013749Y004842D01*
X013546Y004640D01*
X013437Y004375D01*
X013437Y004089D01*
X013546Y003824D01*
X013749Y003622D01*
X014014Y003512D01*
X014300Y003512D01*
X014565Y003622D01*
X014671Y003729D02*
X021013Y003729D01*
X021013Y003847D02*
X014777Y003847D01*
X014826Y003966D02*
X021013Y003966D01*
X021013Y004084D02*
X014875Y004084D01*
X014877Y004203D02*
X021013Y004203D01*
X021013Y004321D02*
X014877Y004321D01*
X014850Y004440D02*
X021013Y004440D01*
X021056Y004558D02*
X014801Y004558D01*
X014731Y004677D02*
X021124Y004677D01*
X021248Y004795D02*
X014612Y004795D01*
X014393Y004914D02*
X023679Y004914D01*
X023732Y005032D02*
X009053Y005032D01*
X009053Y004914D02*
X013920Y004914D01*
X013701Y004795D02*
X009053Y004795D01*
X009053Y004677D02*
X011264Y004677D01*
X011102Y004558D02*
X009053Y004558D01*
X009053Y004440D02*
X010986Y004440D01*
X010937Y004321D02*
X009053Y004321D01*
X009053Y004203D02*
X010888Y004203D01*
X010878Y004084D02*
X009053Y004084D01*
X009053Y003966D02*
X010878Y003966D01*
X010896Y003847D02*
X009053Y003847D01*
X009053Y003729D02*
X010945Y003729D01*
X011005Y003610D02*
X009053Y003610D01*
X009053Y003492D02*
X011123Y003492D01*
X011315Y003373D02*
X009056Y003373D01*
X009112Y003136D02*
X027804Y003136D01*
X027747Y003018D02*
X009169Y003018D01*
X009255Y002899D02*
X027661Y002899D01*
X027518Y002781D02*
X009398Y002781D01*
X009674Y002662D02*
X027242Y002662D01*
X027111Y003610D02*
X026991Y003610D01*
X026991Y003729D02*
X027111Y003729D01*
X027111Y003847D02*
X026991Y003847D01*
X026991Y003966D02*
X027111Y003966D01*
X027111Y004084D02*
X026991Y004084D01*
X026991Y004203D02*
X027111Y004203D01*
X027111Y004321D02*
X026991Y004321D01*
X026991Y004440D02*
X027111Y004440D01*
X026991Y004558D02*
X025759Y004558D01*
X025759Y004440D02*
X026048Y004440D01*
X026068Y004321D02*
X025736Y004321D01*
X025704Y004203D02*
X026103Y004203D01*
X026155Y004084D02*
X025656Y004084D01*
X025381Y003729D02*
X026462Y003729D01*
X026297Y003876D02*
X026226Y003965D01*
X026680Y003610D02*
X025201Y003610D01*
X024873Y003492D02*
X027863Y003492D01*
X027863Y003610D02*
X027423Y003610D01*
X027641Y003729D02*
X027863Y003729D01*
X027863Y003847D02*
X027777Y003847D01*
X027111Y004677D02*
X026991Y004677D01*
X026991Y004795D02*
X027111Y004795D01*
X027111Y004914D02*
X026991Y004914D01*
X026991Y005032D02*
X027111Y005032D01*
X027111Y005151D02*
X026991Y005151D01*
X026991Y005269D02*
X027111Y005269D01*
X027111Y005388D02*
X026991Y005388D01*
X026991Y005506D02*
X027111Y005506D01*
X027377Y005506D02*
X027863Y005506D01*
X027863Y005388D02*
X027617Y005388D01*
X027761Y005269D02*
X027863Y005269D01*
X027863Y005625D02*
X026517Y005625D01*
X026544Y005646D02*
X026625Y005726D01*
X026695Y005815D01*
X026756Y005911D01*
X026805Y006013D01*
X026842Y006120D01*
X026868Y006231D01*
X026880Y006340D01*
X025930Y006340D01*
X025930Y005391D01*
X026040Y005403D01*
X026150Y005428D01*
X026257Y005466D01*
X026360Y005515D01*
X026456Y005575D01*
X026544Y005646D01*
X026638Y005743D02*
X027863Y005743D01*
X027863Y005862D02*
X026725Y005862D01*
X026789Y005980D02*
X027863Y005980D01*
X027863Y006099D02*
X026835Y006099D01*
X026864Y006217D02*
X027863Y006217D01*
X027863Y006336D02*
X026879Y006336D01*
X026880Y006460D02*
X026868Y006570D01*
X026842Y006680D01*
X026805Y006788D01*
X026756Y006890D01*
X026695Y006986D01*
X026625Y007074D01*
X026544Y007155D01*
X026456Y007225D01*
X026360Y007286D01*
X026257Y007335D01*
X026150Y007372D01*
X026040Y007398D01*
X025930Y007410D01*
X025930Y006460D01*
X026880Y006460D01*
X026867Y006573D02*
X027863Y006573D01*
X027863Y006691D02*
X026839Y006691D01*
X026794Y006810D02*
X027863Y006810D01*
X027863Y006928D02*
X026732Y006928D01*
X026647Y007047D02*
X027863Y007047D01*
X027863Y007165D02*
X026531Y007165D01*
X026363Y007284D02*
X027863Y007284D01*
X027863Y007402D02*
X026001Y007402D01*
X025930Y007402D02*
X025810Y007402D01*
X025810Y007410D02*
X025701Y007398D01*
X025590Y007372D01*
X025483Y007335D01*
X025381Y007286D01*
X025285Y007225D01*
X025196Y007155D01*
X025116Y007074D01*
X025045Y006986D01*
X024985Y006890D01*
X024936Y006788D01*
X024898Y006680D01*
X024873Y006570D01*
X024861Y006460D01*
X025810Y006460D01*
X025810Y006340D01*
X025930Y006340D01*
X025930Y006460D01*
X025810Y006460D01*
X025810Y007410D01*
X025739Y007402D02*
X013424Y007402D01*
X013507Y007486D02*
X013617Y007750D01*
X013617Y008037D01*
X013507Y008301D01*
X013305Y008504D01*
X013040Y008614D01*
X012754Y008614D01*
X012489Y008504D01*
X012287Y008301D01*
X012177Y008037D01*
X012177Y007750D01*
X012274Y007515D01*
X012095Y007441D01*
X011893Y007238D01*
X011783Y006974D01*
X011783Y006687D01*
X011893Y006423D01*
X012095Y006220D01*
X012360Y006111D01*
X012646Y006111D01*
X012911Y006220D01*
X013114Y006423D01*
X013223Y006687D01*
X013223Y006974D01*
X013126Y007209D01*
X013305Y007283D01*
X013507Y007486D01*
X013522Y007521D02*
X027863Y007521D01*
X027863Y007639D02*
X013571Y007639D01*
X013617Y007758D02*
X027863Y007758D01*
X027863Y007876D02*
X021750Y007876D01*
X021627Y007825D02*
X021939Y007954D01*
X022178Y008194D01*
X022308Y008506D01*
X022308Y008844D01*
X022178Y009156D01*
X021939Y009396D01*
X021627Y009525D01*
X021289Y009525D01*
X020976Y009396D01*
X020737Y009156D01*
X020608Y008844D01*
X020608Y008506D01*
X020737Y008194D01*
X020976Y007954D01*
X021289Y007825D01*
X021627Y007825D01*
X021979Y007995D02*
X027863Y007995D01*
X027863Y008113D02*
X022098Y008113D01*
X022194Y008232D02*
X027863Y008232D01*
X027863Y008350D02*
X022243Y008350D01*
X022292Y008469D02*
X027863Y008469D01*
X027863Y008587D02*
X022308Y008587D01*
X022308Y008706D02*
X027863Y008706D01*
X027863Y008824D02*
X022308Y008824D01*
X022267Y008943D02*
X027863Y008943D01*
X027863Y009061D02*
X022218Y009061D01*
X022155Y009180D02*
X027863Y009180D01*
X027863Y009298D02*
X022037Y009298D01*
X021889Y009417D02*
X027863Y009417D01*
X027863Y009535D02*
X009053Y009535D01*
X009053Y009417D02*
X021027Y009417D01*
X020879Y009298D02*
X009053Y009298D01*
X009053Y009180D02*
X020760Y009180D01*
X020698Y009061D02*
X009053Y009061D01*
X009053Y008943D02*
X020649Y008943D01*
X020608Y008824D02*
X009053Y008824D01*
X009053Y008706D02*
X020608Y008706D01*
X020608Y008587D02*
X013104Y008587D01*
X013340Y008469D02*
X020624Y008469D01*
X020673Y008350D02*
X013459Y008350D01*
X013536Y008232D02*
X020722Y008232D01*
X020818Y008113D02*
X013585Y008113D01*
X013617Y007995D02*
X020936Y007995D01*
X021166Y007876D02*
X013617Y007876D01*
X013305Y007284D02*
X025377Y007284D01*
X025209Y007165D02*
X013144Y007165D01*
X013193Y007047D02*
X025094Y007047D01*
X025009Y006928D02*
X013223Y006928D01*
X013223Y006810D02*
X024946Y006810D01*
X024902Y006691D02*
X013223Y006691D01*
X013176Y006573D02*
X024874Y006573D01*
X024861Y006340D02*
X024873Y006231D01*
X024898Y006120D01*
X024936Y006013D01*
X024985Y005911D01*
X025045Y005815D01*
X025116Y005726D01*
X025196Y005646D01*
X025285Y005575D01*
X025381Y005515D01*
X025483Y005466D01*
X025590Y005428D01*
X025701Y005403D01*
X025810Y005391D01*
X025810Y006340D01*
X024861Y006340D01*
X024861Y006336D02*
X013026Y006336D01*
X013127Y006454D02*
X025810Y006454D01*
X025810Y006336D02*
X025930Y006336D01*
X025930Y006454D02*
X027863Y006454D01*
X026726Y005506D02*
X026341Y005506D01*
X026486Y005388D02*
X025365Y005388D01*
X025400Y005506D02*
X025173Y005506D01*
X025223Y005625D02*
X010297Y005625D01*
X010342Y005743D02*
X025103Y005743D01*
X025016Y005862D02*
X010365Y005862D01*
X010345Y006099D02*
X024906Y006099D01*
X024876Y006217D02*
X012904Y006217D01*
X012103Y006217D02*
X010301Y006217D01*
X010225Y006336D02*
X011980Y006336D01*
X011880Y006454D02*
X010103Y006454D01*
X009841Y006573D02*
X011831Y006573D01*
X011783Y006691D02*
X009053Y006691D01*
X009053Y006573D02*
X009574Y006573D01*
X009648Y006573D02*
X009768Y006573D01*
X009768Y006454D02*
X009648Y006454D01*
X009648Y006336D02*
X009768Y006336D01*
X009768Y006217D02*
X009648Y006217D01*
X009648Y006099D02*
X009768Y006099D01*
X009768Y005980D02*
X024952Y005980D01*
X025810Y005980D02*
X025930Y005980D01*
X025930Y005862D02*
X025810Y005862D01*
X025810Y005743D02*
X025930Y005743D01*
X025930Y005625D02*
X025810Y005625D01*
X025810Y005506D02*
X025930Y005506D01*
X026238Y005151D02*
X025578Y005151D01*
X025646Y005032D02*
X026163Y005032D01*
X026109Y004914D02*
X025700Y004914D01*
X025731Y004795D02*
X026071Y004795D01*
X026049Y004677D02*
X025759Y004677D01*
X025483Y005269D02*
X026342Y005269D01*
X025930Y006099D02*
X025810Y006099D01*
X025810Y006217D02*
X025930Y006217D01*
X025930Y006573D02*
X025810Y006573D01*
X025810Y006691D02*
X025930Y006691D01*
X025930Y006810D02*
X025810Y006810D01*
X025810Y006928D02*
X025930Y006928D01*
X025930Y007047D02*
X025810Y007047D01*
X025810Y007165D02*
X025930Y007165D01*
X025930Y007284D02*
X025810Y007284D01*
X024205Y005506D02*
X010218Y005506D01*
X010092Y005388D02*
X024014Y005388D01*
X023895Y005269D02*
X009782Y005269D01*
X009768Y005269D02*
X009648Y005269D01*
X009634Y005269D02*
X009053Y005269D01*
X009053Y005151D02*
X023800Y005151D01*
X027863Y009654D02*
X009053Y009654D01*
X009053Y009772D02*
X027863Y009772D01*
X027863Y009891D02*
X009053Y009891D01*
X009053Y010009D02*
X027863Y010009D01*
X027863Y010128D02*
X009053Y010128D01*
X009053Y010246D02*
X027863Y010246D01*
X027863Y010365D02*
X009053Y010365D01*
X009053Y010483D02*
X027863Y010483D01*
X027863Y010602D02*
X009053Y010602D01*
X009053Y010720D02*
X027863Y010720D01*
X027863Y010839D02*
X009053Y010839D01*
X009053Y010957D02*
X027863Y010957D01*
X027863Y011076D02*
X027349Y011076D01*
X027389Y011092D02*
X027541Y011244D01*
X027623Y011443D01*
X027623Y011657D01*
X027541Y011856D01*
X027389Y012008D01*
X027190Y012090D01*
X026976Y012090D01*
X026777Y012008D01*
X026625Y011856D01*
X026548Y011671D01*
X026528Y011734D01*
X026493Y011802D01*
X026449Y011863D01*
X026396Y011916D01*
X026335Y011961D01*
X026267Y011995D01*
X026195Y012018D01*
X026123Y012030D01*
X026123Y011590D01*
X026043Y011590D01*
X026043Y012030D01*
X025971Y012018D01*
X025899Y011995D01*
X025831Y011961D01*
X025770Y011916D01*
X025717Y011863D01*
X025672Y011802D01*
X025638Y011734D01*
X025617Y011671D01*
X025541Y011856D01*
X025389Y012008D01*
X025190Y012090D01*
X024976Y012090D01*
X024777Y012008D01*
X024625Y011856D01*
X024583Y011754D01*
X024541Y011856D01*
X024389Y012008D01*
X024190Y012090D01*
X023976Y012090D01*
X023777Y012008D01*
X023625Y011856D01*
X023583Y011754D01*
X023541Y011856D01*
X023389Y012008D01*
X023190Y012090D01*
X022976Y012090D01*
X022777Y012008D01*
X022625Y011856D01*
X022583Y011754D01*
X022541Y011856D01*
X022389Y012008D01*
X022190Y012090D01*
X021976Y012090D01*
X021777Y012008D01*
X021625Y011856D01*
X021583Y011754D01*
X021541Y011856D01*
X021389Y012008D01*
X021190Y012090D01*
X020976Y012090D01*
X020777Y012008D01*
X020625Y011856D01*
X020583Y011754D01*
X020541Y011856D01*
X020389Y012008D01*
X020190Y012090D01*
X019976Y012090D01*
X019777Y012008D01*
X019625Y011856D01*
X019583Y011754D01*
X019541Y011856D01*
X019389Y012008D01*
X019190Y012090D01*
X018976Y012090D01*
X018777Y012008D01*
X018625Y011856D01*
X018583Y011754D01*
X018541Y011856D01*
X018389Y012008D01*
X018190Y012090D01*
X017976Y012090D01*
X017777Y012008D01*
X017625Y011856D01*
X017583Y011754D01*
X017541Y011856D01*
X017389Y012008D01*
X017190Y012090D01*
X016976Y012090D01*
X016777Y012008D01*
X016625Y011856D01*
X016583Y011754D01*
X016541Y011856D01*
X016389Y012008D01*
X016287Y012050D01*
X016389Y012092D01*
X016541Y012244D01*
X016623Y012443D01*
X016623Y012657D01*
X016541Y012856D01*
X016389Y013008D01*
X016287Y013050D01*
X016389Y013092D01*
X016541Y013244D01*
X016623Y013443D01*
X016623Y013657D01*
X016541Y013856D01*
X016389Y014008D01*
X016287Y014050D01*
X016389Y014092D01*
X016541Y014244D01*
X016623Y014443D01*
X016623Y014657D01*
X016541Y014856D01*
X016389Y015008D01*
X016190Y015090D01*
X015976Y015090D01*
X015777Y015008D01*
X015625Y014856D01*
X015543Y014657D01*
X015543Y014443D01*
X015625Y014244D01*
X015777Y014092D01*
X015879Y014050D01*
X015777Y014008D01*
X015625Y013856D01*
X015543Y013657D01*
X015543Y013443D01*
X015625Y013244D01*
X015777Y013092D01*
X015879Y013050D01*
X015777Y013008D01*
X015625Y012856D01*
X015543Y012657D01*
X015543Y012443D01*
X015625Y012244D01*
X015777Y012092D01*
X015879Y012050D01*
X015777Y012008D01*
X015625Y011856D01*
X015543Y011657D01*
X015543Y011443D01*
X015625Y011244D01*
X015777Y011092D01*
X015976Y011010D01*
X016190Y011010D01*
X016389Y011092D01*
X016541Y011244D01*
X016583Y011346D01*
X016625Y011244D01*
X016777Y011092D01*
X016976Y011010D01*
X017190Y011010D01*
X017389Y011092D01*
X017541Y011244D01*
X017583Y011346D01*
X017625Y011244D01*
X017777Y011092D01*
X017976Y011010D01*
X018190Y011010D01*
X018389Y011092D01*
X018541Y011244D01*
X018583Y011346D01*
X018625Y011244D01*
X018777Y011092D01*
X018976Y011010D01*
X019190Y011010D01*
X019389Y011092D01*
X019541Y011244D01*
X019583Y011346D01*
X019625Y011244D01*
X019777Y011092D01*
X019976Y011010D01*
X020190Y011010D01*
X020389Y011092D01*
X020541Y011244D01*
X020583Y011346D01*
X020625Y011244D01*
X020777Y011092D01*
X020976Y011010D01*
X021190Y011010D01*
X021389Y011092D01*
X021541Y011244D01*
X021583Y011346D01*
X021625Y011244D01*
X021777Y011092D01*
X021976Y011010D01*
X022190Y011010D01*
X022389Y011092D01*
X022541Y011244D01*
X022583Y011346D01*
X022625Y011244D01*
X022777Y011092D01*
X022976Y011010D01*
X023190Y011010D01*
X023389Y011092D01*
X023541Y011244D01*
X023583Y011346D01*
X023625Y011244D01*
X023777Y011092D01*
X023976Y011010D01*
X024190Y011010D01*
X024389Y011092D01*
X024541Y011244D01*
X024583Y011346D01*
X024625Y011244D01*
X024777Y011092D01*
X024976Y011010D01*
X025190Y011010D01*
X025389Y011092D01*
X025541Y011244D01*
X025617Y011429D01*
X025638Y011366D01*
X025672Y011298D01*
X025717Y011237D01*
X025770Y011184D01*
X025831Y011139D01*
X025899Y011105D01*
X025971Y011082D01*
X026043Y011070D01*
X026043Y011510D01*
X026123Y011510D01*
X026123Y011070D01*
X026195Y011082D01*
X026267Y011105D01*
X026335Y011139D01*
X026396Y011184D01*
X026449Y011237D01*
X026493Y011298D01*
X026528Y011366D01*
X026548Y011429D01*
X026625Y011244D01*
X026777Y011092D01*
X026976Y011010D01*
X027190Y011010D01*
X027389Y011092D01*
X027491Y011194D02*
X027863Y011194D01*
X027863Y011313D02*
X027569Y011313D01*
X027618Y011431D02*
X027863Y011431D01*
X027863Y011550D02*
X027623Y011550D01*
X027619Y011668D02*
X027863Y011668D01*
X027863Y011787D02*
X027569Y011787D01*
X027492Y011905D02*
X027863Y011905D01*
X027863Y012024D02*
X027351Y012024D01*
X027863Y012142D02*
X023939Y012142D01*
X023889Y012092D02*
X024041Y012244D01*
X024123Y012443D01*
X024123Y012657D01*
X024041Y012856D01*
X023889Y013008D01*
X023690Y013090D01*
X023476Y013090D01*
X023277Y013008D01*
X023125Y012856D01*
X023083Y012754D01*
X023041Y012856D01*
X022889Y013008D01*
X022690Y013090D01*
X022476Y013090D01*
X022277Y013008D01*
X022125Y012856D01*
X022043Y012657D01*
X022043Y012443D01*
X022125Y012244D01*
X022277Y012092D01*
X022476Y012010D01*
X022690Y012010D01*
X022889Y012092D01*
X023041Y012244D01*
X023083Y012346D01*
X023125Y012244D01*
X023277Y012092D01*
X023476Y012010D01*
X023690Y012010D01*
X023889Y012092D01*
X023815Y012024D02*
X023723Y012024D01*
X023674Y011905D02*
X023492Y011905D01*
X023443Y012024D02*
X023351Y012024D01*
X023227Y012142D02*
X022939Y012142D01*
X023048Y012261D02*
X023118Y012261D01*
X022815Y012024D02*
X022723Y012024D01*
X022674Y011905D02*
X022492Y011905D01*
X022443Y012024D02*
X022351Y012024D01*
X022227Y012142D02*
X016439Y012142D01*
X016351Y012024D02*
X016815Y012024D01*
X016674Y011905D02*
X016492Y011905D01*
X016569Y011787D02*
X016596Y011787D01*
X016569Y011313D02*
X016597Y011313D01*
X016675Y011194D02*
X016491Y011194D01*
X016349Y011076D02*
X016817Y011076D01*
X017349Y011076D02*
X017817Y011076D01*
X017675Y011194D02*
X017491Y011194D01*
X017569Y011313D02*
X017597Y011313D01*
X017569Y011787D02*
X017596Y011787D01*
X017674Y011905D02*
X017492Y011905D01*
X017351Y012024D02*
X017815Y012024D01*
X018351Y012024D02*
X018815Y012024D01*
X018674Y011905D02*
X018492Y011905D01*
X018569Y011787D02*
X018596Y011787D01*
X018569Y011313D02*
X018597Y011313D01*
X018675Y011194D02*
X018491Y011194D01*
X018349Y011076D02*
X018817Y011076D01*
X019349Y011076D02*
X019817Y011076D01*
X019675Y011194D02*
X019491Y011194D01*
X019569Y011313D02*
X019597Y011313D01*
X019569Y011787D02*
X019596Y011787D01*
X019674Y011905D02*
X019492Y011905D01*
X019351Y012024D02*
X019815Y012024D01*
X020351Y012024D02*
X020815Y012024D01*
X020674Y011905D02*
X020492Y011905D01*
X020569Y011787D02*
X020596Y011787D01*
X020569Y011313D02*
X020597Y011313D01*
X020675Y011194D02*
X020491Y011194D01*
X020349Y011076D02*
X020817Y011076D01*
X021349Y011076D02*
X021817Y011076D01*
X021675Y011194D02*
X021491Y011194D01*
X021569Y011313D02*
X021597Y011313D01*
X021569Y011787D02*
X021596Y011787D01*
X021674Y011905D02*
X021492Y011905D01*
X021351Y012024D02*
X021815Y012024D01*
X022118Y012261D02*
X016548Y012261D01*
X016597Y012379D02*
X022069Y012379D01*
X022043Y012498D02*
X016623Y012498D01*
X016623Y012616D02*
X022043Y012616D01*
X022075Y012735D02*
X016591Y012735D01*
X016542Y012853D02*
X022124Y012853D01*
X022241Y012972D02*
X016425Y012972D01*
X016384Y013090D02*
X027863Y013090D01*
X027863Y012972D02*
X023925Y012972D01*
X024042Y012853D02*
X027863Y012853D01*
X027863Y012735D02*
X024091Y012735D01*
X024123Y012616D02*
X027863Y012616D01*
X027863Y012498D02*
X024123Y012498D01*
X024097Y012379D02*
X027863Y012379D01*
X027863Y012261D02*
X024048Y012261D01*
X024351Y012024D02*
X024815Y012024D01*
X024674Y011905D02*
X024492Y011905D01*
X024569Y011787D02*
X024596Y011787D01*
X024569Y011313D02*
X024597Y011313D01*
X024675Y011194D02*
X024491Y011194D01*
X024349Y011076D02*
X024817Y011076D01*
X025349Y011076D02*
X026010Y011076D01*
X026043Y011076D02*
X026123Y011076D01*
X026156Y011076D02*
X026817Y011076D01*
X026675Y011194D02*
X026406Y011194D01*
X026501Y011313D02*
X026597Y011313D01*
X026596Y011787D02*
X026501Y011787D01*
X026407Y011905D02*
X026674Y011905D01*
X026815Y012024D02*
X026162Y012024D01*
X026123Y012024D02*
X026043Y012024D01*
X026004Y012024D02*
X025351Y012024D01*
X025492Y011905D02*
X025759Y011905D01*
X025665Y011787D02*
X025569Y011787D01*
X026043Y011787D02*
X026123Y011787D01*
X026123Y011905D02*
X026043Y011905D01*
X026043Y011668D02*
X026123Y011668D01*
X026123Y011431D02*
X026043Y011431D01*
X026043Y011313D02*
X026123Y011313D01*
X026123Y011194D02*
X026043Y011194D01*
X025760Y011194D02*
X025491Y011194D01*
X025569Y011313D02*
X025665Y011313D01*
X023817Y011076D02*
X023349Y011076D01*
X023491Y011194D02*
X023675Y011194D01*
X023597Y011313D02*
X023569Y011313D01*
X023569Y011787D02*
X023596Y011787D01*
X022817Y011076D02*
X022349Y011076D01*
X022491Y011194D02*
X022675Y011194D01*
X022597Y011313D02*
X022569Y011313D01*
X022569Y011787D02*
X022596Y011787D01*
X023042Y012853D02*
X023124Y012853D01*
X023241Y012972D02*
X022925Y012972D01*
X022976Y017010D02*
X023190Y017010D01*
X023389Y017092D01*
X023541Y017244D01*
X023617Y017429D01*
X023638Y017366D01*
X023672Y017298D01*
X023717Y017237D01*
X023770Y017184D01*
X023831Y017139D01*
X023899Y017105D01*
X023971Y017082D01*
X024043Y017070D01*
X024043Y017510D01*
X024123Y017510D01*
X024123Y017070D01*
X024195Y017082D01*
X024267Y017105D01*
X024335Y017139D01*
X024396Y017184D01*
X024449Y017237D01*
X024493Y017298D01*
X024528Y017366D01*
X024548Y017429D01*
X024625Y017244D01*
X024777Y017092D01*
X024976Y017010D01*
X025190Y017010D01*
X025389Y017092D01*
X025541Y017244D01*
X025583Y017346D01*
X025625Y017244D01*
X025777Y017092D01*
X025976Y017010D01*
X026190Y017010D01*
X026389Y017092D01*
X026541Y017244D01*
X026583Y017346D01*
X026625Y017244D01*
X026777Y017092D01*
X026976Y017010D01*
X027190Y017010D01*
X027389Y017092D01*
X027541Y017244D01*
X027623Y017443D01*
X027623Y017657D01*
X027541Y017856D01*
X027389Y018008D01*
X027190Y018090D01*
X026976Y018090D01*
X026777Y018008D01*
X026625Y017856D01*
X026583Y017754D01*
X026541Y017856D01*
X026389Y018008D01*
X026190Y018090D01*
X025976Y018090D01*
X025777Y018008D01*
X025625Y017856D01*
X025583Y017754D01*
X025541Y017856D01*
X025389Y018008D01*
X025190Y018090D01*
X024976Y018090D01*
X024777Y018008D01*
X024625Y017856D01*
X024548Y017671D01*
X024528Y017734D01*
X024493Y017802D01*
X024449Y017863D01*
X024396Y017916D01*
X024335Y017961D01*
X024267Y017995D01*
X024195Y018018D01*
X024123Y018030D01*
X024123Y017590D01*
X024043Y017590D01*
X024043Y018030D01*
X023971Y018018D01*
X023899Y017995D01*
X023831Y017961D01*
X023770Y017916D01*
X023717Y017863D01*
X023672Y017802D01*
X023638Y017734D01*
X023617Y017671D01*
X023541Y017856D01*
X023389Y018008D01*
X023190Y018090D01*
X022976Y018090D01*
X022777Y018008D01*
X022625Y017856D01*
X022583Y017754D01*
X022541Y017856D01*
X022389Y018008D01*
X022190Y018090D01*
X021976Y018090D01*
X021777Y018008D01*
X021625Y017856D01*
X021583Y017754D01*
X021541Y017856D01*
X021389Y018008D01*
X021190Y018090D01*
X020976Y018090D01*
X020777Y018008D01*
X020625Y017856D01*
X020583Y017754D01*
X020541Y017856D01*
X020389Y018008D01*
X020190Y018090D01*
X019976Y018090D01*
X019777Y018008D01*
X019625Y017856D01*
X019583Y017754D01*
X019541Y017856D01*
X019389Y018008D01*
X019190Y018090D01*
X018976Y018090D01*
X018777Y018008D01*
X018625Y017856D01*
X018583Y017754D01*
X018541Y017856D01*
X018389Y018008D01*
X018190Y018090D01*
X017976Y018090D01*
X017777Y018008D01*
X017625Y017856D01*
X017583Y017754D01*
X017541Y017856D01*
X017389Y018008D01*
X017190Y018090D01*
X016976Y018090D01*
X016777Y018008D01*
X016625Y017856D01*
X016583Y017754D01*
X016541Y017856D01*
X016389Y018008D01*
X016190Y018090D01*
X015976Y018090D01*
X015777Y018008D01*
X015625Y017856D01*
X015543Y017657D01*
X015543Y017443D01*
X015625Y017244D01*
X015777Y017092D01*
X015976Y017010D01*
X016190Y017010D01*
X016389Y017092D01*
X016541Y017244D01*
X016583Y017346D01*
X016625Y017244D01*
X016777Y017092D01*
X016976Y017010D01*
X017190Y017010D01*
X017389Y017092D01*
X017541Y017244D01*
X017583Y017346D01*
X017625Y017244D01*
X017777Y017092D01*
X017976Y017010D01*
X018190Y017010D01*
X018389Y017092D01*
X018541Y017244D01*
X018583Y017346D01*
X018625Y017244D01*
X018777Y017092D01*
X018976Y017010D01*
X019190Y017010D01*
X019389Y017092D01*
X019541Y017244D01*
X019583Y017346D01*
X019625Y017244D01*
X019777Y017092D01*
X019976Y017010D01*
X020190Y017010D01*
X020389Y017092D01*
X020541Y017244D01*
X020583Y017346D01*
X020625Y017244D01*
X020777Y017092D01*
X020976Y017010D01*
X021190Y017010D01*
X021389Y017092D01*
X021541Y017244D01*
X021583Y017346D01*
X021625Y017244D01*
X021777Y017092D01*
X021976Y017010D01*
X022190Y017010D01*
X022389Y017092D01*
X022541Y017244D01*
X022583Y017346D01*
X022625Y017244D01*
X022777Y017092D01*
X022976Y017010D01*
X022750Y017119D02*
X022416Y017119D01*
X022534Y017238D02*
X022632Y017238D01*
X022614Y017830D02*
X022551Y017830D01*
X022448Y017949D02*
X022718Y017949D01*
X022920Y018067D02*
X022246Y018067D01*
X021920Y018067D02*
X021246Y018067D01*
X021448Y017949D02*
X021718Y017949D01*
X021614Y017830D02*
X021551Y017830D01*
X021534Y017238D02*
X021632Y017238D01*
X021750Y017119D02*
X021416Y017119D01*
X020750Y017119D02*
X020416Y017119D01*
X020534Y017238D02*
X020632Y017238D01*
X020614Y017830D02*
X020551Y017830D01*
X020448Y017949D02*
X020718Y017949D01*
X020920Y018067D02*
X020246Y018067D01*
X019920Y018067D02*
X019246Y018067D01*
X019200Y018210D02*
X019417Y018300D01*
X019583Y018466D01*
X019673Y018683D01*
X019673Y018917D01*
X019583Y019134D01*
X019417Y019300D01*
X019200Y019390D01*
X018966Y019390D01*
X018749Y019300D01*
X018583Y019134D01*
X018493Y018917D01*
X018493Y018683D01*
X018583Y018466D01*
X018749Y018300D01*
X018966Y018210D01*
X019200Y018210D01*
X019421Y018304D02*
X027863Y018304D01*
X027863Y018186D02*
X015228Y018186D01*
X015217Y018175D02*
X015383Y018341D01*
X015473Y018558D01*
X015473Y018792D01*
X015383Y019009D01*
X015217Y019175D01*
X015147Y019204D01*
X015283Y019341D01*
X015373Y019558D01*
X015373Y019792D01*
X015283Y020009D01*
X015147Y020145D01*
X015274Y020145D01*
X015315Y020156D01*
X015351Y020177D01*
X015381Y020207D01*
X015402Y020243D01*
X015413Y020284D01*
X015413Y020635D01*
X014923Y020635D01*
X014923Y020715D01*
X015413Y020715D01*
X015413Y021066D01*
X015402Y021107D01*
X015381Y021143D01*
X015351Y021173D01*
X015315Y021194D01*
X015274Y021205D01*
X014923Y021205D01*
X014923Y020715D01*
X014843Y020715D01*
X014843Y021205D01*
X014492Y021205D01*
X014451Y021194D01*
X014415Y021173D01*
X014385Y021143D01*
X014364Y021107D01*
X014353Y021066D01*
X014353Y020715D01*
X014843Y020715D01*
X014843Y020635D01*
X014353Y020635D01*
X014353Y020284D01*
X014364Y020243D01*
X014385Y020207D01*
X014415Y020177D01*
X014437Y020164D01*
X014283Y020009D01*
X014193Y019792D01*
X014193Y019558D01*
X014283Y019341D01*
X014449Y019175D01*
X014519Y019146D01*
X014383Y019009D01*
X014293Y018792D01*
X014293Y018558D01*
X014383Y018341D01*
X014519Y018204D01*
X014449Y018175D01*
X014283Y018009D01*
X014193Y017792D01*
X014193Y017558D01*
X014283Y017341D01*
X014449Y017175D01*
X014519Y017146D01*
X014383Y017009D01*
X014293Y016792D01*
X014293Y016558D01*
X014383Y016341D01*
X014519Y016204D01*
X014449Y016175D01*
X014283Y016009D01*
X014193Y015792D01*
X014193Y015558D01*
X014283Y015341D01*
X014449Y015175D01*
X014519Y015146D01*
X014383Y015009D01*
X014293Y014792D01*
X014293Y014558D01*
X014383Y014341D01*
X014519Y014204D01*
X014449Y014175D01*
X014283Y014009D01*
X014193Y013792D01*
X014193Y013558D01*
X014283Y013341D01*
X014449Y013175D01*
X014666Y013085D01*
X014900Y013085D01*
X015117Y013175D01*
X015283Y013341D01*
X015373Y013558D01*
X015373Y013792D01*
X015283Y014009D01*
X015147Y014146D01*
X015217Y014175D01*
X015383Y014341D01*
X015473Y014558D01*
X015473Y014792D01*
X015383Y015009D01*
X015217Y015175D01*
X015147Y015204D01*
X015283Y015341D01*
X015373Y015558D01*
X015373Y015792D01*
X015283Y016009D01*
X015147Y016146D01*
X015217Y016175D01*
X015383Y016341D01*
X015473Y016558D01*
X015473Y016792D01*
X015383Y017009D01*
X015217Y017175D01*
X015147Y017204D01*
X015283Y017341D01*
X015373Y017558D01*
X015373Y017792D01*
X015283Y018009D01*
X015147Y018146D01*
X015217Y018175D01*
X015225Y018067D02*
X015920Y018067D01*
X015718Y017949D02*
X015308Y017949D01*
X015357Y017830D02*
X015614Y017830D01*
X015565Y017712D02*
X015373Y017712D01*
X015373Y017593D02*
X015543Y017593D01*
X015543Y017475D02*
X015339Y017475D01*
X015289Y017356D02*
X015579Y017356D01*
X015632Y017238D02*
X015180Y017238D01*
X015273Y017119D02*
X015750Y017119D01*
X015387Y017001D02*
X027863Y017001D01*
X027863Y017119D02*
X027416Y017119D01*
X027534Y017238D02*
X027863Y017238D01*
X027863Y017356D02*
X027587Y017356D01*
X027623Y017475D02*
X027863Y017475D01*
X027863Y017593D02*
X027623Y017593D01*
X027601Y017712D02*
X027863Y017712D01*
X027863Y017830D02*
X027551Y017830D01*
X027448Y017949D02*
X027863Y017949D01*
X027863Y018067D02*
X027246Y018067D01*
X026920Y018067D02*
X026246Y018067D01*
X026448Y017949D02*
X026718Y017949D01*
X026614Y017830D02*
X026551Y017830D01*
X026534Y017238D02*
X026632Y017238D01*
X026750Y017119D02*
X026416Y017119D01*
X025750Y017119D02*
X025416Y017119D01*
X025534Y017238D02*
X025632Y017238D01*
X025614Y017830D02*
X025551Y017830D01*
X025448Y017949D02*
X025718Y017949D01*
X025920Y018067D02*
X025246Y018067D01*
X024920Y018067D02*
X023246Y018067D01*
X023448Y017949D02*
X023815Y017949D01*
X023693Y017830D02*
X023551Y017830D01*
X023601Y017712D02*
X023631Y017712D01*
X023643Y017356D02*
X023587Y017356D01*
X023534Y017238D02*
X023717Y017238D01*
X023871Y017119D02*
X023416Y017119D01*
X024043Y017119D02*
X024123Y017119D01*
X024123Y017238D02*
X024043Y017238D01*
X024043Y017356D02*
X024123Y017356D01*
X024123Y017475D02*
X024043Y017475D01*
X024043Y017593D02*
X024123Y017593D01*
X024123Y017712D02*
X024043Y017712D01*
X024043Y017830D02*
X024123Y017830D01*
X024123Y017949D02*
X024043Y017949D01*
X024351Y017949D02*
X024718Y017949D01*
X024614Y017830D02*
X024473Y017830D01*
X024535Y017712D02*
X024565Y017712D01*
X024579Y017356D02*
X024523Y017356D01*
X024449Y017238D02*
X024632Y017238D01*
X024750Y017119D02*
X024294Y017119D01*
X024325Y018885D02*
X024091Y018885D01*
X023874Y018975D01*
X023708Y019141D01*
X023618Y019358D01*
X023618Y019592D01*
X023708Y019809D01*
X023874Y019975D01*
X024091Y020065D01*
X024325Y020065D01*
X024542Y019975D01*
X024708Y019809D01*
X024737Y019739D01*
X024874Y019875D01*
X025091Y019965D01*
X025325Y019965D01*
X025542Y019875D01*
X025679Y019739D01*
X025708Y019809D01*
X025874Y019975D01*
X026091Y020065D01*
X026325Y020065D01*
X026542Y019975D01*
X026697Y019821D01*
X026710Y019843D01*
X026740Y019873D01*
X026776Y019894D01*
X026817Y019905D01*
X027168Y019905D01*
X027168Y019415D01*
X027248Y019415D01*
X027738Y019415D01*
X027738Y019766D01*
X027727Y019807D01*
X027706Y019843D01*
X027676Y019873D01*
X027640Y019894D01*
X027599Y019905D01*
X027248Y019905D01*
X027248Y019415D01*
X027248Y019335D01*
X027738Y019335D01*
X027738Y018984D01*
X027727Y018943D01*
X027706Y018907D01*
X027676Y018877D01*
X027640Y018856D01*
X027599Y018845D01*
X027248Y018845D01*
X027248Y019335D01*
X027168Y019335D01*
X027168Y018845D01*
X026817Y018845D01*
X026776Y018856D01*
X026740Y018877D01*
X026710Y018907D01*
X026689Y018943D01*
X026678Y018984D01*
X026678Y019111D01*
X026542Y018975D01*
X026325Y018885D01*
X026091Y018885D01*
X025874Y018975D01*
X025737Y019111D01*
X025708Y019041D01*
X025542Y018875D01*
X025325Y018785D01*
X025091Y018785D01*
X024874Y018875D01*
X024708Y019041D01*
X024679Y019111D01*
X024542Y018975D01*
X024325Y018885D01*
X024353Y018897D02*
X024852Y018897D01*
X024734Y019015D02*
X024582Y019015D01*
X024063Y018897D02*
X019673Y018897D01*
X019673Y018778D02*
X027863Y018778D01*
X027863Y018660D02*
X019663Y018660D01*
X019614Y018541D02*
X027863Y018541D01*
X027863Y018423D02*
X019540Y018423D01*
X019448Y017949D02*
X019718Y017949D01*
X019614Y017830D02*
X019551Y017830D01*
X019534Y017238D02*
X019632Y017238D01*
X019750Y017119D02*
X019416Y017119D01*
X018750Y017119D02*
X018416Y017119D01*
X018534Y017238D02*
X018632Y017238D01*
X018614Y017830D02*
X018551Y017830D01*
X018448Y017949D02*
X018718Y017949D01*
X018920Y018067D02*
X018246Y018067D01*
X017920Y018067D02*
X017246Y018067D01*
X017448Y017949D02*
X017718Y017949D01*
X017614Y017830D02*
X017551Y017830D01*
X017534Y017238D02*
X017632Y017238D01*
X017750Y017119D02*
X017416Y017119D01*
X016750Y017119D02*
X016416Y017119D01*
X016534Y017238D02*
X016632Y017238D01*
X016614Y017830D02*
X016551Y017830D01*
X016448Y017949D02*
X016718Y017949D01*
X016920Y018067D02*
X016246Y018067D01*
X015417Y018423D02*
X018626Y018423D01*
X018552Y018541D02*
X015466Y018541D01*
X015473Y018660D02*
X018503Y018660D01*
X018493Y018778D02*
X015473Y018778D01*
X015430Y018897D02*
X018493Y018897D01*
X018533Y019015D02*
X015377Y019015D01*
X015259Y019134D02*
X018582Y019134D01*
X018701Y019252D02*
X015194Y019252D01*
X015295Y019371D02*
X018919Y019371D01*
X019247Y019371D02*
X021179Y019371D01*
X021289Y019325D02*
X021627Y019325D01*
X021939Y019454D01*
X022178Y019694D01*
X022308Y020006D01*
X022308Y020344D01*
X022178Y020656D01*
X021939Y020896D01*
X021627Y021025D01*
X021289Y021025D01*
X020976Y020896D01*
X020737Y020656D01*
X020608Y020344D01*
X020608Y020006D01*
X020737Y019694D01*
X020976Y019454D01*
X021289Y019325D01*
X020942Y019489D02*
X015345Y019489D01*
X015373Y019608D02*
X020823Y019608D01*
X020724Y019726D02*
X015373Y019726D01*
X015351Y019845D02*
X020675Y019845D01*
X020626Y019963D02*
X015302Y019963D01*
X015211Y020082D02*
X020608Y020082D01*
X020608Y020200D02*
X015374Y020200D01*
X015413Y020319D02*
X020608Y020319D01*
X020647Y020437D02*
X015413Y020437D01*
X015413Y020556D02*
X020696Y020556D01*
X020755Y020674D02*
X014923Y020674D01*
X014843Y020674D02*
X009053Y020674D01*
X009053Y020556D02*
X014353Y020556D01*
X014353Y020437D02*
X009053Y020437D01*
X009053Y020319D02*
X014353Y020319D01*
X014392Y020200D02*
X009053Y020200D01*
X009053Y020082D02*
X014355Y020082D01*
X014264Y019963D02*
X009053Y019963D01*
X009053Y019845D02*
X014215Y019845D01*
X014193Y019726D02*
X009053Y019726D01*
X009053Y019608D02*
X014193Y019608D01*
X014221Y019489D02*
X009053Y019489D01*
X009053Y019371D02*
X014270Y019371D01*
X014372Y019252D02*
X009053Y019252D01*
X009053Y019134D02*
X014507Y019134D01*
X014389Y019015D02*
X009053Y019015D01*
X009053Y018897D02*
X014336Y018897D01*
X014293Y018778D02*
X009053Y018778D01*
X009053Y018660D02*
X014293Y018660D01*
X014300Y018541D02*
X009053Y018541D01*
X009053Y018423D02*
X014349Y018423D01*
X014420Y018304D02*
X009053Y018304D01*
X009053Y018186D02*
X014474Y018186D01*
X014341Y018067D02*
X009053Y018067D01*
X009053Y017949D02*
X014258Y017949D01*
X014209Y017830D02*
X009053Y017830D01*
X009053Y017712D02*
X014193Y017712D01*
X014193Y017593D02*
X009053Y017593D01*
X009053Y017475D02*
X014227Y017475D01*
X014276Y017356D02*
X009053Y017356D01*
X009053Y017238D02*
X014386Y017238D01*
X014493Y017119D02*
X009053Y017119D01*
X009053Y017001D02*
X014379Y017001D01*
X014330Y016882D02*
X009053Y016882D01*
X009053Y016764D02*
X014293Y016764D01*
X014293Y016645D02*
X009053Y016645D01*
X009053Y016527D02*
X014306Y016527D01*
X014355Y016408D02*
X009053Y016408D01*
X009053Y016290D02*
X014434Y016290D01*
X014445Y016171D02*
X009053Y016171D01*
X009053Y016053D02*
X014326Y016053D01*
X014252Y015934D02*
X009053Y015934D01*
X009053Y015816D02*
X014203Y015816D01*
X014193Y015697D02*
X009053Y015697D01*
X009053Y015579D02*
X014193Y015579D01*
X014233Y015460D02*
X009053Y015460D01*
X009053Y015342D02*
X014282Y015342D01*
X014401Y015223D02*
X009053Y015223D01*
X009053Y015105D02*
X014478Y015105D01*
X014373Y014986D02*
X009053Y014986D01*
X009053Y014868D02*
X014324Y014868D01*
X014293Y014749D02*
X009053Y014749D01*
X009053Y014631D02*
X014293Y014631D01*
X014312Y014512D02*
X009053Y014512D01*
X009053Y014394D02*
X014361Y014394D01*
X014449Y014275D02*
X009053Y014275D01*
X009053Y014157D02*
X014430Y014157D01*
X014312Y014038D02*
X009053Y014038D01*
X009053Y013920D02*
X014246Y013920D01*
X014197Y013801D02*
X009053Y013801D01*
X009053Y013683D02*
X014193Y013683D01*
X014193Y013564D02*
X009053Y013564D01*
X009053Y013446D02*
X014239Y013446D01*
X014297Y013327D02*
X009053Y013327D01*
X009053Y013209D02*
X014415Y013209D01*
X014653Y013090D02*
X009053Y013090D01*
X009053Y012972D02*
X015741Y012972D01*
X015782Y013090D02*
X014912Y013090D01*
X015151Y013209D02*
X015661Y013209D01*
X015591Y013327D02*
X015269Y013327D01*
X015326Y013446D02*
X015543Y013446D01*
X015543Y013564D02*
X015373Y013564D01*
X015373Y013683D02*
X015553Y013683D01*
X015602Y013801D02*
X015369Y013801D01*
X015320Y013920D02*
X015689Y013920D01*
X015850Y014038D02*
X015254Y014038D01*
X015173Y014157D02*
X015713Y014157D01*
X015612Y014275D02*
X015317Y014275D01*
X015405Y014394D02*
X015563Y014394D01*
X015543Y014512D02*
X015454Y014512D01*
X015473Y014631D02*
X015543Y014631D01*
X015581Y014749D02*
X015473Y014749D01*
X015442Y014868D02*
X015637Y014868D01*
X015755Y014986D02*
X015393Y014986D01*
X015288Y015105D02*
X027863Y015105D01*
X027863Y015223D02*
X015165Y015223D01*
X015283Y015342D02*
X027863Y015342D01*
X027863Y015460D02*
X015333Y015460D01*
X015373Y015579D02*
X027863Y015579D01*
X027863Y015697D02*
X015373Y015697D01*
X015363Y015816D02*
X027863Y015816D01*
X027863Y015934D02*
X015314Y015934D01*
X015240Y016053D02*
X027863Y016053D01*
X027863Y016171D02*
X015208Y016171D01*
X015332Y016290D02*
X027863Y016290D01*
X027863Y016408D02*
X015411Y016408D01*
X015460Y016527D02*
X027863Y016527D01*
X027863Y016645D02*
X015473Y016645D01*
X015473Y016764D02*
X027863Y016764D01*
X027863Y016882D02*
X015436Y016882D01*
X015346Y018304D02*
X018745Y018304D01*
X019632Y019015D02*
X023834Y019015D01*
X023715Y019134D02*
X019583Y019134D01*
X019465Y019252D02*
X023662Y019252D01*
X023618Y019371D02*
X021737Y019371D01*
X021974Y019489D02*
X023618Y019489D01*
X023624Y019608D02*
X022092Y019608D01*
X022192Y019726D02*
X023673Y019726D01*
X023743Y019845D02*
X022241Y019845D01*
X022290Y019963D02*
X023862Y019963D01*
X024554Y019963D02*
X025086Y019963D01*
X025330Y019963D02*
X025862Y019963D01*
X025743Y019845D02*
X025573Y019845D01*
X024843Y019845D02*
X024673Y019845D01*
X025682Y019015D02*
X025834Y019015D01*
X026063Y018897D02*
X025564Y018897D01*
X026353Y018897D02*
X026720Y018897D01*
X026678Y019015D02*
X026582Y019015D01*
X027168Y019015D02*
X027248Y019015D01*
X027248Y018897D02*
X027168Y018897D01*
X027168Y019134D02*
X027248Y019134D01*
X027248Y019252D02*
X027168Y019252D01*
X027248Y019371D02*
X027863Y019371D01*
X027863Y019489D02*
X027738Y019489D01*
X027738Y019608D02*
X027863Y019608D01*
X027863Y019726D02*
X027738Y019726D01*
X027705Y019845D02*
X027863Y019845D01*
X027863Y019963D02*
X026554Y019963D01*
X026673Y019845D02*
X026711Y019845D01*
X027168Y019845D02*
X027248Y019845D01*
X027248Y019726D02*
X027168Y019726D01*
X027168Y019608D02*
X027248Y019608D01*
X027248Y019489D02*
X027168Y019489D01*
X027738Y019252D02*
X027863Y019252D01*
X027863Y019134D02*
X027738Y019134D01*
X027738Y019015D02*
X027863Y019015D01*
X027863Y018897D02*
X027696Y018897D01*
X027863Y020082D02*
X022308Y020082D01*
X022308Y020200D02*
X027863Y020200D01*
X027863Y020319D02*
X022308Y020319D01*
X022269Y020437D02*
X027863Y020437D01*
X027863Y020556D02*
X022220Y020556D01*
X022161Y020674D02*
X027863Y020674D01*
X027863Y020793D02*
X022042Y020793D01*
X021902Y020911D02*
X027863Y020911D01*
X027863Y021030D02*
X015413Y021030D01*
X015413Y020911D02*
X021014Y020911D01*
X020874Y020793D02*
X015413Y020793D01*
X015376Y021148D02*
X027856Y021148D01*
X027827Y021267D02*
X009089Y021267D01*
X009059Y021148D02*
X014390Y021148D01*
X014353Y021030D02*
X009053Y021030D01*
X009053Y020911D02*
X014353Y020911D01*
X014353Y020793D02*
X009053Y020793D01*
X009127Y021385D02*
X027789Y021385D01*
X027714Y021504D02*
X009202Y021504D01*
X009299Y021622D02*
X027617Y021622D01*
X027454Y021741D02*
X009462Y021741D01*
X014843Y021148D02*
X014923Y021148D01*
X014923Y021030D02*
X014843Y021030D01*
X014843Y020911D02*
X014923Y020911D01*
X014923Y020793D02*
X014843Y020793D01*
X016411Y014986D02*
X027863Y014986D01*
X027863Y014868D02*
X016529Y014868D01*
X016585Y014749D02*
X027863Y014749D01*
X027863Y014631D02*
X016623Y014631D01*
X016623Y014512D02*
X027863Y014512D01*
X027863Y014394D02*
X016603Y014394D01*
X016554Y014275D02*
X027863Y014275D01*
X027863Y014157D02*
X016453Y014157D01*
X016316Y014038D02*
X027863Y014038D01*
X027863Y013920D02*
X016477Y013920D01*
X016563Y013801D02*
X027863Y013801D01*
X027863Y013683D02*
X016613Y013683D01*
X016623Y013564D02*
X027863Y013564D01*
X027863Y013446D02*
X016623Y013446D01*
X016575Y013327D02*
X027863Y013327D01*
X027863Y013209D02*
X016505Y013209D01*
X015624Y012853D02*
X009053Y012853D01*
X009053Y012735D02*
X015575Y012735D01*
X015543Y012616D02*
X009053Y012616D01*
X009053Y012498D02*
X015543Y012498D01*
X015569Y012379D02*
X009053Y012379D01*
X009053Y012261D02*
X015618Y012261D01*
X015727Y012142D02*
X009053Y012142D01*
X009053Y012024D02*
X015815Y012024D01*
X015674Y011905D02*
X009053Y011905D01*
X009053Y011787D02*
X015596Y011787D01*
X015547Y011668D02*
X009053Y011668D01*
X009053Y011550D02*
X015543Y011550D01*
X015548Y011431D02*
X009053Y011431D01*
X009053Y011313D02*
X015597Y011313D01*
X015675Y011194D02*
X009053Y011194D01*
X009053Y011076D02*
X015817Y011076D01*
X012690Y008587D02*
X009053Y008587D01*
X009053Y008469D02*
X012454Y008469D01*
X012335Y008350D02*
X009053Y008350D01*
X009053Y008232D02*
X012258Y008232D01*
X012209Y008113D02*
X009053Y008113D01*
X009053Y007995D02*
X012177Y007995D01*
X012177Y007876D02*
X009053Y007876D01*
X009053Y007758D02*
X012177Y007758D01*
X012223Y007639D02*
X009053Y007639D01*
X009053Y007521D02*
X012272Y007521D01*
X012056Y007402D02*
X009053Y007402D01*
X009053Y007284D02*
X011938Y007284D01*
X011862Y007165D02*
X009053Y007165D01*
X009053Y007047D02*
X011813Y007047D01*
X011783Y006928D02*
X009053Y006928D01*
X009053Y006810D02*
X011783Y006810D01*
X009768Y005862D02*
X009648Y005862D01*
X009648Y005743D02*
X009768Y005743D01*
X009768Y005625D02*
X009648Y005625D01*
X009648Y005506D02*
X009768Y005506D01*
X009768Y005388D02*
X009648Y005388D01*
X009324Y005388D02*
X009053Y005388D01*
X009053Y005506D02*
X009198Y005506D01*
X009119Y005625D02*
X009053Y005625D01*
X009053Y005743D02*
X009073Y005743D01*
X009053Y006099D02*
X009071Y006099D01*
X009053Y006217D02*
X009115Y006217D01*
X009053Y006336D02*
X009191Y006336D01*
X009313Y006454D02*
X009053Y006454D01*
X011931Y004677D02*
X013583Y004677D01*
X013512Y004558D02*
X012093Y004558D01*
X012210Y004440D02*
X013463Y004440D01*
X013437Y004321D02*
X012259Y004321D01*
X012308Y004203D02*
X013437Y004203D01*
X013439Y004084D02*
X012318Y004084D01*
X012318Y003966D02*
X013488Y003966D01*
X013537Y003847D02*
X012299Y003847D01*
X012250Y003729D02*
X013642Y003729D01*
X013777Y003610D02*
X012191Y003610D01*
M02*
