G75*
%MOIN*%
%OFA0B0*%
%FSLAX24Y24*%
%IPPOS*%
%LPD*%
%AMOC8*
5,1,8,0,0,1.08239X$1,22.5*
%
%ADD10C,0.0000*%
D10*
X001927Y006076D02*
X001927Y037179D01*
X001926Y037179D02*
X001928Y037289D01*
X001934Y037399D01*
X001943Y037508D01*
X001957Y037617D01*
X001974Y037726D01*
X001995Y037834D01*
X002020Y037941D01*
X002048Y038047D01*
X002080Y038152D01*
X002116Y038256D01*
X002155Y038359D01*
X002198Y038460D01*
X002245Y038560D01*
X002295Y038658D01*
X002348Y038754D01*
X002405Y038848D01*
X002465Y038940D01*
X002528Y039031D01*
X002594Y039118D01*
X002663Y039204D01*
X002735Y039287D01*
X002810Y039367D01*
X002888Y039445D01*
X002968Y039520D01*
X003051Y039592D01*
X003137Y039661D01*
X003224Y039727D01*
X003315Y039790D01*
X003407Y039850D01*
X003501Y039907D01*
X003597Y039960D01*
X003695Y040010D01*
X003795Y040057D01*
X003896Y040100D01*
X003999Y040139D01*
X004103Y040175D01*
X004208Y040207D01*
X004314Y040235D01*
X004421Y040260D01*
X004529Y040281D01*
X004638Y040298D01*
X004747Y040312D01*
X004856Y040321D01*
X004966Y040327D01*
X005076Y040329D01*
X005076Y040328D02*
X018462Y040328D01*
X018462Y040329D02*
X018572Y040327D01*
X018682Y040321D01*
X018791Y040312D01*
X018900Y040298D01*
X019009Y040281D01*
X019117Y040260D01*
X019224Y040235D01*
X019330Y040207D01*
X019435Y040175D01*
X019539Y040139D01*
X019642Y040100D01*
X019743Y040057D01*
X019843Y040010D01*
X019941Y039960D01*
X020037Y039907D01*
X020131Y039850D01*
X020223Y039790D01*
X020314Y039727D01*
X020401Y039661D01*
X020487Y039592D01*
X020570Y039520D01*
X020650Y039445D01*
X020728Y039367D01*
X020803Y039287D01*
X020875Y039204D01*
X020944Y039118D01*
X021010Y039031D01*
X021073Y038940D01*
X021133Y038848D01*
X021190Y038754D01*
X021243Y038658D01*
X021293Y038560D01*
X021340Y038460D01*
X021383Y038359D01*
X021422Y038256D01*
X021458Y038152D01*
X021490Y038047D01*
X021518Y037941D01*
X021543Y037834D01*
X021564Y037726D01*
X021581Y037617D01*
X021595Y037508D01*
X021604Y037399D01*
X021610Y037289D01*
X021612Y037179D01*
X021612Y006076D01*
X021610Y005966D01*
X021604Y005856D01*
X021595Y005747D01*
X021581Y005638D01*
X021564Y005529D01*
X021543Y005421D01*
X021518Y005314D01*
X021490Y005208D01*
X021458Y005103D01*
X021422Y004999D01*
X021383Y004896D01*
X021340Y004795D01*
X021293Y004695D01*
X021243Y004597D01*
X021190Y004501D01*
X021133Y004407D01*
X021073Y004315D01*
X021010Y004224D01*
X020944Y004137D01*
X020875Y004051D01*
X020803Y003968D01*
X020728Y003888D01*
X020650Y003810D01*
X020570Y003735D01*
X020487Y003663D01*
X020401Y003594D01*
X020314Y003528D01*
X020223Y003465D01*
X020131Y003405D01*
X020037Y003348D01*
X019941Y003295D01*
X019843Y003245D01*
X019743Y003198D01*
X019642Y003155D01*
X019539Y003116D01*
X019435Y003080D01*
X019330Y003048D01*
X019224Y003020D01*
X019117Y002995D01*
X019009Y002974D01*
X018900Y002957D01*
X018791Y002943D01*
X018682Y002934D01*
X018572Y002928D01*
X018462Y002926D01*
X018462Y002927D02*
X005076Y002927D01*
X005076Y002926D02*
X004966Y002928D01*
X004856Y002934D01*
X004747Y002943D01*
X004638Y002957D01*
X004529Y002974D01*
X004421Y002995D01*
X004314Y003020D01*
X004208Y003048D01*
X004103Y003080D01*
X003999Y003116D01*
X003896Y003155D01*
X003795Y003198D01*
X003695Y003245D01*
X003597Y003295D01*
X003501Y003348D01*
X003407Y003405D01*
X003315Y003465D01*
X003224Y003528D01*
X003137Y003594D01*
X003051Y003663D01*
X002968Y003735D01*
X002888Y003810D01*
X002810Y003888D01*
X002735Y003968D01*
X002663Y004051D01*
X002594Y004137D01*
X002528Y004224D01*
X002465Y004315D01*
X002405Y004407D01*
X002348Y004501D01*
X002295Y004597D01*
X002245Y004695D01*
X002198Y004795D01*
X002155Y004896D01*
X002116Y004999D01*
X002080Y005103D01*
X002048Y005208D01*
X002020Y005314D01*
X001995Y005421D01*
X001974Y005529D01*
X001957Y005638D01*
X001943Y005747D01*
X001934Y005856D01*
X001928Y005966D01*
X001926Y006076D01*
X004761Y006470D02*
X004763Y006523D01*
X004769Y006576D01*
X004779Y006628D01*
X004792Y006679D01*
X004810Y006729D01*
X004831Y006778D01*
X004856Y006825D01*
X004884Y006869D01*
X004916Y006912D01*
X004950Y006952D01*
X004988Y006990D01*
X005028Y007024D01*
X005071Y007056D01*
X005116Y007084D01*
X005162Y007109D01*
X005211Y007130D01*
X005261Y007148D01*
X005312Y007161D01*
X005364Y007171D01*
X005417Y007177D01*
X005470Y007179D01*
X005523Y007177D01*
X005576Y007171D01*
X005628Y007161D01*
X005679Y007148D01*
X005729Y007130D01*
X005778Y007109D01*
X005825Y007084D01*
X005869Y007056D01*
X005912Y007024D01*
X005952Y006990D01*
X005990Y006952D01*
X006024Y006912D01*
X006056Y006869D01*
X006084Y006824D01*
X006109Y006778D01*
X006130Y006729D01*
X006148Y006679D01*
X006161Y006628D01*
X006171Y006576D01*
X006177Y006523D01*
X006179Y006470D01*
X006177Y006417D01*
X006171Y006364D01*
X006161Y006312D01*
X006148Y006261D01*
X006130Y006211D01*
X006109Y006162D01*
X006084Y006115D01*
X006056Y006071D01*
X006024Y006028D01*
X005990Y005988D01*
X005952Y005950D01*
X005912Y005916D01*
X005869Y005884D01*
X005824Y005856D01*
X005778Y005831D01*
X005729Y005810D01*
X005679Y005792D01*
X005628Y005779D01*
X005576Y005769D01*
X005523Y005763D01*
X005470Y005761D01*
X005417Y005763D01*
X005364Y005769D01*
X005312Y005779D01*
X005261Y005792D01*
X005211Y005810D01*
X005162Y005831D01*
X005115Y005856D01*
X005071Y005884D01*
X005028Y005916D01*
X004988Y005950D01*
X004950Y005988D01*
X004916Y006028D01*
X004884Y006071D01*
X004856Y006116D01*
X004831Y006162D01*
X004810Y006211D01*
X004792Y006261D01*
X004779Y006312D01*
X004769Y006364D01*
X004763Y006417D01*
X004761Y006470D01*
X009245Y004220D02*
X009247Y004257D01*
X009253Y004294D01*
X009263Y004330D01*
X009276Y004365D01*
X009293Y004398D01*
X009314Y004429D01*
X009338Y004457D01*
X009365Y004483D01*
X009394Y004506D01*
X009425Y004526D01*
X009459Y004542D01*
X009494Y004555D01*
X009530Y004564D01*
X009567Y004569D01*
X009604Y004570D01*
X009641Y004567D01*
X009678Y004560D01*
X009714Y004549D01*
X009748Y004535D01*
X009781Y004517D01*
X009811Y004495D01*
X009839Y004471D01*
X009864Y004443D01*
X009887Y004413D01*
X009906Y004381D01*
X009921Y004347D01*
X009933Y004312D01*
X009941Y004276D01*
X009945Y004239D01*
X009945Y004201D01*
X009941Y004164D01*
X009933Y004128D01*
X009921Y004093D01*
X009906Y004059D01*
X009887Y004027D01*
X009864Y003997D01*
X009839Y003969D01*
X009811Y003945D01*
X009781Y003923D01*
X009748Y003905D01*
X009714Y003891D01*
X009678Y003880D01*
X009641Y003873D01*
X009604Y003870D01*
X009567Y003871D01*
X009530Y003876D01*
X009494Y003885D01*
X009459Y003898D01*
X009425Y003914D01*
X009394Y003934D01*
X009365Y003957D01*
X009338Y003983D01*
X009314Y004011D01*
X009293Y004042D01*
X009276Y004075D01*
X009263Y004110D01*
X009253Y004146D01*
X009247Y004183D01*
X009245Y004220D01*
X015245Y004220D02*
X015247Y004257D01*
X015253Y004294D01*
X015263Y004330D01*
X015276Y004365D01*
X015293Y004398D01*
X015314Y004429D01*
X015338Y004457D01*
X015365Y004483D01*
X015394Y004506D01*
X015425Y004526D01*
X015459Y004542D01*
X015494Y004555D01*
X015530Y004564D01*
X015567Y004569D01*
X015604Y004570D01*
X015641Y004567D01*
X015678Y004560D01*
X015714Y004549D01*
X015748Y004535D01*
X015781Y004517D01*
X015811Y004495D01*
X015839Y004471D01*
X015864Y004443D01*
X015887Y004413D01*
X015906Y004381D01*
X015921Y004347D01*
X015933Y004312D01*
X015941Y004276D01*
X015945Y004239D01*
X015945Y004201D01*
X015941Y004164D01*
X015933Y004128D01*
X015921Y004093D01*
X015906Y004059D01*
X015887Y004027D01*
X015864Y003997D01*
X015839Y003969D01*
X015811Y003945D01*
X015781Y003923D01*
X015748Y003905D01*
X015714Y003891D01*
X015678Y003880D01*
X015641Y003873D01*
X015604Y003870D01*
X015567Y003871D01*
X015530Y003876D01*
X015494Y003885D01*
X015459Y003898D01*
X015425Y003914D01*
X015394Y003934D01*
X015365Y003957D01*
X015338Y003983D01*
X015314Y004011D01*
X015293Y004042D01*
X015276Y004075D01*
X015263Y004110D01*
X015253Y004146D01*
X015247Y004183D01*
X015245Y004220D01*
X017418Y006470D02*
X017420Y006523D01*
X017426Y006576D01*
X017436Y006628D01*
X017449Y006679D01*
X017467Y006729D01*
X017488Y006778D01*
X017513Y006825D01*
X017541Y006869D01*
X017573Y006912D01*
X017607Y006952D01*
X017645Y006990D01*
X017685Y007024D01*
X017728Y007056D01*
X017773Y007084D01*
X017819Y007109D01*
X017868Y007130D01*
X017918Y007148D01*
X017969Y007161D01*
X018021Y007171D01*
X018074Y007177D01*
X018127Y007179D01*
X018180Y007177D01*
X018233Y007171D01*
X018285Y007161D01*
X018336Y007148D01*
X018386Y007130D01*
X018435Y007109D01*
X018482Y007084D01*
X018526Y007056D01*
X018569Y007024D01*
X018609Y006990D01*
X018647Y006952D01*
X018681Y006912D01*
X018713Y006869D01*
X018741Y006824D01*
X018766Y006778D01*
X018787Y006729D01*
X018805Y006679D01*
X018818Y006628D01*
X018828Y006576D01*
X018834Y006523D01*
X018836Y006470D01*
X018834Y006417D01*
X018828Y006364D01*
X018818Y006312D01*
X018805Y006261D01*
X018787Y006211D01*
X018766Y006162D01*
X018741Y006115D01*
X018713Y006071D01*
X018681Y006028D01*
X018647Y005988D01*
X018609Y005950D01*
X018569Y005916D01*
X018526Y005884D01*
X018481Y005856D01*
X018435Y005831D01*
X018386Y005810D01*
X018336Y005792D01*
X018285Y005779D01*
X018233Y005769D01*
X018180Y005763D01*
X018127Y005761D01*
X018074Y005763D01*
X018021Y005769D01*
X017969Y005779D01*
X017918Y005792D01*
X017868Y005810D01*
X017819Y005831D01*
X017772Y005856D01*
X017728Y005884D01*
X017685Y005916D01*
X017645Y005950D01*
X017607Y005988D01*
X017573Y006028D01*
X017541Y006071D01*
X017513Y006116D01*
X017488Y006162D01*
X017467Y006211D01*
X017449Y006261D01*
X017436Y006312D01*
X017426Y006364D01*
X017420Y006417D01*
X017418Y006470D01*
X015245Y020220D02*
X015247Y020257D01*
X015253Y020294D01*
X015263Y020330D01*
X015276Y020365D01*
X015293Y020398D01*
X015314Y020429D01*
X015338Y020457D01*
X015365Y020483D01*
X015394Y020506D01*
X015425Y020526D01*
X015459Y020542D01*
X015494Y020555D01*
X015530Y020564D01*
X015567Y020569D01*
X015604Y020570D01*
X015641Y020567D01*
X015678Y020560D01*
X015714Y020549D01*
X015748Y020535D01*
X015781Y020517D01*
X015811Y020495D01*
X015839Y020471D01*
X015864Y020443D01*
X015887Y020413D01*
X015906Y020381D01*
X015921Y020347D01*
X015933Y020312D01*
X015941Y020276D01*
X015945Y020239D01*
X015945Y020201D01*
X015941Y020164D01*
X015933Y020128D01*
X015921Y020093D01*
X015906Y020059D01*
X015887Y020027D01*
X015864Y019997D01*
X015839Y019969D01*
X015811Y019945D01*
X015781Y019923D01*
X015748Y019905D01*
X015714Y019891D01*
X015678Y019880D01*
X015641Y019873D01*
X015604Y019870D01*
X015567Y019871D01*
X015530Y019876D01*
X015494Y019885D01*
X015459Y019898D01*
X015425Y019914D01*
X015394Y019934D01*
X015365Y019957D01*
X015338Y019983D01*
X015314Y020011D01*
X015293Y020042D01*
X015276Y020075D01*
X015263Y020110D01*
X015253Y020146D01*
X015247Y020183D01*
X015245Y020220D01*
X009245Y020220D02*
X009247Y020257D01*
X009253Y020294D01*
X009263Y020330D01*
X009276Y020365D01*
X009293Y020398D01*
X009314Y020429D01*
X009338Y020457D01*
X009365Y020483D01*
X009394Y020506D01*
X009425Y020526D01*
X009459Y020542D01*
X009494Y020555D01*
X009530Y020564D01*
X009567Y020569D01*
X009604Y020570D01*
X009641Y020567D01*
X009678Y020560D01*
X009714Y020549D01*
X009748Y020535D01*
X009781Y020517D01*
X009811Y020495D01*
X009839Y020471D01*
X009864Y020443D01*
X009887Y020413D01*
X009906Y020381D01*
X009921Y020347D01*
X009933Y020312D01*
X009941Y020276D01*
X009945Y020239D01*
X009945Y020201D01*
X009941Y020164D01*
X009933Y020128D01*
X009921Y020093D01*
X009906Y020059D01*
X009887Y020027D01*
X009864Y019997D01*
X009839Y019969D01*
X009811Y019945D01*
X009781Y019923D01*
X009748Y019905D01*
X009714Y019891D01*
X009678Y019880D01*
X009641Y019873D01*
X009604Y019870D01*
X009567Y019871D01*
X009530Y019876D01*
X009494Y019885D01*
X009459Y019898D01*
X009425Y019914D01*
X009394Y019934D01*
X009365Y019957D01*
X009338Y019983D01*
X009314Y020011D01*
X009293Y020042D01*
X009276Y020075D01*
X009263Y020110D01*
X009253Y020146D01*
X009247Y020183D01*
X009245Y020220D01*
X004761Y036549D02*
X004763Y036602D01*
X004769Y036655D01*
X004779Y036707D01*
X004792Y036758D01*
X004810Y036808D01*
X004831Y036857D01*
X004856Y036904D01*
X004884Y036948D01*
X004916Y036991D01*
X004950Y037031D01*
X004988Y037069D01*
X005028Y037103D01*
X005071Y037135D01*
X005116Y037163D01*
X005162Y037188D01*
X005211Y037209D01*
X005261Y037227D01*
X005312Y037240D01*
X005364Y037250D01*
X005417Y037256D01*
X005470Y037258D01*
X005523Y037256D01*
X005576Y037250D01*
X005628Y037240D01*
X005679Y037227D01*
X005729Y037209D01*
X005778Y037188D01*
X005825Y037163D01*
X005869Y037135D01*
X005912Y037103D01*
X005952Y037069D01*
X005990Y037031D01*
X006024Y036991D01*
X006056Y036948D01*
X006084Y036903D01*
X006109Y036857D01*
X006130Y036808D01*
X006148Y036758D01*
X006161Y036707D01*
X006171Y036655D01*
X006177Y036602D01*
X006179Y036549D01*
X006177Y036496D01*
X006171Y036443D01*
X006161Y036391D01*
X006148Y036340D01*
X006130Y036290D01*
X006109Y036241D01*
X006084Y036194D01*
X006056Y036150D01*
X006024Y036107D01*
X005990Y036067D01*
X005952Y036029D01*
X005912Y035995D01*
X005869Y035963D01*
X005824Y035935D01*
X005778Y035910D01*
X005729Y035889D01*
X005679Y035871D01*
X005628Y035858D01*
X005576Y035848D01*
X005523Y035842D01*
X005470Y035840D01*
X005417Y035842D01*
X005364Y035848D01*
X005312Y035858D01*
X005261Y035871D01*
X005211Y035889D01*
X005162Y035910D01*
X005115Y035935D01*
X005071Y035963D01*
X005028Y035995D01*
X004988Y036029D01*
X004950Y036067D01*
X004916Y036107D01*
X004884Y036150D01*
X004856Y036195D01*
X004831Y036241D01*
X004810Y036290D01*
X004792Y036340D01*
X004779Y036391D01*
X004769Y036443D01*
X004763Y036496D01*
X004761Y036549D01*
X017418Y036549D02*
X017420Y036602D01*
X017426Y036655D01*
X017436Y036707D01*
X017449Y036758D01*
X017467Y036808D01*
X017488Y036857D01*
X017513Y036904D01*
X017541Y036948D01*
X017573Y036991D01*
X017607Y037031D01*
X017645Y037069D01*
X017685Y037103D01*
X017728Y037135D01*
X017773Y037163D01*
X017819Y037188D01*
X017868Y037209D01*
X017918Y037227D01*
X017969Y037240D01*
X018021Y037250D01*
X018074Y037256D01*
X018127Y037258D01*
X018180Y037256D01*
X018233Y037250D01*
X018285Y037240D01*
X018336Y037227D01*
X018386Y037209D01*
X018435Y037188D01*
X018482Y037163D01*
X018526Y037135D01*
X018569Y037103D01*
X018609Y037069D01*
X018647Y037031D01*
X018681Y036991D01*
X018713Y036948D01*
X018741Y036903D01*
X018766Y036857D01*
X018787Y036808D01*
X018805Y036758D01*
X018818Y036707D01*
X018828Y036655D01*
X018834Y036602D01*
X018836Y036549D01*
X018834Y036496D01*
X018828Y036443D01*
X018818Y036391D01*
X018805Y036340D01*
X018787Y036290D01*
X018766Y036241D01*
X018741Y036194D01*
X018713Y036150D01*
X018681Y036107D01*
X018647Y036067D01*
X018609Y036029D01*
X018569Y035995D01*
X018526Y035963D01*
X018481Y035935D01*
X018435Y035910D01*
X018386Y035889D01*
X018336Y035871D01*
X018285Y035858D01*
X018233Y035848D01*
X018180Y035842D01*
X018127Y035840D01*
X018074Y035842D01*
X018021Y035848D01*
X017969Y035858D01*
X017918Y035871D01*
X017868Y035889D01*
X017819Y035910D01*
X017772Y035935D01*
X017728Y035963D01*
X017685Y035995D01*
X017645Y036029D01*
X017607Y036067D01*
X017573Y036107D01*
X017541Y036150D01*
X017513Y036195D01*
X017488Y036241D01*
X017467Y036290D01*
X017449Y036340D01*
X017436Y036391D01*
X017426Y036443D01*
X017420Y036496D01*
X017418Y036549D01*
M02*
