G75*
%MOIN*%
%OFA0B0*%
%FSLAX24Y24*%
%IPPOS*%
%LPD*%
%AMOC8*
5,1,8,0,0,1.08239X$1,22.5*
%
%ADD10C,0.0000*%
%ADD11R,0.0240X0.0870*%
%ADD12R,0.0433X0.0394*%
%ADD13R,0.0394X0.0433*%
%ADD14R,0.0394X0.0551*%
%ADD15C,0.0640*%
%ADD16R,0.0740X0.0740*%
%ADD17C,0.0740*%
%ADD18R,0.0591X0.0394*%
%ADD19R,0.0787X0.0394*%
%ADD20C,0.0866*%
%ADD21C,0.1700*%
%ADD22R,0.0630X0.0709*%
%ADD23C,0.0600*%
%ADD24C,0.1000*%
%ADD25C,0.0160*%
%ADD26C,0.0400*%
%ADD27C,0.1000*%
%ADD28C,0.0660*%
%ADD29C,0.0120*%
%ADD30C,0.0320*%
%ADD31C,0.0240*%
%ADD32C,0.0860*%
%ADD33C,0.1500*%
%ADD34C,0.0789*%
D10*
X008833Y003385D02*
X008833Y021065D01*
X008833Y021066D02*
X008835Y021128D01*
X008841Y021189D01*
X008850Y021250D01*
X008864Y021311D01*
X008881Y021370D01*
X008902Y021428D01*
X008927Y021485D01*
X008955Y021540D01*
X008986Y021593D01*
X009021Y021644D01*
X009059Y021693D01*
X009100Y021740D01*
X009143Y021783D01*
X009190Y021824D01*
X009239Y021862D01*
X009290Y021897D01*
X009343Y021928D01*
X009398Y021956D01*
X009455Y021981D01*
X009513Y022002D01*
X009572Y022019D01*
X009633Y022033D01*
X009694Y022042D01*
X009755Y022048D01*
X009817Y022050D01*
X027099Y022050D01*
X027161Y022048D01*
X027222Y022042D01*
X027283Y022033D01*
X027344Y022019D01*
X027403Y022002D01*
X027461Y021981D01*
X027518Y021956D01*
X027573Y021928D01*
X027626Y021897D01*
X027677Y021862D01*
X027726Y021824D01*
X027773Y021783D01*
X027816Y021740D01*
X027857Y021693D01*
X027895Y021644D01*
X027930Y021593D01*
X027961Y021540D01*
X027989Y021485D01*
X028014Y021428D01*
X028035Y021370D01*
X028052Y021311D01*
X028066Y021250D01*
X028075Y021189D01*
X028081Y021128D01*
X028083Y021066D01*
X028083Y003409D01*
X028081Y003347D01*
X028075Y003286D01*
X028066Y003225D01*
X028052Y003164D01*
X028035Y003105D01*
X028014Y003047D01*
X027989Y002990D01*
X027961Y002935D01*
X027930Y002882D01*
X027895Y002831D01*
X027857Y002782D01*
X027816Y002735D01*
X027773Y002692D01*
X027726Y002651D01*
X027677Y002613D01*
X027626Y002578D01*
X027573Y002547D01*
X027518Y002519D01*
X027461Y002494D01*
X027403Y002473D01*
X027344Y002456D01*
X027283Y002442D01*
X027222Y002433D01*
X027161Y002427D01*
X027099Y002425D01*
X009817Y002425D01*
X009755Y002427D01*
X009694Y002433D01*
X009633Y002442D01*
X009572Y002456D01*
X009513Y002473D01*
X009455Y002494D01*
X009398Y002519D01*
X009343Y002547D01*
X009290Y002578D01*
X009239Y002613D01*
X009190Y002651D01*
X009143Y002692D01*
X009100Y002735D01*
X009059Y002782D01*
X009021Y002831D01*
X008986Y002882D01*
X008955Y002935D01*
X008927Y002990D01*
X008902Y003047D01*
X008881Y003105D01*
X008864Y003164D01*
X008850Y003225D01*
X008841Y003286D01*
X008835Y003347D01*
X008833Y003409D01*
X020828Y008675D02*
X020830Y008725D01*
X020836Y008775D01*
X020846Y008824D01*
X020860Y008872D01*
X020877Y008919D01*
X020898Y008964D01*
X020923Y009008D01*
X020951Y009049D01*
X020983Y009088D01*
X021017Y009125D01*
X021054Y009159D01*
X021094Y009189D01*
X021136Y009216D01*
X021180Y009240D01*
X021226Y009261D01*
X021273Y009277D01*
X021321Y009290D01*
X021371Y009299D01*
X021420Y009304D01*
X021471Y009305D01*
X021521Y009302D01*
X021570Y009295D01*
X021619Y009284D01*
X021667Y009269D01*
X021713Y009251D01*
X021758Y009229D01*
X021801Y009203D01*
X021842Y009174D01*
X021881Y009142D01*
X021917Y009107D01*
X021949Y009069D01*
X021979Y009029D01*
X022006Y008986D01*
X022029Y008942D01*
X022048Y008896D01*
X022064Y008848D01*
X022076Y008799D01*
X022084Y008750D01*
X022088Y008700D01*
X022088Y008650D01*
X022084Y008600D01*
X022076Y008551D01*
X022064Y008502D01*
X022048Y008454D01*
X022029Y008408D01*
X022006Y008364D01*
X021979Y008321D01*
X021949Y008281D01*
X021917Y008243D01*
X021881Y008208D01*
X021842Y008176D01*
X021801Y008147D01*
X021758Y008121D01*
X021713Y008099D01*
X021667Y008081D01*
X021619Y008066D01*
X021570Y008055D01*
X021521Y008048D01*
X021471Y008045D01*
X021420Y008046D01*
X021371Y008051D01*
X021321Y008060D01*
X021273Y008073D01*
X021226Y008089D01*
X021180Y008110D01*
X021136Y008134D01*
X021094Y008161D01*
X021054Y008191D01*
X021017Y008225D01*
X020983Y008262D01*
X020951Y008301D01*
X020923Y008342D01*
X020898Y008386D01*
X020877Y008431D01*
X020860Y008478D01*
X020846Y008526D01*
X020836Y008575D01*
X020830Y008625D01*
X020828Y008675D01*
X020828Y020175D02*
X020830Y020225D01*
X020836Y020275D01*
X020846Y020324D01*
X020860Y020372D01*
X020877Y020419D01*
X020898Y020464D01*
X020923Y020508D01*
X020951Y020549D01*
X020983Y020588D01*
X021017Y020625D01*
X021054Y020659D01*
X021094Y020689D01*
X021136Y020716D01*
X021180Y020740D01*
X021226Y020761D01*
X021273Y020777D01*
X021321Y020790D01*
X021371Y020799D01*
X021420Y020804D01*
X021471Y020805D01*
X021521Y020802D01*
X021570Y020795D01*
X021619Y020784D01*
X021667Y020769D01*
X021713Y020751D01*
X021758Y020729D01*
X021801Y020703D01*
X021842Y020674D01*
X021881Y020642D01*
X021917Y020607D01*
X021949Y020569D01*
X021979Y020529D01*
X022006Y020486D01*
X022029Y020442D01*
X022048Y020396D01*
X022064Y020348D01*
X022076Y020299D01*
X022084Y020250D01*
X022088Y020200D01*
X022088Y020150D01*
X022084Y020100D01*
X022076Y020051D01*
X022064Y020002D01*
X022048Y019954D01*
X022029Y019908D01*
X022006Y019864D01*
X021979Y019821D01*
X021949Y019781D01*
X021917Y019743D01*
X021881Y019708D01*
X021842Y019676D01*
X021801Y019647D01*
X021758Y019621D01*
X021713Y019599D01*
X021667Y019581D01*
X021619Y019566D01*
X021570Y019555D01*
X021521Y019548D01*
X021471Y019545D01*
X021420Y019546D01*
X021371Y019551D01*
X021321Y019560D01*
X021273Y019573D01*
X021226Y019589D01*
X021180Y019610D01*
X021136Y019634D01*
X021094Y019661D01*
X021054Y019691D01*
X021017Y019725D01*
X020983Y019762D01*
X020951Y019801D01*
X020923Y019842D01*
X020898Y019886D01*
X020877Y019931D01*
X020860Y019978D01*
X020846Y020026D01*
X020836Y020075D01*
X020830Y020125D01*
X020828Y020175D01*
D11*
X019958Y010080D03*
X019458Y010080D03*
X018958Y010080D03*
X018458Y010080D03*
X018458Y008020D03*
X018958Y008020D03*
X019458Y008020D03*
X019958Y008020D03*
X019958Y005955D03*
X019458Y005955D03*
X018958Y005955D03*
X018458Y005955D03*
X018458Y003895D03*
X018958Y003895D03*
X019458Y003895D03*
X019958Y003895D03*
D12*
X017583Y007465D03*
X017583Y008135D03*
X017583Y008715D03*
X017583Y009385D03*
X017583Y010090D03*
X017583Y010760D03*
X015833Y010760D03*
X015833Y010090D03*
X014833Y010090D03*
X014833Y010760D03*
X014958Y008135D03*
X014958Y007465D03*
X015833Y007465D03*
X015833Y008135D03*
X020498Y010675D03*
X021168Y010675D03*
X022873Y016800D03*
X023543Y016800D03*
D13*
X023543Y016050D03*
X022873Y016050D03*
X022873Y014550D03*
X023543Y014550D03*
X019418Y016050D03*
X018748Y016050D03*
X018748Y016800D03*
X019418Y016800D03*
X016793Y016800D03*
X016123Y016800D03*
X016123Y016050D03*
X016123Y015300D03*
X016793Y015300D03*
X016793Y016050D03*
X016708Y010760D03*
X016708Y010090D03*
X016708Y008135D03*
X016708Y007465D03*
X023123Y005800D03*
X023793Y005800D03*
X023918Y008925D03*
X023248Y008925D03*
X023248Y009675D03*
X023918Y009675D03*
X024583Y009965D03*
X024583Y010635D03*
D14*
X023957Y008108D03*
X023209Y008108D03*
X023583Y007242D03*
X019083Y014367D03*
X019457Y015233D03*
X018709Y015233D03*
D15*
X019083Y017550D03*
X020083Y017550D03*
X021083Y017550D03*
X022083Y017550D03*
X023083Y017550D03*
X024083Y017550D03*
X025083Y017550D03*
X026083Y017550D03*
X027083Y017550D03*
X023583Y012550D03*
X022583Y012550D03*
X023083Y011550D03*
X024083Y011550D03*
X025083Y011550D03*
X026083Y011550D03*
X027083Y011550D03*
X022083Y011550D03*
X021083Y011550D03*
X020083Y011550D03*
X019083Y011550D03*
X018083Y011550D03*
X017083Y011550D03*
X016083Y011550D03*
X016083Y012550D03*
X016083Y013550D03*
X016083Y014550D03*
X016083Y017550D03*
X017083Y017550D03*
X018083Y017550D03*
D16*
X014883Y020675D03*
X027208Y019375D03*
D17*
X026208Y019475D03*
X025208Y019375D03*
X024208Y019475D03*
X019083Y018800D03*
X014883Y018675D03*
X014783Y019675D03*
X014783Y017675D03*
X014883Y016675D03*
X014783Y015675D03*
X014883Y014675D03*
X014783Y013675D03*
D18*
X026363Y009765D03*
X026363Y008585D03*
D19*
X026263Y009175D03*
D20*
X025508Y009175D02*
X024918Y009175D01*
D21*
X025870Y006400D03*
X024689Y004550D03*
X027051Y004550D03*
D22*
X027384Y007800D03*
X026282Y007800D03*
X026157Y010550D03*
X027259Y010550D03*
D23*
X022633Y004350D02*
X022633Y003750D01*
X021533Y003750D02*
X021533Y004350D01*
D24*
X014157Y004232D03*
X011598Y004035D03*
X009708Y005925D03*
X012503Y006831D03*
X012897Y007894D03*
D25*
X013138Y008135D01*
X014958Y008135D01*
X015833Y008135D01*
X015408Y008455D02*
X015383Y008455D01*
X015378Y008467D01*
X015310Y008535D01*
X015222Y008571D01*
X014694Y008571D01*
X014605Y008535D01*
X014538Y008467D01*
X014533Y008455D01*
X013382Y008455D01*
X013316Y008521D01*
X013044Y008634D01*
X012750Y008634D01*
X012478Y008521D01*
X012270Y008313D01*
X012157Y008041D01*
X012157Y007746D01*
X012248Y007526D01*
X012084Y007458D01*
X011876Y007250D01*
X011763Y006978D01*
X011763Y006683D01*
X011876Y006411D01*
X012084Y006203D01*
X012356Y006091D01*
X012484Y006091D01*
X012480Y006083D01*
X011936Y005504D01*
X011931Y005501D01*
X011836Y005396D01*
X011739Y005293D01*
X011737Y005288D01*
X011062Y004546D01*
X010970Y004454D01*
X010963Y004438D01*
X010951Y004424D01*
X010907Y004302D01*
X010858Y004182D01*
X010858Y004164D01*
X010852Y004147D01*
X010858Y004018D01*
X010858Y003888D01*
X010865Y003871D01*
X010865Y003853D01*
X010921Y003736D01*
X010970Y003616D01*
X010983Y003603D01*
X010991Y003587D01*
X011087Y003500D01*
X011179Y003408D01*
X011195Y003401D01*
X011208Y003389D01*
X011331Y003345D01*
X011451Y003295D01*
X011469Y003295D01*
X011485Y003289D01*
X011615Y003295D01*
X011745Y003295D01*
X011762Y003302D01*
X011780Y003303D01*
X011897Y003358D01*
X012017Y003408D01*
X012030Y003421D01*
X012046Y003428D01*
X012133Y003524D01*
X012225Y003616D01*
X012232Y003633D01*
X012923Y004392D01*
X013433Y004935D01*
X013920Y004935D01*
X013738Y004859D01*
X013529Y004651D01*
X013417Y004379D01*
X013417Y004085D01*
X013529Y003813D01*
X013738Y003605D01*
X014010Y003492D01*
X014304Y003492D01*
X014576Y003605D01*
X014784Y003813D01*
X014897Y004085D01*
X014897Y004379D01*
X014784Y004651D01*
X014576Y004859D01*
X014393Y004935D01*
X017986Y004935D01*
X018065Y004921D01*
X018132Y004935D01*
X018200Y004935D01*
X018274Y004966D01*
X018353Y004983D01*
X018409Y005021D01*
X018472Y005048D01*
X018529Y005104D01*
X018689Y005215D01*
X019605Y005215D01*
X019653Y005235D01*
X019827Y005235D01*
X019908Y005233D01*
X019914Y005235D01*
X019920Y005235D01*
X019996Y005266D01*
X020032Y005280D01*
X020126Y005280D01*
X020214Y005317D01*
X020281Y005384D01*
X020318Y005472D01*
X020318Y005682D01*
X020346Y005745D01*
X020375Y005790D01*
X020381Y005820D01*
X020394Y005848D01*
X020394Y005852D01*
X020395Y005856D01*
X020397Y005909D01*
X020407Y005962D01*
X020400Y005992D01*
X020401Y006023D01*
X020400Y006026D01*
X020400Y006031D01*
X020381Y006081D01*
X020370Y006133D01*
X020352Y006158D01*
X020318Y006253D01*
X020318Y006438D01*
X020281Y006526D01*
X020214Y006593D01*
X020207Y006596D01*
X020639Y007029D01*
X020729Y007119D01*
X020778Y007236D01*
X020778Y008125D01*
X020965Y007938D01*
X021285Y007805D01*
X021631Y007805D01*
X021951Y007938D01*
X022195Y008182D01*
X022328Y008502D01*
X022328Y008848D01*
X022195Y009168D01*
X021951Y009412D01*
X021631Y009545D01*
X021285Y009545D01*
X020965Y009412D01*
X020720Y009168D01*
X020705Y009130D01*
X020479Y009356D01*
X020389Y009446D01*
X020272Y009495D01*
X020267Y009495D01*
X020281Y009509D01*
X020318Y009597D01*
X020318Y010238D01*
X020763Y010238D01*
X020851Y010275D01*
X020885Y010309D01*
X020927Y010298D01*
X021149Y010298D01*
X021149Y010657D01*
X021186Y010657D01*
X021186Y010693D01*
X021564Y010693D01*
X021564Y010741D01*
X021902Y010404D01*
X022402Y009904D01*
X022519Y009855D01*
X022811Y009855D01*
X022811Y009411D01*
X022848Y009323D01*
X022870Y009300D01*
X022848Y009277D01*
X022811Y009189D01*
X022811Y008661D01*
X022848Y008573D01*
X022855Y008566D01*
X022809Y008520D01*
X022772Y008431D01*
X022772Y007785D01*
X022809Y007697D01*
X022876Y007629D01*
X022964Y007592D01*
X023080Y007592D01*
X023117Y007577D01*
X023151Y007577D01*
X023146Y007565D01*
X023146Y007258D01*
X022852Y006964D01*
X022803Y006846D01*
X022803Y006225D01*
X022790Y006220D01*
X022723Y006152D01*
X022710Y006120D01*
X021894Y006120D01*
X021777Y006071D01*
X020812Y005106D01*
X020700Y004995D01*
X018644Y004995D01*
X018527Y004946D01*
X018437Y004856D01*
X018187Y004606D01*
X018138Y004489D01*
X018138Y004469D01*
X018134Y004466D01*
X018098Y004378D01*
X018098Y003412D01*
X018134Y003324D01*
X018202Y003257D01*
X018290Y003220D01*
X018626Y003220D01*
X018654Y003232D01*
X018709Y003177D01*
X018870Y003110D01*
X019026Y003110D01*
X019085Y003103D01*
X019112Y003110D01*
X019295Y003110D01*
X019404Y003155D01*
X020105Y003155D01*
X020178Y003185D01*
X021067Y003185D01*
X021077Y003181D01*
X021200Y003130D01*
X021200Y003130D01*
X021201Y003130D01*
X021333Y003130D01*
X021466Y003130D01*
X021467Y003130D01*
X021468Y003130D01*
X021590Y003181D01*
X021712Y003232D01*
X021713Y003233D01*
X021714Y003233D01*
X021726Y003246D01*
X021839Y003292D01*
X021991Y003444D01*
X022060Y003612D01*
X022140Y003420D01*
X022328Y003232D01*
X022575Y003130D01*
X023902Y003130D01*
X023977Y003117D01*
X024034Y003130D01*
X024091Y003130D01*
X024162Y003159D01*
X024237Y003177D01*
X024284Y003210D01*
X024337Y003232D01*
X024363Y003257D01*
X024674Y003328D01*
X024880Y003473D01*
X025110Y003534D01*
X025359Y003678D01*
X025561Y003881D01*
X025705Y004129D01*
X025779Y004406D01*
X025779Y004694D01*
X025705Y004971D01*
X025561Y005219D01*
X025359Y005422D01*
X025110Y005566D01*
X024833Y005640D01*
X024546Y005640D01*
X024468Y005619D01*
X024797Y005948D01*
X024858Y006095D01*
X024858Y006207D01*
X024879Y006115D01*
X024917Y006006D01*
X024967Y005901D01*
X025029Y005803D01*
X025101Y005713D01*
X025183Y005631D01*
X025273Y005559D01*
X025371Y005497D01*
X025476Y005447D01*
X025585Y005409D01*
X025698Y005383D01*
X025790Y005373D01*
X025790Y006320D01*
X025950Y006320D01*
X025950Y005373D01*
X026043Y005383D01*
X026156Y005409D01*
X026265Y005447D01*
X026369Y005497D01*
X026467Y005559D01*
X026558Y005631D01*
X026640Y005713D01*
X026712Y005803D01*
X026773Y005901D01*
X026823Y006006D01*
X026862Y006115D01*
X026887Y006228D01*
X026898Y006320D01*
X025950Y006320D01*
X025950Y006480D01*
X026898Y006480D01*
X026887Y006573D01*
X026862Y006686D01*
X026823Y006795D01*
X026773Y006899D01*
X026712Y006997D01*
X026640Y007088D01*
X026558Y007170D01*
X026513Y007206D01*
X026644Y007206D01*
X026733Y007242D01*
X026800Y007310D01*
X026837Y007398D01*
X026837Y008202D01*
X026829Y008220D01*
X026862Y008252D01*
X026898Y008340D01*
X026898Y008829D01*
X026862Y008918D01*
X026834Y008945D01*
X026837Y008954D01*
X026837Y009157D01*
X026281Y009157D01*
X026281Y009193D01*
X026837Y009193D01*
X026837Y009396D01*
X026834Y009405D01*
X026862Y009432D01*
X026898Y009521D01*
X026898Y010010D01*
X026893Y010023D01*
X026920Y010016D01*
X027182Y010016D01*
X027182Y010473D01*
X026764Y010473D01*
X026764Y010178D01*
X026712Y010200D01*
X026712Y010952D01*
X026675Y011040D01*
X026608Y011108D01*
X026519Y011144D01*
X026375Y011144D01*
X026409Y011169D01*
X026464Y011224D01*
X026511Y011288D01*
X026546Y011358D01*
X026551Y011372D01*
X026608Y011233D01*
X026766Y011075D01*
X026833Y011047D01*
X026800Y011015D01*
X026776Y010974D01*
X026764Y010928D01*
X026764Y010627D01*
X027182Y010627D01*
X027182Y010473D01*
X027337Y010473D01*
X027337Y010627D01*
X027754Y010627D01*
X027754Y010928D01*
X027742Y010974D01*
X027718Y011015D01*
X027685Y011048D01*
X027644Y011072D01*
X027598Y011084D01*
X027409Y011084D01*
X027558Y011233D01*
X027643Y011439D01*
X027643Y011661D01*
X027558Y011867D01*
X027400Y012025D01*
X027194Y012110D01*
X026972Y012110D01*
X026766Y012025D01*
X026608Y011867D01*
X026551Y011728D01*
X026546Y011742D01*
X026511Y011812D01*
X026464Y011876D01*
X026409Y011931D01*
X026345Y011978D01*
X026275Y012013D01*
X026200Y012038D01*
X026122Y012050D01*
X026103Y012050D01*
X026103Y011570D01*
X026063Y011570D01*
X026063Y012050D01*
X026044Y012050D01*
X025966Y012038D01*
X025891Y012013D01*
X025821Y011978D01*
X025757Y011931D01*
X025702Y011876D01*
X025655Y011812D01*
X025620Y011742D01*
X025615Y011728D01*
X025558Y011867D01*
X025400Y012025D01*
X025194Y012110D01*
X024972Y012110D01*
X024766Y012025D01*
X024608Y011867D01*
X024583Y011806D01*
X024558Y011867D01*
X024400Y012025D01*
X024194Y012110D01*
X023972Y012110D01*
X023909Y012084D01*
X024058Y012233D01*
X024143Y012439D01*
X024143Y012661D01*
X024058Y012867D01*
X023900Y013025D01*
X023694Y013110D01*
X023472Y013110D01*
X023386Y013075D01*
X023028Y013433D01*
X023028Y014093D01*
X023118Y014093D01*
X023206Y014130D01*
X023254Y014178D01*
X023276Y014166D01*
X023322Y014153D01*
X023524Y014153D01*
X023524Y014532D01*
X023561Y014532D01*
X023561Y014568D01*
X023919Y014568D01*
X023919Y014790D01*
X023907Y014836D01*
X023896Y014855D01*
X024022Y014855D01*
X024139Y014904D01*
X025354Y016119D01*
X025854Y016619D01*
X025903Y016736D01*
X025903Y017018D01*
X025972Y016990D01*
X026194Y016990D01*
X026400Y017075D01*
X026558Y017233D01*
X026583Y017294D01*
X026608Y017233D01*
X026766Y017075D01*
X026972Y016990D01*
X027194Y016990D01*
X027400Y017075D01*
X027558Y017233D01*
X027643Y017439D01*
X027643Y017661D01*
X027558Y017867D01*
X027400Y018025D01*
X027194Y018110D01*
X026972Y018110D01*
X026766Y018025D01*
X026608Y017867D01*
X026583Y017806D01*
X026558Y017867D01*
X026400Y018025D01*
X026194Y018110D01*
X025972Y018110D01*
X025903Y018082D01*
X025903Y018167D01*
X026389Y018654D01*
X026479Y018744D01*
X026528Y018861D01*
X026528Y018947D01*
X026553Y018958D01*
X026658Y019062D01*
X026658Y018981D01*
X026670Y018936D01*
X026694Y018894D01*
X026727Y018861D01*
X026768Y018837D01*
X026814Y018825D01*
X027188Y018825D01*
X027188Y019355D01*
X027228Y019355D01*
X027228Y019395D01*
X027758Y019395D01*
X027758Y019769D01*
X027746Y019814D01*
X027722Y019856D01*
X027688Y019889D01*
X027647Y019913D01*
X027602Y019925D01*
X027228Y019925D01*
X027228Y019395D01*
X027188Y019395D01*
X027188Y019925D01*
X026814Y019925D01*
X026768Y019913D01*
X026727Y019889D01*
X026694Y019856D01*
X026693Y019853D01*
X026553Y019992D01*
X026329Y020085D01*
X026087Y020085D01*
X025862Y019992D01*
X025691Y019821D01*
X025672Y019774D01*
X025553Y019892D01*
X025329Y019985D01*
X025087Y019985D01*
X024862Y019892D01*
X024744Y019774D01*
X024725Y019821D01*
X024553Y019992D01*
X024329Y020085D01*
X024087Y020085D01*
X023862Y019992D01*
X023691Y019821D01*
X023598Y019596D01*
X023598Y019374D01*
X022884Y018660D01*
X021261Y018660D01*
X021129Y018605D01*
X020879Y018355D01*
X020778Y018254D01*
X020723Y018122D01*
X020723Y017982D01*
X020608Y017867D01*
X020583Y017806D01*
X020558Y017867D01*
X020443Y017982D01*
X020443Y018997D01*
X020388Y019129D01*
X020287Y019230D01*
X019537Y019980D01*
X019405Y020035D01*
X015286Y020035D01*
X015196Y020125D01*
X015277Y020125D01*
X015322Y020137D01*
X015363Y020161D01*
X015397Y020194D01*
X015421Y020236D01*
X015433Y020281D01*
X015433Y020655D01*
X014903Y020655D01*
X014903Y020695D01*
X015433Y020695D01*
X015433Y021069D01*
X015421Y021114D01*
X015397Y021156D01*
X015363Y021189D01*
X015322Y021213D01*
X015277Y021225D01*
X014903Y021225D01*
X014903Y020695D01*
X014863Y020695D01*
X014863Y021225D01*
X014489Y021225D01*
X014443Y021213D01*
X014402Y021189D01*
X014369Y021156D01*
X014345Y021114D01*
X014333Y021069D01*
X014333Y020695D01*
X014863Y020695D01*
X014863Y020655D01*
X014333Y020655D01*
X014333Y020281D01*
X014345Y020236D01*
X014369Y020194D01*
X014402Y020161D01*
X014405Y020160D01*
X014266Y020021D01*
X014173Y019796D01*
X014173Y019554D01*
X014266Y019329D01*
X014437Y019158D01*
X014484Y019139D01*
X014366Y019021D01*
X014355Y018995D01*
X014019Y018995D01*
X013902Y018946D01*
X013312Y018356D01*
X013263Y018239D01*
X013263Y015986D01*
X013312Y015869D01*
X013402Y015779D01*
X013763Y015417D01*
X013763Y013111D01*
X013812Y012994D01*
X013902Y012904D01*
X014013Y012792D01*
X014013Y010236D01*
X014062Y010119D01*
X014152Y010029D01*
X014361Y009819D01*
X014393Y009806D01*
X014413Y009758D01*
X014480Y009690D01*
X014569Y009654D01*
X015097Y009654D01*
X015185Y009690D01*
X015253Y009758D01*
X015289Y009846D01*
X015289Y009891D01*
X015361Y009819D01*
X015393Y009806D01*
X015413Y009758D01*
X015480Y009690D01*
X015569Y009654D01*
X016097Y009654D01*
X016185Y009690D01*
X016253Y009758D01*
X016289Y009846D01*
X016289Y010335D01*
X016253Y010423D01*
X016251Y010425D01*
X016253Y010427D01*
X016276Y010483D01*
X016308Y010407D01*
X016342Y010372D01*
X016331Y010331D01*
X016331Y010109D01*
X016690Y010109D01*
X016690Y010072D01*
X016726Y010072D01*
X016726Y009694D01*
X016928Y009694D01*
X016974Y009706D01*
X017015Y009730D01*
X017049Y009763D01*
X017073Y009804D01*
X017085Y009850D01*
X017085Y010072D01*
X016726Y010072D01*
X016726Y010109D01*
X017085Y010109D01*
X017085Y010331D01*
X017074Y010372D01*
X017108Y010407D01*
X017122Y010440D01*
X017158Y010440D01*
X017163Y010427D01*
X017165Y010425D01*
X017163Y010423D01*
X017126Y010335D01*
X017126Y009846D01*
X017163Y009758D01*
X017183Y009738D01*
X017163Y009717D01*
X017126Y009629D01*
X017126Y009140D01*
X017163Y009052D01*
X017165Y009050D01*
X017163Y009048D01*
X017126Y008960D01*
X017126Y008471D01*
X017145Y008425D01*
X017126Y008379D01*
X017126Y007890D01*
X017163Y007802D01*
X017211Y007754D01*
X017199Y007732D01*
X017186Y007686D01*
X017186Y007484D01*
X017565Y007484D01*
X017565Y007447D01*
X017186Y007447D01*
X017186Y007245D01*
X017197Y007205D01*
X017145Y007205D01*
X017145Y007730D01*
X017108Y007818D01*
X017074Y007853D01*
X017085Y007894D01*
X017085Y008116D01*
X016726Y008116D01*
X016726Y008153D01*
X016690Y008153D01*
X016690Y008531D01*
X016487Y008531D01*
X016442Y008519D01*
X016401Y008495D01*
X016367Y008462D01*
X016343Y008421D01*
X016331Y008375D01*
X016331Y008153D01*
X016690Y008153D01*
X016690Y008116D01*
X016331Y008116D01*
X016331Y007894D01*
X016342Y007853D01*
X016308Y007818D01*
X016294Y007785D01*
X016258Y007785D01*
X016253Y007798D01*
X016251Y007800D01*
X016253Y007802D01*
X016289Y007890D01*
X016289Y008379D01*
X016253Y008467D01*
X016185Y008535D01*
X016097Y008571D01*
X015569Y008571D01*
X015480Y008535D01*
X015413Y008467D01*
X015408Y008455D01*
X015408Y007815D02*
X015413Y007802D01*
X015415Y007800D01*
X015413Y007798D01*
X015395Y007756D01*
X015378Y007798D01*
X015376Y007800D01*
X015378Y007802D01*
X015383Y007815D01*
X015408Y007815D01*
X015408Y007814D02*
X015383Y007814D01*
X014958Y007465D02*
X014958Y007050D01*
X015458Y006550D01*
X017958Y006550D01*
X018208Y006800D01*
X019958Y006800D01*
X020458Y007300D01*
X020458Y008925D01*
X020208Y009175D01*
X019708Y009175D01*
X019458Y009425D01*
X019458Y010080D01*
X019458Y010675D01*
X019583Y010800D01*
X020418Y010800D01*
X020498Y010675D01*
X020458Y010675D01*
X020623Y010840D01*
X020583Y010881D01*
X020583Y011925D01*
X020833Y012175D01*
X021333Y012175D02*
X021333Y012050D01*
X021583Y011800D01*
X021583Y011175D01*
X021833Y010925D01*
X022083Y010675D01*
X022583Y010175D01*
X023583Y010175D01*
X023833Y009925D01*
X023918Y009840D01*
X023918Y009675D01*
X024354Y009571D02*
X024362Y009569D01*
X024446Y009569D01*
X024393Y009496D01*
X024354Y009420D01*
X024354Y009571D01*
X024354Y009558D02*
X024438Y009558D01*
X024332Y009356D02*
X024320Y009319D01*
X024310Y009255D01*
X025133Y009255D01*
X025133Y009788D01*
X024960Y009788D01*
X024960Y009947D01*
X024601Y009947D01*
X024601Y009984D01*
X024960Y009984D01*
X024960Y010206D01*
X024952Y010235D01*
X025602Y010235D01*
X025602Y010148D01*
X025638Y010060D01*
X025706Y009992D01*
X025794Y009956D01*
X025828Y009956D01*
X025828Y009700D01*
X025743Y009743D01*
X025652Y009773D01*
X025556Y009788D01*
X025293Y009788D01*
X025293Y009255D01*
X025689Y009255D01*
X025689Y009193D01*
X026244Y009193D01*
X026244Y009157D01*
X025689Y009157D01*
X025689Y009095D01*
X025293Y009095D01*
X025293Y009255D01*
X025133Y009255D01*
X025133Y009095D01*
X025293Y009095D01*
X025293Y008562D01*
X025556Y008562D01*
X025652Y008577D01*
X025743Y008607D01*
X025828Y008650D01*
X025828Y008355D01*
X025763Y008290D01*
X025727Y008202D01*
X025727Y008200D01*
X025128Y008200D01*
X024981Y008139D01*
X024744Y007902D01*
X024231Y007389D01*
X024119Y007277D01*
X024058Y007130D01*
X024058Y006341D01*
X023974Y006257D01*
X023548Y006257D01*
X023460Y006220D01*
X023458Y006218D01*
X023456Y006220D01*
X023443Y006225D01*
X023443Y006650D01*
X023520Y006726D01*
X023828Y006726D01*
X023916Y006763D01*
X023983Y006830D01*
X024020Y006919D01*
X024020Y007565D01*
X023984Y007652D01*
X024178Y007652D01*
X024223Y007665D01*
X024264Y007688D01*
X024298Y007722D01*
X024322Y007763D01*
X024334Y007809D01*
X024334Y008090D01*
X023975Y008090D01*
X023975Y008126D01*
X024334Y008126D01*
X024334Y008407D01*
X024322Y008453D01*
X024298Y008494D01*
X024264Y008528D01*
X024223Y008551D01*
X024209Y008555D01*
X024225Y008564D01*
X024258Y008598D01*
X024282Y008639D01*
X024294Y008685D01*
X024294Y008907D01*
X023936Y008907D01*
X023936Y008943D01*
X024294Y008943D01*
X024294Y009165D01*
X024282Y009211D01*
X024258Y009252D01*
X024253Y009258D01*
X024318Y009323D01*
X024332Y009356D01*
X024265Y009241D02*
X025133Y009241D01*
X025133Y009095D02*
X024310Y009095D01*
X024320Y009031D01*
X024349Y008940D01*
X024393Y008854D01*
X024450Y008776D01*
X024518Y008707D01*
X024596Y008651D01*
X024682Y008607D01*
X024774Y008577D01*
X024869Y008562D01*
X025133Y008562D01*
X025133Y009095D01*
X025133Y009082D02*
X025293Y009082D01*
X025293Y008924D02*
X025133Y008924D01*
X025133Y008765D02*
X025293Y008765D01*
X025293Y008607D02*
X025133Y008607D01*
X024683Y008607D02*
X024263Y008607D01*
X024294Y008765D02*
X024461Y008765D01*
X024358Y008924D02*
X023936Y008924D01*
X024294Y009082D02*
X024312Y009082D01*
X023666Y008537D02*
X023650Y008528D01*
X023619Y008497D01*
X023609Y008520D01*
X023602Y008526D01*
X023629Y008553D01*
X023651Y008541D01*
X023666Y008537D01*
X023248Y008925D02*
X023248Y007897D01*
X023180Y007897D01*
X023248Y007897D02*
X023209Y008108D01*
X022772Y008131D02*
X022144Y008131D01*
X022240Y008290D02*
X022772Y008290D01*
X022779Y008448D02*
X022306Y008448D01*
X022328Y008607D02*
X022834Y008607D01*
X022811Y008765D02*
X022328Y008765D01*
X022297Y008924D02*
X022811Y008924D01*
X022811Y009082D02*
X022231Y009082D01*
X022123Y009241D02*
X022833Y009241D01*
X022816Y009399D02*
X021964Y009399D01*
X022472Y009875D02*
X020318Y009875D01*
X020318Y010033D02*
X022272Y010033D01*
X022114Y010192D02*
X020318Y010192D01*
X020318Y009716D02*
X022811Y009716D01*
X022811Y009558D02*
X020301Y009558D01*
X020436Y009399D02*
X020952Y009399D01*
X020793Y009241D02*
X020595Y009241D01*
X020138Y008792D02*
X020138Y008690D01*
X020126Y008695D01*
X019790Y008695D01*
X019751Y008679D01*
X019729Y008731D01*
X019578Y008882D01*
X019644Y008855D01*
X020075Y008855D01*
X020138Y008792D01*
X020138Y008765D02*
X019695Y008765D01*
X019458Y008550D02*
X019208Y008800D01*
X017668Y008800D01*
X017583Y008715D01*
X017583Y008300D01*
X017583Y008135D01*
X017583Y008300D02*
X017583Y008715D01*
X017126Y008765D02*
X009073Y008765D01*
X009073Y008607D02*
X012685Y008607D01*
X012405Y008448D02*
X009073Y008448D01*
X009073Y008290D02*
X012260Y008290D01*
X012194Y008131D02*
X009073Y008131D01*
X009073Y007973D02*
X012157Y007973D01*
X012157Y007814D02*
X009073Y007814D01*
X009073Y007656D02*
X012195Y007656D01*
X012179Y007497D02*
X009073Y007497D01*
X009073Y007339D02*
X011965Y007339D01*
X011847Y007180D02*
X009073Y007180D01*
X009073Y007022D02*
X011781Y007022D01*
X011763Y006863D02*
X009073Y006863D01*
X009073Y006705D02*
X011763Y006705D01*
X011820Y006546D02*
X009986Y006546D01*
X010009Y006536D02*
X009927Y006570D01*
X009841Y006593D01*
X009785Y006601D01*
X009785Y006002D01*
X010384Y006002D01*
X010376Y006058D01*
X010353Y006144D01*
X010319Y006226D01*
X010275Y006304D01*
X010220Y006374D01*
X010157Y006437D01*
X010087Y006492D01*
X010009Y006536D01*
X009785Y006546D02*
X009630Y006546D01*
X009630Y006601D02*
X009575Y006593D01*
X009489Y006570D01*
X009407Y006536D01*
X009329Y006492D01*
X009259Y006437D01*
X009196Y006374D01*
X009141Y006304D01*
X009097Y006226D01*
X009073Y006169D01*
X009073Y021066D01*
X009082Y021182D01*
X009154Y021404D01*
X009291Y021592D01*
X009479Y021729D01*
X009701Y021801D01*
X009817Y021810D01*
X027099Y021810D01*
X027215Y021801D01*
X027437Y021729D01*
X027625Y021592D01*
X027762Y021404D01*
X027834Y021182D01*
X027843Y021066D01*
X027843Y008265D01*
X027810Y008298D01*
X027769Y008322D01*
X027723Y008334D01*
X027462Y008334D01*
X027462Y007877D01*
X027307Y007877D01*
X027307Y007723D01*
X026889Y007723D01*
X026889Y007422D01*
X026901Y007376D01*
X026925Y007335D01*
X026959Y007302D01*
X027000Y007278D01*
X027045Y007266D01*
X027307Y007266D01*
X027307Y007723D01*
X027462Y007723D01*
X027462Y007266D01*
X027723Y007266D01*
X027769Y007278D01*
X027810Y007302D01*
X027843Y007335D01*
X027843Y005209D01*
X027821Y005237D01*
X027739Y005319D01*
X027648Y005391D01*
X027550Y005453D01*
X027446Y005503D01*
X027337Y005541D01*
X027224Y005567D01*
X027131Y005578D01*
X027131Y004630D01*
X026971Y004630D01*
X026971Y004470D01*
X026024Y004470D01*
X026034Y004377D01*
X026060Y004264D01*
X026098Y004155D01*
X026149Y004051D01*
X026210Y003953D01*
X026282Y003863D01*
X026364Y003781D01*
X026454Y003709D01*
X026552Y003647D01*
X026657Y003597D01*
X026766Y003559D01*
X026879Y003533D01*
X026971Y003522D01*
X026971Y004470D01*
X027131Y004470D01*
X027131Y003522D01*
X027224Y003533D01*
X027337Y003559D01*
X027446Y003597D01*
X027550Y003647D01*
X027648Y003709D01*
X027739Y003781D01*
X027821Y003863D01*
X027843Y003891D01*
X027843Y003409D01*
X027834Y003293D01*
X027762Y003071D01*
X027625Y002883D01*
X027437Y002746D01*
X027215Y002674D01*
X027099Y002665D01*
X009817Y002665D01*
X009701Y002674D01*
X009479Y002746D01*
X009291Y002883D01*
X009154Y003071D01*
X009082Y003293D01*
X009073Y003409D01*
X009073Y005681D01*
X009097Y005624D01*
X009141Y005546D01*
X009196Y005476D01*
X009259Y005413D01*
X009329Y005358D01*
X009407Y005314D01*
X009489Y005280D01*
X009575Y005257D01*
X009630Y005249D01*
X009630Y005848D01*
X009785Y005848D01*
X009785Y006002D01*
X009630Y006002D01*
X009630Y006601D01*
X009430Y006546D02*
X009073Y006546D01*
X009073Y006388D02*
X009209Y006388D01*
X009098Y006229D02*
X009073Y006229D01*
X009630Y006229D02*
X009785Y006229D01*
X009785Y006071D02*
X009630Y006071D01*
X009785Y005912D02*
X012320Y005912D01*
X012469Y006071D02*
X010373Y006071D01*
X010318Y006229D02*
X012058Y006229D01*
X011900Y006388D02*
X010207Y006388D01*
X009785Y006388D02*
X009630Y006388D01*
X009785Y005848D02*
X010384Y005848D01*
X010376Y005792D01*
X010353Y005706D01*
X010319Y005624D01*
X010275Y005546D01*
X010220Y005476D01*
X010157Y005413D01*
X010087Y005358D01*
X010009Y005314D01*
X009927Y005280D01*
X009841Y005257D01*
X009785Y005249D01*
X009785Y005848D01*
X009785Y005754D02*
X009630Y005754D01*
X009630Y005595D02*
X009785Y005595D01*
X009785Y005437D02*
X009630Y005437D01*
X009630Y005278D02*
X009785Y005278D01*
X009921Y005278D02*
X011728Y005278D01*
X011584Y005120D02*
X009073Y005120D01*
X009073Y005278D02*
X009495Y005278D01*
X009235Y005437D02*
X009073Y005437D01*
X009073Y005595D02*
X009113Y005595D01*
X009073Y004961D02*
X011440Y004961D01*
X011295Y004803D02*
X009073Y004803D01*
X009073Y004644D02*
X011151Y004644D01*
X011001Y004486D02*
X009073Y004486D01*
X009073Y004327D02*
X010916Y004327D01*
X010858Y004169D02*
X009073Y004169D01*
X009073Y004010D02*
X010858Y004010D01*
X010866Y003852D02*
X009073Y003852D01*
X009073Y003693D02*
X010938Y003693D01*
X011048Y003535D02*
X009073Y003535D01*
X009076Y003376D02*
X011244Y003376D01*
X011940Y003376D02*
X018113Y003376D01*
X018098Y003535D02*
X014406Y003535D01*
X014664Y003693D02*
X018098Y003693D01*
X018098Y003852D02*
X014800Y003852D01*
X014866Y004010D02*
X018098Y004010D01*
X018098Y004169D02*
X014897Y004169D01*
X014897Y004327D02*
X018098Y004327D01*
X018138Y004486D02*
X014853Y004486D01*
X014787Y004644D02*
X018224Y004644D01*
X018383Y004803D02*
X014633Y004803D01*
X013681Y004803D02*
X013308Y004803D01*
X013160Y004644D02*
X013526Y004644D01*
X013461Y004486D02*
X013011Y004486D01*
X012864Y004327D02*
X013417Y004327D01*
X013417Y004169D02*
X012720Y004169D01*
X012575Y004010D02*
X013448Y004010D01*
X013513Y003852D02*
X012431Y003852D01*
X012287Y003693D02*
X013649Y003693D01*
X013907Y003535D02*
X012143Y003535D01*
X011872Y005437D02*
X010181Y005437D01*
X010303Y005595D02*
X012022Y005595D01*
X012171Y005754D02*
X010366Y005754D01*
X009107Y003218D02*
X018668Y003218D01*
X018458Y003895D02*
X018458Y004425D01*
X018708Y004675D01*
X020833Y004675D01*
X021083Y004925D01*
X021958Y005800D01*
X023123Y005800D01*
X023123Y005840D01*
X023123Y006782D01*
X023583Y007242D01*
X023146Y007339D02*
X020778Y007339D01*
X020778Y007497D02*
X023146Y007497D01*
X023068Y007180D02*
X020755Y007180D01*
X020632Y007022D02*
X022910Y007022D01*
X022810Y006863D02*
X020473Y006863D01*
X020315Y006705D02*
X022803Y006705D01*
X022803Y006546D02*
X020261Y006546D01*
X020318Y006388D02*
X022803Y006388D01*
X022803Y006229D02*
X020327Y006229D01*
X020385Y006071D02*
X021776Y006071D01*
X021617Y005912D02*
X020397Y005912D01*
X020352Y005754D02*
X021459Y005754D01*
X021300Y005595D02*
X020318Y005595D01*
X020303Y005437D02*
X021142Y005437D01*
X020983Y005278D02*
X020027Y005278D01*
X020825Y005120D02*
X018551Y005120D01*
X018562Y004961D02*
X018263Y004961D01*
X017793Y006885D02*
X016998Y006885D01*
X016708Y007175D01*
X016708Y007465D01*
X015833Y007465D01*
X015569Y007029D02*
X015480Y007065D01*
X015413Y007133D01*
X015395Y007175D01*
X015378Y007133D01*
X015353Y007108D01*
X015590Y006870D01*
X016560Y006870D01*
X016437Y006994D01*
X016424Y007025D01*
X016375Y007045D01*
X016308Y007113D01*
X016294Y007145D01*
X016258Y007145D01*
X016253Y007133D01*
X016185Y007065D01*
X016097Y007029D01*
X015569Y007029D01*
X015439Y007022D02*
X016425Y007022D01*
X017145Y007339D02*
X017186Y007339D01*
X017186Y007497D02*
X017145Y007497D01*
X017145Y007656D02*
X017186Y007656D01*
X017158Y007814D02*
X017110Y007814D01*
X017126Y007973D02*
X017085Y007973D01*
X017126Y008131D02*
X016726Y008131D01*
X016726Y008153D02*
X017085Y008153D01*
X017085Y008375D01*
X017073Y008421D01*
X017049Y008462D01*
X017015Y008495D01*
X016974Y008519D01*
X016928Y008531D01*
X016726Y008531D01*
X016726Y008153D01*
X016690Y008131D02*
X016289Y008131D01*
X016289Y007973D02*
X016331Y007973D01*
X016306Y007814D02*
X016258Y007814D01*
X016289Y008290D02*
X016331Y008290D01*
X016359Y008448D02*
X016261Y008448D01*
X016690Y008448D02*
X016726Y008448D01*
X016726Y008290D02*
X016690Y008290D01*
X017057Y008448D02*
X017136Y008448D01*
X017126Y008290D02*
X017085Y008290D01*
X017126Y008607D02*
X013109Y008607D01*
X013637Y007815D02*
X014533Y007815D01*
X014538Y007802D01*
X014540Y007800D01*
X014538Y007798D01*
X014501Y007710D01*
X014501Y007221D01*
X014538Y007133D01*
X014605Y007065D01*
X014638Y007052D01*
X014638Y006986D01*
X014687Y006869D01*
X015140Y006415D01*
X013248Y006415D01*
X013236Y006419D01*
X013132Y006416D01*
X013243Y006683D01*
X013243Y006978D01*
X013152Y007198D01*
X013316Y007266D01*
X013524Y007474D01*
X013637Y007746D01*
X013637Y007815D01*
X013637Y007814D02*
X014533Y007814D01*
X014501Y007656D02*
X013599Y007656D01*
X013534Y007497D02*
X014501Y007497D01*
X014501Y007339D02*
X013388Y007339D01*
X013159Y007180D02*
X014518Y007180D01*
X014638Y007022D02*
X013225Y007022D01*
X013243Y006863D02*
X014692Y006863D01*
X014851Y006705D02*
X013243Y006705D01*
X013186Y006546D02*
X015009Y006546D01*
X017583Y007465D02*
X017778Y007465D01*
X018458Y008020D01*
X018158Y008020D01*
X018158Y007580D01*
X018104Y007580D01*
X017986Y007531D01*
X017979Y007524D01*
X017979Y007686D01*
X017967Y007732D01*
X017955Y007754D01*
X018003Y007802D01*
X018039Y007890D01*
X018039Y008379D01*
X018021Y008425D01*
X018039Y008471D01*
X018039Y008480D01*
X018158Y008480D01*
X018158Y008479D01*
X018158Y008020D01*
X018458Y008020D01*
X018458Y008020D01*
X018158Y007973D02*
X018039Y007973D01*
X018039Y008131D02*
X018158Y008131D01*
X018158Y008290D02*
X018039Y008290D01*
X018030Y008448D02*
X018158Y008448D01*
X018158Y007814D02*
X018008Y007814D01*
X017979Y007656D02*
X018158Y007656D01*
X017939Y007484D02*
X017902Y007447D01*
X017601Y007447D01*
X017601Y007484D01*
X017939Y007484D01*
X018168Y007260D02*
X017793Y006885D01*
X018168Y007260D02*
X018793Y007260D01*
X018958Y007425D01*
X018958Y008020D01*
X019458Y008020D02*
X019458Y008550D01*
X019338Y009093D02*
X019272Y009120D01*
X018980Y009120D01*
X019163Y009302D01*
X019187Y009244D01*
X019277Y009154D01*
X019338Y009093D01*
X019190Y009241D02*
X019101Y009241D01*
X018958Y009550D02*
X018708Y009300D01*
X018168Y009300D01*
X017668Y009300D01*
X017583Y009385D01*
X017583Y010090D01*
X017126Y010033D02*
X017085Y010033D01*
X017085Y009875D02*
X017126Y009875D01*
X017162Y009716D02*
X016991Y009716D01*
X017126Y009558D02*
X009073Y009558D01*
X009073Y009716D02*
X014454Y009716D01*
X014306Y009875D02*
X009073Y009875D01*
X009073Y010033D02*
X014147Y010033D01*
X014032Y010192D02*
X009073Y010192D01*
X009073Y010350D02*
X014013Y010350D01*
X014013Y010509D02*
X009073Y010509D01*
X009073Y010667D02*
X014013Y010667D01*
X014013Y010826D02*
X009073Y010826D01*
X009073Y010984D02*
X014013Y010984D01*
X014013Y011143D02*
X009073Y011143D01*
X009073Y011301D02*
X014013Y011301D01*
X014013Y011460D02*
X009073Y011460D01*
X009073Y011618D02*
X014013Y011618D01*
X014013Y011777D02*
X009073Y011777D01*
X009073Y011935D02*
X014013Y011935D01*
X014013Y012094D02*
X009073Y012094D01*
X009073Y012252D02*
X014013Y012252D01*
X014013Y012411D02*
X009073Y012411D01*
X009073Y012569D02*
X014013Y012569D01*
X014013Y012728D02*
X009073Y012728D01*
X009073Y012886D02*
X013919Y012886D01*
X013791Y013045D02*
X009073Y013045D01*
X009073Y013203D02*
X013763Y013203D01*
X013763Y013362D02*
X009073Y013362D01*
X009073Y013520D02*
X013763Y013520D01*
X013763Y013679D02*
X009073Y013679D01*
X009073Y013837D02*
X013763Y013837D01*
X013763Y013996D02*
X009073Y013996D01*
X009073Y014154D02*
X013763Y014154D01*
X013763Y014313D02*
X009073Y014313D01*
X009073Y014471D02*
X013763Y014471D01*
X013763Y014630D02*
X009073Y014630D01*
X009073Y014788D02*
X013763Y014788D01*
X013763Y014947D02*
X009073Y014947D01*
X009073Y015105D02*
X013763Y015105D01*
X013763Y015264D02*
X009073Y015264D01*
X009073Y015422D02*
X013758Y015422D01*
X013600Y015581D02*
X009073Y015581D01*
X009073Y015739D02*
X013441Y015739D01*
X013402Y015779D02*
X013402Y015779D01*
X013300Y015898D02*
X009073Y015898D01*
X009073Y016056D02*
X013263Y016056D01*
X013263Y016215D02*
X009073Y016215D01*
X009073Y016373D02*
X013263Y016373D01*
X013263Y016532D02*
X009073Y016532D01*
X009073Y016690D02*
X013263Y016690D01*
X013263Y016849D02*
X009073Y016849D01*
X009073Y017007D02*
X013263Y017007D01*
X013263Y017166D02*
X009073Y017166D01*
X009073Y017324D02*
X013263Y017324D01*
X013263Y017483D02*
X009073Y017483D01*
X009073Y017641D02*
X013263Y017641D01*
X013263Y017800D02*
X009073Y017800D01*
X009073Y017958D02*
X013263Y017958D01*
X013263Y018117D02*
X009073Y018117D01*
X009073Y018275D02*
X013278Y018275D01*
X013389Y018434D02*
X009073Y018434D01*
X009073Y018592D02*
X013547Y018592D01*
X013706Y018751D02*
X009073Y018751D01*
X009073Y018909D02*
X013864Y018909D01*
X014083Y018675D02*
X014883Y018675D01*
X014413Y019068D02*
X009073Y019068D01*
X009073Y019226D02*
X014369Y019226D01*
X014243Y019385D02*
X009073Y019385D01*
X009073Y019543D02*
X014177Y019543D01*
X014173Y019702D02*
X009073Y019702D01*
X009073Y019860D02*
X014199Y019860D01*
X014265Y020019D02*
X009073Y020019D01*
X009073Y020177D02*
X014386Y020177D01*
X014333Y020336D02*
X009073Y020336D01*
X009073Y020494D02*
X014333Y020494D01*
X014333Y020653D02*
X009073Y020653D01*
X009073Y020811D02*
X014333Y020811D01*
X014333Y020970D02*
X009073Y020970D01*
X009078Y021128D02*
X014353Y021128D01*
X014863Y021128D02*
X014903Y021128D01*
X014903Y020970D02*
X014863Y020970D01*
X014863Y020811D02*
X014903Y020811D01*
X015433Y020811D02*
X020864Y020811D01*
X020965Y020912D02*
X020720Y020668D01*
X020588Y020348D01*
X020588Y020002D01*
X020720Y019682D01*
X020965Y019438D01*
X021285Y019305D01*
X021631Y019305D01*
X021951Y019438D01*
X022195Y019682D01*
X022328Y020002D01*
X022328Y020348D01*
X022195Y020668D01*
X021951Y020912D01*
X021631Y021045D01*
X021285Y021045D01*
X020965Y020912D01*
X021103Y020970D02*
X015433Y020970D01*
X015413Y021128D02*
X027838Y021128D01*
X027843Y020970D02*
X021813Y020970D01*
X022052Y020811D02*
X027843Y020811D01*
X027843Y020653D02*
X022202Y020653D01*
X022267Y020494D02*
X027843Y020494D01*
X027843Y020336D02*
X022328Y020336D01*
X022328Y020177D02*
X027843Y020177D01*
X027843Y020019D02*
X026490Y020019D01*
X026686Y019860D02*
X026698Y019860D01*
X027188Y019860D02*
X027228Y019860D01*
X027228Y019702D02*
X027188Y019702D01*
X027188Y019543D02*
X027228Y019543D01*
X027228Y019385D02*
X027843Y019385D01*
X027758Y019355D02*
X027228Y019355D01*
X027228Y018825D01*
X027602Y018825D01*
X027647Y018837D01*
X027688Y018861D01*
X027722Y018894D01*
X027746Y018936D01*
X027758Y018981D01*
X027758Y019355D01*
X027758Y019226D02*
X027843Y019226D01*
X027843Y019068D02*
X027758Y019068D01*
X027730Y018909D02*
X027843Y018909D01*
X027843Y018751D02*
X026482Y018751D01*
X026389Y018654D02*
X026389Y018654D01*
X026328Y018592D02*
X027843Y018592D01*
X027843Y018434D02*
X026169Y018434D01*
X026011Y018275D02*
X027843Y018275D01*
X027843Y018117D02*
X025903Y018117D01*
X025583Y018300D02*
X026208Y018925D01*
X026208Y019475D01*
X025744Y019076D02*
X025825Y018995D01*
X025312Y018481D01*
X025263Y018364D01*
X025263Y018236D01*
X025263Y018082D01*
X025194Y018110D01*
X024972Y018110D01*
X024903Y018082D01*
X024903Y018167D01*
X025389Y018654D01*
X025479Y018744D01*
X025521Y018844D01*
X025553Y018858D01*
X025725Y019029D01*
X025744Y019076D01*
X025741Y019068D02*
X025753Y019068D01*
X025739Y018909D02*
X025605Y018909D01*
X025581Y018751D02*
X025482Y018751D01*
X025422Y018592D02*
X025328Y018592D01*
X025292Y018434D02*
X025169Y018434D01*
X025263Y018275D02*
X025011Y018275D01*
X024903Y018117D02*
X025263Y018117D01*
X025583Y018300D02*
X025583Y016800D01*
X025083Y016300D01*
X023958Y015175D01*
X022958Y015175D01*
X022708Y014925D01*
X022708Y014425D01*
X022833Y014550D01*
X022873Y014550D01*
X022708Y014425D02*
X022708Y013300D01*
X023458Y012550D01*
X023583Y012550D01*
X023083Y012294D02*
X023108Y012233D01*
X023257Y012084D01*
X023194Y012110D01*
X022972Y012110D01*
X022909Y012084D01*
X023058Y012233D01*
X023083Y012294D01*
X023066Y012252D02*
X023100Y012252D01*
X023234Y012094D02*
X023247Y012094D01*
X023409Y012016D02*
X023558Y011867D01*
X023583Y011806D01*
X023608Y011867D01*
X023757Y012016D01*
X023694Y011990D01*
X023472Y011990D01*
X023409Y012016D01*
X023490Y011935D02*
X023676Y011935D01*
X023918Y012094D02*
X023932Y012094D01*
X024066Y012252D02*
X027843Y012252D01*
X027843Y012094D02*
X027234Y012094D01*
X027490Y011935D02*
X027843Y011935D01*
X027843Y011777D02*
X027595Y011777D01*
X027643Y011618D02*
X027843Y011618D01*
X027843Y011460D02*
X027643Y011460D01*
X027586Y011301D02*
X027843Y011301D01*
X027843Y011143D02*
X027467Y011143D01*
X027736Y010984D02*
X027843Y010984D01*
X027843Y010826D02*
X027754Y010826D01*
X027754Y010667D02*
X027843Y010667D01*
X027843Y010509D02*
X027337Y010509D01*
X027337Y010473D02*
X027754Y010473D01*
X027754Y010172D01*
X027742Y010126D01*
X027718Y010085D01*
X027685Y010052D01*
X027644Y010028D01*
X027598Y010016D01*
X027337Y010016D01*
X027337Y010473D01*
X027337Y010350D02*
X027182Y010350D01*
X027182Y010192D02*
X027337Y010192D01*
X027337Y010033D02*
X027182Y010033D01*
X026898Y009875D02*
X027843Y009875D01*
X027843Y010033D02*
X027652Y010033D01*
X027754Y010192D02*
X027843Y010192D01*
X027843Y010350D02*
X027754Y010350D01*
X027182Y010509D02*
X026712Y010509D01*
X026712Y010667D02*
X026764Y010667D01*
X026764Y010826D02*
X026712Y010826D01*
X026698Y010984D02*
X026782Y010984D01*
X026698Y011143D02*
X026524Y011143D01*
X026517Y011301D02*
X026580Y011301D01*
X026571Y011777D02*
X026529Y011777D01*
X026404Y011935D02*
X026676Y011935D01*
X026932Y012094D02*
X025234Y012094D01*
X025490Y011935D02*
X025762Y011935D01*
X025637Y011777D02*
X025595Y011777D01*
X025615Y011372D02*
X025620Y011358D01*
X025655Y011288D01*
X025702Y011224D01*
X025757Y011169D01*
X025792Y011143D01*
X025706Y011108D01*
X025638Y011040D01*
X025636Y011035D01*
X025302Y011035D01*
X025400Y011075D01*
X025558Y011233D01*
X025615Y011372D01*
X025586Y011301D02*
X025649Y011301D01*
X025790Y011143D02*
X025467Y011143D01*
X026063Y011618D02*
X026103Y011618D01*
X026103Y011777D02*
X026063Y011777D01*
X026063Y011935D02*
X026103Y011935D01*
X024932Y012094D02*
X024234Y012094D01*
X024490Y011935D02*
X024676Y011935D01*
X024131Y012411D02*
X027843Y012411D01*
X027843Y012569D02*
X024143Y012569D01*
X024116Y012728D02*
X027843Y012728D01*
X027843Y012886D02*
X024039Y012886D01*
X023852Y013045D02*
X027843Y013045D01*
X027843Y013203D02*
X023257Y013203D01*
X023099Y013362D02*
X027843Y013362D01*
X027843Y013520D02*
X023028Y013520D01*
X023028Y013679D02*
X027843Y013679D01*
X027843Y013837D02*
X023028Y013837D01*
X023028Y013996D02*
X027843Y013996D01*
X027843Y014154D02*
X023765Y014154D01*
X023763Y014153D02*
X023809Y014166D01*
X023850Y014189D01*
X023883Y014223D01*
X023907Y014264D01*
X023919Y014310D01*
X023919Y014532D01*
X023561Y014532D01*
X023561Y014153D01*
X023763Y014153D01*
X023561Y014154D02*
X023524Y014154D01*
X023524Y014313D02*
X023561Y014313D01*
X023561Y014471D02*
X023524Y014471D01*
X023320Y014154D02*
X023230Y014154D01*
X023919Y014313D02*
X027843Y014313D01*
X027843Y014471D02*
X023919Y014471D01*
X023919Y014630D02*
X027843Y014630D01*
X027843Y014788D02*
X023919Y014788D01*
X024182Y014947D02*
X027843Y014947D01*
X027843Y015105D02*
X024341Y015105D01*
X024499Y015264D02*
X027843Y015264D01*
X027843Y015422D02*
X024658Y015422D01*
X024816Y015581D02*
X027843Y015581D01*
X027843Y015739D02*
X024975Y015739D01*
X025133Y015898D02*
X027843Y015898D01*
X027843Y016056D02*
X025292Y016056D01*
X025450Y016215D02*
X027843Y016215D01*
X027843Y016373D02*
X025609Y016373D01*
X025767Y016532D02*
X027843Y016532D01*
X027843Y016690D02*
X025884Y016690D01*
X025903Y016849D02*
X027843Y016849D01*
X027843Y017007D02*
X027235Y017007D01*
X027490Y017166D02*
X027843Y017166D01*
X027843Y017324D02*
X027595Y017324D01*
X027643Y017483D02*
X027843Y017483D01*
X027843Y017641D02*
X027643Y017641D01*
X027586Y017800D02*
X027843Y017800D01*
X027843Y017958D02*
X027467Y017958D01*
X026699Y017958D02*
X026467Y017958D01*
X026490Y017166D02*
X026675Y017166D01*
X026930Y017007D02*
X026235Y017007D01*
X025930Y017007D02*
X025903Y017007D01*
X025263Y017007D02*
X025235Y017007D01*
X025263Y017018D02*
X025263Y016933D01*
X024902Y016571D01*
X024876Y016545D01*
X024903Y016611D01*
X024903Y017018D01*
X024972Y016990D01*
X025194Y016990D01*
X025263Y017018D01*
X025179Y016849D02*
X024903Y016849D01*
X024903Y017007D02*
X024930Y017007D01*
X024903Y016690D02*
X025020Y016690D01*
X024583Y016675D02*
X024583Y018300D01*
X025208Y018925D01*
X025208Y019375D01*
X024775Y018945D02*
X024312Y018481D01*
X024263Y018364D01*
X024263Y018236D01*
X024263Y018017D01*
X024200Y018038D01*
X024122Y018050D01*
X024103Y018050D01*
X024103Y017570D01*
X024063Y017570D01*
X024063Y018050D01*
X024044Y018050D01*
X023966Y018038D01*
X023891Y018013D01*
X023821Y017978D01*
X023757Y017931D01*
X023702Y017876D01*
X023655Y017812D01*
X023620Y017742D01*
X023615Y017728D01*
X023558Y017867D01*
X023443Y017982D01*
X023443Y018201D01*
X024107Y018865D01*
X024329Y018865D01*
X024553Y018958D01*
X024672Y019076D01*
X024691Y019029D01*
X024775Y018945D01*
X024739Y018909D02*
X024436Y018909D01*
X024581Y018751D02*
X023993Y018751D01*
X023834Y018592D02*
X024422Y018592D01*
X024292Y018434D02*
X023676Y018434D01*
X023517Y018275D02*
X024263Y018275D01*
X024263Y018117D02*
X023443Y018117D01*
X023467Y017958D02*
X023794Y017958D01*
X023649Y017800D02*
X023586Y017800D01*
X023615Y017372D02*
X023620Y017358D01*
X023655Y017288D01*
X023702Y017224D01*
X023749Y017177D01*
X023561Y017177D01*
X023561Y016818D01*
X023939Y016818D01*
X023939Y017021D01*
X023927Y017066D01*
X023921Y017077D01*
X023966Y017062D01*
X024044Y017050D01*
X024063Y017050D01*
X024063Y017530D01*
X024103Y017530D01*
X024103Y017050D01*
X024122Y017050D01*
X024200Y017062D01*
X024263Y017083D01*
X024263Y016808D01*
X023900Y016445D01*
X023878Y016467D01*
X023903Y016493D01*
X023927Y016534D01*
X023939Y016579D01*
X023939Y016782D01*
X023561Y016782D01*
X023561Y016818D01*
X023524Y016818D01*
X023524Y017177D01*
X023502Y017177D01*
X023558Y017233D01*
X023615Y017372D01*
X023595Y017324D02*
X023637Y017324D01*
X023561Y017166D02*
X023524Y017166D01*
X023524Y017007D02*
X023561Y017007D01*
X023561Y016849D02*
X023524Y016849D01*
X023939Y016849D02*
X024263Y016849D01*
X024263Y017007D02*
X023939Y017007D01*
X024063Y017166D02*
X024103Y017166D01*
X024103Y017324D02*
X024063Y017324D01*
X024063Y017483D02*
X024103Y017483D01*
X024103Y017641D02*
X024063Y017641D01*
X024063Y017800D02*
X024103Y017800D01*
X024103Y017958D02*
X024063Y017958D01*
X023133Y018909D02*
X020443Y018909D01*
X020443Y018751D02*
X022974Y018751D01*
X023291Y019068D02*
X020414Y019068D01*
X020291Y019226D02*
X023450Y019226D01*
X023598Y019385D02*
X021823Y019385D01*
X022056Y019543D02*
X023598Y019543D01*
X023642Y019702D02*
X022203Y019702D01*
X022269Y019860D02*
X023730Y019860D01*
X023926Y020019D02*
X022328Y020019D01*
X021093Y019385D02*
X020133Y019385D01*
X019974Y019543D02*
X020860Y019543D01*
X020712Y019702D02*
X019816Y019702D01*
X019657Y019860D02*
X020647Y019860D01*
X020588Y020019D02*
X019444Y020019D01*
X018735Y019315D02*
X018566Y019146D01*
X018473Y018921D01*
X018473Y018679D01*
X018566Y018454D01*
X018737Y018283D01*
X018763Y018272D01*
X018763Y018022D01*
X018608Y017867D01*
X018583Y017806D01*
X018558Y017867D01*
X018400Y018025D01*
X018194Y018110D01*
X017972Y018110D01*
X017766Y018025D01*
X017608Y017867D01*
X017583Y017806D01*
X017558Y017867D01*
X017443Y017982D01*
X017443Y018372D01*
X017388Y018504D01*
X017287Y018605D01*
X016912Y018980D01*
X016780Y019035D01*
X015386Y019035D01*
X015228Y019192D01*
X015182Y019211D01*
X015286Y019315D01*
X018735Y019315D01*
X018646Y019226D02*
X015197Y019226D01*
X015353Y019068D02*
X018533Y019068D01*
X018473Y018909D02*
X016983Y018909D01*
X017142Y018751D02*
X018473Y018751D01*
X018509Y018592D02*
X017300Y018592D01*
X017417Y018434D02*
X018587Y018434D01*
X018583Y018300D02*
X017708Y019175D01*
X017443Y018275D02*
X018756Y018275D01*
X018763Y018117D02*
X017443Y018117D01*
X017467Y017958D02*
X017699Y017958D01*
X018083Y017550D02*
X018083Y016300D01*
X018333Y016050D01*
X018748Y016050D01*
X018403Y016457D02*
X018403Y016481D01*
X018407Y016473D01*
X018413Y016467D01*
X018403Y016457D01*
X018748Y016800D02*
X018748Y016885D01*
X018583Y017050D01*
X018583Y017925D01*
X018583Y018300D01*
X018708Y018050D02*
X018583Y017925D01*
X018467Y017958D02*
X018699Y017958D01*
X019083Y017550D02*
X019083Y018800D01*
X019693Y018806D02*
X019723Y018776D01*
X019723Y017982D01*
X019608Y017867D01*
X019583Y017806D01*
X019558Y017867D01*
X019403Y018022D01*
X019403Y018272D01*
X019428Y018283D01*
X019600Y018454D01*
X019693Y018679D01*
X019693Y018806D01*
X019693Y018751D02*
X019723Y018751D01*
X019723Y018592D02*
X019657Y018592D01*
X019723Y018434D02*
X019579Y018434D01*
X019723Y018275D02*
X019410Y018275D01*
X019403Y018117D02*
X019723Y018117D01*
X019699Y017958D02*
X019467Y017958D01*
X019583Y017294D02*
X019568Y017257D01*
X019598Y017257D01*
X019583Y017294D01*
X019418Y016800D02*
X019418Y016050D01*
X019418Y016010D01*
X019333Y015925D01*
X018833Y015425D01*
X018833Y015232D01*
X018709Y015233D01*
X017903Y014471D02*
X017778Y014471D01*
X017778Y014596D02*
X018254Y014120D01*
X018312Y014062D01*
X018444Y014007D01*
X018661Y014007D01*
X018683Y013955D01*
X018750Y013888D01*
X018838Y013851D01*
X019328Y013851D01*
X019416Y013888D01*
X019483Y013955D01*
X019505Y014007D01*
X020473Y014007D01*
X020473Y012268D01*
X020402Y012196D01*
X020312Y012106D01*
X020296Y012068D01*
X020194Y012110D01*
X019972Y012110D01*
X019766Y012025D01*
X019608Y011867D01*
X019583Y011806D01*
X019558Y011867D01*
X019400Y012025D01*
X019194Y012110D01*
X019100Y012110D01*
X018854Y012356D01*
X018764Y012446D01*
X018647Y012495D01*
X017840Y012495D01*
X017778Y012558D01*
X017778Y014596D01*
X017778Y014313D02*
X018061Y014313D01*
X018220Y014154D02*
X017778Y014154D01*
X017778Y013996D02*
X018666Y013996D01*
X018254Y014120D02*
X018254Y014120D01*
X017778Y013837D02*
X020473Y013837D01*
X020473Y013679D02*
X017778Y013679D01*
X017778Y013520D02*
X020473Y013520D01*
X020473Y013362D02*
X017778Y013362D01*
X017778Y013203D02*
X020473Y013203D01*
X020473Y013045D02*
X017778Y013045D01*
X017778Y012886D02*
X020473Y012886D01*
X020473Y012728D02*
X017778Y012728D01*
X017778Y012569D02*
X020473Y012569D01*
X020473Y012411D02*
X018800Y012411D01*
X018958Y012252D02*
X020457Y012252D01*
X020306Y012094D02*
X020234Y012094D01*
X019932Y012094D02*
X019234Y012094D01*
X019490Y011935D02*
X019676Y011935D01*
X019083Y011675D02*
X019083Y011550D01*
X019083Y011675D02*
X018583Y012175D01*
X017708Y012175D01*
X017458Y012425D01*
X017458Y015675D01*
X017083Y016050D01*
X016793Y016050D01*
X016793Y015300D02*
X016958Y015300D01*
X017083Y015175D01*
X017083Y011925D01*
X017083Y011550D01*
X017583Y011294D02*
X017608Y011233D01*
X017644Y011196D01*
X017521Y011196D01*
X017558Y011233D01*
X017583Y011294D01*
X017583Y010760D02*
X016708Y010760D01*
X016708Y010925D01*
X016583Y011050D01*
X016583Y012050D01*
X016615Y012370D02*
X016643Y012439D01*
X016643Y012661D01*
X016558Y012867D01*
X016400Y013025D01*
X016339Y013050D01*
X016400Y013075D01*
X016558Y013233D01*
X016643Y013439D01*
X016643Y013661D01*
X016558Y013867D01*
X016400Y014025D01*
X016339Y014050D01*
X016400Y014075D01*
X016558Y014233D01*
X016643Y014439D01*
X016643Y014661D01*
X016568Y014843D01*
X016763Y014843D01*
X016763Y012322D01*
X016647Y012370D01*
X016615Y012370D01*
X016631Y012411D02*
X016763Y012411D01*
X016763Y012569D02*
X016643Y012569D01*
X016616Y012728D02*
X016763Y012728D01*
X016763Y012886D02*
X016539Y012886D01*
X016352Y013045D02*
X016763Y013045D01*
X016763Y013203D02*
X016528Y013203D01*
X016611Y013362D02*
X016763Y013362D01*
X016763Y013520D02*
X016643Y013520D01*
X016636Y013679D02*
X016763Y013679D01*
X016763Y013837D02*
X016570Y013837D01*
X016429Y013996D02*
X016763Y013996D01*
X016763Y014154D02*
X016479Y014154D01*
X016591Y014313D02*
X016763Y014313D01*
X016763Y014471D02*
X016643Y014471D01*
X016643Y014630D02*
X016763Y014630D01*
X016763Y014788D02*
X016590Y014788D01*
X016123Y015300D02*
X015833Y015300D01*
X015458Y015675D01*
X015458Y015925D01*
X014958Y016425D01*
X014883Y016675D01*
X014484Y017139D02*
X014403Y017058D01*
X014403Y017192D01*
X014437Y017158D01*
X014484Y017139D01*
X014430Y017166D02*
X014403Y017166D01*
X014783Y017675D02*
X014958Y017675D01*
X015583Y017050D01*
X015583Y016425D01*
X015958Y016050D01*
X016123Y016050D01*
X015417Y015264D02*
X015234Y015264D01*
X015228Y015192D02*
X015182Y015211D01*
X015300Y015329D01*
X015315Y015365D01*
X015562Y015119D01*
X015652Y015029D01*
X015697Y015010D01*
X015713Y014972D01*
X015608Y014867D01*
X015531Y014680D01*
X015493Y014718D01*
X015493Y014796D01*
X015400Y015021D01*
X015228Y015192D01*
X015316Y015105D02*
X015575Y015105D01*
X015688Y014947D02*
X015431Y014947D01*
X015493Y014788D02*
X015575Y014788D01*
X015458Y014300D02*
X015458Y013050D01*
X015333Y012925D01*
X015333Y010300D01*
X015543Y010090D01*
X015833Y010090D01*
X015454Y009716D02*
X015211Y009716D01*
X015289Y009875D02*
X015306Y009875D01*
X014833Y010090D02*
X014543Y010090D01*
X014333Y010300D01*
X014333Y012925D01*
X014083Y013175D01*
X014083Y015550D01*
X013583Y016050D01*
X013583Y018175D01*
X014083Y018675D01*
X014333Y018175D02*
X014083Y017925D01*
X014083Y016375D01*
X014783Y015675D01*
X014484Y015139D02*
X014403Y015058D01*
X014403Y015192D01*
X014437Y015158D01*
X014484Y015139D01*
X014450Y015105D02*
X014403Y015105D01*
X014883Y014675D02*
X015083Y014675D01*
X015458Y014300D01*
X015778Y014070D02*
X015827Y014050D01*
X015778Y014030D01*
X015778Y014070D01*
X015778Y013070D02*
X015827Y013050D01*
X015778Y013030D01*
X015778Y013070D01*
X015778Y013045D02*
X015813Y013045D01*
X015653Y012188D02*
X015766Y012075D01*
X015827Y012050D01*
X015766Y012025D01*
X015653Y011912D01*
X015653Y012188D01*
X015653Y012094D02*
X015747Y012094D01*
X015676Y011935D02*
X015653Y011935D01*
X015958Y011550D02*
X015833Y011425D01*
X015833Y010760D01*
X016283Y010350D02*
X016336Y010350D01*
X016331Y010192D02*
X016289Y010192D01*
X016331Y010072D02*
X016331Y009850D01*
X016343Y009804D01*
X016367Y009763D01*
X016401Y009730D01*
X016442Y009706D01*
X016487Y009694D01*
X016690Y009694D01*
X016690Y010072D01*
X016331Y010072D01*
X016331Y010033D02*
X016289Y010033D01*
X016289Y009875D02*
X016331Y009875D01*
X016424Y009716D02*
X016211Y009716D01*
X016690Y009716D02*
X016726Y009716D01*
X016726Y009875D02*
X016690Y009875D01*
X016690Y010033D02*
X016726Y010033D01*
X017085Y010192D02*
X017126Y010192D01*
X017133Y010350D02*
X017080Y010350D01*
X018001Y010425D02*
X018003Y010427D01*
X018039Y010515D01*
X018039Y010990D01*
X018194Y010990D01*
X018400Y011075D01*
X018558Y011233D01*
X018583Y011294D01*
X018608Y011233D01*
X018766Y011075D01*
X018972Y010990D01*
X019194Y010990D01*
X019400Y011075D01*
X019558Y011233D01*
X019583Y011294D01*
X019608Y011233D01*
X019721Y011120D01*
X019519Y011120D01*
X019402Y011071D01*
X019312Y010981D01*
X019187Y010856D01*
X019142Y010748D01*
X019126Y010755D01*
X018790Y010755D01*
X018708Y010721D01*
X018626Y010755D01*
X018290Y010755D01*
X018202Y010718D01*
X018134Y010651D01*
X018098Y010563D01*
X018098Y009620D01*
X018039Y009620D01*
X018039Y009629D01*
X018003Y009717D01*
X017983Y009738D01*
X018003Y009758D01*
X018039Y009846D01*
X018039Y010335D01*
X018003Y010423D01*
X018001Y010425D01*
X018033Y010350D02*
X018098Y010350D01*
X018098Y010192D02*
X018039Y010192D01*
X018039Y010033D02*
X018098Y010033D01*
X018098Y009875D02*
X018039Y009875D01*
X018004Y009716D02*
X018098Y009716D01*
X018098Y010509D02*
X018037Y010509D01*
X018039Y010667D02*
X018151Y010667D01*
X018039Y010826D02*
X019174Y010826D01*
X019314Y010984D02*
X018039Y010984D01*
X018467Y011143D02*
X018698Y011143D01*
X019467Y011143D02*
X019698Y011143D01*
X018958Y010080D02*
X018958Y009550D01*
X020778Y007973D02*
X020930Y007973D01*
X020778Y007814D02*
X021263Y007814D01*
X021653Y007814D02*
X022772Y007814D01*
X022772Y007973D02*
X021986Y007973D01*
X022850Y007656D02*
X020778Y007656D01*
X020050Y007345D02*
X019825Y007120D01*
X019105Y007120D01*
X019139Y007154D01*
X019229Y007244D01*
X019274Y007352D01*
X019290Y007345D01*
X019626Y007345D01*
X019708Y007379D01*
X019790Y007345D01*
X020050Y007345D01*
X020044Y007339D02*
X019268Y007339D01*
X019165Y007180D02*
X019885Y007180D01*
X017126Y008924D02*
X009073Y008924D01*
X009073Y009082D02*
X017150Y009082D01*
X017126Y009241D02*
X009073Y009241D01*
X009073Y009399D02*
X017126Y009399D01*
X016083Y011550D02*
X015958Y011550D01*
X014833Y010760D02*
X014833Y013600D01*
X014783Y013675D01*
X014484Y014211D02*
X014403Y014292D01*
X014403Y014158D01*
X014437Y014192D01*
X014484Y014211D01*
X016123Y016800D02*
X016083Y016840D01*
X016083Y017550D01*
X015580Y017800D02*
X015392Y017800D01*
X015393Y017796D02*
X015393Y017693D01*
X015523Y017563D01*
X015523Y017661D01*
X015603Y017855D01*
X015369Y017855D01*
X015393Y017796D01*
X015444Y017641D02*
X015523Y017641D01*
X015208Y018175D02*
X016333Y018175D01*
X016583Y017925D01*
X016583Y017175D01*
X016793Y016965D01*
X016793Y016800D01*
X018519Y017194D02*
X018558Y017233D01*
X018583Y017294D01*
X018608Y017233D01*
X018644Y017197D01*
X018528Y017197D01*
X018519Y017194D01*
X018730Y017111D02*
X018730Y016818D01*
X018767Y016818D01*
X018767Y017075D01*
X018766Y017075D01*
X018730Y017111D01*
X018730Y017007D02*
X018767Y017007D01*
X018767Y016849D02*
X018730Y016849D01*
X020443Y016849D02*
X020473Y016849D01*
X020473Y017007D02*
X020443Y017007D01*
X020443Y017118D02*
X020473Y017148D01*
X020473Y014727D01*
X019724Y014727D01*
X019790Y014754D01*
X019857Y014822D01*
X019887Y014894D01*
X019970Y014928D01*
X020287Y015245D01*
X020388Y015346D01*
X020443Y015478D01*
X020443Y017118D01*
X020443Y016690D02*
X020473Y016690D01*
X020473Y016532D02*
X020443Y016532D01*
X020443Y016373D02*
X020473Y016373D01*
X020473Y016215D02*
X020443Y016215D01*
X020443Y016056D02*
X020473Y016056D01*
X020473Y015898D02*
X020443Y015898D01*
X020443Y015739D02*
X020473Y015739D01*
X020473Y015581D02*
X020443Y015581D01*
X020420Y015422D02*
X020473Y015422D01*
X020473Y015264D02*
X020306Y015264D01*
X020147Y015105D02*
X020473Y015105D01*
X020473Y014947D02*
X019989Y014947D01*
X019824Y014788D02*
X020473Y014788D01*
X020473Y013996D02*
X019500Y013996D01*
X021333Y012175D02*
X021333Y016800D01*
X022083Y017550D01*
X022485Y017940D02*
X022681Y017940D01*
X022608Y017867D01*
X022583Y017806D01*
X022558Y017867D01*
X022485Y017940D01*
X021681Y017940D02*
X021608Y017867D01*
X021583Y017806D01*
X021558Y017867D01*
X021485Y017940D01*
X021681Y017940D01*
X021116Y018592D02*
X020443Y018592D01*
X020443Y018434D02*
X020957Y018434D01*
X020799Y018275D02*
X020443Y018275D01*
X020443Y018117D02*
X020723Y018117D01*
X020699Y017958D02*
X020467Y017958D01*
X021676Y016690D02*
X021907Y016690D01*
X021834Y016849D02*
X022066Y016849D01*
X021975Y016990D02*
X022194Y016990D01*
X022216Y016999D01*
X021653Y016436D01*
X021653Y016667D01*
X021975Y016990D01*
X021749Y016532D02*
X021653Y016532D01*
X022246Y015898D02*
X022436Y015898D01*
X022436Y015836D02*
X022402Y015821D01*
X022312Y015731D01*
X022233Y015653D01*
X022233Y015884D01*
X022436Y016088D01*
X022436Y015836D01*
X022319Y015739D02*
X022233Y015739D01*
X022405Y016056D02*
X022436Y016056D01*
X022873Y016050D02*
X022873Y016800D01*
X023543Y016050D02*
X023583Y016010D01*
X023583Y015675D01*
X023458Y015550D01*
X022583Y015550D01*
X022333Y015300D01*
X022333Y012800D01*
X022583Y012550D01*
X022757Y012016D02*
X022608Y011867D01*
X022583Y011806D01*
X022558Y011867D01*
X022483Y011942D01*
X022483Y011990D01*
X022694Y011990D01*
X022757Y012016D01*
X022676Y011935D02*
X022490Y011935D01*
X022918Y012094D02*
X022932Y012094D01*
X023583Y011294D02*
X023608Y011233D01*
X023683Y011158D01*
X023683Y011035D01*
X023302Y011035D01*
X023400Y011075D01*
X023558Y011233D01*
X023583Y011294D01*
X023683Y011143D02*
X023467Y011143D01*
X024483Y011143D02*
X024698Y011143D01*
X024750Y011091D02*
X024483Y011091D01*
X024483Y011158D01*
X024558Y011233D01*
X024583Y011294D01*
X024608Y011233D01*
X024750Y011091D01*
X024960Y010192D02*
X025602Y010192D01*
X025665Y010033D02*
X024960Y010033D01*
X024960Y009875D02*
X025828Y009875D01*
X025828Y009716D02*
X025797Y009716D01*
X025689Y009241D02*
X025293Y009241D01*
X025293Y009399D02*
X025133Y009399D01*
X025133Y009558D02*
X025293Y009558D01*
X025293Y009716D02*
X025133Y009716D01*
X024206Y010113D02*
X024162Y010132D01*
X024079Y010132D01*
X024014Y010196D01*
X023976Y010235D01*
X024044Y010235D01*
X024214Y010235D01*
X024206Y010206D01*
X024206Y010113D01*
X024206Y010192D02*
X024019Y010192D01*
X024014Y010196D02*
X024014Y010196D01*
X023248Y009675D02*
X023248Y008925D01*
X024323Y008448D02*
X025828Y008448D01*
X025828Y008607D02*
X025742Y008607D01*
X025763Y008290D02*
X024334Y008290D01*
X024334Y008131D02*
X024973Y008131D01*
X024815Y007973D02*
X024334Y007973D01*
X024334Y007814D02*
X024656Y007814D01*
X024498Y007656D02*
X024189Y007656D01*
X024339Y007497D02*
X024020Y007497D01*
X024020Y007339D02*
X024181Y007339D01*
X024231Y007389D02*
X024231Y007389D01*
X024079Y007180D02*
X024020Y007180D01*
X024020Y007022D02*
X024058Y007022D01*
X024058Y006863D02*
X023997Y006863D01*
X024058Y006705D02*
X023498Y006705D01*
X023443Y006546D02*
X024058Y006546D01*
X024058Y006388D02*
X023443Y006388D01*
X023443Y006229D02*
X023482Y006229D01*
X024602Y005754D02*
X025069Y005754D01*
X025001Y005595D02*
X025228Y005595D01*
X025334Y005437D02*
X025506Y005437D01*
X025503Y005278D02*
X026323Y005278D01*
X026282Y005237D02*
X026210Y005147D01*
X026149Y005049D01*
X026098Y004945D01*
X026060Y004836D01*
X026034Y004723D01*
X026024Y004630D01*
X026971Y004630D01*
X026971Y005578D01*
X026879Y005567D01*
X026766Y005541D01*
X026657Y005503D01*
X026552Y005453D01*
X026454Y005391D01*
X026364Y005319D01*
X026282Y005237D01*
X026193Y005120D02*
X025619Y005120D01*
X025708Y004961D02*
X026106Y004961D01*
X026053Y004803D02*
X025750Y004803D01*
X025779Y004644D02*
X026026Y004644D01*
X025779Y004486D02*
X026971Y004486D01*
X026971Y004644D02*
X027131Y004644D01*
X027131Y004803D02*
X026971Y004803D01*
X026971Y004961D02*
X027131Y004961D01*
X027131Y005120D02*
X026971Y005120D01*
X026971Y005278D02*
X027131Y005278D01*
X027131Y005437D02*
X026971Y005437D01*
X026672Y005754D02*
X027843Y005754D01*
X027843Y005912D02*
X026778Y005912D01*
X026846Y006071D02*
X027843Y006071D01*
X027843Y006229D02*
X026888Y006229D01*
X026890Y006546D02*
X027843Y006546D01*
X027843Y006388D02*
X025950Y006388D01*
X025950Y006229D02*
X025790Y006229D01*
X025790Y006071D02*
X025950Y006071D01*
X025950Y005912D02*
X025790Y005912D01*
X025790Y005754D02*
X025950Y005754D01*
X025950Y005595D02*
X025790Y005595D01*
X025790Y005437D02*
X025950Y005437D01*
X026234Y005437D02*
X026526Y005437D01*
X026512Y005595D02*
X027843Y005595D01*
X027843Y005437D02*
X027577Y005437D01*
X027780Y005278D02*
X027843Y005278D01*
X027131Y004327D02*
X026971Y004327D01*
X026971Y004169D02*
X027131Y004169D01*
X027131Y004010D02*
X026971Y004010D01*
X026971Y003852D02*
X027131Y003852D01*
X027131Y003693D02*
X026971Y003693D01*
X026971Y003535D02*
X027131Y003535D01*
X027231Y003535D02*
X027843Y003535D01*
X027843Y003693D02*
X027624Y003693D01*
X027810Y003852D02*
X027843Y003852D01*
X027840Y003376D02*
X024743Y003376D01*
X025110Y003535D02*
X026872Y003535D01*
X026479Y003693D02*
X025374Y003693D01*
X025532Y003852D02*
X026293Y003852D01*
X026174Y004010D02*
X025636Y004010D01*
X025715Y004169D02*
X026094Y004169D01*
X026046Y004327D02*
X025758Y004327D01*
X024302Y003218D02*
X027809Y003218D01*
X027753Y003059D02*
X009163Y003059D01*
X009278Y002901D02*
X027638Y002901D01*
X027424Y002742D02*
X009492Y002742D01*
X017583Y011806D02*
X017558Y011867D01*
X017403Y012022D01*
X017403Y012027D01*
X017527Y011904D01*
X017610Y011869D01*
X017608Y011867D01*
X017583Y011806D01*
X017495Y011935D02*
X017490Y011935D01*
X021186Y010667D02*
X021638Y010667D01*
X021564Y010657D02*
X021186Y010657D01*
X021186Y010298D01*
X021408Y010298D01*
X021454Y010310D01*
X021495Y010334D01*
X021528Y010368D01*
X021552Y010409D01*
X021564Y010454D01*
X021564Y010657D01*
X021564Y010509D02*
X021797Y010509D01*
X021955Y010350D02*
X021511Y010350D01*
X021186Y010350D02*
X021149Y010350D01*
X021149Y010509D02*
X021186Y010509D01*
X025101Y007088D02*
X025029Y006997D01*
X024967Y006899D01*
X024917Y006795D01*
X024879Y006686D01*
X024858Y006594D01*
X024858Y006884D01*
X025310Y007336D01*
X025374Y007400D01*
X025621Y007400D01*
X025585Y007392D01*
X025476Y007353D01*
X025371Y007303D01*
X025273Y007242D01*
X025183Y007170D01*
X025101Y007088D01*
X025048Y007022D02*
X024995Y007022D01*
X024950Y006863D02*
X024858Y006863D01*
X024858Y006705D02*
X024886Y006705D01*
X025154Y007180D02*
X025196Y007180D01*
X025312Y007339D02*
X025444Y007339D01*
X026545Y007180D02*
X027843Y007180D01*
X027843Y007022D02*
X026692Y007022D01*
X026791Y006863D02*
X027843Y006863D01*
X027843Y006705D02*
X026855Y006705D01*
X026812Y007339D02*
X026923Y007339D01*
X026889Y007497D02*
X026837Y007497D01*
X026837Y007656D02*
X026889Y007656D01*
X026837Y007814D02*
X027307Y007814D01*
X027307Y007877D02*
X026889Y007877D01*
X026889Y008178D01*
X026901Y008224D01*
X026925Y008265D01*
X026959Y008298D01*
X027000Y008322D01*
X027045Y008334D01*
X027307Y008334D01*
X027307Y007877D01*
X027307Y007973D02*
X027462Y007973D01*
X027462Y008131D02*
X027307Y008131D01*
X027307Y008290D02*
X027462Y008290D01*
X027818Y008290D02*
X027843Y008290D01*
X027843Y008448D02*
X026898Y008448D01*
X026898Y008607D02*
X027843Y008607D01*
X027843Y008765D02*
X026898Y008765D01*
X026856Y008924D02*
X027843Y008924D01*
X027843Y009082D02*
X026837Y009082D01*
X026837Y009241D02*
X027843Y009241D01*
X027843Y009399D02*
X026836Y009399D01*
X026898Y009558D02*
X027843Y009558D01*
X027843Y009716D02*
X026898Y009716D01*
X026764Y010192D02*
X026731Y010192D01*
X026712Y010350D02*
X026764Y010350D01*
X026877Y008290D02*
X026950Y008290D01*
X026889Y008131D02*
X026837Y008131D01*
X026837Y007973D02*
X026889Y007973D01*
X027307Y007656D02*
X027462Y007656D01*
X027462Y007497D02*
X027307Y007497D01*
X027307Y007339D02*
X027462Y007339D01*
X024895Y006071D02*
X024848Y006071D01*
X024761Y005912D02*
X024962Y005912D01*
X022119Y004520D02*
X022116Y004513D01*
X022114Y004516D01*
X022119Y004520D01*
X022093Y003535D02*
X022028Y003535D01*
X021923Y003376D02*
X022184Y003376D01*
X022363Y003218D02*
X021677Y003218D01*
X023583Y015675D02*
X024583Y016675D01*
X024145Y016690D02*
X023939Y016690D01*
X023926Y016532D02*
X023987Y016532D01*
X026528Y018909D02*
X026686Y018909D01*
X027188Y018909D02*
X027228Y018909D01*
X027228Y019068D02*
X027188Y019068D01*
X027188Y019226D02*
X027228Y019226D01*
X027758Y019543D02*
X027843Y019543D01*
X027843Y019702D02*
X027758Y019702D01*
X027717Y019860D02*
X027843Y019860D01*
X027800Y021287D02*
X009116Y021287D01*
X009184Y021445D02*
X027732Y021445D01*
X027609Y021604D02*
X009307Y021604D01*
X009581Y021762D02*
X027335Y021762D01*
X025926Y020019D02*
X024490Y020019D01*
X024686Y019860D02*
X024830Y019860D01*
X025586Y019860D02*
X025730Y019860D01*
X024675Y019068D02*
X024663Y019068D01*
X020588Y020177D02*
X015380Y020177D01*
X015433Y020336D02*
X020588Y020336D01*
X020648Y020494D02*
X015433Y020494D01*
X015433Y020653D02*
X020714Y020653D01*
D26*
X023083Y017550D02*
X022873Y017340D01*
X022873Y016800D01*
X027259Y010550D02*
X027333Y010550D01*
X019833Y006300D02*
X019958Y005955D01*
X019553Y005675D01*
X019458Y005675D01*
X019553Y005675D01*
X019833Y005675D01*
X019958Y005955D01*
X019833Y006300D02*
X019333Y006300D01*
X019458Y005955D01*
X019333Y004175D02*
X018958Y004175D01*
X018958Y003895D01*
X019053Y003550D01*
X019208Y003550D01*
X019053Y003550D01*
X018958Y003550D01*
X018958Y003895D01*
X019333Y004175D02*
X019458Y003895D01*
D27*
X019958Y003895D01*
X019928Y003925D02*
X021333Y003925D01*
X019458Y005955D02*
X018958Y005955D01*
X018458Y005955D01*
X018053Y005675D01*
X017553Y005675D01*
X013112Y005675D01*
X012379Y004894D01*
X011598Y004035D01*
X025870Y006400D02*
X026358Y006400D01*
X027051Y005706D01*
X027051Y004550D01*
X027051Y004144D01*
X026083Y003175D01*
D28*
X009833Y003425D02*
X009708Y003425D01*
X009708Y005925D01*
D29*
X014333Y018175D02*
X015208Y018175D01*
X014333Y019175D02*
X017708Y019175D01*
X023583Y017925D02*
X023583Y017300D01*
X023543Y017260D01*
X023543Y016800D01*
X023583Y017925D02*
X024708Y019050D01*
X024708Y020050D01*
X023708Y020050D01*
D30*
X022873Y016800D02*
X022583Y016800D01*
X021833Y016050D01*
X021833Y012425D01*
X021833Y012300D01*
X022083Y012050D01*
X022083Y011550D01*
X022583Y011050D01*
X022998Y010635D01*
X024583Y010635D01*
X024123Y010635D01*
X024083Y010675D01*
X024083Y011550D01*
X024583Y010635D02*
X025623Y010635D01*
X026072Y010635D01*
X026157Y010550D01*
X026238Y010469D01*
X026363Y009765D01*
X026282Y009721D01*
X026363Y008585D02*
X026282Y008541D01*
X026282Y007800D01*
X025208Y007800D01*
X025083Y007675D01*
X024458Y007050D01*
X024458Y006175D01*
X024020Y005738D01*
X023958Y005800D01*
X023793Y005800D01*
X024020Y005738D02*
X023458Y005175D01*
X022208Y005175D01*
X021508Y004475D01*
X021533Y004050D01*
D31*
X020833Y012175D02*
X020833Y014300D01*
X020775Y014367D01*
X019083Y014367D01*
X018516Y014367D01*
X018458Y014425D01*
X018083Y014800D01*
X018083Y015675D01*
X017458Y016300D01*
X017458Y017050D01*
X017083Y017425D01*
X017083Y017550D01*
X017083Y018300D01*
X016708Y018675D01*
X014883Y018675D01*
X014783Y019675D02*
X019333Y019675D01*
X020083Y018925D01*
X020083Y017550D01*
X020083Y015550D01*
X019766Y015233D01*
X019457Y015233D01*
X020833Y014300D02*
X020833Y017300D01*
X021083Y017550D01*
X021083Y018050D01*
X021333Y018300D01*
X023083Y018300D01*
X023083Y018350D01*
X024208Y019475D01*
X023083Y018300D02*
X023083Y017550D01*
D32*
X024264Y004250D02*
X024389Y004106D01*
X023958Y003800D01*
X022708Y003800D01*
X022708Y004050D01*
X022883Y004050D01*
X022633Y004050D01*
X021533Y004050D02*
X021508Y004225D01*
X021333Y003800D01*
X021208Y003925D01*
X021333Y003925D01*
X019958Y003895D02*
X019928Y003925D01*
D33*
X024264Y004250D02*
X024689Y004550D01*
D34*
X023708Y004175D02*
X022708Y004175D01*
X022708Y004050D01*
M02*
