G75*
%MOIN*%
%OFA0B0*%
%FSLAX24Y24*%
%IPPOS*%
%LPD*%
%AMOC8*
5,1,8,0,0,1.08239X$1,22.5*
%
%ADD10C,0.0000*%
%ADD11R,0.1250X0.0875*%
%ADD12R,0.1750X0.0750*%
%ADD13R,0.0870X0.0240*%
%ADD14R,0.0394X0.0433*%
%ADD15R,0.0433X0.0394*%
%ADD16R,0.0551X0.0394*%
%ADD17R,0.0240X0.0870*%
%ADD18R,0.0591X0.0394*%
%ADD19R,0.0787X0.0394*%
%ADD20C,0.0866*%
%ADD21R,0.0630X0.0709*%
%ADD22R,0.0591X0.1142*%
%ADD23R,0.0709X0.0630*%
%ADD24C,0.0740*%
%ADD25C,0.0600*%
%ADD26C,0.0705*%
%ADD27R,0.0236X0.0866*%
%ADD28R,0.0512X0.0748*%
%ADD29R,0.0787X0.0748*%
%ADD30R,0.0630X0.0460*%
%ADD31R,0.0700X0.0700*%
%ADD32C,0.0700*%
%ADD33C,0.0240*%
%ADD34C,0.0160*%
%ADD35C,0.0320*%
%ADD36R,0.0317X0.0317*%
%ADD37C,0.0660*%
D10*
X001927Y006076D02*
X001927Y037179D01*
X001926Y037179D02*
X001928Y037289D01*
X001934Y037399D01*
X001943Y037508D01*
X001957Y037617D01*
X001974Y037726D01*
X001995Y037834D01*
X002020Y037941D01*
X002048Y038047D01*
X002080Y038152D01*
X002116Y038256D01*
X002155Y038359D01*
X002198Y038460D01*
X002245Y038560D01*
X002295Y038658D01*
X002348Y038754D01*
X002405Y038848D01*
X002465Y038940D01*
X002528Y039031D01*
X002594Y039118D01*
X002663Y039204D01*
X002735Y039287D01*
X002810Y039367D01*
X002888Y039445D01*
X002968Y039520D01*
X003051Y039592D01*
X003137Y039661D01*
X003224Y039727D01*
X003315Y039790D01*
X003407Y039850D01*
X003501Y039907D01*
X003597Y039960D01*
X003695Y040010D01*
X003795Y040057D01*
X003896Y040100D01*
X003999Y040139D01*
X004103Y040175D01*
X004208Y040207D01*
X004314Y040235D01*
X004421Y040260D01*
X004529Y040281D01*
X004638Y040298D01*
X004747Y040312D01*
X004856Y040321D01*
X004966Y040327D01*
X005076Y040329D01*
X005076Y040328D02*
X018462Y040328D01*
X018462Y040329D02*
X018572Y040327D01*
X018682Y040321D01*
X018791Y040312D01*
X018900Y040298D01*
X019009Y040281D01*
X019117Y040260D01*
X019224Y040235D01*
X019330Y040207D01*
X019435Y040175D01*
X019539Y040139D01*
X019642Y040100D01*
X019743Y040057D01*
X019843Y040010D01*
X019941Y039960D01*
X020037Y039907D01*
X020131Y039850D01*
X020223Y039790D01*
X020314Y039727D01*
X020401Y039661D01*
X020487Y039592D01*
X020570Y039520D01*
X020650Y039445D01*
X020728Y039367D01*
X020803Y039287D01*
X020875Y039204D01*
X020944Y039118D01*
X021010Y039031D01*
X021073Y038940D01*
X021133Y038848D01*
X021190Y038754D01*
X021243Y038658D01*
X021293Y038560D01*
X021340Y038460D01*
X021383Y038359D01*
X021422Y038256D01*
X021458Y038152D01*
X021490Y038047D01*
X021518Y037941D01*
X021543Y037834D01*
X021564Y037726D01*
X021581Y037617D01*
X021595Y037508D01*
X021604Y037399D01*
X021610Y037289D01*
X021612Y037179D01*
X021612Y006076D01*
X021610Y005966D01*
X021604Y005856D01*
X021595Y005747D01*
X021581Y005638D01*
X021564Y005529D01*
X021543Y005421D01*
X021518Y005314D01*
X021490Y005208D01*
X021458Y005103D01*
X021422Y004999D01*
X021383Y004896D01*
X021340Y004795D01*
X021293Y004695D01*
X021243Y004597D01*
X021190Y004501D01*
X021133Y004407D01*
X021073Y004315D01*
X021010Y004224D01*
X020944Y004137D01*
X020875Y004051D01*
X020803Y003968D01*
X020728Y003888D01*
X020650Y003810D01*
X020570Y003735D01*
X020487Y003663D01*
X020401Y003594D01*
X020314Y003528D01*
X020223Y003465D01*
X020131Y003405D01*
X020037Y003348D01*
X019941Y003295D01*
X019843Y003245D01*
X019743Y003198D01*
X019642Y003155D01*
X019539Y003116D01*
X019435Y003080D01*
X019330Y003048D01*
X019224Y003020D01*
X019117Y002995D01*
X019009Y002974D01*
X018900Y002957D01*
X018791Y002943D01*
X018682Y002934D01*
X018572Y002928D01*
X018462Y002926D01*
X018462Y002927D02*
X005076Y002927D01*
X005076Y002926D02*
X004966Y002928D01*
X004856Y002934D01*
X004747Y002943D01*
X004638Y002957D01*
X004529Y002974D01*
X004421Y002995D01*
X004314Y003020D01*
X004208Y003048D01*
X004103Y003080D01*
X003999Y003116D01*
X003896Y003155D01*
X003795Y003198D01*
X003695Y003245D01*
X003597Y003295D01*
X003501Y003348D01*
X003407Y003405D01*
X003315Y003465D01*
X003224Y003528D01*
X003137Y003594D01*
X003051Y003663D01*
X002968Y003735D01*
X002888Y003810D01*
X002810Y003888D01*
X002735Y003968D01*
X002663Y004051D01*
X002594Y004137D01*
X002528Y004224D01*
X002465Y004315D01*
X002405Y004407D01*
X002348Y004501D01*
X002295Y004597D01*
X002245Y004695D01*
X002198Y004795D01*
X002155Y004896D01*
X002116Y004999D01*
X002080Y005103D01*
X002048Y005208D01*
X002020Y005314D01*
X001995Y005421D01*
X001974Y005529D01*
X001957Y005638D01*
X001943Y005747D01*
X001934Y005856D01*
X001928Y005966D01*
X001926Y006076D01*
X004761Y006470D02*
X004763Y006523D01*
X004769Y006576D01*
X004779Y006628D01*
X004792Y006679D01*
X004810Y006729D01*
X004831Y006778D01*
X004856Y006825D01*
X004884Y006869D01*
X004916Y006912D01*
X004950Y006952D01*
X004988Y006990D01*
X005028Y007024D01*
X005071Y007056D01*
X005116Y007084D01*
X005162Y007109D01*
X005211Y007130D01*
X005261Y007148D01*
X005312Y007161D01*
X005364Y007171D01*
X005417Y007177D01*
X005470Y007179D01*
X005523Y007177D01*
X005576Y007171D01*
X005628Y007161D01*
X005679Y007148D01*
X005729Y007130D01*
X005778Y007109D01*
X005825Y007084D01*
X005869Y007056D01*
X005912Y007024D01*
X005952Y006990D01*
X005990Y006952D01*
X006024Y006912D01*
X006056Y006869D01*
X006084Y006824D01*
X006109Y006778D01*
X006130Y006729D01*
X006148Y006679D01*
X006161Y006628D01*
X006171Y006576D01*
X006177Y006523D01*
X006179Y006470D01*
X006177Y006417D01*
X006171Y006364D01*
X006161Y006312D01*
X006148Y006261D01*
X006130Y006211D01*
X006109Y006162D01*
X006084Y006115D01*
X006056Y006071D01*
X006024Y006028D01*
X005990Y005988D01*
X005952Y005950D01*
X005912Y005916D01*
X005869Y005884D01*
X005824Y005856D01*
X005778Y005831D01*
X005729Y005810D01*
X005679Y005792D01*
X005628Y005779D01*
X005576Y005769D01*
X005523Y005763D01*
X005470Y005761D01*
X005417Y005763D01*
X005364Y005769D01*
X005312Y005779D01*
X005261Y005792D01*
X005211Y005810D01*
X005162Y005831D01*
X005115Y005856D01*
X005071Y005884D01*
X005028Y005916D01*
X004988Y005950D01*
X004950Y005988D01*
X004916Y006028D01*
X004884Y006071D01*
X004856Y006116D01*
X004831Y006162D01*
X004810Y006211D01*
X004792Y006261D01*
X004779Y006312D01*
X004769Y006364D01*
X004763Y006417D01*
X004761Y006470D01*
X009245Y004220D02*
X009247Y004257D01*
X009253Y004294D01*
X009263Y004330D01*
X009276Y004365D01*
X009293Y004398D01*
X009314Y004429D01*
X009338Y004457D01*
X009365Y004483D01*
X009394Y004506D01*
X009425Y004526D01*
X009459Y004542D01*
X009494Y004555D01*
X009530Y004564D01*
X009567Y004569D01*
X009604Y004570D01*
X009641Y004567D01*
X009678Y004560D01*
X009714Y004549D01*
X009748Y004535D01*
X009781Y004517D01*
X009811Y004495D01*
X009839Y004471D01*
X009864Y004443D01*
X009887Y004413D01*
X009906Y004381D01*
X009921Y004347D01*
X009933Y004312D01*
X009941Y004276D01*
X009945Y004239D01*
X009945Y004201D01*
X009941Y004164D01*
X009933Y004128D01*
X009921Y004093D01*
X009906Y004059D01*
X009887Y004027D01*
X009864Y003997D01*
X009839Y003969D01*
X009811Y003945D01*
X009781Y003923D01*
X009748Y003905D01*
X009714Y003891D01*
X009678Y003880D01*
X009641Y003873D01*
X009604Y003870D01*
X009567Y003871D01*
X009530Y003876D01*
X009494Y003885D01*
X009459Y003898D01*
X009425Y003914D01*
X009394Y003934D01*
X009365Y003957D01*
X009338Y003983D01*
X009314Y004011D01*
X009293Y004042D01*
X009276Y004075D01*
X009263Y004110D01*
X009253Y004146D01*
X009247Y004183D01*
X009245Y004220D01*
X015245Y004220D02*
X015247Y004257D01*
X015253Y004294D01*
X015263Y004330D01*
X015276Y004365D01*
X015293Y004398D01*
X015314Y004429D01*
X015338Y004457D01*
X015365Y004483D01*
X015394Y004506D01*
X015425Y004526D01*
X015459Y004542D01*
X015494Y004555D01*
X015530Y004564D01*
X015567Y004569D01*
X015604Y004570D01*
X015641Y004567D01*
X015678Y004560D01*
X015714Y004549D01*
X015748Y004535D01*
X015781Y004517D01*
X015811Y004495D01*
X015839Y004471D01*
X015864Y004443D01*
X015887Y004413D01*
X015906Y004381D01*
X015921Y004347D01*
X015933Y004312D01*
X015941Y004276D01*
X015945Y004239D01*
X015945Y004201D01*
X015941Y004164D01*
X015933Y004128D01*
X015921Y004093D01*
X015906Y004059D01*
X015887Y004027D01*
X015864Y003997D01*
X015839Y003969D01*
X015811Y003945D01*
X015781Y003923D01*
X015748Y003905D01*
X015714Y003891D01*
X015678Y003880D01*
X015641Y003873D01*
X015604Y003870D01*
X015567Y003871D01*
X015530Y003876D01*
X015494Y003885D01*
X015459Y003898D01*
X015425Y003914D01*
X015394Y003934D01*
X015365Y003957D01*
X015338Y003983D01*
X015314Y004011D01*
X015293Y004042D01*
X015276Y004075D01*
X015263Y004110D01*
X015253Y004146D01*
X015247Y004183D01*
X015245Y004220D01*
X017418Y006470D02*
X017420Y006523D01*
X017426Y006576D01*
X017436Y006628D01*
X017449Y006679D01*
X017467Y006729D01*
X017488Y006778D01*
X017513Y006825D01*
X017541Y006869D01*
X017573Y006912D01*
X017607Y006952D01*
X017645Y006990D01*
X017685Y007024D01*
X017728Y007056D01*
X017773Y007084D01*
X017819Y007109D01*
X017868Y007130D01*
X017918Y007148D01*
X017969Y007161D01*
X018021Y007171D01*
X018074Y007177D01*
X018127Y007179D01*
X018180Y007177D01*
X018233Y007171D01*
X018285Y007161D01*
X018336Y007148D01*
X018386Y007130D01*
X018435Y007109D01*
X018482Y007084D01*
X018526Y007056D01*
X018569Y007024D01*
X018609Y006990D01*
X018647Y006952D01*
X018681Y006912D01*
X018713Y006869D01*
X018741Y006824D01*
X018766Y006778D01*
X018787Y006729D01*
X018805Y006679D01*
X018818Y006628D01*
X018828Y006576D01*
X018834Y006523D01*
X018836Y006470D01*
X018834Y006417D01*
X018828Y006364D01*
X018818Y006312D01*
X018805Y006261D01*
X018787Y006211D01*
X018766Y006162D01*
X018741Y006115D01*
X018713Y006071D01*
X018681Y006028D01*
X018647Y005988D01*
X018609Y005950D01*
X018569Y005916D01*
X018526Y005884D01*
X018481Y005856D01*
X018435Y005831D01*
X018386Y005810D01*
X018336Y005792D01*
X018285Y005779D01*
X018233Y005769D01*
X018180Y005763D01*
X018127Y005761D01*
X018074Y005763D01*
X018021Y005769D01*
X017969Y005779D01*
X017918Y005792D01*
X017868Y005810D01*
X017819Y005831D01*
X017772Y005856D01*
X017728Y005884D01*
X017685Y005916D01*
X017645Y005950D01*
X017607Y005988D01*
X017573Y006028D01*
X017541Y006071D01*
X017513Y006116D01*
X017488Y006162D01*
X017467Y006211D01*
X017449Y006261D01*
X017436Y006312D01*
X017426Y006364D01*
X017420Y006417D01*
X017418Y006470D01*
X015245Y020220D02*
X015247Y020257D01*
X015253Y020294D01*
X015263Y020330D01*
X015276Y020365D01*
X015293Y020398D01*
X015314Y020429D01*
X015338Y020457D01*
X015365Y020483D01*
X015394Y020506D01*
X015425Y020526D01*
X015459Y020542D01*
X015494Y020555D01*
X015530Y020564D01*
X015567Y020569D01*
X015604Y020570D01*
X015641Y020567D01*
X015678Y020560D01*
X015714Y020549D01*
X015748Y020535D01*
X015781Y020517D01*
X015811Y020495D01*
X015839Y020471D01*
X015864Y020443D01*
X015887Y020413D01*
X015906Y020381D01*
X015921Y020347D01*
X015933Y020312D01*
X015941Y020276D01*
X015945Y020239D01*
X015945Y020201D01*
X015941Y020164D01*
X015933Y020128D01*
X015921Y020093D01*
X015906Y020059D01*
X015887Y020027D01*
X015864Y019997D01*
X015839Y019969D01*
X015811Y019945D01*
X015781Y019923D01*
X015748Y019905D01*
X015714Y019891D01*
X015678Y019880D01*
X015641Y019873D01*
X015604Y019870D01*
X015567Y019871D01*
X015530Y019876D01*
X015494Y019885D01*
X015459Y019898D01*
X015425Y019914D01*
X015394Y019934D01*
X015365Y019957D01*
X015338Y019983D01*
X015314Y020011D01*
X015293Y020042D01*
X015276Y020075D01*
X015263Y020110D01*
X015253Y020146D01*
X015247Y020183D01*
X015245Y020220D01*
X015127Y023605D02*
X015627Y023605D01*
X016127Y023605D01*
X016627Y023605D01*
X016627Y025665D02*
X016127Y025665D01*
X015845Y025665D01*
X015627Y025665D01*
X009245Y020220D02*
X009247Y020257D01*
X009253Y020294D01*
X009263Y020330D01*
X009276Y020365D01*
X009293Y020398D01*
X009314Y020429D01*
X009338Y020457D01*
X009365Y020483D01*
X009394Y020506D01*
X009425Y020526D01*
X009459Y020542D01*
X009494Y020555D01*
X009530Y020564D01*
X009567Y020569D01*
X009604Y020570D01*
X009641Y020567D01*
X009678Y020560D01*
X009714Y020549D01*
X009748Y020535D01*
X009781Y020517D01*
X009811Y020495D01*
X009839Y020471D01*
X009864Y020443D01*
X009887Y020413D01*
X009906Y020381D01*
X009921Y020347D01*
X009933Y020312D01*
X009941Y020276D01*
X009945Y020239D01*
X009945Y020201D01*
X009941Y020164D01*
X009933Y020128D01*
X009921Y020093D01*
X009906Y020059D01*
X009887Y020027D01*
X009864Y019997D01*
X009839Y019969D01*
X009811Y019945D01*
X009781Y019923D01*
X009748Y019905D01*
X009714Y019891D01*
X009678Y019880D01*
X009641Y019873D01*
X009604Y019870D01*
X009567Y019871D01*
X009530Y019876D01*
X009494Y019885D01*
X009459Y019898D01*
X009425Y019914D01*
X009394Y019934D01*
X009365Y019957D01*
X009338Y019983D01*
X009314Y020011D01*
X009293Y020042D01*
X009276Y020075D01*
X009263Y020110D01*
X009253Y020146D01*
X009247Y020183D01*
X009245Y020220D01*
X004761Y036549D02*
X004763Y036602D01*
X004769Y036655D01*
X004779Y036707D01*
X004792Y036758D01*
X004810Y036808D01*
X004831Y036857D01*
X004856Y036904D01*
X004884Y036948D01*
X004916Y036991D01*
X004950Y037031D01*
X004988Y037069D01*
X005028Y037103D01*
X005071Y037135D01*
X005116Y037163D01*
X005162Y037188D01*
X005211Y037209D01*
X005261Y037227D01*
X005312Y037240D01*
X005364Y037250D01*
X005417Y037256D01*
X005470Y037258D01*
X005523Y037256D01*
X005576Y037250D01*
X005628Y037240D01*
X005679Y037227D01*
X005729Y037209D01*
X005778Y037188D01*
X005825Y037163D01*
X005869Y037135D01*
X005912Y037103D01*
X005952Y037069D01*
X005990Y037031D01*
X006024Y036991D01*
X006056Y036948D01*
X006084Y036903D01*
X006109Y036857D01*
X006130Y036808D01*
X006148Y036758D01*
X006161Y036707D01*
X006171Y036655D01*
X006177Y036602D01*
X006179Y036549D01*
X006177Y036496D01*
X006171Y036443D01*
X006161Y036391D01*
X006148Y036340D01*
X006130Y036290D01*
X006109Y036241D01*
X006084Y036194D01*
X006056Y036150D01*
X006024Y036107D01*
X005990Y036067D01*
X005952Y036029D01*
X005912Y035995D01*
X005869Y035963D01*
X005824Y035935D01*
X005778Y035910D01*
X005729Y035889D01*
X005679Y035871D01*
X005628Y035858D01*
X005576Y035848D01*
X005523Y035842D01*
X005470Y035840D01*
X005417Y035842D01*
X005364Y035848D01*
X005312Y035858D01*
X005261Y035871D01*
X005211Y035889D01*
X005162Y035910D01*
X005115Y035935D01*
X005071Y035963D01*
X005028Y035995D01*
X004988Y036029D01*
X004950Y036067D01*
X004916Y036107D01*
X004884Y036150D01*
X004856Y036195D01*
X004831Y036241D01*
X004810Y036290D01*
X004792Y036340D01*
X004779Y036391D01*
X004769Y036443D01*
X004763Y036496D01*
X004761Y036549D01*
X017418Y036549D02*
X017420Y036602D01*
X017426Y036655D01*
X017436Y036707D01*
X017449Y036758D01*
X017467Y036808D01*
X017488Y036857D01*
X017513Y036904D01*
X017541Y036948D01*
X017573Y036991D01*
X017607Y037031D01*
X017645Y037069D01*
X017685Y037103D01*
X017728Y037135D01*
X017773Y037163D01*
X017819Y037188D01*
X017868Y037209D01*
X017918Y037227D01*
X017969Y037240D01*
X018021Y037250D01*
X018074Y037256D01*
X018127Y037258D01*
X018180Y037256D01*
X018233Y037250D01*
X018285Y037240D01*
X018336Y037227D01*
X018386Y037209D01*
X018435Y037188D01*
X018482Y037163D01*
X018526Y037135D01*
X018569Y037103D01*
X018609Y037069D01*
X018647Y037031D01*
X018681Y036991D01*
X018713Y036948D01*
X018741Y036903D01*
X018766Y036857D01*
X018787Y036808D01*
X018805Y036758D01*
X018818Y036707D01*
X018828Y036655D01*
X018834Y036602D01*
X018836Y036549D01*
X018834Y036496D01*
X018828Y036443D01*
X018818Y036391D01*
X018805Y036340D01*
X018787Y036290D01*
X018766Y036241D01*
X018741Y036194D01*
X018713Y036150D01*
X018681Y036107D01*
X018647Y036067D01*
X018609Y036029D01*
X018569Y035995D01*
X018526Y035963D01*
X018481Y035935D01*
X018435Y035910D01*
X018386Y035889D01*
X018336Y035871D01*
X018285Y035858D01*
X018233Y035848D01*
X018180Y035842D01*
X018127Y035840D01*
X018074Y035842D01*
X018021Y035848D01*
X017969Y035858D01*
X017918Y035871D01*
X017868Y035889D01*
X017819Y035910D01*
X017772Y035935D01*
X017728Y035963D01*
X017685Y035995D01*
X017645Y036029D01*
X017607Y036067D01*
X017573Y036107D01*
X017541Y036150D01*
X017513Y036195D01*
X017488Y036241D01*
X017467Y036290D01*
X017449Y036340D01*
X017436Y036391D01*
X017426Y036443D01*
X017420Y036496D01*
X017418Y036549D01*
D11*
X016095Y025658D03*
D12*
X015845Y023595D03*
D13*
X008781Y024722D03*
X008781Y025222D03*
X008781Y025722D03*
X008781Y026222D03*
X006721Y026222D03*
X006721Y025722D03*
X006721Y025222D03*
X006721Y024722D03*
D14*
X006055Y027470D03*
X005385Y027470D03*
X007512Y027439D03*
X007512Y028564D03*
X008182Y028564D03*
X008182Y027439D03*
X009633Y027376D03*
X010303Y027376D03*
X015168Y026885D03*
X015837Y026885D03*
D15*
X012220Y025805D03*
X012220Y025135D03*
X012220Y024180D03*
X012220Y023510D03*
X011968Y032417D03*
X011968Y033086D03*
X012220Y036635D03*
X012220Y037305D03*
X008531Y033398D03*
X008531Y032729D03*
X005251Y025932D03*
X005251Y025262D03*
X017436Y015555D03*
X017436Y014885D03*
D16*
X013202Y024189D03*
X013202Y024937D03*
X014068Y024563D03*
D17*
X015127Y023605D03*
X015627Y023605D03*
X016127Y023605D03*
X016627Y023605D03*
X016627Y025665D03*
X016127Y025665D03*
X015627Y025665D03*
X015127Y025665D03*
D18*
X020500Y014060D03*
X020500Y012880D03*
D19*
X020400Y013470D03*
D20*
X019645Y013470D02*
X019055Y013470D01*
D21*
X019169Y010470D03*
X020271Y010470D03*
X010269Y029001D03*
X009167Y029001D03*
X008023Y023064D03*
X006921Y023064D03*
D22*
X019129Y015220D03*
X020311Y015220D03*
X020311Y011720D03*
X019129Y011720D03*
D23*
X005845Y021169D03*
X005845Y022271D03*
X003722Y025887D03*
X003722Y026990D03*
X008988Y036309D03*
X008988Y037411D03*
X005345Y017646D03*
X005345Y016544D03*
D24*
X003165Y010992D03*
D25*
X002946Y013141D02*
X003546Y013141D01*
X003546Y014141D02*
X002946Y014141D01*
X002946Y015141D02*
X003546Y015141D01*
X003546Y016141D02*
X002946Y016141D01*
X002946Y017141D02*
X003546Y017141D01*
X003546Y018141D02*
X002946Y018141D01*
X002946Y019141D02*
X003546Y019141D01*
X003546Y020141D02*
X002946Y020141D01*
X002946Y021141D02*
X003546Y021141D01*
X003546Y022141D02*
X002946Y022141D01*
D26*
X019625Y021439D02*
X020330Y021439D01*
X020330Y019470D02*
X019625Y019470D01*
X019625Y017501D02*
X020330Y017501D01*
X020323Y023486D02*
X019618Y023486D01*
X019618Y025454D02*
X020323Y025454D01*
X020323Y027486D02*
X019618Y027486D01*
X019618Y029454D02*
X020323Y029454D01*
D27*
X011472Y035915D03*
X010972Y035915D03*
X010472Y035915D03*
X009972Y035915D03*
X009972Y037962D03*
X010472Y037962D03*
X010972Y037962D03*
X011472Y037962D03*
D28*
X010736Y031770D03*
X009736Y031770D03*
D29*
X010236Y033778D03*
D30*
X014780Y031698D03*
X014780Y031098D03*
X014780Y030498D03*
D31*
X009595Y019220D03*
D32*
X009595Y018220D03*
X009595Y017220D03*
X009595Y016220D03*
X009595Y015220D03*
X009595Y014220D03*
X009595Y013220D03*
X009595Y012220D03*
X009595Y011220D03*
X009595Y010220D03*
X009595Y009220D03*
X009595Y008220D03*
X009595Y007220D03*
X009595Y006220D03*
X009595Y005220D03*
X015595Y005220D03*
X015595Y006220D03*
X015595Y007220D03*
X015595Y008220D03*
X015595Y009220D03*
X015595Y010220D03*
X015595Y011220D03*
X015595Y012220D03*
X015595Y013220D03*
X015595Y014220D03*
X015595Y015220D03*
X015595Y016220D03*
X015595Y017220D03*
X015595Y018220D03*
X015595Y019220D03*
D33*
X017436Y016061D02*
X017436Y015555D01*
X017436Y016061D02*
X018876Y017501D01*
X019978Y017501D01*
X020311Y015220D02*
X021220Y015220D01*
X021220Y026236D01*
X019970Y027486D01*
X016095Y031095D02*
X016092Y031098D01*
X014780Y031098D01*
X014780Y031698D02*
X014780Y034075D01*
X012220Y036635D01*
X012010Y036845D01*
X011220Y036845D01*
X010972Y036597D01*
X010972Y035915D01*
X010472Y035915D02*
X010472Y034014D01*
X010236Y033778D01*
X011276Y033778D01*
X011968Y033086D01*
X010736Y032329D02*
X010736Y031770D01*
X010736Y032329D02*
X010345Y032720D01*
X008540Y032720D01*
X008531Y032729D01*
X008531Y033398D02*
X007417Y033398D01*
X007345Y033470D01*
X008531Y033531D02*
X009972Y034972D01*
X009972Y035915D01*
X010135Y037305D02*
X009970Y037470D01*
X009970Y037960D01*
X009972Y037962D01*
X009480Y037470D01*
X009179Y037470D01*
X007970Y037470D01*
X008988Y037411D02*
X009179Y037470D01*
X010135Y037305D02*
X012220Y037305D01*
X008531Y033531D02*
X008531Y033398D01*
X007123Y030498D02*
X014780Y030498D01*
X015168Y026885D02*
X015127Y026845D01*
X015127Y025665D01*
X014068Y024606D01*
X014068Y024563D01*
X013202Y024937D02*
X013003Y025135D01*
X012220Y025135D01*
X012220Y024180D01*
X012220Y023510D02*
X012220Y014720D01*
X009595Y011220D01*
X008845Y011345D02*
X008845Y007845D01*
X009470Y007220D01*
X009595Y007220D01*
X009595Y006220D02*
X008345Y007470D01*
X008345Y011095D01*
X004299Y015141D01*
X003246Y015141D01*
X003246Y014141D02*
X004549Y014141D01*
X007845Y010845D01*
X007845Y006970D01*
X009595Y005220D01*
X012720Y003220D02*
X005470Y003220D01*
X005359Y003222D01*
X005248Y003228D01*
X005138Y003237D01*
X005027Y003250D01*
X004918Y003267D01*
X004809Y003288D01*
X004701Y003312D01*
X004593Y003341D01*
X004487Y003372D01*
X004382Y003408D01*
X004278Y003447D01*
X004175Y003489D01*
X004074Y003535D01*
X003975Y003584D01*
X003877Y003637D01*
X003781Y003693D01*
X003688Y003752D01*
X003596Y003815D01*
X003506Y003880D01*
X003419Y003949D01*
X003334Y004020D01*
X003252Y004095D01*
X003172Y004172D01*
X003095Y004252D01*
X003020Y004334D01*
X002949Y004419D01*
X002880Y004506D01*
X002815Y004596D01*
X002752Y004688D01*
X002693Y004781D01*
X002637Y004877D01*
X002584Y004975D01*
X002535Y005074D01*
X002489Y005175D01*
X002447Y005278D01*
X002408Y005382D01*
X002372Y005487D01*
X002341Y005593D01*
X002312Y005701D01*
X002288Y005809D01*
X002267Y005918D01*
X002250Y006027D01*
X002237Y006138D01*
X002228Y006248D01*
X002222Y006359D01*
X002220Y006470D01*
X002220Y016720D01*
X002641Y017141D01*
X003246Y017141D01*
X003246Y016141D02*
X004049Y016141D01*
X008845Y011345D01*
X008345Y014220D02*
X009595Y014220D01*
X009595Y015220D02*
X008095Y015220D01*
X006845Y016470D01*
X006845Y019095D01*
X005470Y020470D01*
X005470Y020794D01*
X005845Y021169D01*
X005470Y020470D02*
X004799Y021141D01*
X003246Y021141D01*
X003246Y019141D02*
X004549Y019141D01*
X005345Y018345D01*
X005345Y017646D01*
X005345Y018345D02*
X006345Y017345D01*
X006345Y016220D01*
X008345Y014220D01*
X008023Y023064D02*
X007970Y023117D01*
X007970Y024220D01*
X008220Y023970D01*
X009220Y023970D01*
X009472Y025222D02*
X008781Y025222D01*
X008781Y025722D02*
X008222Y025722D01*
X007970Y025470D01*
X007970Y024220D01*
X007345Y025720D02*
X006723Y025720D01*
X006721Y025722D01*
X006721Y025222D02*
X005292Y025222D01*
X005251Y025262D01*
X004347Y025262D01*
X003722Y025887D01*
X005251Y025932D02*
X005251Y027336D01*
X005385Y027470D01*
X005385Y028760D01*
X007123Y030498D01*
X007512Y028564D02*
X007512Y027439D01*
X007512Y025887D01*
X007345Y025720D01*
X006720Y027470D02*
X006055Y027470D01*
X008182Y027439D02*
X009571Y027439D01*
X009633Y027376D01*
X009720Y027290D01*
X009720Y025470D01*
X009472Y025222D01*
X010303Y027376D02*
X010939Y028001D01*
X010269Y028671D01*
X010269Y029001D01*
X010939Y028001D02*
X010970Y027970D01*
X015837Y026885D02*
X015837Y025673D01*
X015845Y025665D01*
X021220Y015220D02*
X021220Y014470D01*
X020810Y014060D01*
X020500Y014060D01*
X020500Y012880D02*
X020500Y011909D01*
X020311Y011720D01*
X020311Y010509D01*
X020271Y010470D01*
X015595Y005220D02*
X012720Y003220D01*
D34*
X003159Y004573D02*
X002833Y005061D01*
X002609Y005602D01*
X002494Y006177D01*
X002480Y006470D01*
X002480Y016612D01*
X002666Y016798D01*
X002696Y016768D01*
X002858Y016701D01*
X003633Y016701D01*
X003795Y016768D01*
X003919Y016892D01*
X003986Y017054D01*
X003986Y017229D01*
X003919Y017390D01*
X003795Y017514D01*
X003633Y017581D01*
X002858Y017581D01*
X002696Y017514D01*
X002579Y017397D01*
X002494Y017362D01*
X002421Y017289D01*
X002107Y016974D01*
X002107Y037179D01*
X002121Y037470D01*
X002235Y038041D01*
X002457Y038579D01*
X002781Y039063D01*
X003192Y039474D01*
X003676Y039798D01*
X004214Y040020D01*
X004785Y040134D01*
X005076Y040148D01*
X018462Y040148D01*
X018753Y040134D01*
X019324Y040020D01*
X019862Y039798D01*
X020346Y039474D01*
X020758Y039063D01*
X021081Y038579D01*
X021304Y038041D01*
X021417Y037470D01*
X021432Y037179D01*
X021432Y026392D01*
X020678Y027145D01*
X020740Y027207D01*
X020815Y027388D01*
X020815Y027584D01*
X020740Y027765D01*
X020601Y027903D01*
X020420Y027978D01*
X019520Y027978D01*
X019465Y027956D01*
X018354Y027956D01*
X018182Y027884D01*
X016538Y026240D01*
X016449Y026240D01*
X016444Y026235D01*
X016311Y026235D01*
X016305Y026240D01*
X016097Y026240D01*
X016097Y026534D01*
X016174Y026611D01*
X016174Y027160D01*
X016092Y027242D01*
X015582Y027242D01*
X015502Y027162D01*
X015423Y027242D01*
X014913Y027242D01*
X014831Y027160D01*
X014831Y026611D01*
X014867Y026574D01*
X014867Y025773D01*
X013994Y024899D01*
X013735Y024899D01*
X013653Y024817D01*
X013653Y024428D01*
X013646Y024455D01*
X013622Y024496D01*
X013588Y024529D01*
X013547Y024553D01*
X013502Y024565D01*
X013221Y024565D01*
X013221Y024207D01*
X013658Y024207D01*
X013658Y024303D01*
X013735Y024226D01*
X014402Y024226D01*
X014484Y024308D01*
X014484Y024654D01*
X014935Y025105D01*
X014949Y025090D01*
X015305Y025090D01*
X015354Y025138D01*
X015412Y025080D01*
X016778Y025080D01*
X016788Y025090D01*
X016805Y025090D01*
X016887Y025172D01*
X016887Y025264D01*
X016894Y025267D01*
X018643Y027016D01*
X019465Y027016D01*
X019520Y026993D01*
X020095Y026993D01*
X020960Y026128D01*
X020960Y015480D01*
X020746Y015480D01*
X020746Y015849D01*
X020664Y015931D01*
X019957Y015931D01*
X019875Y015849D01*
X019875Y014591D01*
X019957Y014509D01*
X020664Y014509D01*
X020746Y014591D01*
X020746Y014960D01*
X020960Y014960D01*
X020960Y014578D01*
X020779Y014397D01*
X020147Y014397D01*
X020065Y014315D01*
X020065Y013918D01*
X020045Y013938D01*
X019967Y013994D01*
X019881Y014038D01*
X019789Y014068D01*
X019693Y014083D01*
X019430Y014083D01*
X019430Y013550D01*
X019826Y013550D01*
X019826Y013488D01*
X020381Y013488D01*
X020381Y013452D01*
X019826Y013452D01*
X019826Y013390D01*
X019430Y013390D01*
X019430Y013550D01*
X019270Y013550D01*
X019270Y014083D01*
X019006Y014083D01*
X018911Y014068D01*
X018819Y014038D01*
X018733Y013994D01*
X018655Y013938D01*
X018587Y013869D01*
X018530Y013791D01*
X018486Y013705D01*
X015705Y013705D01*
X015692Y013710D02*
X015498Y013710D01*
X015317Y013635D01*
X015180Y013498D01*
X015105Y013317D01*
X015105Y013123D01*
X015180Y012942D01*
X015317Y012805D01*
X015498Y012730D01*
X015692Y012730D01*
X015873Y012805D01*
X016010Y012942D01*
X016085Y013123D01*
X016085Y013317D01*
X016010Y013498D01*
X015873Y013635D01*
X015692Y013710D01*
X015692Y013730D02*
X015873Y013805D01*
X016010Y013942D01*
X016085Y014123D01*
X016085Y014317D01*
X016010Y014498D01*
X015873Y014635D01*
X015692Y014710D01*
X015498Y014710D01*
X015317Y014635D01*
X015180Y014498D01*
X015105Y014317D01*
X015105Y014123D01*
X015180Y013942D01*
X015317Y013805D01*
X015498Y013730D01*
X015692Y013730D01*
X015485Y013705D02*
X011784Y013705D01*
X011902Y013863D02*
X015259Y013863D01*
X015147Y014022D02*
X012021Y014022D01*
X012140Y014180D02*
X015105Y014180D01*
X015114Y014339D02*
X012259Y014339D01*
X012378Y014497D02*
X015179Y014497D01*
X015366Y014656D02*
X012475Y014656D01*
X012480Y014668D02*
X012480Y014687D01*
X012485Y014706D01*
X012480Y014738D01*
X012480Y023174D01*
X012495Y023174D01*
X012577Y023256D01*
X012577Y023765D01*
X012497Y023845D01*
X012577Y023925D01*
X012577Y024434D01*
X012495Y024516D01*
X012480Y024516D01*
X012480Y024799D01*
X012495Y024799D01*
X012571Y024875D01*
X012787Y024875D01*
X012787Y024682D01*
X012869Y024600D01*
X013536Y024600D01*
X013618Y024682D01*
X013618Y025191D01*
X013536Y025273D01*
X013233Y025273D01*
X013224Y025283D01*
X013151Y025356D01*
X013055Y025395D01*
X012571Y025395D01*
X012519Y025448D01*
X012547Y025464D01*
X012581Y025497D01*
X012604Y025538D01*
X012617Y025584D01*
X012617Y025786D01*
X012238Y025786D01*
X012238Y025823D01*
X012202Y025823D01*
X012202Y026181D01*
X011980Y026181D01*
X011934Y026169D01*
X011893Y026146D01*
X011859Y026112D01*
X011836Y026071D01*
X011823Y026025D01*
X011823Y025823D01*
X012202Y025823D01*
X012202Y025786D01*
X011823Y025786D01*
X011823Y025584D01*
X011836Y025538D01*
X011859Y025497D01*
X011893Y025464D01*
X011921Y025448D01*
X011863Y025390D01*
X011863Y024881D01*
X011945Y024799D01*
X011960Y024799D01*
X011960Y024516D01*
X011945Y024516D01*
X011863Y024434D01*
X011863Y023925D01*
X011943Y023845D01*
X011863Y023765D01*
X011863Y023256D01*
X011945Y023174D01*
X011960Y023174D01*
X011960Y014807D01*
X010085Y012307D01*
X010085Y012317D01*
X010010Y012498D01*
X009873Y012635D01*
X009692Y012710D01*
X009498Y012710D01*
X009317Y012635D01*
X009180Y012498D01*
X009105Y012317D01*
X009105Y012123D01*
X009180Y011942D01*
X009317Y011805D01*
X009498Y011730D01*
X009653Y011730D01*
X009638Y011710D01*
X009498Y011710D01*
X009317Y011635D01*
X009180Y011498D01*
X009105Y011317D01*
X009105Y011123D01*
X009180Y010942D01*
X009317Y010805D01*
X009498Y010730D01*
X009692Y010730D01*
X009873Y010805D01*
X010010Y010942D01*
X010085Y011123D01*
X010085Y011317D01*
X010052Y011396D01*
X012417Y014549D01*
X012440Y014573D01*
X012448Y014590D01*
X012459Y014605D01*
X012467Y014638D01*
X012480Y014668D01*
X012480Y014814D02*
X015308Y014814D01*
X015317Y014805D02*
X015498Y014730D01*
X015692Y014730D01*
X015873Y014805D01*
X016010Y014942D01*
X016085Y015123D01*
X016085Y015317D01*
X016010Y015498D01*
X015873Y015635D01*
X015692Y015710D01*
X015498Y015710D01*
X015317Y015635D01*
X015180Y015498D01*
X015105Y015317D01*
X015105Y015123D01*
X015180Y014942D01*
X015317Y014805D01*
X015167Y014973D02*
X012480Y014973D01*
X012480Y015131D02*
X015105Y015131D01*
X015105Y015290D02*
X012480Y015290D01*
X012480Y015448D02*
X015159Y015448D01*
X015289Y015607D02*
X012480Y015607D01*
X012480Y015765D02*
X015413Y015765D01*
X015498Y015730D02*
X015692Y015730D01*
X015873Y015805D01*
X016010Y015942D01*
X016085Y016123D01*
X016085Y016317D01*
X016010Y016498D01*
X015873Y016635D01*
X015692Y016710D01*
X015498Y016710D01*
X015317Y016635D01*
X015180Y016498D01*
X015105Y016317D01*
X015105Y016123D01*
X015180Y015942D01*
X015317Y015805D01*
X015498Y015730D01*
X015777Y015765D02*
X017079Y015765D01*
X017079Y015809D02*
X017079Y015300D01*
X017136Y015242D01*
X017108Y015226D01*
X017075Y015193D01*
X017051Y015152D01*
X017039Y015106D01*
X017039Y014904D01*
X017417Y014904D01*
X017417Y014867D01*
X017039Y014867D01*
X017039Y014665D01*
X017051Y014619D01*
X017075Y014578D01*
X017108Y014544D01*
X017150Y014521D01*
X017195Y014509D01*
X017417Y014509D01*
X017417Y014867D01*
X017454Y014867D01*
X017454Y014904D01*
X017832Y014904D01*
X017832Y015106D01*
X017820Y015152D01*
X017796Y015193D01*
X017763Y015226D01*
X017735Y015242D01*
X017792Y015300D01*
X017792Y015809D01*
X017710Y015891D01*
X017696Y015891D01*
X017696Y015953D01*
X018984Y017241D01*
X019200Y017241D01*
X019208Y017223D01*
X019346Y017084D01*
X019527Y017009D01*
X020428Y017009D01*
X020609Y017084D01*
X020748Y017223D01*
X020823Y017404D01*
X020823Y017599D01*
X020748Y017780D01*
X020609Y017919D01*
X020428Y017994D01*
X019527Y017994D01*
X019346Y017919D01*
X019208Y017780D01*
X019200Y017761D01*
X018825Y017761D01*
X018729Y017722D01*
X017288Y016281D01*
X017215Y016208D01*
X017176Y016112D01*
X017176Y015891D01*
X017161Y015891D01*
X017079Y015809D01*
X017176Y015924D02*
X015992Y015924D01*
X016068Y016082D02*
X017176Y016082D01*
X017248Y016241D02*
X016085Y016241D01*
X016051Y016399D02*
X017407Y016399D01*
X017565Y016558D02*
X015950Y016558D01*
X015873Y016805D02*
X015692Y016730D01*
X015498Y016730D01*
X015317Y016805D01*
X015180Y016942D01*
X015105Y017123D01*
X015105Y017317D01*
X015180Y017498D01*
X015317Y017635D01*
X015478Y017702D01*
X015471Y017703D01*
X015392Y017729D01*
X015317Y017767D01*
X015250Y017816D01*
X015191Y017875D01*
X015142Y017942D01*
X015104Y018017D01*
X015078Y018096D01*
X015065Y018178D01*
X015065Y018220D01*
X015595Y018220D01*
X016125Y018220D01*
X016125Y018262D01*
X016112Y018344D01*
X016086Y018423D01*
X016048Y018498D01*
X015999Y018565D01*
X015940Y018624D01*
X015873Y018673D01*
X015798Y018711D01*
X015719Y018737D01*
X015712Y018738D01*
X015873Y018805D01*
X016010Y018942D01*
X016085Y019123D01*
X016085Y019317D01*
X016010Y019498D01*
X015873Y019635D01*
X015721Y019698D01*
X015895Y019771D01*
X016044Y019920D01*
X016125Y020115D01*
X016125Y020325D01*
X016044Y020520D01*
X020960Y020520D01*
X020960Y020362D02*
X016110Y020362D01*
X016125Y020203D02*
X020960Y020203D01*
X020960Y020045D02*
X016096Y020045D01*
X016011Y019886D02*
X019292Y019886D01*
X019278Y019876D02*
X019219Y019817D01*
X019170Y019749D01*
X019132Y019674D01*
X019106Y019595D01*
X019093Y019512D01*
X019093Y019508D01*
X019940Y019508D01*
X019940Y020002D01*
X019583Y020002D01*
X019501Y019989D01*
X019421Y019963D01*
X019346Y019925D01*
X019278Y019876D01*
X019159Y019728D02*
X015791Y019728D01*
X015939Y019569D02*
X019102Y019569D01*
X019093Y019432D02*
X019093Y019428D01*
X019106Y019345D01*
X019132Y019266D01*
X019170Y019191D01*
X019219Y019123D01*
X019278Y019064D01*
X019346Y019015D01*
X019421Y018977D01*
X019501Y018951D01*
X019583Y018938D01*
X019940Y018938D01*
X019940Y019432D01*
X020015Y019432D01*
X020015Y018938D01*
X020372Y018938D01*
X020455Y018951D01*
X020535Y018977D01*
X020609Y019015D01*
X020677Y019064D01*
X020737Y019123D01*
X020786Y019191D01*
X020824Y019266D01*
X020850Y019345D01*
X020863Y019428D01*
X020863Y019432D01*
X020015Y019432D01*
X020015Y019508D01*
X019940Y019508D01*
X019940Y019432D01*
X019093Y019432D01*
X019096Y019411D02*
X016046Y019411D01*
X016085Y019252D02*
X019139Y019252D01*
X019249Y019094D02*
X016073Y019094D01*
X016003Y018935D02*
X020960Y018935D01*
X020960Y018777D02*
X015805Y018777D01*
X015946Y018618D02*
X020960Y018618D01*
X020960Y018460D02*
X016068Y018460D01*
X016119Y018301D02*
X020960Y018301D01*
X020960Y018143D02*
X016119Y018143D01*
X016125Y018178D02*
X016125Y018220D01*
X015595Y018220D01*
X015595Y018220D01*
X015595Y018220D01*
X015065Y018220D01*
X015065Y018262D01*
X015078Y018344D01*
X015104Y018423D01*
X015142Y018498D01*
X015191Y018565D01*
X015250Y018624D01*
X015317Y018673D01*
X015392Y018711D01*
X015471Y018737D01*
X015478Y018738D01*
X015317Y018805D01*
X015180Y018942D01*
X015105Y019123D01*
X015105Y019317D01*
X015180Y019498D01*
X015317Y019635D01*
X015469Y019698D01*
X015295Y019771D01*
X015146Y019920D01*
X015065Y020115D01*
X015065Y020325D01*
X015146Y020520D01*
X012480Y020520D01*
X012480Y020362D02*
X015080Y020362D01*
X015065Y020203D02*
X012480Y020203D01*
X012480Y020045D02*
X015094Y020045D01*
X015179Y019886D02*
X012480Y019886D01*
X012480Y019728D02*
X015399Y019728D01*
X015251Y019569D02*
X012480Y019569D01*
X012480Y019411D02*
X015144Y019411D01*
X015105Y019252D02*
X012480Y019252D01*
X012480Y019094D02*
X015117Y019094D01*
X015187Y018935D02*
X012480Y018935D01*
X012480Y018777D02*
X015385Y018777D01*
X015244Y018618D02*
X012480Y018618D01*
X012480Y018460D02*
X015122Y018460D01*
X015071Y018301D02*
X012480Y018301D01*
X012480Y018143D02*
X015071Y018143D01*
X015120Y017984D02*
X012480Y017984D01*
X012480Y017826D02*
X015240Y017826D01*
X015394Y017667D02*
X012480Y017667D01*
X012480Y017509D02*
X015191Y017509D01*
X015119Y017350D02*
X012480Y017350D01*
X012480Y017192D02*
X015105Y017192D01*
X015142Y017033D02*
X012480Y017033D01*
X012480Y016875D02*
X015247Y016875D01*
X015240Y016558D02*
X012480Y016558D01*
X012480Y016716D02*
X017724Y016716D01*
X017882Y016875D02*
X015943Y016875D01*
X016010Y016942D02*
X016085Y017123D01*
X016085Y017317D01*
X016010Y017498D01*
X015873Y017635D01*
X015712Y017702D01*
X015719Y017703D01*
X015798Y017729D01*
X015873Y017767D01*
X015940Y017816D01*
X015999Y017875D01*
X016048Y017942D01*
X016086Y018017D01*
X016112Y018096D01*
X016125Y018178D01*
X016070Y017984D02*
X019504Y017984D01*
X019253Y017826D02*
X015950Y017826D01*
X015796Y017667D02*
X018675Y017667D01*
X018516Y017509D02*
X015999Y017509D01*
X016071Y017350D02*
X018358Y017350D01*
X018199Y017192D02*
X016085Y017192D01*
X016048Y017033D02*
X018041Y017033D01*
X018459Y016716D02*
X020960Y016716D01*
X020960Y016558D02*
X018300Y016558D01*
X018142Y016399D02*
X020960Y016399D01*
X020960Y016241D02*
X017983Y016241D01*
X017825Y016082D02*
X020960Y016082D01*
X020960Y015924D02*
X020671Y015924D01*
X020746Y015765D02*
X020960Y015765D01*
X020960Y015607D02*
X020746Y015607D01*
X020746Y014814D02*
X020960Y014814D01*
X020960Y014656D02*
X020746Y014656D01*
X020880Y014497D02*
X019522Y014497D01*
X019535Y014505D02*
X019494Y014481D01*
X019448Y014469D01*
X019197Y014469D01*
X019197Y015152D01*
X019062Y015152D01*
X019062Y014469D01*
X018810Y014469D01*
X018765Y014481D01*
X018724Y014505D01*
X018690Y014539D01*
X018666Y014580D01*
X018654Y014625D01*
X018654Y015152D01*
X019062Y015152D01*
X019062Y015288D01*
X019062Y015971D01*
X018810Y015971D01*
X018765Y015959D01*
X018724Y015935D01*
X018690Y015901D01*
X018666Y015860D01*
X018654Y015815D01*
X018654Y015288D01*
X019062Y015288D01*
X019197Y015288D01*
X019197Y015971D01*
X019448Y015971D01*
X019494Y015959D01*
X019535Y015935D01*
X019569Y015901D01*
X019592Y015860D01*
X019605Y015815D01*
X019605Y015288D01*
X019197Y015288D01*
X019197Y015152D01*
X019605Y015152D01*
X019605Y014625D01*
X019592Y014580D01*
X019569Y014539D01*
X019535Y014505D01*
X019605Y014656D02*
X019875Y014656D01*
X019875Y014814D02*
X019605Y014814D01*
X019605Y014973D02*
X019875Y014973D01*
X019875Y015131D02*
X019605Y015131D01*
X019605Y015290D02*
X019875Y015290D01*
X019875Y015448D02*
X019605Y015448D01*
X019605Y015607D02*
X019875Y015607D01*
X019875Y015765D02*
X019605Y015765D01*
X019546Y015924D02*
X019950Y015924D01*
X019197Y015924D02*
X019062Y015924D01*
X019062Y015765D02*
X019197Y015765D01*
X019197Y015607D02*
X019062Y015607D01*
X019062Y015448D02*
X019197Y015448D01*
X019197Y015290D02*
X019062Y015290D01*
X019062Y015131D02*
X019197Y015131D01*
X019197Y014973D02*
X019062Y014973D01*
X019062Y014814D02*
X019197Y014814D01*
X019197Y014656D02*
X019062Y014656D01*
X019062Y014497D02*
X019197Y014497D01*
X019270Y014022D02*
X019430Y014022D01*
X019430Y013863D02*
X019270Y013863D01*
X019270Y013705D02*
X019430Y013705D01*
X019430Y013546D02*
X019826Y013546D01*
X019430Y013390D02*
X019430Y012857D01*
X019693Y012857D01*
X019789Y012872D01*
X019881Y012902D01*
X019967Y012946D01*
X020045Y013002D01*
X020065Y013022D01*
X020065Y012625D01*
X020147Y012543D01*
X020200Y012543D01*
X020200Y012431D01*
X019957Y012431D01*
X019875Y012349D01*
X019875Y011091D01*
X019957Y011009D01*
X020051Y011009D01*
X020051Y010964D01*
X019898Y010964D01*
X019816Y010882D01*
X019816Y010058D01*
X019898Y009976D01*
X020200Y009976D01*
X020200Y009770D01*
X019660Y009770D01*
X019657Y009768D01*
X019504Y009768D01*
X019422Y009686D01*
X019422Y009533D01*
X019420Y009530D01*
X019420Y009410D01*
X019422Y009407D01*
X019422Y009254D01*
X019504Y009172D01*
X019657Y009172D01*
X019660Y009170D01*
X020560Y009170D01*
X020670Y009216D01*
X020754Y009300D01*
X020800Y009410D01*
X020800Y012543D01*
X020853Y012543D01*
X020935Y012625D01*
X020935Y013135D01*
X020922Y013147D01*
X020938Y013163D01*
X020961Y013204D01*
X020974Y013249D01*
X020974Y013452D01*
X020418Y013452D01*
X020418Y013488D01*
X020974Y013488D01*
X020974Y013691D01*
X020961Y013736D01*
X020938Y013777D01*
X020922Y013793D01*
X020935Y013805D01*
X020935Y013831D01*
X020957Y013840D01*
X021031Y013913D01*
X021367Y014250D01*
X021432Y014314D01*
X021432Y006076D01*
X021417Y005785D01*
X021304Y005214D01*
X021081Y004676D01*
X020758Y004192D01*
X020346Y003781D01*
X019862Y003457D01*
X019324Y003235D01*
X018753Y003121D01*
X018462Y003107D01*
X013012Y003107D01*
X015403Y004769D01*
X015469Y004742D01*
X015295Y004669D01*
X015146Y004520D01*
X015065Y004325D01*
X015065Y004115D01*
X015146Y003920D01*
X015295Y003771D01*
X015490Y003690D01*
X015700Y003690D01*
X015895Y003771D01*
X016044Y003920D01*
X016125Y004115D01*
X016125Y004325D01*
X016044Y004520D01*
X015895Y004669D01*
X015721Y004742D01*
X015873Y004805D01*
X016010Y004942D01*
X016085Y005123D01*
X016085Y005317D01*
X016010Y005498D01*
X015873Y005635D01*
X015692Y005710D01*
X015498Y005710D01*
X015317Y005635D01*
X015180Y005498D01*
X015105Y005317D01*
X015105Y005196D01*
X012638Y003480D01*
X005470Y003480D01*
X005177Y003494D01*
X004602Y003609D01*
X004061Y003833D01*
X003573Y004159D01*
X003159Y004573D01*
X003220Y004512D02*
X009142Y004512D01*
X009146Y004520D02*
X009065Y004325D01*
X009065Y004115D01*
X009146Y003920D01*
X009295Y003771D01*
X009490Y003690D01*
X009700Y003690D01*
X009895Y003771D01*
X010044Y003920D01*
X010125Y004115D01*
X010125Y004325D01*
X010044Y004520D01*
X009895Y004669D01*
X009721Y004742D01*
X009873Y004805D01*
X010010Y004942D01*
X010085Y005123D01*
X010085Y005317D01*
X010010Y005498D01*
X009873Y005635D01*
X009692Y005710D01*
X009498Y005710D01*
X009480Y005703D01*
X009421Y005762D01*
X009498Y005730D01*
X009692Y005730D01*
X009873Y005805D01*
X010010Y005942D01*
X010085Y006123D01*
X010085Y006317D01*
X010010Y006498D01*
X009873Y006635D01*
X009692Y006710D01*
X009498Y006710D01*
X009480Y006703D01*
X009421Y006762D01*
X009498Y006730D01*
X009692Y006730D01*
X009873Y006805D01*
X010010Y006942D01*
X010085Y007123D01*
X010085Y007317D01*
X010010Y007498D01*
X009873Y007635D01*
X009692Y007710D01*
X009498Y007710D01*
X009392Y007666D01*
X009105Y007953D01*
X009105Y011397D01*
X009065Y011492D01*
X008992Y011565D01*
X004269Y016289D01*
X004196Y016362D01*
X004100Y016401D01*
X003908Y016401D01*
X003795Y016514D01*
X003633Y016581D01*
X002858Y016581D01*
X002696Y016514D01*
X002573Y016390D01*
X002506Y016229D01*
X002506Y016054D01*
X002573Y015892D01*
X002696Y015768D01*
X002858Y015701D01*
X003633Y015701D01*
X003795Y015768D01*
X003908Y015881D01*
X003941Y015881D01*
X008585Y011237D01*
X008585Y011195D01*
X008565Y011242D01*
X008492Y011315D01*
X004519Y015289D01*
X004446Y015362D01*
X004350Y015401D01*
X003908Y015401D01*
X003795Y015514D01*
X003633Y015581D01*
X002858Y015581D01*
X002696Y015514D01*
X002573Y015390D01*
X002506Y015229D01*
X002506Y015054D01*
X002573Y014892D01*
X002696Y014768D01*
X002858Y014701D01*
X003633Y014701D01*
X003795Y014768D01*
X003908Y014881D01*
X004191Y014881D01*
X008085Y010987D01*
X008085Y010945D01*
X008065Y010992D01*
X007992Y011065D01*
X004696Y014362D01*
X004600Y014401D01*
X003908Y014401D01*
X003795Y014514D01*
X003633Y014581D01*
X002858Y014581D01*
X002696Y014514D01*
X002573Y014390D01*
X002506Y014229D01*
X002506Y014054D01*
X002573Y013892D01*
X002696Y013768D01*
X002858Y013701D01*
X003633Y013701D01*
X003795Y013768D01*
X003908Y013881D01*
X004441Y013881D01*
X007585Y010737D01*
X007585Y006918D01*
X007625Y006823D01*
X009112Y005335D01*
X009105Y005317D01*
X009105Y005123D01*
X009180Y004942D01*
X009317Y004805D01*
X009469Y004742D01*
X009295Y004669D01*
X009146Y004520D01*
X009077Y004353D02*
X003379Y004353D01*
X003537Y004195D02*
X009065Y004195D01*
X009097Y004036D02*
X003757Y004036D01*
X003994Y003878D02*
X009188Y003878D01*
X009419Y003719D02*
X004335Y003719D01*
X004844Y003561D02*
X012754Y003561D01*
X012982Y003719D02*
X009771Y003719D01*
X010002Y003878D02*
X013210Y003878D01*
X013438Y004036D02*
X010093Y004036D01*
X010125Y004195D02*
X013666Y004195D01*
X013894Y004353D02*
X010113Y004353D01*
X010048Y004512D02*
X014122Y004512D01*
X014349Y004670D02*
X009893Y004670D01*
X009897Y004829D02*
X014577Y004829D01*
X014805Y004987D02*
X010029Y004987D01*
X010085Y005146D02*
X015033Y005146D01*
X015105Y005304D02*
X010085Y005304D01*
X010025Y005463D02*
X015165Y005463D01*
X015303Y005621D02*
X009887Y005621D01*
X009812Y005780D02*
X015378Y005780D01*
X015317Y005805D02*
X015498Y005730D01*
X015692Y005730D01*
X015873Y005805D01*
X016010Y005942D01*
X016085Y006123D01*
X016085Y006317D01*
X016010Y006498D01*
X015873Y006635D01*
X015692Y006710D01*
X015498Y006710D01*
X015317Y006635D01*
X015180Y006498D01*
X015105Y006317D01*
X015105Y006123D01*
X015180Y005942D01*
X015317Y005805D01*
X015184Y005938D02*
X010006Y005938D01*
X010074Y006097D02*
X015116Y006097D01*
X015105Y006255D02*
X010085Y006255D01*
X010045Y006414D02*
X015145Y006414D01*
X015254Y006572D02*
X009936Y006572D01*
X009694Y006731D02*
X015496Y006731D01*
X015498Y006730D02*
X015692Y006730D01*
X015873Y006805D01*
X016010Y006942D01*
X016085Y007123D01*
X016085Y007317D01*
X016010Y007498D01*
X015873Y007635D01*
X015692Y007710D01*
X015498Y007710D01*
X015317Y007635D01*
X015180Y007498D01*
X015105Y007317D01*
X015105Y007123D01*
X015180Y006942D01*
X015317Y006805D01*
X015498Y006730D01*
X015694Y006731D02*
X016469Y006731D01*
X016466Y006720D02*
X016466Y006220D01*
X016614Y005741D01*
X016896Y005327D01*
X017287Y005015D01*
X017287Y005015D01*
X017754Y004832D01*
X018253Y004795D01*
X018741Y004906D01*
X018741Y004906D01*
X019175Y005157D01*
X019516Y005524D01*
X019733Y005975D01*
X019807Y006470D01*
X019733Y006965D01*
X019733Y006965D01*
X019516Y007416D01*
X019516Y007416D01*
X019175Y007783D01*
X018741Y008034D01*
X018253Y008145D01*
X017754Y008108D01*
X017754Y008108D01*
X017287Y007925D01*
X016896Y007613D01*
X016896Y007613D01*
X016614Y007199D01*
X016614Y007199D01*
X016466Y006720D01*
X016466Y006572D02*
X015936Y006572D01*
X016045Y006414D02*
X016466Y006414D01*
X016466Y006255D02*
X016085Y006255D01*
X016074Y006097D02*
X016504Y006097D01*
X016553Y005938D02*
X016006Y005938D01*
X015812Y005780D02*
X016602Y005780D01*
X016614Y005741D02*
X016614Y005741D01*
X016696Y005621D02*
X015887Y005621D01*
X016025Y005463D02*
X016804Y005463D01*
X016896Y005327D02*
X016896Y005327D01*
X016896Y005327D01*
X016925Y005304D02*
X016085Y005304D01*
X016085Y005146D02*
X017124Y005146D01*
X017359Y004987D02*
X016029Y004987D01*
X015897Y004829D02*
X017799Y004829D01*
X017754Y004832D02*
X017754Y004832D01*
X018253Y004795D02*
X018253Y004795D01*
X018402Y004829D02*
X021144Y004829D01*
X021210Y004987D02*
X018882Y004987D01*
X019156Y005146D02*
X021275Y005146D01*
X021322Y005304D02*
X019312Y005304D01*
X019175Y005157D02*
X019175Y005157D01*
X019175Y005157D01*
X019459Y005463D02*
X021353Y005463D01*
X021385Y005621D02*
X019563Y005621D01*
X019516Y005524D02*
X019516Y005524D01*
X019639Y005780D02*
X021416Y005780D01*
X021425Y005938D02*
X019715Y005938D01*
X019733Y005975D02*
X019733Y005975D01*
X019751Y006097D02*
X021432Y006097D01*
X021432Y006255D02*
X019775Y006255D01*
X019799Y006414D02*
X021432Y006414D01*
X021432Y006572D02*
X019792Y006572D01*
X019768Y006731D02*
X021432Y006731D01*
X021432Y006889D02*
X019744Y006889D01*
X019693Y007048D02*
X021432Y007048D01*
X021432Y007206D02*
X019617Y007206D01*
X019540Y007365D02*
X021432Y007365D01*
X021432Y007523D02*
X019416Y007523D01*
X019269Y007682D02*
X021432Y007682D01*
X021432Y007840D02*
X019077Y007840D01*
X019175Y007783D02*
X019175Y007783D01*
X018802Y007999D02*
X021432Y007999D01*
X021432Y008157D02*
X016085Y008157D01*
X016085Y008123D02*
X016010Y007942D01*
X015873Y007805D01*
X015692Y007730D01*
X015498Y007730D01*
X015317Y007805D01*
X015180Y007942D01*
X015105Y008123D01*
X015105Y008317D01*
X015180Y008498D01*
X015317Y008635D01*
X015498Y008710D01*
X015692Y008710D01*
X015873Y008635D01*
X016010Y008498D01*
X016085Y008317D01*
X016085Y008123D01*
X016034Y007999D02*
X017475Y007999D01*
X017287Y007925D02*
X017287Y007925D01*
X017181Y007840D02*
X015908Y007840D01*
X015761Y007682D02*
X016982Y007682D01*
X016896Y007613D02*
X016896Y007613D01*
X016835Y007523D02*
X015985Y007523D01*
X016065Y007365D02*
X016727Y007365D01*
X016619Y007206D02*
X016085Y007206D01*
X016054Y007048D02*
X016567Y007048D01*
X016518Y006889D02*
X015957Y006889D01*
X015429Y007682D02*
X009761Y007682D01*
X009692Y007730D02*
X009873Y007805D01*
X010010Y007942D01*
X010085Y008123D01*
X010085Y008317D01*
X010010Y008498D01*
X009873Y008635D01*
X009692Y008710D01*
X009498Y008710D01*
X009317Y008635D01*
X009180Y008498D01*
X009105Y008317D01*
X009105Y008123D01*
X009180Y007942D01*
X009317Y007805D01*
X009498Y007730D01*
X009692Y007730D01*
X009908Y007840D02*
X015282Y007840D01*
X015156Y007999D02*
X010034Y007999D01*
X010085Y008157D02*
X015105Y008157D01*
X015105Y008316D02*
X010085Y008316D01*
X010020Y008474D02*
X015170Y008474D01*
X015315Y008633D02*
X009875Y008633D01*
X009840Y008791D02*
X015350Y008791D01*
X015317Y008805D02*
X015498Y008730D01*
X015692Y008730D01*
X015873Y008805D01*
X016010Y008942D01*
X016085Y009123D01*
X016085Y009317D01*
X016010Y009498D01*
X015873Y009635D01*
X015692Y009710D01*
X015498Y009710D01*
X015317Y009635D01*
X015180Y009498D01*
X015105Y009317D01*
X015105Y009123D01*
X015180Y008942D01*
X015317Y008805D01*
X015177Y008950D02*
X010013Y008950D01*
X010010Y008942D02*
X010085Y009123D01*
X010085Y009317D01*
X010010Y009498D01*
X009873Y009635D01*
X009692Y009710D01*
X009498Y009710D01*
X009317Y009635D01*
X009180Y009498D01*
X009105Y009317D01*
X009105Y009123D01*
X009180Y008942D01*
X009317Y008805D01*
X009498Y008730D01*
X009692Y008730D01*
X009873Y008805D01*
X010010Y008942D01*
X010079Y009108D02*
X015111Y009108D01*
X015105Y009267D02*
X010085Y009267D01*
X010040Y009425D02*
X015150Y009425D01*
X015266Y009584D02*
X009924Y009584D01*
X009873Y009805D02*
X010010Y009942D01*
X010085Y010123D01*
X010085Y010317D01*
X010010Y010498D01*
X009873Y010635D01*
X009692Y010710D01*
X009498Y010710D01*
X009317Y010635D01*
X009180Y010498D01*
X009105Y010317D01*
X009105Y010123D01*
X009180Y009942D01*
X009317Y009805D01*
X009498Y009730D01*
X009692Y009730D01*
X009873Y009805D01*
X009969Y009901D02*
X015221Y009901D01*
X015180Y009942D02*
X015317Y009805D01*
X015498Y009730D01*
X015692Y009730D01*
X015873Y009805D01*
X016010Y009942D01*
X016085Y010123D01*
X016085Y010317D01*
X016010Y010498D01*
X015873Y010635D01*
X015692Y010710D01*
X015498Y010710D01*
X015317Y010635D01*
X015180Y010498D01*
X015105Y010317D01*
X015105Y010123D01*
X015180Y009942D01*
X015131Y010059D02*
X010059Y010059D01*
X010085Y010218D02*
X015105Y010218D01*
X015129Y010376D02*
X010061Y010376D01*
X009973Y010535D02*
X015217Y010535D01*
X015457Y010693D02*
X009733Y010693D01*
X009920Y010852D02*
X015270Y010852D01*
X015317Y010805D02*
X015498Y010730D01*
X015692Y010730D01*
X015873Y010805D01*
X016010Y010942D01*
X016085Y011123D01*
X016085Y011317D01*
X016010Y011498D01*
X015873Y011635D01*
X015692Y011710D01*
X015498Y011710D01*
X015317Y011635D01*
X015180Y011498D01*
X015105Y011317D01*
X015105Y011123D01*
X015180Y010942D01*
X015317Y010805D01*
X015152Y011010D02*
X010038Y011010D01*
X010085Y011169D02*
X015105Y011169D01*
X015109Y011327D02*
X010081Y011327D01*
X010119Y011486D02*
X015175Y011486D01*
X015339Y011644D02*
X010238Y011644D01*
X010357Y011803D02*
X015322Y011803D01*
X015317Y011805D02*
X015498Y011730D01*
X015692Y011730D01*
X015873Y011805D01*
X016010Y011942D01*
X016085Y012123D01*
X016085Y012317D01*
X016010Y012498D01*
X015873Y012635D01*
X015692Y012710D01*
X015498Y012710D01*
X015317Y012635D01*
X015180Y012498D01*
X015105Y012317D01*
X015105Y012123D01*
X015180Y011942D01*
X015317Y011805D01*
X015172Y011961D02*
X010476Y011961D01*
X010595Y012120D02*
X015106Y012120D01*
X015105Y012278D02*
X010714Y012278D01*
X010833Y012437D02*
X015154Y012437D01*
X015277Y012595D02*
X010951Y012595D01*
X011070Y012754D02*
X015440Y012754D01*
X015210Y012912D02*
X011189Y012912D01*
X011308Y013071D02*
X015126Y013071D01*
X015105Y013229D02*
X011427Y013229D01*
X011546Y013388D02*
X015134Y013388D01*
X015228Y013546D02*
X011665Y013546D01*
X011371Y014022D02*
X010043Y014022D01*
X010010Y013942D02*
X010085Y014123D01*
X010085Y014317D01*
X010010Y014498D01*
X009873Y014635D01*
X009692Y014710D01*
X009498Y014710D01*
X009317Y014635D01*
X009180Y014498D01*
X009172Y014480D01*
X008453Y014480D01*
X006605Y016328D01*
X006605Y016370D01*
X006625Y016323D01*
X006698Y016250D01*
X007948Y015000D01*
X008043Y014960D01*
X009172Y014960D01*
X009180Y014942D01*
X009317Y014805D01*
X009498Y014730D01*
X009692Y014730D01*
X009873Y014805D01*
X010010Y014942D01*
X010085Y015123D01*
X010085Y015317D01*
X010010Y015498D01*
X009873Y015635D01*
X009712Y015702D01*
X009719Y015703D01*
X009798Y015729D01*
X009873Y015767D01*
X009940Y015816D01*
X009999Y015875D01*
X010048Y015942D01*
X010086Y016017D01*
X010112Y016096D01*
X010125Y016178D01*
X010125Y016220D01*
X010125Y016262D01*
X010112Y016344D01*
X010086Y016423D01*
X010048Y016498D01*
X009999Y016565D01*
X009940Y016624D01*
X009873Y016673D01*
X009798Y016711D01*
X009719Y016737D01*
X009712Y016738D01*
X009873Y016805D01*
X010010Y016942D01*
X010085Y017123D01*
X010085Y017317D01*
X010010Y017498D01*
X009873Y017635D01*
X009692Y017710D01*
X009498Y017710D01*
X009317Y017635D01*
X009180Y017498D01*
X009105Y017317D01*
X009105Y017123D01*
X009180Y016942D01*
X009317Y016805D01*
X009478Y016738D01*
X009471Y016737D01*
X009392Y016711D01*
X009317Y016673D01*
X009250Y016624D01*
X009191Y016565D01*
X009142Y016498D01*
X009104Y016423D01*
X009078Y016344D01*
X009065Y016262D01*
X009065Y016220D01*
X009595Y016220D01*
X010125Y016220D01*
X009595Y016220D01*
X009595Y016220D01*
X009595Y016220D01*
X009065Y016220D01*
X009065Y016178D01*
X009078Y016096D01*
X009104Y016017D01*
X009142Y015942D01*
X009191Y015875D01*
X009250Y015816D01*
X009317Y015767D01*
X009392Y015729D01*
X009471Y015703D01*
X009478Y015702D01*
X009317Y015635D01*
X009180Y015498D01*
X009172Y015480D01*
X008203Y015480D01*
X007105Y016578D01*
X007105Y019147D01*
X007065Y019242D01*
X006992Y019315D01*
X005730Y020578D01*
X005730Y020686D01*
X005758Y020714D01*
X006257Y020714D01*
X006339Y020796D01*
X006339Y021542D01*
X006257Y021624D01*
X005433Y021624D01*
X005351Y021542D01*
X005351Y021042D01*
X005323Y021014D01*
X005308Y021000D01*
X005019Y021289D01*
X004946Y021362D01*
X004850Y021401D01*
X003908Y021401D01*
X003795Y021514D01*
X003633Y021581D01*
X002858Y021581D01*
X002696Y021514D01*
X002573Y021390D01*
X002506Y021229D01*
X002506Y021054D01*
X002573Y020892D01*
X002696Y020768D01*
X002858Y020701D01*
X003633Y020701D01*
X003795Y020768D01*
X003908Y020881D01*
X004691Y020881D01*
X005250Y020323D01*
X005323Y020250D01*
X006585Y018987D01*
X006585Y017445D01*
X006565Y017492D01*
X006492Y017565D01*
X005565Y018492D01*
X005492Y018565D01*
X004696Y019362D01*
X004600Y019401D01*
X003908Y019401D01*
X003795Y019514D01*
X003633Y019581D01*
X002858Y019581D01*
X002696Y019514D01*
X002573Y019390D01*
X002506Y019229D01*
X002506Y019054D01*
X002573Y018892D01*
X002696Y018768D01*
X002858Y018701D01*
X003633Y018701D01*
X003795Y018768D01*
X003908Y018881D01*
X004441Y018881D01*
X005085Y018237D01*
X005085Y018101D01*
X004933Y018101D01*
X004851Y018019D01*
X004851Y017273D01*
X004933Y017191D01*
X005757Y017191D01*
X005839Y017273D01*
X005839Y017483D01*
X006085Y017237D01*
X006085Y016168D01*
X006125Y016073D01*
X008125Y014073D01*
X008198Y014000D01*
X008293Y013960D01*
X009172Y013960D01*
X009180Y013942D01*
X009317Y013805D01*
X009498Y013730D01*
X009692Y013730D01*
X009873Y013805D01*
X010010Y013942D01*
X009931Y013863D02*
X011252Y013863D01*
X011134Y013705D02*
X009705Y013705D01*
X009692Y013710D02*
X009498Y013710D01*
X009317Y013635D01*
X009180Y013498D01*
X009105Y013317D01*
X009105Y013123D01*
X009180Y012942D01*
X009317Y012805D01*
X009498Y012730D01*
X009692Y012730D01*
X009873Y012805D01*
X010010Y012942D01*
X010085Y013123D01*
X010085Y013317D01*
X010010Y013498D01*
X009873Y013635D01*
X009692Y013710D01*
X009485Y013705D02*
X006853Y013705D01*
X006694Y013863D02*
X009259Y013863D01*
X009228Y013546D02*
X007011Y013546D01*
X007170Y013388D02*
X009134Y013388D01*
X009105Y013229D02*
X007328Y013229D01*
X007487Y013071D02*
X009126Y013071D01*
X009210Y012912D02*
X007645Y012912D01*
X007804Y012754D02*
X009440Y012754D01*
X009277Y012595D02*
X007962Y012595D01*
X008121Y012437D02*
X009154Y012437D01*
X009105Y012278D02*
X008279Y012278D01*
X008438Y012120D02*
X009106Y012120D01*
X009172Y011961D02*
X008596Y011961D01*
X008755Y011803D02*
X009322Y011803D01*
X009339Y011644D02*
X008913Y011644D01*
X008992Y011565D02*
X008992Y011565D01*
X009068Y011486D02*
X009175Y011486D01*
X009109Y011327D02*
X009105Y011327D01*
X009105Y011169D02*
X009105Y011169D01*
X009105Y011010D02*
X009152Y011010D01*
X009105Y010852D02*
X009270Y010852D01*
X009105Y010693D02*
X009457Y010693D01*
X009217Y010535D02*
X009105Y010535D01*
X009105Y010376D02*
X009129Y010376D01*
X009105Y010218D02*
X009105Y010218D01*
X009105Y010059D02*
X009131Y010059D01*
X009105Y009901D02*
X009221Y009901D01*
X009105Y009742D02*
X009468Y009742D01*
X009266Y009584D02*
X009105Y009584D01*
X009105Y009425D02*
X009150Y009425D01*
X009105Y009267D02*
X009105Y009267D01*
X009105Y009108D02*
X009111Y009108D01*
X009105Y008950D02*
X009177Y008950D01*
X009105Y008791D02*
X009350Y008791D01*
X009315Y008633D02*
X009105Y008633D01*
X009105Y008474D02*
X009170Y008474D01*
X009105Y008316D02*
X009105Y008316D01*
X009105Y008157D02*
X009105Y008157D01*
X009105Y007999D02*
X009156Y007999D01*
X009217Y007840D02*
X009282Y007840D01*
X009376Y007682D02*
X009429Y007682D01*
X009452Y006731D02*
X009496Y006731D01*
X009957Y006889D02*
X015233Y006889D01*
X015136Y007048D02*
X010054Y007048D01*
X010085Y007206D02*
X015105Y007206D01*
X015125Y007365D02*
X010065Y007365D01*
X009985Y007523D02*
X015205Y007523D01*
X016085Y008316D02*
X021432Y008316D01*
X021432Y008474D02*
X016020Y008474D01*
X015875Y008633D02*
X021432Y008633D01*
X021432Y008791D02*
X015840Y008791D01*
X016013Y008950D02*
X021432Y008950D01*
X021432Y009108D02*
X016079Y009108D01*
X016085Y009267D02*
X019422Y009267D01*
X019420Y009425D02*
X016040Y009425D01*
X015924Y009584D02*
X019422Y009584D01*
X019477Y009742D02*
X015722Y009742D01*
X015468Y009742D02*
X009722Y009742D01*
X008495Y011327D02*
X008480Y011327D01*
X008337Y011486D02*
X008322Y011486D01*
X008178Y011644D02*
X008163Y011644D01*
X008020Y011803D02*
X008005Y011803D01*
X007861Y011961D02*
X007846Y011961D01*
X007703Y012120D02*
X007688Y012120D01*
X007544Y012278D02*
X007529Y012278D01*
X007386Y012437D02*
X007371Y012437D01*
X007227Y012595D02*
X007212Y012595D01*
X007069Y012754D02*
X007054Y012754D01*
X006910Y012912D02*
X006895Y012912D01*
X006752Y013071D02*
X006737Y013071D01*
X006593Y013229D02*
X006578Y013229D01*
X006435Y013388D02*
X006420Y013388D01*
X006276Y013546D02*
X006261Y013546D01*
X006118Y013705D02*
X006103Y013705D01*
X005959Y013863D02*
X005944Y013863D01*
X005801Y014022D02*
X005786Y014022D01*
X005642Y014180D02*
X005627Y014180D01*
X005484Y014339D02*
X005469Y014339D01*
X005325Y014497D02*
X005310Y014497D01*
X005167Y014656D02*
X005152Y014656D01*
X005008Y014814D02*
X004993Y014814D01*
X004850Y014973D02*
X004835Y014973D01*
X004691Y015131D02*
X004676Y015131D01*
X004533Y015290D02*
X004518Y015290D01*
X004374Y015448D02*
X003861Y015448D01*
X003788Y015765D02*
X004057Y015765D01*
X004216Y015607D02*
X002480Y015607D01*
X002480Y015765D02*
X002704Y015765D01*
X002559Y015924D02*
X002480Y015924D01*
X002480Y016082D02*
X002506Y016082D01*
X002511Y016241D02*
X002480Y016241D01*
X002480Y016399D02*
X002581Y016399D01*
X002480Y016558D02*
X002801Y016558D01*
X002822Y016716D02*
X002584Y016716D01*
X002166Y017033D02*
X002107Y017033D01*
X002107Y017192D02*
X002324Y017192D01*
X002483Y017350D02*
X002107Y017350D01*
X002107Y017509D02*
X002691Y017509D01*
X002858Y017701D02*
X002696Y017768D01*
X002573Y017892D01*
X002506Y018054D01*
X002506Y018229D01*
X002573Y018390D01*
X002696Y018514D01*
X002858Y018581D01*
X003633Y018581D01*
X003795Y018514D01*
X003919Y018390D01*
X003986Y018229D01*
X003986Y018054D01*
X003919Y017892D01*
X003795Y017768D01*
X003633Y017701D01*
X002858Y017701D01*
X002639Y017826D02*
X002107Y017826D01*
X002107Y017984D02*
X002534Y017984D01*
X002506Y018143D02*
X002107Y018143D01*
X002107Y018301D02*
X002536Y018301D01*
X002642Y018460D02*
X002107Y018460D01*
X002107Y018618D02*
X004704Y018618D01*
X004863Y018460D02*
X003849Y018460D01*
X003956Y018301D02*
X005021Y018301D01*
X005085Y018143D02*
X003986Y018143D01*
X003957Y017984D02*
X004851Y017984D01*
X004851Y017826D02*
X003852Y017826D01*
X003800Y017509D02*
X004851Y017509D01*
X004851Y017667D02*
X002107Y017667D01*
X002107Y018777D02*
X002688Y018777D01*
X002555Y018935D02*
X002107Y018935D01*
X002107Y019094D02*
X002506Y019094D01*
X002515Y019252D02*
X002107Y019252D01*
X002107Y019411D02*
X002593Y019411D01*
X002829Y019569D02*
X002107Y019569D01*
X002107Y019728D02*
X002700Y019728D01*
X002694Y019731D02*
X002761Y019696D01*
X002833Y019673D01*
X002908Y019661D01*
X003226Y019661D01*
X003226Y020121D01*
X003266Y020121D01*
X003266Y020161D01*
X004026Y020161D01*
X004026Y020179D01*
X004014Y020254D01*
X003990Y020326D01*
X003956Y020393D01*
X003912Y020454D01*
X003858Y020507D01*
X003797Y020552D01*
X003730Y020586D01*
X003658Y020609D01*
X003583Y020621D01*
X003266Y020621D01*
X003266Y020161D01*
X003226Y020161D01*
X003226Y020621D01*
X002908Y020621D01*
X002833Y020609D01*
X002761Y020586D01*
X002694Y020552D01*
X002633Y020507D01*
X002579Y020454D01*
X002535Y020393D01*
X002501Y020326D01*
X002477Y020254D01*
X002466Y020179D01*
X002466Y020161D01*
X003226Y020161D01*
X003226Y020121D01*
X002466Y020121D01*
X002466Y020103D01*
X002477Y020029D01*
X002501Y019957D01*
X002535Y019890D01*
X002579Y019829D01*
X002633Y019775D01*
X002694Y019731D01*
X002538Y019886D02*
X002107Y019886D01*
X002107Y020045D02*
X002475Y020045D01*
X002469Y020203D02*
X002107Y020203D01*
X002107Y020362D02*
X002519Y020362D01*
X002651Y020520D02*
X002107Y020520D01*
X002107Y020679D02*
X004894Y020679D01*
X005052Y020520D02*
X003841Y020520D01*
X003972Y020362D02*
X005211Y020362D01*
X005323Y020250D02*
X005323Y020250D01*
X005369Y020203D02*
X004022Y020203D01*
X004026Y020121D02*
X003266Y020121D01*
X003266Y019661D01*
X003583Y019661D01*
X003658Y019673D01*
X003730Y019696D01*
X003797Y019731D01*
X003858Y019775D01*
X003912Y019829D01*
X003956Y019890D01*
X003990Y019957D01*
X004014Y020029D01*
X004026Y020103D01*
X004026Y020121D01*
X004016Y020045D02*
X005528Y020045D01*
X005686Y019886D02*
X003954Y019886D01*
X003791Y019728D02*
X005845Y019728D01*
X006003Y019569D02*
X003662Y019569D01*
X003898Y019411D02*
X006162Y019411D01*
X006320Y019252D02*
X004805Y019252D01*
X004964Y019094D02*
X006479Y019094D01*
X006585Y018935D02*
X005122Y018935D01*
X005281Y018777D02*
X006585Y018777D01*
X006585Y018618D02*
X005439Y018618D01*
X005492Y018565D02*
X005492Y018565D01*
X005598Y018460D02*
X006585Y018460D01*
X006585Y018301D02*
X005756Y018301D01*
X005915Y018143D02*
X006585Y018143D01*
X006585Y017984D02*
X006073Y017984D01*
X006232Y017826D02*
X006585Y017826D01*
X006585Y017667D02*
X006390Y017667D01*
X006549Y017509D02*
X006585Y017509D01*
X007105Y017509D02*
X009191Y017509D01*
X009119Y017350D02*
X007105Y017350D01*
X007105Y017192D02*
X009105Y017192D01*
X009142Y017033D02*
X007105Y017033D01*
X007105Y016875D02*
X009247Y016875D01*
X009407Y016716D02*
X007105Y016716D01*
X007125Y016558D02*
X009185Y016558D01*
X009096Y016399D02*
X007283Y016399D01*
X007442Y016241D02*
X009065Y016241D01*
X009082Y016082D02*
X007600Y016082D01*
X007759Y015924D02*
X009155Y015924D01*
X009320Y015765D02*
X007917Y015765D01*
X008076Y015607D02*
X009289Y015607D01*
X009870Y015765D02*
X011960Y015765D01*
X011960Y015607D02*
X009901Y015607D01*
X010031Y015448D02*
X011960Y015448D01*
X011960Y015290D02*
X010085Y015290D01*
X010085Y015131D02*
X011960Y015131D01*
X011960Y014973D02*
X010023Y014973D01*
X009882Y014814D02*
X011960Y014814D01*
X011847Y014656D02*
X009824Y014656D01*
X010011Y014497D02*
X011728Y014497D01*
X011609Y014339D02*
X010076Y014339D01*
X010085Y014180D02*
X011490Y014180D01*
X011015Y013546D02*
X009962Y013546D01*
X010056Y013388D02*
X010896Y013388D01*
X010777Y013229D02*
X010085Y013229D01*
X010064Y013071D02*
X010658Y013071D01*
X010539Y012912D02*
X009980Y012912D01*
X009750Y012754D02*
X010420Y012754D01*
X010301Y012595D02*
X009913Y012595D01*
X010036Y012437D02*
X010183Y012437D01*
X009179Y014497D02*
X008435Y014497D01*
X008277Y014656D02*
X009366Y014656D01*
X009308Y014814D02*
X008118Y014814D01*
X008013Y014973D02*
X007960Y014973D01*
X007816Y015131D02*
X007801Y015131D01*
X007658Y015290D02*
X007643Y015290D01*
X007499Y015448D02*
X007484Y015448D01*
X007341Y015607D02*
X007326Y015607D01*
X007182Y015765D02*
X007167Y015765D01*
X007024Y015924D02*
X007009Y015924D01*
X006865Y016082D02*
X006850Y016082D01*
X006707Y016241D02*
X006692Y016241D01*
X006432Y015765D02*
X004792Y015765D01*
X004634Y015924D02*
X006274Y015924D01*
X006121Y016082D02*
X005805Y016082D01*
X005810Y016085D02*
X005843Y016118D01*
X005867Y016159D01*
X005879Y016205D01*
X005879Y016466D01*
X005422Y016466D01*
X005422Y016049D01*
X005723Y016049D01*
X005769Y016061D01*
X005810Y016085D01*
X005879Y016241D02*
X006085Y016241D01*
X006085Y016399D02*
X005879Y016399D01*
X005879Y016621D02*
X005879Y016882D01*
X005867Y016928D01*
X005843Y016969D01*
X005810Y017003D01*
X005769Y017027D01*
X005723Y017039D01*
X005422Y017039D01*
X005422Y016621D01*
X005268Y016621D01*
X005268Y017039D01*
X004967Y017039D01*
X004921Y017027D01*
X004880Y017003D01*
X004847Y016969D01*
X004823Y016928D01*
X004811Y016882D01*
X004811Y016621D01*
X005268Y016621D01*
X005268Y016466D01*
X005422Y016466D01*
X005422Y016621D01*
X005879Y016621D01*
X005879Y016716D02*
X006085Y016716D01*
X006085Y016558D02*
X005422Y016558D01*
X005268Y016558D02*
X003690Y016558D01*
X003669Y016716D02*
X004811Y016716D01*
X004811Y016875D02*
X003901Y016875D01*
X003977Y017033D02*
X004946Y017033D01*
X004932Y017192D02*
X003986Y017192D01*
X003935Y017350D02*
X004851Y017350D01*
X005268Y017033D02*
X005422Y017033D01*
X005422Y016875D02*
X005268Y016875D01*
X005268Y016716D02*
X005422Y016716D01*
X005268Y016466D02*
X004811Y016466D01*
X004811Y016205D01*
X004823Y016159D01*
X004847Y016118D01*
X004880Y016085D01*
X004921Y016061D01*
X004967Y016049D01*
X005268Y016049D01*
X005268Y016466D01*
X005268Y016399D02*
X005422Y016399D01*
X005422Y016241D02*
X005268Y016241D01*
X005268Y016082D02*
X005422Y016082D01*
X005109Y015448D02*
X006749Y015448D01*
X006908Y015290D02*
X005268Y015290D01*
X005426Y015131D02*
X007066Y015131D01*
X007225Y014973D02*
X005585Y014973D01*
X005743Y014814D02*
X007383Y014814D01*
X007542Y014656D02*
X005902Y014656D01*
X006060Y014497D02*
X007700Y014497D01*
X007859Y014339D02*
X006219Y014339D01*
X006377Y014180D02*
X008017Y014180D01*
X008176Y014022D02*
X006536Y014022D01*
X006002Y013071D02*
X005987Y013071D01*
X005843Y013229D02*
X005828Y013229D01*
X005685Y013388D02*
X005670Y013388D01*
X005526Y013546D02*
X005511Y013546D01*
X005368Y013705D02*
X005353Y013705D01*
X005209Y013863D02*
X005194Y013863D01*
X005051Y014022D02*
X005036Y014022D01*
X004892Y014180D02*
X004877Y014180D01*
X004734Y014339D02*
X004719Y014339D01*
X004575Y014497D02*
X003812Y014497D01*
X003841Y014814D02*
X004258Y014814D01*
X004417Y014656D02*
X002480Y014656D01*
X002480Y014814D02*
X002650Y014814D01*
X002539Y014973D02*
X002480Y014973D01*
X002480Y015131D02*
X002506Y015131D01*
X002531Y015290D02*
X002480Y015290D01*
X002480Y015448D02*
X002630Y015448D01*
X002679Y014497D02*
X002480Y014497D01*
X002480Y014339D02*
X002551Y014339D01*
X002506Y014180D02*
X002480Y014180D01*
X002480Y014022D02*
X002519Y014022D01*
X002480Y013863D02*
X002601Y013863D01*
X002480Y013705D02*
X002850Y013705D01*
X002858Y013581D02*
X002696Y013514D01*
X002573Y013390D01*
X002506Y013229D01*
X002480Y013229D01*
X002506Y013229D02*
X002506Y013054D01*
X002573Y012892D01*
X002696Y012768D01*
X002858Y012701D01*
X003633Y012701D01*
X003795Y012768D01*
X003919Y012892D01*
X003986Y013054D01*
X003986Y013229D01*
X003919Y013390D01*
X003795Y013514D01*
X003633Y013581D01*
X002858Y013581D01*
X002773Y013546D02*
X002480Y013546D01*
X002480Y013388D02*
X002571Y013388D01*
X002506Y013071D02*
X002480Y013071D01*
X002480Y012912D02*
X002564Y012912D01*
X002480Y012754D02*
X002731Y012754D01*
X002480Y012595D02*
X005727Y012595D01*
X005886Y012437D02*
X002480Y012437D01*
X002480Y012278D02*
X006044Y012278D01*
X006203Y012120D02*
X002480Y012120D01*
X002480Y011961D02*
X006361Y011961D01*
X006520Y011803D02*
X002480Y011803D01*
X002480Y011644D02*
X006678Y011644D01*
X006837Y011486D02*
X003305Y011486D01*
X003266Y011502D02*
X003063Y011502D01*
X002876Y011424D01*
X002733Y011281D01*
X002655Y011093D01*
X002655Y010890D01*
X002733Y010703D01*
X002876Y010559D01*
X003063Y010482D01*
X003266Y010482D01*
X003454Y010559D01*
X003597Y010703D01*
X003675Y010890D01*
X003675Y011093D01*
X003597Y011281D01*
X003454Y011424D01*
X003266Y011502D01*
X003025Y011486D02*
X002480Y011486D01*
X002480Y011327D02*
X002779Y011327D01*
X002686Y011169D02*
X002480Y011169D01*
X002480Y011010D02*
X002655Y011010D01*
X002671Y010852D02*
X002480Y010852D01*
X002480Y010693D02*
X002742Y010693D01*
X002935Y010535D02*
X002480Y010535D01*
X002480Y010376D02*
X007585Y010376D01*
X007585Y010218D02*
X002480Y010218D01*
X002480Y010059D02*
X007585Y010059D01*
X007585Y009901D02*
X002480Y009901D01*
X002480Y009742D02*
X007585Y009742D01*
X007585Y009584D02*
X002480Y009584D01*
X002480Y009425D02*
X007585Y009425D01*
X007585Y009267D02*
X002480Y009267D01*
X002480Y009108D02*
X007585Y009108D01*
X007585Y008950D02*
X002480Y008950D01*
X002480Y008791D02*
X007585Y008791D01*
X007585Y008633D02*
X002480Y008633D01*
X002480Y008474D02*
X007585Y008474D01*
X007585Y008316D02*
X002480Y008316D01*
X002480Y008157D02*
X007585Y008157D01*
X007585Y007999D02*
X006145Y007999D01*
X006084Y008034D02*
X005596Y008145D01*
X005096Y008108D01*
X004630Y007925D01*
X004238Y007613D01*
X003956Y007199D01*
X003809Y006720D01*
X003809Y006220D01*
X003956Y005741D01*
X004238Y005327D01*
X004238Y005327D01*
X004238Y005327D01*
X004630Y005015D01*
X005096Y004832D01*
X005096Y004832D01*
X005596Y004795D01*
X006084Y004906D01*
X006517Y005157D01*
X006517Y005157D01*
X006858Y005524D01*
X007075Y005975D01*
X007150Y006470D01*
X007075Y006965D01*
X007075Y006965D01*
X006858Y007416D01*
X006858Y007416D01*
X006517Y007783D01*
X006084Y008034D01*
X006419Y007840D02*
X007585Y007840D01*
X007585Y007682D02*
X006612Y007682D01*
X006517Y007783D02*
X006517Y007783D01*
X006759Y007523D02*
X007585Y007523D01*
X007585Y007365D02*
X006883Y007365D01*
X006959Y007206D02*
X007585Y007206D01*
X007585Y007048D02*
X007036Y007048D01*
X007087Y006889D02*
X007597Y006889D01*
X007717Y006731D02*
X007111Y006731D01*
X007135Y006572D02*
X007875Y006572D01*
X008034Y006414D02*
X007142Y006414D01*
X007118Y006255D02*
X008192Y006255D01*
X008351Y006097D02*
X007094Y006097D01*
X007075Y005975D02*
X007075Y005975D01*
X007058Y005938D02*
X008509Y005938D01*
X008668Y005780D02*
X006981Y005780D01*
X006905Y005621D02*
X008826Y005621D01*
X008985Y005463D02*
X006802Y005463D01*
X006858Y005524D02*
X006858Y005524D01*
X006654Y005304D02*
X009105Y005304D01*
X009105Y005146D02*
X006499Y005146D01*
X006224Y004987D02*
X009161Y004987D01*
X009293Y004829D02*
X005745Y004829D01*
X005596Y004795D02*
X005596Y004795D01*
X005142Y004829D02*
X002988Y004829D01*
X002882Y004987D02*
X004701Y004987D01*
X004630Y005015D02*
X004630Y005015D01*
X004466Y005146D02*
X002798Y005146D01*
X002732Y005304D02*
X004267Y005304D01*
X004146Y005463D02*
X002666Y005463D01*
X002605Y005621D02*
X004038Y005621D01*
X003956Y005741D02*
X003956Y005741D01*
X003944Y005780D02*
X002573Y005780D01*
X002542Y005938D02*
X003896Y005938D01*
X003847Y006097D02*
X002510Y006097D01*
X002491Y006255D02*
X003809Y006255D01*
X003809Y006414D02*
X002483Y006414D01*
X002480Y006572D02*
X003809Y006572D01*
X003812Y006731D02*
X002480Y006731D01*
X002480Y006889D02*
X003861Y006889D01*
X003910Y007048D02*
X002480Y007048D01*
X002480Y007206D02*
X003961Y007206D01*
X003956Y007199D02*
X003956Y007199D01*
X004069Y007365D02*
X002480Y007365D01*
X002480Y007523D02*
X004177Y007523D01*
X004238Y007613D02*
X004238Y007613D01*
X004238Y007613D01*
X004325Y007682D02*
X002480Y007682D01*
X002480Y007840D02*
X004524Y007840D01*
X004818Y007999D02*
X002480Y007999D01*
X003394Y010535D02*
X007585Y010535D01*
X007585Y010693D02*
X003588Y010693D01*
X003659Y010852D02*
X007471Y010852D01*
X007312Y011010D02*
X003675Y011010D01*
X003644Y011169D02*
X007154Y011169D01*
X006995Y011327D02*
X003551Y011327D01*
X003760Y012754D02*
X005569Y012754D01*
X005410Y012912D02*
X003927Y012912D01*
X003986Y013071D02*
X005252Y013071D01*
X005093Y013229D02*
X003985Y013229D01*
X003920Y013388D02*
X004935Y013388D01*
X004776Y013546D02*
X003718Y013546D01*
X003641Y013705D02*
X004618Y013705D01*
X004459Y013863D02*
X003890Y013863D01*
X004951Y015607D02*
X006591Y015607D01*
X006085Y016875D02*
X005879Y016875D01*
X005744Y017033D02*
X006085Y017033D01*
X006085Y017192D02*
X005758Y017192D01*
X005839Y017350D02*
X005972Y017350D01*
X007105Y017667D02*
X009394Y017667D01*
X009498Y017730D02*
X009317Y017805D01*
X009180Y017942D01*
X009105Y018123D01*
X009105Y018317D01*
X009180Y018498D01*
X009317Y018635D01*
X009498Y018710D01*
X009692Y018710D01*
X009873Y018635D01*
X010010Y018498D01*
X010085Y018317D01*
X010085Y018123D01*
X010010Y017942D01*
X009873Y017805D01*
X009692Y017730D01*
X009498Y017730D01*
X009296Y017826D02*
X007105Y017826D01*
X007105Y017984D02*
X009162Y017984D01*
X009105Y018143D02*
X007105Y018143D01*
X007105Y018301D02*
X009105Y018301D01*
X009164Y018460D02*
X007105Y018460D01*
X007105Y018618D02*
X009300Y018618D01*
X009187Y018730D02*
X010003Y018730D01*
X010085Y018812D01*
X010085Y019628D01*
X010003Y019710D01*
X009749Y019710D01*
X009895Y019771D01*
X010044Y019920D01*
X010125Y020115D01*
X010125Y020325D01*
X010044Y020520D01*
X011960Y020520D01*
X011960Y020362D02*
X010110Y020362D01*
X010125Y020203D02*
X011960Y020203D01*
X011960Y020045D02*
X010096Y020045D01*
X010011Y019886D02*
X011960Y019886D01*
X011960Y019728D02*
X009791Y019728D01*
X010085Y019569D02*
X011960Y019569D01*
X011960Y019411D02*
X010085Y019411D01*
X010085Y019252D02*
X011960Y019252D01*
X011960Y019094D02*
X010085Y019094D01*
X010085Y018935D02*
X011960Y018935D01*
X011960Y018777D02*
X010050Y018777D01*
X009890Y018618D02*
X011960Y018618D01*
X011960Y018460D02*
X010026Y018460D01*
X010085Y018301D02*
X011960Y018301D01*
X011960Y018143D02*
X010085Y018143D01*
X010028Y017984D02*
X011960Y017984D01*
X011960Y017826D02*
X009894Y017826D01*
X009796Y017667D02*
X011960Y017667D01*
X011960Y017509D02*
X009999Y017509D01*
X010071Y017350D02*
X011960Y017350D01*
X011960Y017192D02*
X010085Y017192D01*
X010048Y017033D02*
X011960Y017033D01*
X011960Y016875D02*
X009943Y016875D01*
X009783Y016716D02*
X011960Y016716D01*
X011960Y016558D02*
X010005Y016558D01*
X010094Y016399D02*
X011960Y016399D01*
X011960Y016241D02*
X010125Y016241D01*
X010108Y016082D02*
X011960Y016082D01*
X011960Y015924D02*
X010035Y015924D01*
X009187Y018730D02*
X009105Y018812D01*
X009105Y019628D01*
X009187Y019710D01*
X009441Y019710D01*
X009295Y019771D01*
X009146Y019920D01*
X009065Y020115D01*
X009065Y020325D01*
X009146Y020520D01*
X005787Y020520D01*
X005730Y020679D02*
X009317Y020679D01*
X009295Y020669D02*
X009146Y020520D01*
X009080Y020362D02*
X005946Y020362D01*
X006104Y020203D02*
X009065Y020203D01*
X009094Y020045D02*
X006263Y020045D01*
X006421Y019886D02*
X009179Y019886D01*
X009399Y019728D02*
X006580Y019728D01*
X006738Y019569D02*
X009105Y019569D01*
X009105Y019411D02*
X006897Y019411D01*
X007055Y019252D02*
X009105Y019252D01*
X009105Y019094D02*
X007105Y019094D01*
X007105Y018935D02*
X009105Y018935D01*
X009140Y018777D02*
X007105Y018777D01*
X006339Y020837D02*
X011960Y020837D01*
X011960Y020679D02*
X009873Y020679D01*
X009895Y020669D02*
X009700Y020750D01*
X009490Y020750D01*
X009295Y020669D01*
X009895Y020669D02*
X010044Y020520D01*
X008396Y022569D02*
X008478Y022651D01*
X008478Y023476D01*
X008396Y023558D01*
X008230Y023558D01*
X008230Y023710D01*
X008965Y023710D01*
X009004Y023672D01*
X009436Y023672D01*
X009518Y023754D01*
X009518Y024186D01*
X009436Y024268D01*
X009004Y024268D01*
X008965Y024230D01*
X008328Y024230D01*
X008230Y024328D01*
X008230Y024520D01*
X008289Y024462D01*
X009274Y024462D01*
X009356Y024544D01*
X009356Y024900D01*
X009294Y024962D01*
X009524Y024962D01*
X009619Y025002D01*
X009867Y025250D01*
X009940Y025323D01*
X009980Y025418D01*
X009980Y027088D01*
X010048Y027020D01*
X010558Y027020D01*
X010640Y027102D01*
X010640Y027343D01*
X010974Y027672D01*
X011186Y027672D01*
X011268Y027754D01*
X011268Y028186D01*
X011186Y028268D01*
X011039Y028268D01*
X010721Y028586D01*
X010724Y028589D01*
X010724Y029414D01*
X010642Y029496D01*
X009896Y029496D01*
X009814Y029414D01*
X009814Y028589D01*
X009896Y028507D01*
X010065Y028507D01*
X010122Y028450D01*
X010569Y028003D01*
X010294Y027733D01*
X010048Y027733D01*
X009968Y027653D01*
X009888Y027733D01*
X009379Y027733D01*
X009344Y027699D01*
X008518Y027699D01*
X008518Y027713D01*
X008436Y027795D01*
X007927Y027795D01*
X007847Y027715D01*
X007772Y027790D01*
X007772Y028212D01*
X007825Y028264D01*
X007841Y028236D01*
X007874Y028203D01*
X007915Y028179D01*
X007961Y028167D01*
X008163Y028167D01*
X008163Y028545D01*
X008200Y028545D01*
X008200Y028167D01*
X008402Y028167D01*
X008448Y028179D01*
X008489Y028203D01*
X008523Y028236D01*
X008546Y028277D01*
X008558Y028323D01*
X008558Y028545D01*
X008200Y028545D01*
X008200Y028582D01*
X008163Y028582D01*
X008163Y028960D01*
X007961Y028960D01*
X007915Y028948D01*
X007874Y028924D01*
X007841Y028891D01*
X007825Y028863D01*
X007767Y028920D01*
X007257Y028920D01*
X007175Y028838D01*
X007175Y028289D01*
X007252Y028212D01*
X007252Y027790D01*
X007175Y027713D01*
X007175Y027164D01*
X007252Y027087D01*
X007252Y026444D01*
X007214Y026482D01*
X006229Y026482D01*
X006146Y026400D01*
X006146Y026044D01*
X006219Y025972D01*
X006146Y025900D01*
X006146Y025544D01*
X006209Y025482D01*
X005608Y025482D01*
X005608Y025517D01*
X005528Y025597D01*
X005608Y025677D01*
X005608Y026186D01*
X005526Y026268D01*
X005511Y026268D01*
X005511Y027113D01*
X005640Y027113D01*
X005720Y027193D01*
X005800Y027113D01*
X006309Y027113D01*
X006391Y027195D01*
X006391Y027210D01*
X006465Y027210D01*
X006504Y027172D01*
X006936Y027172D01*
X007018Y027254D01*
X007018Y027686D01*
X006936Y027768D01*
X006504Y027768D01*
X006465Y027730D01*
X006391Y027730D01*
X006391Y027745D01*
X006309Y027827D01*
X005800Y027827D01*
X005720Y027747D01*
X005645Y027821D01*
X005645Y028653D01*
X007231Y030238D01*
X014325Y030238D01*
X014325Y030210D01*
X014407Y030128D01*
X015153Y030128D01*
X015235Y030210D01*
X015235Y030786D01*
X015223Y030798D01*
X015235Y030810D01*
X015235Y030838D01*
X015837Y030838D01*
X015879Y030797D01*
X016311Y030797D01*
X016393Y030879D01*
X016393Y031311D01*
X016311Y031393D01*
X015879Y031393D01*
X015843Y031358D01*
X015235Y031358D01*
X015235Y031386D01*
X015223Y031398D01*
X015235Y031410D01*
X015235Y031986D01*
X015153Y032068D01*
X015040Y032068D01*
X015040Y034127D01*
X015000Y034223D01*
X014927Y034296D01*
X012577Y036647D01*
X012577Y036890D01*
X012497Y036970D01*
X012577Y037050D01*
X012577Y037559D01*
X012495Y037641D01*
X011945Y037641D01*
X011869Y037565D01*
X011730Y037565D01*
X011730Y038453D01*
X011648Y038535D01*
X011296Y038535D01*
X011222Y038461D01*
X011148Y038535D01*
X010796Y038535D01*
X010722Y038461D01*
X010648Y038535D01*
X010296Y038535D01*
X010222Y038461D01*
X010148Y038535D01*
X009796Y038535D01*
X009714Y038453D01*
X009714Y038072D01*
X009454Y037812D01*
X009400Y037866D01*
X008575Y037866D01*
X008493Y037784D01*
X008493Y037730D01*
X008225Y037730D01*
X008186Y037768D01*
X007754Y037768D01*
X007672Y037686D01*
X007672Y037254D01*
X007754Y037172D01*
X008186Y037172D01*
X008225Y037210D01*
X008493Y037210D01*
X008493Y037038D01*
X008575Y036956D01*
X009400Y036956D01*
X009482Y037038D01*
X009482Y037210D01*
X009532Y037210D01*
X009627Y037250D01*
X009700Y037323D01*
X009735Y037358D01*
X009750Y037323D01*
X009823Y037250D01*
X009915Y037157D01*
X009988Y037084D01*
X010084Y037045D01*
X011052Y037045D01*
X010825Y036817D01*
X010752Y036744D01*
X010712Y036649D01*
X010712Y036424D01*
X010648Y036488D01*
X010296Y036488D01*
X010222Y036414D01*
X010148Y036488D01*
X009796Y036488D01*
X009714Y036406D01*
X009714Y035971D01*
X009712Y035967D01*
X009712Y035080D01*
X008367Y033735D01*
X008256Y033735D01*
X008180Y033658D01*
X007643Y033658D01*
X007643Y033686D01*
X007561Y033768D01*
X007129Y033768D01*
X007047Y033686D01*
X007047Y033254D01*
X007129Y033172D01*
X007284Y033172D01*
X007365Y033138D01*
X008180Y033138D01*
X008254Y033064D01*
X008174Y032984D01*
X008174Y032474D01*
X008256Y032392D01*
X008806Y032392D01*
X008874Y032460D01*
X010237Y032460D01*
X010417Y032280D01*
X010340Y032202D01*
X010340Y031338D01*
X010422Y031256D01*
X011050Y031256D01*
X011132Y031338D01*
X011132Y032202D01*
X011050Y032284D01*
X010996Y032284D01*
X010996Y032381D01*
X010956Y032477D01*
X010883Y032550D01*
X010492Y032940D01*
X010397Y032980D01*
X008888Y032980D01*
X008888Y032984D01*
X008808Y033064D01*
X008888Y033143D01*
X008888Y033520D01*
X010119Y034752D01*
X010192Y034825D01*
X010212Y034872D01*
X010212Y034292D01*
X009784Y034292D01*
X009702Y034210D01*
X009702Y033346D01*
X009784Y033264D01*
X010687Y033264D01*
X010769Y033346D01*
X010769Y033518D01*
X011168Y033518D01*
X011611Y033075D01*
X011611Y032831D01*
X011669Y032774D01*
X011641Y032758D01*
X011607Y032724D01*
X011584Y032683D01*
X011571Y032637D01*
X011571Y032435D01*
X011950Y032435D01*
X011950Y032398D01*
X011986Y032398D01*
X011986Y032040D01*
X012208Y032040D01*
X012254Y032052D01*
X012295Y032076D01*
X012329Y032109D01*
X012352Y032151D01*
X012365Y032196D01*
X012365Y032398D01*
X011986Y032398D01*
X011986Y032435D01*
X012365Y032435D01*
X012365Y032637D01*
X012352Y032683D01*
X012329Y032724D01*
X012295Y032758D01*
X012267Y032774D01*
X012325Y032831D01*
X012325Y033341D01*
X012243Y033423D01*
X011999Y033423D01*
X011497Y033925D01*
X011497Y033925D01*
X011423Y033998D01*
X011328Y034038D01*
X010769Y034038D01*
X010769Y034210D01*
X010732Y034248D01*
X010732Y035406D01*
X010796Y035342D01*
X011148Y035342D01*
X011198Y035392D01*
X011210Y035371D01*
X011243Y035338D01*
X011284Y035314D01*
X011330Y035302D01*
X011472Y035302D01*
X011614Y035302D01*
X011660Y035314D01*
X011701Y035338D01*
X011734Y035371D01*
X011758Y035412D01*
X011770Y035458D01*
X011770Y035915D01*
X011770Y036372D01*
X011758Y036417D01*
X011734Y036458D01*
X011701Y036492D01*
X011660Y036516D01*
X011614Y036528D01*
X011472Y036528D01*
X011472Y035915D01*
X011472Y035915D01*
X011472Y036528D01*
X011330Y036528D01*
X011284Y036516D01*
X011243Y036492D01*
X011232Y036481D01*
X011232Y036489D01*
X011328Y036585D01*
X011863Y036585D01*
X011863Y036381D01*
X011945Y036299D01*
X012189Y036299D01*
X014520Y033968D01*
X014520Y032068D01*
X014407Y032068D01*
X014325Y031986D01*
X014325Y031410D01*
X014337Y031398D01*
X014325Y031386D01*
X014325Y030810D01*
X014337Y030798D01*
X014325Y030786D01*
X014325Y030758D01*
X007071Y030758D01*
X006976Y030718D01*
X006903Y030645D01*
X005165Y028908D01*
X005125Y028812D01*
X005125Y027821D01*
X005049Y027745D01*
X005049Y027501D01*
X005031Y027483D01*
X004991Y027388D01*
X004991Y026268D01*
X004977Y026268D01*
X004895Y026186D01*
X004895Y025677D01*
X004975Y025597D01*
X004900Y025522D01*
X004455Y025522D01*
X004216Y025761D01*
X004216Y026260D01*
X004134Y026342D01*
X003310Y026342D01*
X003228Y026260D01*
X003228Y025514D01*
X003310Y025432D01*
X003809Y025432D01*
X004200Y025042D01*
X004295Y025002D01*
X004900Y025002D01*
X004977Y024925D01*
X005526Y024925D01*
X005563Y024962D01*
X006152Y024962D01*
X006142Y024952D01*
X006119Y024911D01*
X006106Y024866D01*
X006106Y024722D01*
X006721Y024722D01*
X006721Y024722D01*
X006106Y024722D01*
X006106Y024578D01*
X006119Y024532D01*
X006142Y024491D01*
X006176Y024458D01*
X006217Y024434D01*
X006263Y024422D01*
X006721Y024422D01*
X006721Y024722D01*
X006722Y024722D01*
X007336Y024722D01*
X007336Y024866D01*
X007324Y024911D01*
X007301Y024952D01*
X007267Y024986D01*
X007249Y024996D01*
X007296Y025044D01*
X007296Y025400D01*
X007236Y025460D01*
X007397Y025460D01*
X007492Y025500D01*
X007565Y025573D01*
X007733Y025740D01*
X007772Y025836D01*
X007772Y027087D01*
X007847Y027162D01*
X007927Y027082D01*
X008436Y027082D01*
X008518Y027164D01*
X008518Y027179D01*
X009297Y027179D01*
X009297Y027102D01*
X009379Y027020D01*
X009460Y027020D01*
X009460Y025578D01*
X009364Y025482D01*
X009294Y025482D01*
X009356Y025544D01*
X009356Y025900D01*
X009284Y025972D01*
X009356Y026044D01*
X009356Y026400D01*
X009274Y026482D01*
X008289Y026482D01*
X008206Y026400D01*
X008206Y026044D01*
X008269Y025982D01*
X008170Y025982D01*
X008075Y025942D01*
X007750Y025617D01*
X007710Y025522D01*
X007710Y023558D01*
X007650Y023558D01*
X007568Y023476D01*
X007568Y022651D01*
X007650Y022569D01*
X008396Y022569D01*
X008408Y022581D02*
X011960Y022581D01*
X011960Y022739D02*
X008478Y022739D01*
X008478Y022898D02*
X011960Y022898D01*
X011960Y023056D02*
X008478Y023056D01*
X008478Y023215D02*
X011904Y023215D01*
X011863Y023373D02*
X008478Y023373D01*
X008422Y023532D02*
X011863Y023532D01*
X011863Y023690D02*
X009455Y023690D01*
X009518Y023849D02*
X011940Y023849D01*
X011863Y024007D02*
X009518Y024007D01*
X009518Y024166D02*
X011863Y024166D01*
X011863Y024324D02*
X008233Y024324D01*
X008230Y024483D02*
X008268Y024483D01*
X007710Y024483D02*
X007292Y024483D01*
X007301Y024491D02*
X007324Y024532D01*
X007336Y024578D01*
X007336Y024722D01*
X006722Y024722D01*
X006722Y024722D01*
X006722Y024422D01*
X007180Y024422D01*
X007226Y024434D01*
X007267Y024458D01*
X007301Y024491D01*
X007336Y024641D02*
X007710Y024641D01*
X007710Y024800D02*
X007336Y024800D01*
X007295Y024958D02*
X007710Y024958D01*
X007710Y025117D02*
X007296Y025117D01*
X007296Y025275D02*
X007710Y025275D01*
X007710Y025434D02*
X007263Y025434D01*
X007585Y025592D02*
X007739Y025592D01*
X007737Y025751D02*
X007883Y025751D01*
X007772Y025909D02*
X008042Y025909D01*
X008206Y026068D02*
X007772Y026068D01*
X007772Y026226D02*
X008206Y026226D01*
X008206Y026385D02*
X007772Y026385D01*
X007772Y026543D02*
X009460Y026543D01*
X009460Y026385D02*
X009356Y026385D01*
X009356Y026226D02*
X009460Y026226D01*
X009460Y026068D02*
X009356Y026068D01*
X009347Y025909D02*
X009460Y025909D01*
X009460Y025751D02*
X009356Y025751D01*
X009356Y025592D02*
X009460Y025592D01*
X009298Y024958D02*
X011863Y024958D01*
X011863Y025117D02*
X009734Y025117D01*
X009893Y025275D02*
X011863Y025275D01*
X011907Y025434D02*
X009980Y025434D01*
X009980Y025592D02*
X011823Y025592D01*
X011823Y025751D02*
X009980Y025751D01*
X009980Y025909D02*
X011823Y025909D01*
X011835Y026068D02*
X009980Y026068D01*
X009980Y026226D02*
X014867Y026226D01*
X014867Y026068D02*
X012605Y026068D01*
X012604Y026071D02*
X012581Y026112D01*
X012547Y026146D01*
X012506Y026169D01*
X012460Y026181D01*
X012238Y026181D01*
X012238Y025823D01*
X012617Y025823D01*
X012617Y026025D01*
X012604Y026071D01*
X012617Y025909D02*
X014867Y025909D01*
X014845Y025751D02*
X012617Y025751D01*
X012617Y025592D02*
X014687Y025592D01*
X014528Y025434D02*
X012533Y025434D01*
X012238Y025909D02*
X012202Y025909D01*
X012202Y026068D02*
X012238Y026068D01*
X012496Y024800D02*
X012787Y024800D01*
X012827Y024641D02*
X012480Y024641D01*
X012528Y024483D02*
X012775Y024483D01*
X012783Y024496D02*
X012759Y024455D01*
X012747Y024409D01*
X012747Y024207D01*
X013184Y024207D01*
X013184Y024565D01*
X012903Y024565D01*
X012857Y024553D01*
X012816Y024529D01*
X012783Y024496D01*
X012747Y024324D02*
X012577Y024324D01*
X012577Y024166D02*
X012747Y024166D01*
X012747Y024170D02*
X012747Y023968D01*
X012759Y023922D01*
X012783Y023881D01*
X012816Y023848D01*
X012857Y023824D01*
X012903Y023812D01*
X013184Y023812D01*
X013184Y024170D01*
X013221Y024170D01*
X013221Y024207D01*
X013184Y024207D01*
X013184Y024170D01*
X012747Y024170D01*
X012747Y024007D02*
X012577Y024007D01*
X012500Y023849D02*
X012815Y023849D01*
X012577Y023690D02*
X014830Y023690D01*
X014830Y023532D02*
X012577Y023532D01*
X012577Y023373D02*
X014830Y023373D01*
X014830Y023215D02*
X012536Y023215D01*
X012480Y023056D02*
X014924Y023056D01*
X014949Y023030D02*
X014867Y023112D01*
X014867Y023125D01*
X014830Y023162D01*
X014830Y024028D01*
X014867Y024065D01*
X014867Y024098D01*
X014949Y024180D01*
X015305Y024180D01*
X015376Y024110D01*
X015379Y024110D01*
X015449Y024180D01*
X015805Y024180D01*
X015876Y024110D01*
X015879Y024110D01*
X015949Y024180D01*
X016305Y024180D01*
X016376Y024110D01*
X016379Y024110D01*
X016449Y024180D01*
X016805Y024180D01*
X016887Y024098D01*
X016887Y024075D01*
X017905Y024075D01*
X018077Y024004D01*
X020150Y021931D01*
X020428Y021931D01*
X020609Y021856D01*
X020748Y021717D01*
X020823Y021536D01*
X020823Y021341D01*
X020748Y021160D01*
X020609Y021021D01*
X020428Y020946D01*
X019527Y020946D01*
X019346Y021021D01*
X019208Y021160D01*
X019133Y021341D01*
X019133Y021536D01*
X019157Y021595D01*
X017616Y023135D01*
X016887Y023135D01*
X016887Y023112D01*
X016805Y023030D01*
X016449Y023030D01*
X016400Y023080D01*
X016355Y023080D01*
X016305Y023030D01*
X015949Y023030D01*
X015900Y023080D01*
X015855Y023080D01*
X015805Y023030D01*
X015449Y023030D01*
X015400Y023080D01*
X015355Y023080D01*
X015305Y023030D01*
X014949Y023030D01*
X015331Y023056D02*
X015424Y023056D01*
X015831Y023056D02*
X015924Y023056D01*
X016331Y023056D02*
X016424Y023056D01*
X016831Y023056D02*
X017695Y023056D01*
X017854Y022898D02*
X012480Y022898D01*
X012480Y022739D02*
X018012Y022739D01*
X018171Y022581D02*
X012480Y022581D01*
X012480Y022422D02*
X018329Y022422D01*
X018488Y022264D02*
X012480Y022264D01*
X012480Y022105D02*
X018646Y022105D01*
X018805Y021947D02*
X012480Y021947D01*
X012480Y021788D02*
X018963Y021788D01*
X019122Y021630D02*
X012480Y021630D01*
X012480Y021471D02*
X019133Y021471D01*
X019144Y021313D02*
X012480Y021313D01*
X012480Y021154D02*
X019213Y021154D01*
X019407Y020996D02*
X012480Y020996D01*
X012480Y020837D02*
X020960Y020837D01*
X020960Y020679D02*
X015873Y020679D01*
X015895Y020669D02*
X015700Y020750D01*
X015490Y020750D01*
X015295Y020669D01*
X015146Y020520D01*
X015317Y020679D02*
X012480Y020679D01*
X011960Y020996D02*
X006339Y020996D01*
X006339Y021154D02*
X011960Y021154D01*
X011960Y021313D02*
X006339Y021313D01*
X006339Y021471D02*
X011960Y021471D01*
X011960Y021630D02*
X002107Y021630D01*
X002107Y021788D02*
X002676Y021788D01*
X002696Y021768D02*
X002858Y021701D01*
X003633Y021701D01*
X003795Y021768D01*
X003919Y021892D01*
X003986Y022054D01*
X003986Y022229D01*
X003919Y022390D01*
X003795Y022514D01*
X003633Y022581D01*
X002858Y022581D01*
X002696Y022514D01*
X002573Y022390D01*
X002506Y022229D01*
X002506Y022054D01*
X002573Y021892D01*
X002696Y021768D01*
X002550Y021947D02*
X002107Y021947D01*
X002107Y022105D02*
X002506Y022105D01*
X002520Y022264D02*
X002107Y022264D01*
X002107Y022422D02*
X002604Y022422D01*
X002857Y022581D02*
X002107Y022581D01*
X002107Y022739D02*
X005396Y022739D01*
X005380Y022730D02*
X005347Y022697D01*
X005323Y022656D01*
X005311Y022610D01*
X005311Y022349D01*
X005768Y022349D01*
X005768Y022766D01*
X005467Y022766D01*
X005421Y022754D01*
X005380Y022730D01*
X005311Y022581D02*
X003634Y022581D01*
X003887Y022422D02*
X005311Y022422D01*
X005311Y022194D02*
X005311Y021933D01*
X005323Y021887D01*
X005347Y021846D01*
X005380Y021812D01*
X005421Y021788D01*
X005467Y021776D01*
X005768Y021776D01*
X005768Y022194D01*
X005922Y022194D01*
X005922Y021776D01*
X006223Y021776D01*
X006269Y021788D01*
X006310Y021812D01*
X006343Y021846D01*
X006367Y021887D01*
X006379Y021933D01*
X006379Y022194D01*
X005922Y022194D01*
X005922Y022349D01*
X005768Y022349D01*
X005768Y022194D01*
X005311Y022194D01*
X005311Y022105D02*
X003986Y022105D01*
X003971Y022264D02*
X005768Y022264D01*
X005922Y022264D02*
X011960Y022264D01*
X011960Y022422D02*
X006379Y022422D01*
X006379Y022349D02*
X006379Y022610D01*
X006367Y022656D01*
X006343Y022697D01*
X006310Y022730D01*
X006269Y022754D01*
X006223Y022766D01*
X005922Y022766D01*
X005922Y022349D01*
X006379Y022349D01*
X006379Y022581D02*
X006480Y022581D01*
X006495Y022565D02*
X006536Y022541D01*
X006582Y022529D01*
X006843Y022529D01*
X006843Y022986D01*
X006426Y022986D01*
X006426Y022685D01*
X006438Y022640D01*
X006462Y022599D01*
X006495Y022565D01*
X006426Y022739D02*
X006294Y022739D01*
X006426Y022898D02*
X002107Y022898D01*
X002107Y023056D02*
X006843Y023056D01*
X006843Y022986D02*
X006843Y023141D01*
X006426Y023141D01*
X006426Y023442D01*
X006438Y023487D01*
X006462Y023528D01*
X006495Y023562D01*
X006536Y023586D01*
X006582Y023598D01*
X006843Y023598D01*
X006843Y023141D01*
X006998Y023141D01*
X006998Y023598D01*
X007259Y023598D01*
X007305Y023586D01*
X007346Y023562D01*
X007380Y023528D01*
X007403Y023487D01*
X007416Y023442D01*
X007416Y023141D01*
X006998Y023141D01*
X006998Y022986D01*
X006998Y022529D01*
X007259Y022529D01*
X007305Y022541D01*
X007346Y022565D01*
X007380Y022599D01*
X007403Y022640D01*
X007416Y022685D01*
X007416Y022986D01*
X006998Y022986D01*
X006843Y022986D01*
X006843Y022898D02*
X006998Y022898D01*
X006998Y023056D02*
X007568Y023056D01*
X007568Y022898D02*
X007416Y022898D01*
X007416Y022739D02*
X007568Y022739D01*
X007639Y022581D02*
X007362Y022581D01*
X006998Y022581D02*
X006843Y022581D01*
X006843Y022739D02*
X006998Y022739D01*
X006998Y023215D02*
X006843Y023215D01*
X006843Y023373D02*
X006998Y023373D01*
X006998Y023532D02*
X006843Y023532D01*
X006465Y023532D02*
X002107Y023532D01*
X002107Y023690D02*
X007710Y023690D01*
X007710Y023849D02*
X002107Y023849D01*
X002107Y024007D02*
X007710Y024007D01*
X007710Y024166D02*
X002107Y024166D01*
X002107Y024324D02*
X007710Y024324D01*
X007624Y023532D02*
X007376Y023532D01*
X007416Y023373D02*
X007568Y023373D01*
X007568Y023215D02*
X007416Y023215D01*
X008230Y023690D02*
X008985Y023690D01*
X009295Y024483D02*
X011912Y024483D01*
X011960Y024641D02*
X009356Y024641D01*
X009356Y024800D02*
X011944Y024800D01*
X013184Y024483D02*
X013221Y024483D01*
X013221Y024324D02*
X013184Y024324D01*
X013221Y024170D02*
X013658Y024170D01*
X013658Y023968D01*
X013646Y023922D01*
X013622Y023881D01*
X013588Y023848D01*
X013547Y023824D01*
X013502Y023812D01*
X013221Y023812D01*
X013221Y024170D01*
X013221Y024166D02*
X013184Y024166D01*
X013184Y024007D02*
X013221Y024007D01*
X013221Y023849D02*
X013184Y023849D01*
X013590Y023849D02*
X014830Y023849D01*
X014830Y024007D02*
X013658Y024007D01*
X013658Y024166D02*
X014935Y024166D01*
X015320Y024166D02*
X015435Y024166D01*
X015820Y024166D02*
X015935Y024166D01*
X016320Y024166D02*
X016435Y024166D01*
X016820Y024166D02*
X020960Y024166D01*
X020960Y024324D02*
X014484Y024324D01*
X014484Y024483D02*
X020960Y024483D01*
X020960Y024641D02*
X014484Y024641D01*
X014630Y024800D02*
X020960Y024800D01*
X020960Y024958D02*
X014788Y024958D01*
X014370Y025275D02*
X013231Y025275D01*
X013618Y025117D02*
X014211Y025117D01*
X014053Y024958D02*
X013618Y024958D01*
X013618Y024800D02*
X013653Y024800D01*
X013653Y024641D02*
X013577Y024641D01*
X013630Y024483D02*
X013653Y024483D01*
X014867Y026385D02*
X009980Y026385D01*
X009980Y026543D02*
X014867Y026543D01*
X014831Y026702D02*
X009980Y026702D01*
X009980Y026860D02*
X014831Y026860D01*
X014831Y027019D02*
X009980Y027019D01*
X010640Y027177D02*
X014848Y027177D01*
X015487Y027177D02*
X015518Y027177D01*
X016106Y026543D02*
X016841Y026543D01*
X016999Y026702D02*
X016174Y026702D01*
X016174Y026860D02*
X017158Y026860D01*
X017316Y027019D02*
X016174Y027019D01*
X016157Y027177D02*
X017475Y027177D01*
X017633Y027336D02*
X010640Y027336D01*
X010793Y027494D02*
X017792Y027494D01*
X017950Y027653D02*
X010955Y027653D01*
X011268Y027811D02*
X018109Y027811D01*
X018487Y026860D02*
X020228Y026860D01*
X020386Y026702D02*
X018329Y026702D01*
X018170Y026543D02*
X020545Y026543D01*
X020703Y026385D02*
X018012Y026385D01*
X017853Y026226D02*
X020862Y026226D01*
X020960Y026068D02*
X017695Y026068D01*
X017536Y025909D02*
X019429Y025909D01*
X019339Y025872D02*
X019520Y025947D01*
X020420Y025947D01*
X020601Y025872D01*
X020740Y025733D01*
X020815Y025552D01*
X020815Y025356D01*
X020740Y025175D01*
X020601Y025037D01*
X020420Y024962D01*
X019520Y024962D01*
X019339Y025037D01*
X019200Y025175D01*
X019125Y025356D01*
X019125Y025552D01*
X019200Y025733D01*
X019339Y025872D01*
X019217Y025751D02*
X017378Y025751D01*
X017219Y025592D02*
X019142Y025592D01*
X019125Y025434D02*
X017061Y025434D01*
X016902Y025275D02*
X019159Y025275D01*
X019259Y025117D02*
X016832Y025117D01*
X016682Y026385D02*
X016097Y026385D01*
X015375Y025117D02*
X015332Y025117D01*
X015895Y020669D02*
X016044Y020520D01*
X016010Y016942D02*
X015873Y016805D01*
X015198Y015924D02*
X012480Y015924D01*
X012480Y016082D02*
X015122Y016082D01*
X015105Y016241D02*
X012480Y016241D01*
X012480Y016399D02*
X015139Y016399D01*
X015901Y015607D02*
X017079Y015607D01*
X017079Y015448D02*
X016031Y015448D01*
X016085Y015290D02*
X017089Y015290D01*
X017046Y015131D02*
X016085Y015131D01*
X016023Y014973D02*
X017039Y014973D01*
X017039Y014814D02*
X015882Y014814D01*
X015824Y014656D02*
X017041Y014656D01*
X017417Y014656D02*
X017454Y014656D01*
X017454Y014509D02*
X017676Y014509D01*
X017722Y014521D01*
X017763Y014544D01*
X017796Y014578D01*
X017820Y014619D01*
X017832Y014665D01*
X017832Y014867D01*
X017454Y014867D01*
X017454Y014509D01*
X017454Y014814D02*
X017417Y014814D01*
X017832Y014814D02*
X018654Y014814D01*
X018654Y014656D02*
X017830Y014656D01*
X017832Y014973D02*
X018654Y014973D01*
X018654Y015131D02*
X017825Y015131D01*
X017782Y015290D02*
X018654Y015290D01*
X018654Y015448D02*
X017792Y015448D01*
X017792Y015607D02*
X018654Y015607D01*
X018654Y015765D02*
X017792Y015765D01*
X017696Y015924D02*
X018712Y015924D01*
X018617Y016875D02*
X020960Y016875D01*
X020960Y017033D02*
X020487Y017033D01*
X020717Y017192D02*
X020960Y017192D01*
X020960Y017350D02*
X020801Y017350D01*
X020823Y017509D02*
X020960Y017509D01*
X020960Y017667D02*
X020795Y017667D01*
X020703Y017826D02*
X020960Y017826D01*
X020960Y017984D02*
X020452Y017984D01*
X020707Y019094D02*
X020960Y019094D01*
X020960Y019252D02*
X020817Y019252D01*
X020860Y019411D02*
X020960Y019411D01*
X020863Y019508D02*
X020863Y019512D01*
X020850Y019595D01*
X020824Y019674D01*
X020786Y019749D01*
X020737Y019817D01*
X020677Y019876D01*
X020609Y019925D01*
X020535Y019963D01*
X020455Y019989D01*
X020372Y020002D01*
X020015Y020002D01*
X020015Y019508D01*
X020863Y019508D01*
X020854Y019569D02*
X020960Y019569D01*
X020960Y019728D02*
X020797Y019728D01*
X020663Y019886D02*
X020960Y019886D01*
X020960Y020996D02*
X020548Y020996D01*
X020743Y021154D02*
X020960Y021154D01*
X020960Y021313D02*
X020811Y021313D01*
X020823Y021471D02*
X020960Y021471D01*
X020960Y021630D02*
X020784Y021630D01*
X020677Y021788D02*
X020960Y021788D01*
X020960Y021947D02*
X020134Y021947D01*
X019976Y022105D02*
X020960Y022105D01*
X020960Y022264D02*
X019817Y022264D01*
X019659Y022422D02*
X020960Y022422D01*
X020960Y022581D02*
X019500Y022581D01*
X019342Y022739D02*
X020960Y022739D01*
X020960Y022898D02*
X019183Y022898D01*
X019303Y023056D02*
X019025Y023056D01*
X019162Y023207D02*
X019211Y023139D01*
X019271Y023080D01*
X019338Y023030D01*
X019413Y022992D01*
X019493Y022966D01*
X019576Y022953D01*
X019932Y022953D01*
X019932Y023448D01*
X019085Y023448D01*
X019085Y023444D01*
X019098Y023361D01*
X019124Y023281D01*
X019162Y023207D01*
X019158Y023215D02*
X018866Y023215D01*
X018708Y023373D02*
X019096Y023373D01*
X019085Y023523D02*
X019932Y023523D01*
X019932Y023448D01*
X020008Y023448D01*
X020008Y023523D01*
X020855Y023523D01*
X020855Y023528D01*
X020842Y023610D01*
X020816Y023690D01*
X020778Y023765D01*
X020729Y023833D01*
X020669Y023892D01*
X020602Y023941D01*
X020527Y023979D01*
X020447Y024005D01*
X020364Y024018D01*
X020008Y024018D01*
X020008Y023523D01*
X019932Y023523D01*
X019932Y024018D01*
X019576Y024018D01*
X019493Y024005D01*
X019413Y023979D01*
X019338Y023941D01*
X019271Y023892D01*
X019211Y023833D01*
X019162Y023765D01*
X019124Y023690D01*
X019098Y023610D01*
X019085Y023528D01*
X019085Y023523D01*
X019086Y023532D02*
X018549Y023532D01*
X018391Y023690D02*
X019124Y023690D01*
X019227Y023849D02*
X018232Y023849D01*
X018069Y024007D02*
X019506Y024007D01*
X019932Y024007D02*
X020008Y024007D01*
X020008Y023849D02*
X019932Y023849D01*
X019932Y023690D02*
X020008Y023690D01*
X020008Y023532D02*
X019932Y023532D01*
X020008Y023448D02*
X020008Y022953D01*
X020364Y022953D01*
X020447Y022966D01*
X020527Y022992D01*
X020602Y023030D01*
X020669Y023080D01*
X020729Y023139D01*
X020778Y023207D01*
X020816Y023281D01*
X020842Y023361D01*
X020855Y023444D01*
X020855Y023448D01*
X020008Y023448D01*
X020008Y023373D02*
X019932Y023373D01*
X019932Y023215D02*
X020008Y023215D01*
X020008Y023056D02*
X019932Y023056D01*
X020434Y024007D02*
X020960Y024007D01*
X020960Y023849D02*
X020713Y023849D01*
X020816Y023690D02*
X020960Y023690D01*
X020960Y023532D02*
X020854Y023532D01*
X020844Y023373D02*
X020960Y023373D01*
X020960Y023215D02*
X020782Y023215D01*
X020637Y023056D02*
X020960Y023056D01*
X020960Y025117D02*
X020681Y025117D01*
X020781Y025275D02*
X020960Y025275D01*
X020960Y025434D02*
X020815Y025434D01*
X020798Y025592D02*
X020960Y025592D01*
X020960Y025751D02*
X020723Y025751D01*
X020511Y025909D02*
X020960Y025909D01*
X021280Y026543D02*
X021432Y026543D01*
X021432Y026702D02*
X021122Y026702D01*
X020963Y026860D02*
X021432Y026860D01*
X021432Y027019D02*
X020805Y027019D01*
X020710Y027177D02*
X021432Y027177D01*
X021432Y027336D02*
X020793Y027336D01*
X020815Y027494D02*
X021432Y027494D01*
X021432Y027653D02*
X020786Y027653D01*
X020694Y027811D02*
X021432Y027811D01*
X021432Y027970D02*
X020441Y027970D01*
X020364Y028922D02*
X020008Y028922D01*
X020008Y029417D01*
X020008Y029492D01*
X020855Y029492D01*
X020855Y029496D01*
X020842Y029579D01*
X020816Y029659D01*
X020778Y029733D01*
X020729Y029801D01*
X020669Y029860D01*
X020602Y029910D01*
X020527Y029948D01*
X020447Y029974D01*
X020364Y029987D01*
X020008Y029987D01*
X020008Y029492D01*
X019932Y029492D01*
X019932Y029417D01*
X019085Y029417D01*
X019085Y029412D01*
X019098Y029330D01*
X019124Y029250D01*
X019162Y029175D01*
X019211Y029107D01*
X019271Y029048D01*
X019338Y028999D01*
X019413Y028961D01*
X019493Y028935D01*
X019576Y028922D01*
X019932Y028922D01*
X019932Y029417D01*
X020008Y029417D01*
X020855Y029417D01*
X020855Y029412D01*
X020842Y029330D01*
X020816Y029250D01*
X020778Y029175D01*
X020729Y029107D01*
X020669Y029048D01*
X020602Y028999D01*
X020527Y028961D01*
X020447Y028935D01*
X020364Y028922D01*
X020008Y029079D02*
X019932Y029079D01*
X019932Y029238D02*
X020008Y029238D01*
X020008Y029396D02*
X019932Y029396D01*
X019932Y029492D02*
X019085Y029492D01*
X019085Y029496D01*
X019098Y029579D01*
X019124Y029659D01*
X019162Y029733D01*
X019211Y029801D01*
X019271Y029860D01*
X019338Y029910D01*
X019413Y029948D01*
X019493Y029974D01*
X019576Y029987D01*
X019932Y029987D01*
X019932Y029492D01*
X019932Y029555D02*
X020008Y029555D01*
X020008Y029713D02*
X019932Y029713D01*
X019932Y029872D02*
X020008Y029872D01*
X020654Y029872D02*
X021432Y029872D01*
X021432Y030030D02*
X007023Y030030D01*
X006864Y029872D02*
X019286Y029872D01*
X019152Y029713D02*
X006706Y029713D01*
X006547Y029555D02*
X019094Y029555D01*
X019088Y029396D02*
X010724Y029396D01*
X010724Y029238D02*
X019130Y029238D01*
X019239Y029079D02*
X010724Y029079D01*
X010724Y028921D02*
X021432Y028921D01*
X021432Y029079D02*
X020701Y029079D01*
X020810Y029238D02*
X021432Y029238D01*
X021432Y029396D02*
X020852Y029396D01*
X020846Y029555D02*
X021432Y029555D01*
X021432Y029713D02*
X020788Y029713D01*
X021432Y030189D02*
X015214Y030189D01*
X015235Y030347D02*
X021432Y030347D01*
X021432Y030506D02*
X015235Y030506D01*
X015235Y030664D02*
X021432Y030664D01*
X021432Y030823D02*
X016338Y030823D01*
X016393Y030981D02*
X021432Y030981D01*
X021432Y031140D02*
X016393Y031140D01*
X016393Y031298D02*
X021432Y031298D01*
X021432Y031457D02*
X015235Y031457D01*
X015235Y031615D02*
X021432Y031615D01*
X021432Y031774D02*
X015235Y031774D01*
X015235Y031932D02*
X021432Y031932D01*
X021432Y032091D02*
X015040Y032091D01*
X015040Y032249D02*
X021432Y032249D01*
X021432Y032408D02*
X015040Y032408D01*
X015040Y032566D02*
X021432Y032566D01*
X021432Y032725D02*
X015040Y032725D01*
X015040Y032883D02*
X021432Y032883D01*
X021432Y033042D02*
X015040Y033042D01*
X015040Y033200D02*
X021432Y033200D01*
X021432Y033359D02*
X015040Y033359D01*
X015040Y033517D02*
X021432Y033517D01*
X021432Y033676D02*
X015040Y033676D01*
X015040Y033834D02*
X021432Y033834D01*
X021432Y033993D02*
X015040Y033993D01*
X015030Y034151D02*
X021432Y034151D01*
X021432Y034310D02*
X014913Y034310D01*
X014755Y034468D02*
X021432Y034468D01*
X021432Y034627D02*
X014596Y034627D01*
X014438Y034785D02*
X021432Y034785D01*
X021432Y034944D02*
X018561Y034944D01*
X018741Y034985D02*
X018253Y034873D01*
X018253Y034873D01*
X017754Y034911D01*
X017754Y034911D01*
X017287Y035094D01*
X017287Y035094D01*
X016896Y035406D01*
X016896Y035406D01*
X016896Y035406D01*
X016614Y035820D01*
X016614Y035820D01*
X016466Y036298D01*
X016466Y036799D01*
X016614Y037278D01*
X016614Y037278D01*
X016896Y037691D01*
X016896Y037691D01*
X016896Y037691D01*
X017287Y038004D01*
X017287Y038004D01*
X017754Y038187D01*
X017754Y038187D01*
X018253Y038224D01*
X018253Y038224D01*
X018741Y038113D01*
X018741Y038113D01*
X019175Y037862D01*
X019175Y037862D01*
X019516Y037495D01*
X019516Y037495D01*
X019733Y037044D01*
X019807Y036549D01*
X019807Y036549D01*
X019733Y036054D01*
X019733Y036054D01*
X019516Y035602D01*
X019516Y035602D01*
X019175Y035235D01*
X019175Y035235D01*
X018741Y034985D01*
X018741Y034985D01*
X018945Y035102D02*
X021432Y035102D01*
X021432Y035261D02*
X019199Y035261D01*
X019346Y035419D02*
X021432Y035419D01*
X021432Y035578D02*
X019493Y035578D01*
X019580Y035736D02*
X021432Y035736D01*
X021432Y035895D02*
X019656Y035895D01*
X019733Y036053D02*
X021432Y036053D01*
X021432Y036212D02*
X019757Y036212D01*
X019781Y036370D02*
X021432Y036370D01*
X021432Y036529D02*
X019804Y036529D01*
X019787Y036687D02*
X021432Y036687D01*
X021432Y036846D02*
X019763Y036846D01*
X019739Y037004D02*
X021432Y037004D01*
X021432Y037163D02*
X019676Y037163D01*
X019599Y037321D02*
X021425Y037321D01*
X021415Y037480D02*
X019523Y037480D01*
X019383Y037638D02*
X021384Y037638D01*
X021352Y037797D02*
X019236Y037797D01*
X019014Y037955D02*
X021321Y037955D01*
X021274Y038114D02*
X018736Y038114D01*
X017568Y038114D02*
X011730Y038114D01*
X011730Y038272D02*
X021208Y038272D01*
X021142Y038431D02*
X011730Y038431D01*
X011730Y037955D02*
X017227Y037955D01*
X017028Y037797D02*
X011730Y037797D01*
X011730Y037638D02*
X011942Y037638D01*
X012498Y037638D02*
X016860Y037638D01*
X016752Y037480D02*
X012577Y037480D01*
X012577Y037321D02*
X016644Y037321D01*
X016578Y037163D02*
X012577Y037163D01*
X012531Y037004D02*
X016530Y037004D01*
X016481Y036846D02*
X012577Y036846D01*
X012577Y036687D02*
X016466Y036687D01*
X016466Y036529D02*
X012694Y036529D01*
X012853Y036370D02*
X016466Y036370D01*
X016493Y036212D02*
X013011Y036212D01*
X013170Y036053D02*
X016542Y036053D01*
X016591Y035895D02*
X013328Y035895D01*
X013487Y035736D02*
X016671Y035736D01*
X016779Y035578D02*
X013645Y035578D01*
X013804Y035419D02*
X016887Y035419D01*
X017078Y035261D02*
X013962Y035261D01*
X014121Y035102D02*
X017277Y035102D01*
X017670Y034944D02*
X014279Y034944D01*
X014019Y034468D02*
X010732Y034468D01*
X010732Y034310D02*
X014178Y034310D01*
X014336Y034151D02*
X010769Y034151D01*
X010732Y034627D02*
X013861Y034627D01*
X013702Y034785D02*
X010732Y034785D01*
X010732Y034944D02*
X013544Y034944D01*
X013385Y035102D02*
X010732Y035102D01*
X010732Y035261D02*
X013227Y035261D01*
X013068Y035419D02*
X011760Y035419D01*
X011770Y035578D02*
X012910Y035578D01*
X012751Y035736D02*
X011770Y035736D01*
X011770Y035895D02*
X012593Y035895D01*
X012434Y036053D02*
X011770Y036053D01*
X011770Y035915D02*
X011472Y035915D01*
X011472Y035915D01*
X011770Y035915D01*
X011770Y036212D02*
X012276Y036212D01*
X011874Y036370D02*
X011770Y036370D01*
X011863Y036529D02*
X011271Y036529D01*
X011472Y036370D02*
X011472Y036370D01*
X011472Y036212D02*
X011472Y036212D01*
X011472Y036053D02*
X011472Y036053D01*
X011472Y035915D02*
X011472Y035302D01*
X011472Y035915D01*
X011472Y035915D01*
X011472Y035895D02*
X011472Y035895D01*
X011472Y035736D02*
X011472Y035736D01*
X011472Y035578D02*
X011472Y035578D01*
X011472Y035419D02*
X011472Y035419D01*
X010712Y036529D02*
X009522Y036529D01*
X009522Y036647D02*
X009510Y036693D01*
X009486Y036734D01*
X009453Y036768D01*
X009412Y036791D01*
X009366Y036804D01*
X009065Y036804D01*
X009065Y036386D01*
X008910Y036386D01*
X008910Y036231D01*
X008453Y036231D01*
X008453Y035970D01*
X008466Y035924D01*
X008489Y035883D01*
X008523Y035850D01*
X008564Y035826D01*
X008610Y035814D01*
X008910Y035814D01*
X008910Y036231D01*
X009065Y036231D01*
X009065Y035814D01*
X009366Y035814D01*
X009412Y035826D01*
X009453Y035850D01*
X009486Y035883D01*
X009510Y035924D01*
X009522Y035970D01*
X009522Y036231D01*
X009065Y036231D01*
X009065Y036386D01*
X009522Y036386D01*
X009522Y036647D01*
X009511Y036687D02*
X010728Y036687D01*
X010853Y036846D02*
X007105Y036846D01*
X007081Y037004D02*
X008527Y037004D01*
X008493Y037163D02*
X007018Y037163D01*
X007075Y037044D02*
X006858Y037495D01*
X006858Y037495D01*
X006517Y037862D01*
X006084Y038113D01*
X006084Y038113D01*
X005596Y038224D01*
X005596Y038224D01*
X005096Y038187D01*
X004630Y038004D01*
X004238Y037691D01*
X003956Y037278D01*
X003956Y037278D01*
X003809Y036799D01*
X003809Y036298D01*
X003956Y035820D01*
X004238Y035406D01*
X004238Y035406D01*
X004630Y035094D01*
X005096Y034911D01*
X005096Y034911D01*
X005596Y034873D01*
X006084Y034985D01*
X006517Y035235D01*
X006517Y035235D01*
X006858Y035602D01*
X006858Y035602D01*
X007075Y036054D01*
X007150Y036549D01*
X007075Y037044D01*
X007075Y037044D01*
X006942Y037321D02*
X007672Y037321D01*
X007672Y037480D02*
X006865Y037480D01*
X006725Y037638D02*
X007672Y037638D01*
X007129Y036687D02*
X008464Y036687D01*
X008466Y036693D02*
X008453Y036647D01*
X008453Y036386D01*
X008910Y036386D01*
X008910Y036804D01*
X008610Y036804D01*
X008564Y036791D01*
X008523Y036768D01*
X008489Y036734D01*
X008466Y036693D01*
X008453Y036529D02*
X007147Y036529D01*
X007123Y036370D02*
X008910Y036370D01*
X009065Y036370D02*
X009714Y036370D01*
X009714Y036212D02*
X009522Y036212D01*
X009522Y036053D02*
X009714Y036053D01*
X009712Y035895D02*
X009493Y035895D01*
X009712Y035736D02*
X006923Y035736D01*
X006999Y035895D02*
X008483Y035895D01*
X008453Y036053D02*
X007075Y036053D01*
X007075Y036054D02*
X007075Y036054D01*
X007099Y036212D02*
X008453Y036212D01*
X008910Y036212D02*
X009065Y036212D01*
X009065Y036053D02*
X008910Y036053D01*
X008910Y035895D02*
X009065Y035895D01*
X009065Y036529D02*
X008910Y036529D01*
X008910Y036687D02*
X009065Y036687D01*
X009448Y037004D02*
X011012Y037004D01*
X009915Y037157D02*
X009915Y037157D01*
X009910Y037163D02*
X009482Y037163D01*
X009699Y037321D02*
X009751Y037321D01*
X009823Y037250D02*
X009823Y037250D01*
X009597Y037955D02*
X006356Y037955D01*
X006517Y037862D02*
X006517Y037862D01*
X006578Y037797D02*
X008506Y037797D01*
X009714Y038114D02*
X006079Y038114D01*
X005096Y038187D02*
X005096Y038187D01*
X004910Y038114D02*
X002265Y038114D01*
X002218Y037955D02*
X004569Y037955D01*
X004630Y038004D02*
X004630Y038004D01*
X004371Y037797D02*
X002186Y037797D01*
X002155Y037638D02*
X004202Y037638D01*
X004238Y037691D02*
X004238Y037691D01*
X004094Y037480D02*
X002123Y037480D01*
X002114Y037321D02*
X003986Y037321D01*
X003921Y037163D02*
X002107Y037163D01*
X002107Y037004D02*
X003872Y037004D01*
X003823Y036846D02*
X002107Y036846D01*
X002107Y036687D02*
X003809Y036687D01*
X003809Y036529D02*
X002107Y036529D01*
X002107Y036370D02*
X003809Y036370D01*
X003835Y036212D02*
X002107Y036212D01*
X002107Y036053D02*
X003884Y036053D01*
X003933Y035895D02*
X002107Y035895D01*
X002107Y035736D02*
X004013Y035736D01*
X004121Y035578D02*
X002107Y035578D01*
X002107Y035419D02*
X004229Y035419D01*
X004421Y035261D02*
X002107Y035261D01*
X002107Y035102D02*
X004619Y035102D01*
X005012Y034944D02*
X002107Y034944D01*
X002107Y034785D02*
X009418Y034785D01*
X009576Y034944D02*
X005904Y034944D01*
X006084Y034985D02*
X006084Y034985D01*
X006287Y035102D02*
X009712Y035102D01*
X009712Y035261D02*
X006541Y035261D01*
X006688Y035419D02*
X009712Y035419D01*
X009712Y035578D02*
X006835Y035578D01*
X007047Y033676D02*
X002107Y033676D01*
X002107Y033834D02*
X008467Y033834D01*
X008625Y033993D02*
X002107Y033993D01*
X002107Y034151D02*
X008784Y034151D01*
X008942Y034310D02*
X002107Y034310D01*
X002107Y034468D02*
X009101Y034468D01*
X009259Y034627D02*
X002107Y034627D01*
X002107Y033517D02*
X007047Y033517D01*
X007047Y033359D02*
X002107Y033359D01*
X002107Y033200D02*
X007100Y033200D01*
X007643Y033676D02*
X008197Y033676D01*
X008233Y033042D02*
X002107Y033042D01*
X002107Y032883D02*
X008174Y032883D01*
X008174Y032725D02*
X002107Y032725D01*
X002107Y032566D02*
X008174Y032566D01*
X008241Y032408D02*
X002107Y032408D01*
X002107Y032249D02*
X009333Y032249D01*
X009336Y032255D02*
X009312Y032214D01*
X009300Y032168D01*
X009300Y031818D01*
X009688Y031818D01*
X009688Y031722D01*
X009784Y031722D01*
X009784Y031818D01*
X010172Y031818D01*
X010172Y032168D01*
X010159Y032214D01*
X010136Y032255D01*
X010102Y032288D01*
X010061Y032312D01*
X010015Y032324D01*
X009784Y032324D01*
X009784Y031818D01*
X009688Y031818D01*
X009688Y032324D01*
X009456Y032324D01*
X009410Y032312D01*
X009369Y032288D01*
X009336Y032255D01*
X009300Y032091D02*
X002107Y032091D01*
X002107Y031932D02*
X009300Y031932D01*
X009300Y031722D02*
X009300Y031372D01*
X009312Y031327D01*
X009336Y031286D01*
X009369Y031252D01*
X009410Y031228D01*
X009456Y031216D01*
X009688Y031216D01*
X009688Y031722D01*
X009300Y031722D01*
X009300Y031615D02*
X002107Y031615D01*
X002107Y031457D02*
X009300Y031457D01*
X009329Y031298D02*
X002107Y031298D01*
X002107Y031140D02*
X014325Y031140D01*
X014325Y031298D02*
X011092Y031298D01*
X011132Y031457D02*
X014325Y031457D01*
X014325Y031615D02*
X011132Y031615D01*
X011132Y031774D02*
X014325Y031774D01*
X014325Y031932D02*
X011132Y031932D01*
X011132Y032091D02*
X011626Y032091D01*
X011641Y032076D02*
X011682Y032052D01*
X011728Y032040D01*
X011950Y032040D01*
X011950Y032398D01*
X011571Y032398D01*
X011571Y032196D01*
X011584Y032151D01*
X011607Y032109D01*
X011641Y032076D01*
X011571Y032249D02*
X011085Y032249D01*
X010985Y032408D02*
X011950Y032408D01*
X011986Y032408D02*
X014520Y032408D01*
X014520Y032566D02*
X012365Y032566D01*
X012328Y032725D02*
X014520Y032725D01*
X014520Y032883D02*
X012325Y032883D01*
X012325Y033042D02*
X014520Y033042D01*
X014520Y033200D02*
X012325Y033200D01*
X012307Y033359D02*
X014520Y033359D01*
X014520Y033517D02*
X011905Y033517D01*
X011746Y033676D02*
X014520Y033676D01*
X014520Y033834D02*
X011588Y033834D01*
X011429Y033993D02*
X014495Y033993D01*
X014520Y032249D02*
X012365Y032249D01*
X012310Y032091D02*
X014520Y032091D01*
X014325Y030981D02*
X002107Y030981D01*
X002107Y030823D02*
X014325Y030823D01*
X014346Y030189D02*
X007181Y030189D01*
X006922Y030664D02*
X002107Y030664D01*
X002107Y030506D02*
X006763Y030506D01*
X006605Y030347D02*
X002107Y030347D01*
X002107Y030189D02*
X006446Y030189D01*
X006288Y030030D02*
X002107Y030030D01*
X002107Y029872D02*
X006129Y029872D01*
X005971Y029713D02*
X002107Y029713D01*
X002107Y029555D02*
X005812Y029555D01*
X005654Y029396D02*
X002107Y029396D01*
X002107Y029238D02*
X005495Y029238D01*
X005337Y029079D02*
X002107Y029079D01*
X002107Y028921D02*
X005178Y028921D01*
X005125Y028762D02*
X002107Y028762D01*
X002107Y028604D02*
X005125Y028604D01*
X005125Y028445D02*
X002107Y028445D01*
X002107Y028287D02*
X005125Y028287D01*
X005125Y028128D02*
X002107Y028128D01*
X002107Y027970D02*
X005125Y027970D01*
X005115Y027811D02*
X002107Y027811D01*
X002107Y027653D02*
X005049Y027653D01*
X005042Y027494D02*
X002107Y027494D01*
X002107Y027336D02*
X003190Y027336D01*
X003188Y027328D02*
X003188Y027067D01*
X003644Y027067D01*
X003644Y026912D01*
X003188Y026912D01*
X003188Y026651D01*
X003200Y026605D01*
X003224Y026564D01*
X003257Y026531D01*
X003298Y026507D01*
X003344Y026495D01*
X003644Y026495D01*
X003644Y026912D01*
X003799Y026912D01*
X003799Y026495D01*
X004100Y026495D01*
X004146Y026507D01*
X004187Y026531D01*
X004220Y026564D01*
X004244Y026605D01*
X004256Y026651D01*
X004256Y026912D01*
X003799Y026912D01*
X003799Y027067D01*
X003644Y027067D01*
X003644Y027485D01*
X003344Y027485D01*
X003298Y027472D01*
X003257Y027449D01*
X003224Y027415D01*
X003200Y027374D01*
X003188Y027328D01*
X003188Y027177D02*
X002107Y027177D01*
X002107Y027019D02*
X003644Y027019D01*
X003799Y027019D02*
X004991Y027019D01*
X004991Y027177D02*
X004256Y027177D01*
X004256Y027067D02*
X004256Y027328D01*
X004244Y027374D01*
X004220Y027415D01*
X004187Y027449D01*
X004146Y027472D01*
X004100Y027485D01*
X003799Y027485D01*
X003799Y027067D01*
X004256Y027067D01*
X004256Y026860D02*
X004991Y026860D01*
X004991Y026702D02*
X004256Y026702D01*
X004199Y026543D02*
X004991Y026543D01*
X004991Y026385D02*
X002107Y026385D01*
X002107Y026543D02*
X003245Y026543D01*
X003188Y026702D02*
X002107Y026702D01*
X002107Y026860D02*
X003188Y026860D01*
X003228Y026226D02*
X002107Y026226D01*
X002107Y026068D02*
X003228Y026068D01*
X003228Y025909D02*
X002107Y025909D01*
X002107Y025751D02*
X003228Y025751D01*
X003228Y025592D02*
X002107Y025592D01*
X002107Y025434D02*
X003308Y025434D01*
X003966Y025275D02*
X002107Y025275D01*
X002107Y025117D02*
X004125Y025117D01*
X004385Y025592D02*
X004970Y025592D01*
X004895Y025751D02*
X004226Y025751D01*
X004216Y025909D02*
X004895Y025909D01*
X004895Y026068D02*
X004216Y026068D01*
X004216Y026226D02*
X004935Y026226D01*
X004991Y027336D02*
X004254Y027336D01*
X003799Y027336D02*
X003644Y027336D01*
X003644Y027177D02*
X003799Y027177D01*
X003799Y026860D02*
X003644Y026860D01*
X003644Y026702D02*
X003799Y026702D01*
X003799Y026543D02*
X003644Y026543D01*
X004944Y024958D02*
X002107Y024958D01*
X002107Y024800D02*
X006106Y024800D01*
X006106Y024641D02*
X002107Y024641D01*
X002107Y024483D02*
X006151Y024483D01*
X006148Y024958D02*
X005559Y024958D01*
X005533Y025592D02*
X006146Y025592D01*
X006146Y025751D02*
X005608Y025751D01*
X005608Y025909D02*
X006156Y025909D01*
X006146Y026068D02*
X005608Y026068D01*
X005568Y026226D02*
X006146Y026226D01*
X006146Y026385D02*
X005511Y026385D01*
X005511Y026543D02*
X007252Y026543D01*
X007252Y026702D02*
X005511Y026702D01*
X005511Y026860D02*
X007252Y026860D01*
X007252Y027019D02*
X005511Y027019D01*
X005704Y027177D02*
X005736Y027177D01*
X005785Y027811D02*
X005655Y027811D01*
X005645Y027970D02*
X007252Y027970D01*
X007252Y028128D02*
X005645Y028128D01*
X005645Y028287D02*
X007178Y028287D01*
X007175Y028445D02*
X005645Y028445D01*
X005645Y028604D02*
X007175Y028604D01*
X007175Y028762D02*
X005755Y028762D01*
X005913Y028921D02*
X007871Y028921D01*
X008163Y028921D02*
X008200Y028921D01*
X008200Y028960D02*
X008200Y028582D01*
X008558Y028582D01*
X008558Y028804D01*
X008546Y028850D01*
X008523Y028891D01*
X008489Y028924D01*
X008448Y028948D01*
X008402Y028960D01*
X008200Y028960D01*
X008200Y028762D02*
X008163Y028762D01*
X008163Y028604D02*
X008200Y028604D01*
X008200Y028445D02*
X008163Y028445D01*
X008163Y028287D02*
X008200Y028287D01*
X008492Y028921D02*
X008672Y028921D01*
X008672Y028924D02*
X008672Y028623D01*
X008684Y028578D01*
X008708Y028537D01*
X008741Y028503D01*
X008782Y028479D01*
X008828Y028467D01*
X009089Y028467D01*
X009089Y028924D01*
X008672Y028924D01*
X008672Y029079D02*
X009089Y029079D01*
X009089Y028924D01*
X009244Y028924D01*
X009244Y028467D01*
X009506Y028467D01*
X009551Y028479D01*
X009592Y028503D01*
X009626Y028537D01*
X009650Y028578D01*
X009662Y028623D01*
X009662Y028924D01*
X009244Y028924D01*
X009244Y029079D01*
X009089Y029079D01*
X009089Y029536D01*
X008828Y029536D01*
X008782Y029524D01*
X008741Y029500D01*
X008708Y029466D01*
X008684Y029425D01*
X008672Y029380D01*
X008672Y029079D01*
X006072Y029079D01*
X006230Y029238D02*
X008672Y029238D01*
X008676Y029396D02*
X006389Y029396D01*
X006325Y027811D02*
X007252Y027811D01*
X007175Y027653D02*
X007018Y027653D01*
X007018Y027494D02*
X007175Y027494D01*
X007175Y027336D02*
X007018Y027336D01*
X006942Y027177D02*
X007175Y027177D01*
X007772Y027019D02*
X009460Y027019D01*
X009460Y026860D02*
X007772Y026860D01*
X007772Y026702D02*
X009460Y026702D01*
X009297Y027177D02*
X008518Y027177D01*
X007772Y027811D02*
X010374Y027811D01*
X010535Y027970D02*
X007772Y027970D01*
X007772Y028128D02*
X010444Y028128D01*
X010286Y028287D02*
X008549Y028287D01*
X008558Y028445D02*
X010127Y028445D01*
X009814Y028604D02*
X009657Y028604D01*
X009662Y028762D02*
X009814Y028762D01*
X009814Y028921D02*
X009662Y028921D01*
X009662Y029079D02*
X009244Y029079D01*
X009244Y029536D01*
X009506Y029536D01*
X009551Y029524D01*
X009592Y029500D01*
X009626Y029466D01*
X009650Y029425D01*
X009662Y029380D01*
X009662Y029079D01*
X009814Y029079D01*
X009814Y029238D02*
X009662Y029238D01*
X009657Y029396D02*
X009814Y029396D01*
X009244Y029396D02*
X009089Y029396D01*
X009089Y029238D02*
X009244Y029238D01*
X009244Y029079D02*
X009089Y029079D01*
X009089Y028921D02*
X009244Y028921D01*
X009244Y028762D02*
X009089Y028762D01*
X009089Y028604D02*
X009244Y028604D01*
X008677Y028604D02*
X008558Y028604D01*
X008558Y028762D02*
X008672Y028762D01*
X009784Y031216D02*
X010015Y031216D01*
X010061Y031228D01*
X010102Y031252D01*
X010136Y031286D01*
X010159Y031327D01*
X010172Y031372D01*
X010172Y031722D01*
X009784Y031722D01*
X009784Y031216D01*
X009784Y031298D02*
X009688Y031298D01*
X009688Y031457D02*
X009784Y031457D01*
X009784Y031615D02*
X009688Y031615D01*
X009688Y031774D02*
X002107Y031774D01*
X005596Y034873D02*
X005596Y034873D01*
X002941Y039223D02*
X020597Y039223D01*
X020755Y039065D02*
X002783Y039065D01*
X002676Y038906D02*
X020862Y038906D01*
X020968Y038748D02*
X002570Y038748D01*
X002465Y038589D02*
X021074Y038589D01*
X020438Y039382D02*
X003100Y039382D01*
X003291Y039540D02*
X020247Y039540D01*
X020010Y039699D02*
X003528Y039699D01*
X003820Y039857D02*
X019718Y039857D01*
X019335Y040016D02*
X004203Y040016D01*
X002396Y038431D02*
X009714Y038431D01*
X009714Y038272D02*
X002330Y038272D01*
X006373Y027177D02*
X006498Y027177D01*
X006721Y024641D02*
X006722Y024641D01*
X006721Y024483D02*
X006722Y024483D01*
X006426Y023373D02*
X002107Y023373D01*
X002107Y023215D02*
X006426Y023215D01*
X005922Y022739D02*
X005768Y022739D01*
X005768Y022581D02*
X005922Y022581D01*
X005922Y022422D02*
X005768Y022422D01*
X005768Y022105D02*
X005922Y022105D01*
X005922Y021947D02*
X005768Y021947D01*
X005768Y021788D02*
X005922Y021788D01*
X006268Y021788D02*
X011960Y021788D01*
X011960Y021947D02*
X006379Y021947D01*
X006379Y022105D02*
X011960Y022105D01*
X011268Y027970D02*
X019499Y027970D01*
X021432Y028128D02*
X011268Y028128D01*
X011021Y028287D02*
X021432Y028287D01*
X021432Y028445D02*
X010862Y028445D01*
X010724Y028604D02*
X021432Y028604D01*
X021432Y028762D02*
X010724Y028762D01*
X010380Y031298D02*
X010143Y031298D01*
X010172Y031457D02*
X010340Y031457D01*
X010340Y031615D02*
X010172Y031615D01*
X010340Y031774D02*
X009784Y031774D01*
X009784Y031932D02*
X009688Y031932D01*
X009688Y032091D02*
X009784Y032091D01*
X009784Y032249D02*
X009688Y032249D01*
X010139Y032249D02*
X010387Y032249D01*
X010340Y032091D02*
X010172Y032091D01*
X010172Y031932D02*
X010340Y031932D01*
X010290Y032408D02*
X008821Y032408D01*
X008830Y033042D02*
X011611Y033042D01*
X011611Y032883D02*
X010549Y032883D01*
X010708Y032725D02*
X011608Y032725D01*
X011571Y032566D02*
X010866Y032566D01*
X010769Y033359D02*
X011328Y033359D01*
X011486Y033200D02*
X008888Y033200D01*
X008888Y033359D02*
X009702Y033359D01*
X009702Y033517D02*
X008888Y033517D01*
X009043Y033676D02*
X009702Y033676D01*
X009702Y033834D02*
X009202Y033834D01*
X009360Y033993D02*
X009702Y033993D01*
X009702Y034151D02*
X009519Y034151D01*
X009677Y034310D02*
X010212Y034310D01*
X010212Y034468D02*
X009836Y034468D01*
X009994Y034627D02*
X010212Y034627D01*
X010212Y034785D02*
X010153Y034785D01*
X010769Y033517D02*
X011169Y033517D01*
X011950Y032249D02*
X011986Y032249D01*
X011986Y032091D02*
X011950Y032091D01*
X015235Y030823D02*
X015852Y030823D01*
X019940Y019886D02*
X020015Y019886D01*
X020015Y019728D02*
X019940Y019728D01*
X019940Y019569D02*
X020015Y019569D01*
X020015Y019411D02*
X019940Y019411D01*
X019940Y019252D02*
X020015Y019252D01*
X020015Y019094D02*
X019940Y019094D01*
X019239Y017192D02*
X018934Y017192D01*
X018776Y017033D02*
X019469Y017033D01*
X018737Y014497D02*
X016011Y014497D01*
X016076Y014339D02*
X020088Y014339D01*
X020065Y014180D02*
X016085Y014180D01*
X016043Y014022D02*
X018787Y014022D01*
X018583Y013863D02*
X015931Y013863D01*
X015962Y013546D02*
X019270Y013546D01*
X019270Y013550D02*
X019270Y013390D01*
X019430Y013390D01*
X019430Y013388D02*
X019270Y013388D01*
X019270Y013390D02*
X019270Y012857D01*
X019006Y012857D01*
X018911Y012872D01*
X018819Y012902D01*
X018733Y012946D01*
X018655Y013002D01*
X018587Y013071D01*
X016064Y013071D01*
X016085Y013229D02*
X018489Y013229D01*
X018486Y013235D02*
X018530Y013149D01*
X018587Y013071D01*
X018486Y013235D02*
X018457Y013326D01*
X018447Y013390D01*
X019270Y013390D01*
X019270Y013550D02*
X018447Y013550D01*
X018457Y013614D01*
X018486Y013705D01*
X018447Y013388D02*
X016056Y013388D01*
X015980Y012912D02*
X018799Y012912D01*
X018810Y012471D02*
X018765Y012459D01*
X018724Y012435D01*
X018690Y012401D01*
X018666Y012360D01*
X018654Y012315D01*
X018654Y011788D01*
X019062Y011788D01*
X019062Y012471D01*
X018810Y012471D01*
X018727Y012437D02*
X016036Y012437D01*
X016085Y012278D02*
X018654Y012278D01*
X018654Y012120D02*
X016084Y012120D01*
X016018Y011961D02*
X018654Y011961D01*
X018654Y011803D02*
X015868Y011803D01*
X015851Y011644D02*
X018654Y011644D01*
X018654Y011652D02*
X018654Y011125D01*
X018666Y011080D01*
X018690Y011039D01*
X018724Y011005D01*
X018765Y010981D01*
X018766Y010981D01*
X018743Y010968D01*
X018710Y010935D01*
X018686Y010894D01*
X018674Y010848D01*
X018674Y010547D01*
X019091Y010547D01*
X019091Y010393D01*
X018674Y010393D01*
X018674Y010092D01*
X018686Y010046D01*
X018710Y010005D01*
X018743Y009972D01*
X018784Y009948D01*
X018830Y009936D01*
X019091Y009936D01*
X019091Y010393D01*
X019246Y010393D01*
X019246Y010547D01*
X019664Y010547D01*
X019664Y010848D01*
X019652Y010894D01*
X019628Y010935D01*
X019594Y010968D01*
X019553Y010992D01*
X019526Y010999D01*
X019535Y011005D01*
X019569Y011039D01*
X019592Y011080D01*
X019605Y011125D01*
X019605Y011652D01*
X019197Y011652D01*
X019197Y010969D01*
X019246Y010969D01*
X019246Y010547D01*
X019091Y010547D01*
X019091Y011004D01*
X019062Y011004D01*
X019062Y011652D01*
X019197Y011652D01*
X019197Y011788D01*
X019062Y011788D01*
X019062Y011652D01*
X018654Y011652D01*
X018654Y011486D02*
X016015Y011486D01*
X016081Y011327D02*
X018654Y011327D01*
X018654Y011169D02*
X016085Y011169D01*
X016038Y011010D02*
X018719Y011010D01*
X018675Y010852D02*
X015920Y010852D01*
X015733Y010693D02*
X018674Y010693D01*
X018674Y010376D02*
X016061Y010376D01*
X016085Y010218D02*
X018674Y010218D01*
X018683Y010059D02*
X016059Y010059D01*
X015969Y009901D02*
X020200Y009901D01*
X019816Y010059D02*
X019655Y010059D01*
X019652Y010046D02*
X019664Y010092D01*
X019664Y010393D01*
X019246Y010393D01*
X019246Y009936D01*
X019507Y009936D01*
X019553Y009948D01*
X019594Y009972D01*
X019628Y010005D01*
X019652Y010046D01*
X019664Y010218D02*
X019816Y010218D01*
X019816Y010376D02*
X019664Y010376D01*
X019816Y010535D02*
X019246Y010535D01*
X019091Y010535D02*
X015973Y010535D01*
X015913Y012595D02*
X020094Y012595D01*
X020065Y012754D02*
X015750Y012754D01*
X018253Y008145D02*
X018253Y008145D01*
X018741Y008034D02*
X018741Y008034D01*
X019091Y010059D02*
X019246Y010059D01*
X019246Y010218D02*
X019091Y010218D01*
X019091Y010376D02*
X019246Y010376D01*
X019246Y010693D02*
X019091Y010693D01*
X019091Y010852D02*
X019246Y010852D01*
X019197Y011010D02*
X019062Y011010D01*
X019062Y011169D02*
X019197Y011169D01*
X019197Y011327D02*
X019062Y011327D01*
X019062Y011486D02*
X019197Y011486D01*
X019197Y011644D02*
X019062Y011644D01*
X019062Y011803D02*
X019197Y011803D01*
X019197Y011788D02*
X019197Y012471D01*
X019448Y012471D01*
X019494Y012459D01*
X019535Y012435D01*
X019569Y012401D01*
X019592Y012360D01*
X019605Y012315D01*
X019605Y011788D01*
X019197Y011788D01*
X019197Y011961D02*
X019062Y011961D01*
X019062Y012120D02*
X019197Y012120D01*
X019197Y012278D02*
X019062Y012278D01*
X019062Y012437D02*
X019197Y012437D01*
X019532Y012437D02*
X020200Y012437D01*
X020065Y012912D02*
X019901Y012912D01*
X019430Y012912D02*
X019270Y012912D01*
X019270Y013071D02*
X019430Y013071D01*
X019430Y013229D02*
X019270Y013229D01*
X019605Y012278D02*
X019875Y012278D01*
X019875Y012120D02*
X019605Y012120D01*
X019605Y011961D02*
X019875Y011961D01*
X019875Y011803D02*
X019605Y011803D01*
X019605Y011644D02*
X019875Y011644D01*
X019875Y011486D02*
X019605Y011486D01*
X019605Y011327D02*
X019875Y011327D01*
X019875Y011169D02*
X019605Y011169D01*
X019540Y011010D02*
X019956Y011010D01*
X019816Y010852D02*
X019663Y010852D01*
X019664Y010693D02*
X019816Y010693D01*
X020800Y010693D02*
X021432Y010693D01*
X021432Y010535D02*
X020800Y010535D01*
X020800Y010376D02*
X021432Y010376D01*
X021432Y010218D02*
X020800Y010218D01*
X020800Y010059D02*
X021432Y010059D01*
X021432Y009901D02*
X020800Y009901D01*
X020800Y009742D02*
X021432Y009742D01*
X021432Y009584D02*
X020800Y009584D01*
X020800Y009425D02*
X021432Y009425D01*
X021432Y009267D02*
X020721Y009267D01*
X020800Y010852D02*
X021432Y010852D01*
X021432Y011010D02*
X020800Y011010D01*
X020800Y011169D02*
X021432Y011169D01*
X021432Y011327D02*
X020800Y011327D01*
X020800Y011486D02*
X021432Y011486D01*
X021432Y011644D02*
X020800Y011644D01*
X020800Y011803D02*
X021432Y011803D01*
X021432Y011961D02*
X020800Y011961D01*
X020800Y012120D02*
X021432Y012120D01*
X021432Y012278D02*
X020800Y012278D01*
X020800Y012437D02*
X021432Y012437D01*
X021432Y012595D02*
X020905Y012595D01*
X020935Y012754D02*
X021432Y012754D01*
X021432Y012912D02*
X020935Y012912D01*
X020935Y013071D02*
X021432Y013071D01*
X021432Y013229D02*
X020968Y013229D01*
X020974Y013388D02*
X021432Y013388D01*
X021432Y013546D02*
X020974Y013546D01*
X020970Y013705D02*
X021432Y013705D01*
X021432Y013863D02*
X020981Y013863D01*
X021031Y013913D02*
X021031Y013913D01*
X021139Y014022D02*
X021432Y014022D01*
X021432Y014180D02*
X021298Y014180D01*
X021367Y014250D02*
X021367Y014250D01*
X020065Y014022D02*
X019913Y014022D01*
X021077Y004670D02*
X015893Y004670D01*
X016048Y004512D02*
X020971Y004512D01*
X020865Y004353D02*
X016113Y004353D01*
X016125Y004195D02*
X020759Y004195D01*
X020601Y004036D02*
X016093Y004036D01*
X016002Y003878D02*
X020443Y003878D01*
X020254Y003719D02*
X015771Y003719D01*
X015419Y003719D02*
X013893Y003719D01*
X013665Y003561D02*
X020017Y003561D01*
X019729Y003402D02*
X013437Y003402D01*
X013209Y003244D02*
X019346Y003244D01*
X015188Y003878D02*
X014121Y003878D01*
X014349Y004036D02*
X015097Y004036D01*
X015065Y004195D02*
X014576Y004195D01*
X014804Y004353D02*
X015077Y004353D01*
X015032Y004512D02*
X015142Y004512D01*
X015260Y004670D02*
X015297Y004670D01*
X009297Y004670D02*
X003094Y004670D01*
X006084Y004906D02*
X006084Y004906D01*
X008047Y011010D02*
X008062Y011010D01*
X007904Y011169D02*
X007889Y011169D01*
X007745Y011327D02*
X007730Y011327D01*
X007587Y011486D02*
X007572Y011486D01*
X007428Y011644D02*
X007413Y011644D01*
X007270Y011803D02*
X007255Y011803D01*
X007111Y011961D02*
X007096Y011961D01*
X006953Y012120D02*
X006938Y012120D01*
X006794Y012278D02*
X006779Y012278D01*
X006636Y012437D02*
X006621Y012437D01*
X006477Y012595D02*
X006462Y012595D01*
X006319Y012754D02*
X006304Y012754D01*
X006160Y012912D02*
X006145Y012912D01*
X004885Y016082D02*
X004475Y016082D01*
X004317Y016241D02*
X004811Y016241D01*
X004811Y016399D02*
X004105Y016399D01*
X004269Y016289D02*
X004269Y016289D01*
X004546Y018777D02*
X003803Y018777D01*
X003266Y019728D02*
X003226Y019728D01*
X003226Y019886D02*
X003266Y019886D01*
X003266Y020045D02*
X003226Y020045D01*
X003226Y020203D02*
X003266Y020203D01*
X003266Y020362D02*
X003226Y020362D01*
X003226Y020520D02*
X003266Y020520D01*
X002627Y020837D02*
X002107Y020837D01*
X002107Y020996D02*
X002530Y020996D01*
X002506Y021154D02*
X002107Y021154D01*
X002107Y021313D02*
X002540Y021313D01*
X002653Y021471D02*
X002107Y021471D01*
X003838Y021471D02*
X005351Y021471D01*
X005351Y021313D02*
X004995Y021313D01*
X005153Y021154D02*
X005351Y021154D01*
X005422Y021788D02*
X003815Y021788D01*
X003941Y021947D02*
X005311Y021947D01*
X004735Y020837D02*
X003864Y020837D01*
D35*
X019720Y009470D02*
X020500Y009470D01*
X020500Y012880D01*
D36*
X019720Y009470D03*
X009220Y023970D03*
X006720Y027470D03*
X007345Y033470D03*
X007970Y037470D03*
X010970Y027970D03*
X016095Y031095D03*
D37*
X018448Y027486D02*
X016627Y025665D01*
X016627Y023605D02*
X017811Y023605D01*
X019978Y021439D01*
X019970Y027486D02*
X018448Y027486D01*
M02*
