G75*
%MOIN*%
%OFA0B0*%
%FSLAX24Y24*%
%IPPOS*%
%LPD*%
%AMOC8*
5,1,8,0,0,1.08239X$1,22.5*
%
%ADD10C,0.0000*%
%ADD11C,0.0740*%
%ADD12C,0.0600*%
%ADD13C,0.0705*%
%ADD14R,0.0700X0.0700*%
%ADD15C,0.0700*%
%ADD16C,0.0240*%
%ADD17R,0.0317X0.0317*%
D10*
X001927Y006076D02*
X001927Y037179D01*
X001926Y037179D02*
X001928Y037289D01*
X001934Y037399D01*
X001943Y037508D01*
X001957Y037617D01*
X001974Y037726D01*
X001995Y037834D01*
X002020Y037941D01*
X002048Y038047D01*
X002080Y038152D01*
X002116Y038256D01*
X002155Y038359D01*
X002198Y038460D01*
X002245Y038560D01*
X002295Y038658D01*
X002348Y038754D01*
X002405Y038848D01*
X002465Y038940D01*
X002528Y039031D01*
X002594Y039118D01*
X002663Y039204D01*
X002735Y039287D01*
X002810Y039367D01*
X002888Y039445D01*
X002968Y039520D01*
X003051Y039592D01*
X003137Y039661D01*
X003224Y039727D01*
X003315Y039790D01*
X003407Y039850D01*
X003501Y039907D01*
X003597Y039960D01*
X003695Y040010D01*
X003795Y040057D01*
X003896Y040100D01*
X003999Y040139D01*
X004103Y040175D01*
X004208Y040207D01*
X004314Y040235D01*
X004421Y040260D01*
X004529Y040281D01*
X004638Y040298D01*
X004747Y040312D01*
X004856Y040321D01*
X004966Y040327D01*
X005076Y040329D01*
X005076Y040328D02*
X018462Y040328D01*
X018462Y040329D02*
X018572Y040327D01*
X018682Y040321D01*
X018791Y040312D01*
X018900Y040298D01*
X019009Y040281D01*
X019117Y040260D01*
X019224Y040235D01*
X019330Y040207D01*
X019435Y040175D01*
X019539Y040139D01*
X019642Y040100D01*
X019743Y040057D01*
X019843Y040010D01*
X019941Y039960D01*
X020037Y039907D01*
X020131Y039850D01*
X020223Y039790D01*
X020314Y039727D01*
X020401Y039661D01*
X020487Y039592D01*
X020570Y039520D01*
X020650Y039445D01*
X020728Y039367D01*
X020803Y039287D01*
X020875Y039204D01*
X020944Y039118D01*
X021010Y039031D01*
X021073Y038940D01*
X021133Y038848D01*
X021190Y038754D01*
X021243Y038658D01*
X021293Y038560D01*
X021340Y038460D01*
X021383Y038359D01*
X021422Y038256D01*
X021458Y038152D01*
X021490Y038047D01*
X021518Y037941D01*
X021543Y037834D01*
X021564Y037726D01*
X021581Y037617D01*
X021595Y037508D01*
X021604Y037399D01*
X021610Y037289D01*
X021612Y037179D01*
X021612Y006076D01*
X021610Y005966D01*
X021604Y005856D01*
X021595Y005747D01*
X021581Y005638D01*
X021564Y005529D01*
X021543Y005421D01*
X021518Y005314D01*
X021490Y005208D01*
X021458Y005103D01*
X021422Y004999D01*
X021383Y004896D01*
X021340Y004795D01*
X021293Y004695D01*
X021243Y004597D01*
X021190Y004501D01*
X021133Y004407D01*
X021073Y004315D01*
X021010Y004224D01*
X020944Y004137D01*
X020875Y004051D01*
X020803Y003968D01*
X020728Y003888D01*
X020650Y003810D01*
X020570Y003735D01*
X020487Y003663D01*
X020401Y003594D01*
X020314Y003528D01*
X020223Y003465D01*
X020131Y003405D01*
X020037Y003348D01*
X019941Y003295D01*
X019843Y003245D01*
X019743Y003198D01*
X019642Y003155D01*
X019539Y003116D01*
X019435Y003080D01*
X019330Y003048D01*
X019224Y003020D01*
X019117Y002995D01*
X019009Y002974D01*
X018900Y002957D01*
X018791Y002943D01*
X018682Y002934D01*
X018572Y002928D01*
X018462Y002926D01*
X018462Y002927D02*
X005076Y002927D01*
X005076Y002926D02*
X004966Y002928D01*
X004856Y002934D01*
X004747Y002943D01*
X004638Y002957D01*
X004529Y002974D01*
X004421Y002995D01*
X004314Y003020D01*
X004208Y003048D01*
X004103Y003080D01*
X003999Y003116D01*
X003896Y003155D01*
X003795Y003198D01*
X003695Y003245D01*
X003597Y003295D01*
X003501Y003348D01*
X003407Y003405D01*
X003315Y003465D01*
X003224Y003528D01*
X003137Y003594D01*
X003051Y003663D01*
X002968Y003735D01*
X002888Y003810D01*
X002810Y003888D01*
X002735Y003968D01*
X002663Y004051D01*
X002594Y004137D01*
X002528Y004224D01*
X002465Y004315D01*
X002405Y004407D01*
X002348Y004501D01*
X002295Y004597D01*
X002245Y004695D01*
X002198Y004795D01*
X002155Y004896D01*
X002116Y004999D01*
X002080Y005103D01*
X002048Y005208D01*
X002020Y005314D01*
X001995Y005421D01*
X001974Y005529D01*
X001957Y005638D01*
X001943Y005747D01*
X001934Y005856D01*
X001928Y005966D01*
X001926Y006076D01*
X004761Y006470D02*
X004763Y006523D01*
X004769Y006576D01*
X004779Y006628D01*
X004792Y006679D01*
X004810Y006729D01*
X004831Y006778D01*
X004856Y006825D01*
X004884Y006869D01*
X004916Y006912D01*
X004950Y006952D01*
X004988Y006990D01*
X005028Y007024D01*
X005071Y007056D01*
X005116Y007084D01*
X005162Y007109D01*
X005211Y007130D01*
X005261Y007148D01*
X005312Y007161D01*
X005364Y007171D01*
X005417Y007177D01*
X005470Y007179D01*
X005523Y007177D01*
X005576Y007171D01*
X005628Y007161D01*
X005679Y007148D01*
X005729Y007130D01*
X005778Y007109D01*
X005825Y007084D01*
X005869Y007056D01*
X005912Y007024D01*
X005952Y006990D01*
X005990Y006952D01*
X006024Y006912D01*
X006056Y006869D01*
X006084Y006824D01*
X006109Y006778D01*
X006130Y006729D01*
X006148Y006679D01*
X006161Y006628D01*
X006171Y006576D01*
X006177Y006523D01*
X006179Y006470D01*
X006177Y006417D01*
X006171Y006364D01*
X006161Y006312D01*
X006148Y006261D01*
X006130Y006211D01*
X006109Y006162D01*
X006084Y006115D01*
X006056Y006071D01*
X006024Y006028D01*
X005990Y005988D01*
X005952Y005950D01*
X005912Y005916D01*
X005869Y005884D01*
X005824Y005856D01*
X005778Y005831D01*
X005729Y005810D01*
X005679Y005792D01*
X005628Y005779D01*
X005576Y005769D01*
X005523Y005763D01*
X005470Y005761D01*
X005417Y005763D01*
X005364Y005769D01*
X005312Y005779D01*
X005261Y005792D01*
X005211Y005810D01*
X005162Y005831D01*
X005115Y005856D01*
X005071Y005884D01*
X005028Y005916D01*
X004988Y005950D01*
X004950Y005988D01*
X004916Y006028D01*
X004884Y006071D01*
X004856Y006116D01*
X004831Y006162D01*
X004810Y006211D01*
X004792Y006261D01*
X004779Y006312D01*
X004769Y006364D01*
X004763Y006417D01*
X004761Y006470D01*
X009245Y004220D02*
X009247Y004257D01*
X009253Y004294D01*
X009263Y004330D01*
X009276Y004365D01*
X009293Y004398D01*
X009314Y004429D01*
X009338Y004457D01*
X009365Y004483D01*
X009394Y004506D01*
X009425Y004526D01*
X009459Y004542D01*
X009494Y004555D01*
X009530Y004564D01*
X009567Y004569D01*
X009604Y004570D01*
X009641Y004567D01*
X009678Y004560D01*
X009714Y004549D01*
X009748Y004535D01*
X009781Y004517D01*
X009811Y004495D01*
X009839Y004471D01*
X009864Y004443D01*
X009887Y004413D01*
X009906Y004381D01*
X009921Y004347D01*
X009933Y004312D01*
X009941Y004276D01*
X009945Y004239D01*
X009945Y004201D01*
X009941Y004164D01*
X009933Y004128D01*
X009921Y004093D01*
X009906Y004059D01*
X009887Y004027D01*
X009864Y003997D01*
X009839Y003969D01*
X009811Y003945D01*
X009781Y003923D01*
X009748Y003905D01*
X009714Y003891D01*
X009678Y003880D01*
X009641Y003873D01*
X009604Y003870D01*
X009567Y003871D01*
X009530Y003876D01*
X009494Y003885D01*
X009459Y003898D01*
X009425Y003914D01*
X009394Y003934D01*
X009365Y003957D01*
X009338Y003983D01*
X009314Y004011D01*
X009293Y004042D01*
X009276Y004075D01*
X009263Y004110D01*
X009253Y004146D01*
X009247Y004183D01*
X009245Y004220D01*
X015245Y004220D02*
X015247Y004257D01*
X015253Y004294D01*
X015263Y004330D01*
X015276Y004365D01*
X015293Y004398D01*
X015314Y004429D01*
X015338Y004457D01*
X015365Y004483D01*
X015394Y004506D01*
X015425Y004526D01*
X015459Y004542D01*
X015494Y004555D01*
X015530Y004564D01*
X015567Y004569D01*
X015604Y004570D01*
X015641Y004567D01*
X015678Y004560D01*
X015714Y004549D01*
X015748Y004535D01*
X015781Y004517D01*
X015811Y004495D01*
X015839Y004471D01*
X015864Y004443D01*
X015887Y004413D01*
X015906Y004381D01*
X015921Y004347D01*
X015933Y004312D01*
X015941Y004276D01*
X015945Y004239D01*
X015945Y004201D01*
X015941Y004164D01*
X015933Y004128D01*
X015921Y004093D01*
X015906Y004059D01*
X015887Y004027D01*
X015864Y003997D01*
X015839Y003969D01*
X015811Y003945D01*
X015781Y003923D01*
X015748Y003905D01*
X015714Y003891D01*
X015678Y003880D01*
X015641Y003873D01*
X015604Y003870D01*
X015567Y003871D01*
X015530Y003876D01*
X015494Y003885D01*
X015459Y003898D01*
X015425Y003914D01*
X015394Y003934D01*
X015365Y003957D01*
X015338Y003983D01*
X015314Y004011D01*
X015293Y004042D01*
X015276Y004075D01*
X015263Y004110D01*
X015253Y004146D01*
X015247Y004183D01*
X015245Y004220D01*
X017418Y006470D02*
X017420Y006523D01*
X017426Y006576D01*
X017436Y006628D01*
X017449Y006679D01*
X017467Y006729D01*
X017488Y006778D01*
X017513Y006825D01*
X017541Y006869D01*
X017573Y006912D01*
X017607Y006952D01*
X017645Y006990D01*
X017685Y007024D01*
X017728Y007056D01*
X017773Y007084D01*
X017819Y007109D01*
X017868Y007130D01*
X017918Y007148D01*
X017969Y007161D01*
X018021Y007171D01*
X018074Y007177D01*
X018127Y007179D01*
X018180Y007177D01*
X018233Y007171D01*
X018285Y007161D01*
X018336Y007148D01*
X018386Y007130D01*
X018435Y007109D01*
X018482Y007084D01*
X018526Y007056D01*
X018569Y007024D01*
X018609Y006990D01*
X018647Y006952D01*
X018681Y006912D01*
X018713Y006869D01*
X018741Y006824D01*
X018766Y006778D01*
X018787Y006729D01*
X018805Y006679D01*
X018818Y006628D01*
X018828Y006576D01*
X018834Y006523D01*
X018836Y006470D01*
X018834Y006417D01*
X018828Y006364D01*
X018818Y006312D01*
X018805Y006261D01*
X018787Y006211D01*
X018766Y006162D01*
X018741Y006115D01*
X018713Y006071D01*
X018681Y006028D01*
X018647Y005988D01*
X018609Y005950D01*
X018569Y005916D01*
X018526Y005884D01*
X018481Y005856D01*
X018435Y005831D01*
X018386Y005810D01*
X018336Y005792D01*
X018285Y005779D01*
X018233Y005769D01*
X018180Y005763D01*
X018127Y005761D01*
X018074Y005763D01*
X018021Y005769D01*
X017969Y005779D01*
X017918Y005792D01*
X017868Y005810D01*
X017819Y005831D01*
X017772Y005856D01*
X017728Y005884D01*
X017685Y005916D01*
X017645Y005950D01*
X017607Y005988D01*
X017573Y006028D01*
X017541Y006071D01*
X017513Y006116D01*
X017488Y006162D01*
X017467Y006211D01*
X017449Y006261D01*
X017436Y006312D01*
X017426Y006364D01*
X017420Y006417D01*
X017418Y006470D01*
X015245Y020220D02*
X015247Y020257D01*
X015253Y020294D01*
X015263Y020330D01*
X015276Y020365D01*
X015293Y020398D01*
X015314Y020429D01*
X015338Y020457D01*
X015365Y020483D01*
X015394Y020506D01*
X015425Y020526D01*
X015459Y020542D01*
X015494Y020555D01*
X015530Y020564D01*
X015567Y020569D01*
X015604Y020570D01*
X015641Y020567D01*
X015678Y020560D01*
X015714Y020549D01*
X015748Y020535D01*
X015781Y020517D01*
X015811Y020495D01*
X015839Y020471D01*
X015864Y020443D01*
X015887Y020413D01*
X015906Y020381D01*
X015921Y020347D01*
X015933Y020312D01*
X015941Y020276D01*
X015945Y020239D01*
X015945Y020201D01*
X015941Y020164D01*
X015933Y020128D01*
X015921Y020093D01*
X015906Y020059D01*
X015887Y020027D01*
X015864Y019997D01*
X015839Y019969D01*
X015811Y019945D01*
X015781Y019923D01*
X015748Y019905D01*
X015714Y019891D01*
X015678Y019880D01*
X015641Y019873D01*
X015604Y019870D01*
X015567Y019871D01*
X015530Y019876D01*
X015494Y019885D01*
X015459Y019898D01*
X015425Y019914D01*
X015394Y019934D01*
X015365Y019957D01*
X015338Y019983D01*
X015314Y020011D01*
X015293Y020042D01*
X015276Y020075D01*
X015263Y020110D01*
X015253Y020146D01*
X015247Y020183D01*
X015245Y020220D01*
X009245Y020220D02*
X009247Y020257D01*
X009253Y020294D01*
X009263Y020330D01*
X009276Y020365D01*
X009293Y020398D01*
X009314Y020429D01*
X009338Y020457D01*
X009365Y020483D01*
X009394Y020506D01*
X009425Y020526D01*
X009459Y020542D01*
X009494Y020555D01*
X009530Y020564D01*
X009567Y020569D01*
X009604Y020570D01*
X009641Y020567D01*
X009678Y020560D01*
X009714Y020549D01*
X009748Y020535D01*
X009781Y020517D01*
X009811Y020495D01*
X009839Y020471D01*
X009864Y020443D01*
X009887Y020413D01*
X009906Y020381D01*
X009921Y020347D01*
X009933Y020312D01*
X009941Y020276D01*
X009945Y020239D01*
X009945Y020201D01*
X009941Y020164D01*
X009933Y020128D01*
X009921Y020093D01*
X009906Y020059D01*
X009887Y020027D01*
X009864Y019997D01*
X009839Y019969D01*
X009811Y019945D01*
X009781Y019923D01*
X009748Y019905D01*
X009714Y019891D01*
X009678Y019880D01*
X009641Y019873D01*
X009604Y019870D01*
X009567Y019871D01*
X009530Y019876D01*
X009494Y019885D01*
X009459Y019898D01*
X009425Y019914D01*
X009394Y019934D01*
X009365Y019957D01*
X009338Y019983D01*
X009314Y020011D01*
X009293Y020042D01*
X009276Y020075D01*
X009263Y020110D01*
X009253Y020146D01*
X009247Y020183D01*
X009245Y020220D01*
X004761Y036549D02*
X004763Y036602D01*
X004769Y036655D01*
X004779Y036707D01*
X004792Y036758D01*
X004810Y036808D01*
X004831Y036857D01*
X004856Y036904D01*
X004884Y036948D01*
X004916Y036991D01*
X004950Y037031D01*
X004988Y037069D01*
X005028Y037103D01*
X005071Y037135D01*
X005116Y037163D01*
X005162Y037188D01*
X005211Y037209D01*
X005261Y037227D01*
X005312Y037240D01*
X005364Y037250D01*
X005417Y037256D01*
X005470Y037258D01*
X005523Y037256D01*
X005576Y037250D01*
X005628Y037240D01*
X005679Y037227D01*
X005729Y037209D01*
X005778Y037188D01*
X005825Y037163D01*
X005869Y037135D01*
X005912Y037103D01*
X005952Y037069D01*
X005990Y037031D01*
X006024Y036991D01*
X006056Y036948D01*
X006084Y036903D01*
X006109Y036857D01*
X006130Y036808D01*
X006148Y036758D01*
X006161Y036707D01*
X006171Y036655D01*
X006177Y036602D01*
X006179Y036549D01*
X006177Y036496D01*
X006171Y036443D01*
X006161Y036391D01*
X006148Y036340D01*
X006130Y036290D01*
X006109Y036241D01*
X006084Y036194D01*
X006056Y036150D01*
X006024Y036107D01*
X005990Y036067D01*
X005952Y036029D01*
X005912Y035995D01*
X005869Y035963D01*
X005824Y035935D01*
X005778Y035910D01*
X005729Y035889D01*
X005679Y035871D01*
X005628Y035858D01*
X005576Y035848D01*
X005523Y035842D01*
X005470Y035840D01*
X005417Y035842D01*
X005364Y035848D01*
X005312Y035858D01*
X005261Y035871D01*
X005211Y035889D01*
X005162Y035910D01*
X005115Y035935D01*
X005071Y035963D01*
X005028Y035995D01*
X004988Y036029D01*
X004950Y036067D01*
X004916Y036107D01*
X004884Y036150D01*
X004856Y036195D01*
X004831Y036241D01*
X004810Y036290D01*
X004792Y036340D01*
X004779Y036391D01*
X004769Y036443D01*
X004763Y036496D01*
X004761Y036549D01*
X017418Y036549D02*
X017420Y036602D01*
X017426Y036655D01*
X017436Y036707D01*
X017449Y036758D01*
X017467Y036808D01*
X017488Y036857D01*
X017513Y036904D01*
X017541Y036948D01*
X017573Y036991D01*
X017607Y037031D01*
X017645Y037069D01*
X017685Y037103D01*
X017728Y037135D01*
X017773Y037163D01*
X017819Y037188D01*
X017868Y037209D01*
X017918Y037227D01*
X017969Y037240D01*
X018021Y037250D01*
X018074Y037256D01*
X018127Y037258D01*
X018180Y037256D01*
X018233Y037250D01*
X018285Y037240D01*
X018336Y037227D01*
X018386Y037209D01*
X018435Y037188D01*
X018482Y037163D01*
X018526Y037135D01*
X018569Y037103D01*
X018609Y037069D01*
X018647Y037031D01*
X018681Y036991D01*
X018713Y036948D01*
X018741Y036903D01*
X018766Y036857D01*
X018787Y036808D01*
X018805Y036758D01*
X018818Y036707D01*
X018828Y036655D01*
X018834Y036602D01*
X018836Y036549D01*
X018834Y036496D01*
X018828Y036443D01*
X018818Y036391D01*
X018805Y036340D01*
X018787Y036290D01*
X018766Y036241D01*
X018741Y036194D01*
X018713Y036150D01*
X018681Y036107D01*
X018647Y036067D01*
X018609Y036029D01*
X018569Y035995D01*
X018526Y035963D01*
X018481Y035935D01*
X018435Y035910D01*
X018386Y035889D01*
X018336Y035871D01*
X018285Y035858D01*
X018233Y035848D01*
X018180Y035842D01*
X018127Y035840D01*
X018074Y035842D01*
X018021Y035848D01*
X017969Y035858D01*
X017918Y035871D01*
X017868Y035889D01*
X017819Y035910D01*
X017772Y035935D01*
X017728Y035963D01*
X017685Y035995D01*
X017645Y036029D01*
X017607Y036067D01*
X017573Y036107D01*
X017541Y036150D01*
X017513Y036195D01*
X017488Y036241D01*
X017467Y036290D01*
X017449Y036340D01*
X017436Y036391D01*
X017426Y036443D01*
X017420Y036496D01*
X017418Y036549D01*
D11*
X003165Y010992D03*
D12*
X002946Y013141D02*
X003546Y013141D01*
X003546Y014141D02*
X002946Y014141D01*
X002946Y015141D02*
X003546Y015141D01*
X003546Y016141D02*
X002946Y016141D01*
X002946Y017141D02*
X003546Y017141D01*
X003546Y018141D02*
X002946Y018141D01*
X002946Y019141D02*
X003546Y019141D01*
X003546Y020141D02*
X002946Y020141D01*
X002946Y021141D02*
X003546Y021141D01*
X003546Y022141D02*
X002946Y022141D01*
D13*
X019625Y021439D02*
X020330Y021439D01*
X020330Y019470D02*
X019625Y019470D01*
X019625Y017501D02*
X020330Y017501D01*
X020323Y023486D02*
X019618Y023486D01*
X019618Y025454D02*
X020323Y025454D01*
X020323Y027486D02*
X019618Y027486D01*
X019618Y029454D02*
X020323Y029454D01*
D14*
X009595Y019220D03*
D15*
X009595Y018220D03*
X009595Y017220D03*
X009595Y016220D03*
X009595Y015220D03*
X009595Y014220D03*
X009595Y013220D03*
X009595Y012220D03*
X009595Y011220D03*
X009595Y010220D03*
X009595Y009220D03*
X009595Y008220D03*
X009595Y007220D03*
X009595Y006220D03*
X009595Y005220D03*
X015595Y005220D03*
X015595Y006220D03*
X015595Y007220D03*
X015595Y008220D03*
X015595Y009220D03*
X015595Y010220D03*
X015595Y011220D03*
X015595Y012220D03*
X015595Y013220D03*
X015595Y014220D03*
X015595Y015220D03*
X015595Y016220D03*
X015595Y017220D03*
X015595Y018220D03*
X015595Y019220D03*
D16*
X002812Y004218D02*
X003218Y003812D01*
X003695Y003493D01*
X004226Y003273D01*
X004789Y003161D01*
X005076Y003147D01*
X018371Y003147D01*
X018462Y003147D01*
X018749Y003161D01*
X019313Y003273D01*
X019843Y003493D01*
X020321Y003812D01*
X020727Y004218D01*
X021046Y004695D01*
X021266Y005226D01*
X021378Y005789D01*
X021392Y006076D01*
X021392Y037179D01*
X021378Y037466D01*
X021266Y038029D01*
X021046Y038560D01*
X020727Y039037D01*
X020321Y039443D01*
X019843Y039762D01*
X019313Y039982D01*
X018749Y040094D01*
X018462Y040108D01*
X005076Y040108D01*
X004789Y040094D01*
X004226Y039982D01*
X003695Y039762D01*
X003218Y039443D01*
X002812Y039037D01*
X002493Y038560D01*
X002273Y038029D01*
X002161Y037466D01*
X002147Y037179D01*
X002147Y006076D01*
X002161Y005789D01*
X002273Y005226D01*
X002493Y004695D01*
X002812Y004218D01*
X002910Y004119D02*
X009025Y004119D01*
X009025Y004107D02*
X009112Y003897D01*
X009272Y003737D01*
X009482Y003650D01*
X009708Y003650D01*
X009918Y003737D01*
X010078Y003897D01*
X010165Y004107D01*
X010165Y004333D01*
X010078Y004543D01*
X009918Y004703D01*
X009825Y004742D01*
X009895Y004771D01*
X010044Y004920D01*
X010125Y005115D01*
X010125Y005325D01*
X010044Y005520D01*
X009895Y005669D01*
X009773Y005720D01*
X009895Y005771D01*
X010044Y005920D01*
X010125Y006115D01*
X010125Y006325D01*
X010044Y006520D01*
X009895Y006669D01*
X009773Y006720D01*
X009895Y006771D01*
X010044Y006920D01*
X010125Y007115D01*
X010125Y007325D01*
X010044Y007520D01*
X009895Y007669D01*
X009773Y007720D01*
X009895Y007771D01*
X010044Y007920D01*
X010125Y008115D01*
X010125Y008325D01*
X010044Y008520D01*
X009895Y008669D01*
X009773Y008720D01*
X009895Y008771D01*
X010044Y008920D01*
X010125Y009115D01*
X010125Y009325D01*
X010044Y009520D01*
X009895Y009669D01*
X009773Y009720D01*
X009895Y009771D01*
X010044Y009920D01*
X010125Y010115D01*
X010125Y010325D01*
X010044Y010520D01*
X009895Y010669D01*
X009773Y010720D01*
X009895Y010771D01*
X010044Y010920D01*
X010125Y011115D01*
X010125Y011325D01*
X010044Y011520D01*
X009895Y011669D01*
X009773Y011720D01*
X009895Y011771D01*
X010044Y011920D01*
X010125Y012115D01*
X010125Y012325D01*
X010044Y012520D01*
X009895Y012669D01*
X009773Y012720D01*
X009895Y012771D01*
X010044Y012920D01*
X010125Y013115D01*
X010125Y013325D01*
X010044Y013520D01*
X009895Y013669D01*
X009773Y013720D01*
X009895Y013771D01*
X010044Y013920D01*
X010125Y014115D01*
X010125Y014325D01*
X010044Y014520D01*
X009895Y014669D01*
X009773Y014720D01*
X009895Y014771D01*
X010044Y014920D01*
X010125Y015115D01*
X010125Y015325D01*
X010044Y015520D01*
X009895Y015669D01*
X009773Y015720D01*
X009895Y015771D01*
X010044Y015920D01*
X010125Y016115D01*
X010125Y016325D01*
X010044Y016520D01*
X009895Y016669D01*
X009773Y016720D01*
X009895Y016771D01*
X010044Y016920D01*
X010125Y017115D01*
X010125Y017325D01*
X010044Y017520D01*
X009895Y017669D01*
X009773Y017720D01*
X009895Y017771D01*
X010044Y017920D01*
X010125Y018115D01*
X010125Y018325D01*
X010044Y018520D01*
X009895Y018669D01*
X009845Y018690D01*
X010020Y018690D01*
X010125Y018795D01*
X010125Y019645D01*
X010020Y019750D01*
X009931Y019750D01*
X010078Y019897D01*
X010165Y020107D01*
X010165Y020333D01*
X010078Y020543D01*
X009918Y020703D01*
X009708Y020790D01*
X009482Y020790D01*
X009272Y020703D01*
X009112Y020543D01*
X009025Y020333D01*
X009025Y020107D01*
X009112Y019897D01*
X009259Y019750D01*
X009170Y019750D01*
X009065Y019645D01*
X009065Y018795D01*
X009170Y018690D01*
X009345Y018690D01*
X009295Y018669D01*
X009146Y018520D01*
X009065Y018325D01*
X009065Y018115D01*
X009146Y017920D01*
X009295Y017771D01*
X009417Y017720D01*
X009295Y017669D01*
X009146Y017520D01*
X009065Y017325D01*
X009065Y017115D01*
X009146Y016920D01*
X009295Y016771D01*
X009417Y016720D01*
X009295Y016669D01*
X009146Y016520D01*
X009065Y016325D01*
X009065Y016115D01*
X009146Y015920D01*
X009295Y015771D01*
X009417Y015720D01*
X009295Y015669D01*
X009146Y015520D01*
X009065Y015325D01*
X009065Y015115D01*
X009146Y014920D01*
X009295Y014771D01*
X009417Y014720D01*
X009295Y014669D01*
X009146Y014520D01*
X009065Y014325D01*
X009065Y014115D01*
X009146Y013920D01*
X009295Y013771D01*
X009417Y013720D01*
X009295Y013669D01*
X009182Y013557D01*
X007270Y015469D01*
X007270Y020155D01*
X007224Y020265D01*
X005178Y022311D01*
X005094Y022396D01*
X004983Y022441D01*
X003924Y022441D01*
X003817Y022548D01*
X003641Y022621D01*
X002850Y022621D01*
X002674Y022548D01*
X002539Y022413D01*
X002466Y022237D01*
X002466Y022046D01*
X002539Y021869D01*
X002674Y021734D01*
X002850Y021661D01*
X003641Y021661D01*
X003817Y021734D01*
X003924Y021841D01*
X004799Y021841D01*
X006670Y019971D01*
X006670Y015285D01*
X006716Y015175D01*
X006800Y015091D01*
X008925Y012966D01*
X009035Y012920D01*
X009146Y012920D01*
X009295Y012771D01*
X009417Y012720D01*
X009295Y012669D01*
X009146Y012520D01*
X009065Y012325D01*
X009065Y012115D01*
X009146Y011920D01*
X009295Y011771D01*
X009417Y011720D01*
X009295Y011669D01*
X009146Y011520D01*
X009065Y011325D01*
X009065Y011115D01*
X009146Y010920D01*
X009295Y010771D01*
X009417Y010720D01*
X009295Y010669D01*
X009146Y010520D01*
X009146Y010520D01*
X004061Y010520D01*
X003710Y010871D01*
X003715Y010882D01*
X003715Y011101D01*
X003631Y011303D01*
X003476Y011458D01*
X003274Y011542D01*
X003055Y011542D01*
X002853Y011458D01*
X002699Y011303D01*
X002615Y011101D01*
X002615Y010882D01*
X002699Y010680D01*
X002853Y010525D01*
X003055Y010442D01*
X003274Y010442D01*
X003286Y010446D01*
X003767Y009966D01*
X003877Y009920D01*
X009146Y009920D01*
X009295Y009771D01*
X009417Y009720D01*
X009295Y009669D01*
X009146Y009520D01*
X009065Y009325D01*
X009065Y009115D01*
X009146Y008920D01*
X009295Y008771D01*
X009417Y008720D01*
X009295Y008669D01*
X009146Y008520D01*
X009065Y008325D01*
X009065Y008115D01*
X009146Y007920D01*
X009295Y007771D01*
X009417Y007720D01*
X009295Y007669D01*
X009146Y007520D01*
X009065Y007325D01*
X009065Y007115D01*
X009146Y006920D01*
X009295Y006771D01*
X009417Y006720D01*
X009295Y006669D01*
X009146Y006520D01*
X009065Y006325D01*
X009065Y006115D01*
X009146Y005920D01*
X009295Y005771D01*
X009417Y005720D01*
X009295Y005669D01*
X009146Y005520D01*
X009065Y005325D01*
X009065Y005115D01*
X009146Y004920D01*
X009295Y004771D01*
X009365Y004742D01*
X009272Y004703D01*
X009112Y004543D01*
X009025Y004333D01*
X009025Y004107D01*
X009128Y003881D02*
X003149Y003881D01*
X003471Y003642D02*
X020067Y003642D01*
X020390Y003881D02*
X016062Y003881D01*
X016078Y003897D02*
X016165Y004107D01*
X016165Y004333D01*
X016078Y004543D01*
X015918Y004703D01*
X015825Y004742D01*
X015895Y004771D01*
X016044Y004920D01*
X016125Y005115D01*
X016125Y005325D01*
X016044Y005520D01*
X015895Y005669D01*
X015773Y005720D01*
X015895Y005771D01*
X016044Y005920D01*
X016125Y006115D01*
X016125Y006325D01*
X016044Y006520D01*
X015895Y006669D01*
X015773Y006720D01*
X015895Y006771D01*
X016044Y006920D01*
X016125Y007115D01*
X016125Y007325D01*
X016044Y007520D01*
X015895Y007669D01*
X015773Y007720D01*
X015895Y007771D01*
X016044Y007920D01*
X016125Y008115D01*
X016125Y008325D01*
X016044Y008520D01*
X015895Y008669D01*
X015773Y008720D01*
X015895Y008771D01*
X016044Y008920D01*
X016125Y009115D01*
X016125Y009325D01*
X016044Y009520D01*
X015895Y009669D01*
X015773Y009720D01*
X015895Y009771D01*
X016044Y009920D01*
X016125Y010115D01*
X016125Y010325D01*
X016044Y010520D01*
X015895Y010669D01*
X015773Y010720D01*
X015895Y010771D01*
X016044Y010920D01*
X016125Y011115D01*
X016125Y011325D01*
X016044Y011520D01*
X015895Y011669D01*
X015773Y011720D01*
X015895Y011771D01*
X016044Y011920D01*
X016125Y012115D01*
X016125Y012325D01*
X016044Y012520D01*
X015895Y012669D01*
X015773Y012720D01*
X015895Y012771D01*
X016044Y012920D01*
X016125Y013115D01*
X016125Y013325D01*
X016044Y013520D01*
X015895Y013669D01*
X015773Y013720D01*
X015895Y013771D01*
X016044Y013920D01*
X016125Y014115D01*
X016125Y014325D01*
X016044Y014520D01*
X015895Y014669D01*
X015773Y014720D01*
X015895Y014771D01*
X016044Y014920D01*
X016125Y015115D01*
X016125Y015325D01*
X016044Y015520D01*
X015895Y015669D01*
X015826Y015698D01*
X015894Y015732D01*
X015966Y015785D01*
X016030Y015849D01*
X016083Y015921D01*
X016123Y016001D01*
X016151Y016087D01*
X016165Y016175D01*
X016165Y016220D01*
X016165Y016265D01*
X016151Y016353D01*
X016123Y016439D01*
X016083Y016519D01*
X016030Y016591D01*
X015966Y016655D01*
X015894Y016708D01*
X015826Y016742D01*
X015895Y016771D01*
X016044Y016920D01*
X016125Y017115D01*
X016125Y017325D01*
X016044Y017520D01*
X015895Y017669D01*
X015773Y017720D01*
X015895Y017771D01*
X016044Y017920D01*
X016125Y018115D01*
X016125Y018325D01*
X016044Y018520D01*
X015895Y018669D01*
X015773Y018720D01*
X015895Y018771D01*
X016044Y018920D01*
X016125Y019115D01*
X016125Y019325D01*
X016044Y019520D01*
X015895Y019669D01*
X015825Y019698D01*
X015918Y019737D01*
X016078Y019897D01*
X016165Y020107D01*
X016165Y020333D01*
X016078Y020543D01*
X015918Y020703D01*
X015708Y020790D01*
X015482Y020790D01*
X015272Y020703D01*
X015112Y020543D01*
X015025Y020333D01*
X015025Y020107D01*
X015112Y019897D01*
X015272Y019737D01*
X015365Y019698D01*
X015295Y019669D01*
X015146Y019520D01*
X015065Y019325D01*
X015065Y019115D01*
X015146Y018920D01*
X015295Y018771D01*
X015417Y018720D01*
X015295Y018669D01*
X015146Y018520D01*
X015065Y018325D01*
X015065Y018115D01*
X015146Y017920D01*
X015295Y017771D01*
X015417Y017720D01*
X015295Y017669D01*
X015146Y017520D01*
X015065Y017325D01*
X015065Y017115D01*
X015146Y016920D01*
X015295Y016771D01*
X015364Y016742D01*
X015296Y016708D01*
X015224Y016655D01*
X015160Y016591D01*
X015107Y016519D01*
X015067Y016439D01*
X015039Y016353D01*
X015025Y016265D01*
X015025Y016220D01*
X015595Y016220D01*
X016165Y016220D01*
X015595Y016220D01*
X015595Y016220D01*
X015595Y016220D01*
X015025Y016220D01*
X015025Y016175D01*
X015039Y016087D01*
X015067Y016001D01*
X015107Y015921D01*
X015160Y015849D01*
X015224Y015785D01*
X015296Y015732D01*
X015364Y015698D01*
X015295Y015669D01*
X015146Y015520D01*
X015065Y015325D01*
X015065Y015115D01*
X015146Y014920D01*
X015295Y014771D01*
X015417Y014720D01*
X015295Y014669D01*
X015146Y014520D01*
X015065Y014325D01*
X015065Y014115D01*
X015146Y013920D01*
X015295Y013771D01*
X015417Y013720D01*
X015295Y013669D01*
X015146Y013520D01*
X015065Y013325D01*
X015065Y013115D01*
X015146Y012920D01*
X015295Y012771D01*
X015417Y012720D01*
X015295Y012669D01*
X015146Y012520D01*
X015065Y012325D01*
X015065Y012115D01*
X015146Y011920D01*
X015295Y011771D01*
X015417Y011720D01*
X015295Y011669D01*
X015146Y011520D01*
X015065Y011325D01*
X015065Y011115D01*
X015146Y010920D01*
X015295Y010771D01*
X015417Y010720D01*
X015295Y010669D01*
X015146Y010520D01*
X015065Y010325D01*
X015065Y010115D01*
X015146Y009920D01*
X015295Y009771D01*
X015417Y009720D01*
X015295Y009669D01*
X015146Y009520D01*
X015146Y009520D01*
X014469Y009520D01*
X013645Y010344D01*
X013645Y027530D01*
X013599Y027640D01*
X013515Y027724D01*
X007683Y033556D01*
X007683Y033703D01*
X007578Y033808D01*
X007112Y033808D01*
X007007Y033703D01*
X007007Y033237D01*
X007112Y033132D01*
X007259Y033132D01*
X012121Y028270D01*
X011241Y028270D01*
X011203Y028308D01*
X010737Y028308D01*
X010632Y028203D01*
X010632Y027737D01*
X010737Y027632D01*
X011203Y027632D01*
X011241Y027670D01*
X011971Y027670D01*
X012670Y026971D01*
X012670Y009910D01*
X012716Y009800D01*
X014466Y008050D01*
X014550Y007966D01*
X014660Y007920D01*
X015146Y007920D01*
X015295Y007771D01*
X015417Y007720D01*
X015295Y007669D01*
X015146Y007520D01*
X015065Y007325D01*
X015065Y007115D01*
X015146Y006920D01*
X015295Y006771D01*
X015417Y006720D01*
X015295Y006669D01*
X015146Y006520D01*
X015065Y006325D01*
X015065Y006115D01*
X015146Y005920D01*
X015295Y005771D01*
X015417Y005720D01*
X015295Y005669D01*
X015146Y005520D01*
X015065Y005325D01*
X015065Y005115D01*
X015146Y004920D01*
X015295Y004771D01*
X015365Y004742D01*
X015272Y004703D01*
X015112Y004543D01*
X015025Y004333D01*
X015025Y004107D01*
X015112Y003897D01*
X015272Y003737D01*
X015482Y003650D01*
X015708Y003650D01*
X015918Y003737D01*
X016078Y003897D01*
X016165Y004119D02*
X020628Y004119D01*
X020820Y004358D02*
X016155Y004358D01*
X016025Y004596D02*
X020980Y004596D01*
X021104Y004835D02*
X018606Y004835D01*
X018756Y004869D02*
X018256Y004755D01*
X018256Y004755D01*
X017745Y004793D01*
X017745Y004793D01*
X017267Y004980D01*
X017267Y004980D01*
X016867Y005300D01*
X016867Y005300D01*
X016867Y005300D01*
X016578Y005724D01*
X016578Y005724D01*
X016427Y006214D01*
X016427Y006726D01*
X016578Y007216D01*
X016578Y007216D01*
X016867Y007640D01*
X016867Y007640D01*
X017267Y007960D01*
X017267Y007960D01*
X017745Y008147D01*
X018256Y008185D01*
X018756Y008071D01*
X018756Y008071D01*
X019200Y007815D01*
X019200Y007815D01*
X019549Y007439D01*
X019549Y007439D01*
X019771Y006977D01*
X019771Y006977D01*
X019847Y006470D01*
X019771Y005963D01*
X019549Y005501D01*
X019549Y005501D01*
X019200Y005125D01*
X019200Y005125D01*
X018756Y004869D01*
X018756Y004869D01*
X019110Y005073D02*
X021202Y005073D01*
X021283Y005312D02*
X019373Y005312D01*
X019572Y005550D02*
X021330Y005550D01*
X021378Y005789D02*
X019687Y005789D01*
X019771Y005963D02*
X019771Y005963D01*
X019781Y006027D02*
X021389Y006027D01*
X021392Y006266D02*
X019817Y006266D01*
X019842Y006504D02*
X021392Y006504D01*
X021392Y006743D02*
X019806Y006743D01*
X019769Y006981D02*
X021392Y006981D01*
X021392Y007220D02*
X019654Y007220D01*
X019531Y007458D02*
X021392Y007458D01*
X021392Y007697D02*
X019309Y007697D01*
X018991Y007935D02*
X021392Y007935D01*
X021392Y008174D02*
X018306Y008174D01*
X018103Y008174D02*
X016125Y008174D01*
X016089Y008412D02*
X021392Y008412D01*
X021392Y008651D02*
X015914Y008651D01*
X016014Y008889D02*
X021392Y008889D01*
X021392Y009128D02*
X016125Y009128D01*
X016108Y009366D02*
X021392Y009366D01*
X021392Y009605D02*
X015960Y009605D01*
X015968Y009843D02*
X021392Y009843D01*
X021392Y010082D02*
X016111Y010082D01*
X016125Y010320D02*
X021392Y010320D01*
X021392Y010559D02*
X016006Y010559D01*
X015922Y010797D02*
X021392Y010797D01*
X021392Y011036D02*
X016092Y011036D01*
X016125Y011274D02*
X021392Y011274D01*
X021392Y011513D02*
X016047Y011513D01*
X015848Y011751D02*
X021392Y011751D01*
X021392Y011990D02*
X016073Y011990D01*
X016125Y012228D02*
X021392Y012228D01*
X021392Y012467D02*
X016066Y012467D01*
X015809Y012705D02*
X021392Y012705D01*
X021392Y012944D02*
X016054Y012944D01*
X016125Y013182D02*
X021392Y013182D01*
X021392Y013421D02*
X016086Y013421D01*
X015905Y013659D02*
X021392Y013659D01*
X021392Y013898D02*
X016022Y013898D01*
X016125Y014136D02*
X021392Y014136D01*
X021392Y014375D02*
X016105Y014375D01*
X015951Y014613D02*
X021392Y014613D01*
X021392Y014852D02*
X015976Y014852D01*
X016115Y015090D02*
X021392Y015090D01*
X021392Y015329D02*
X016124Y015329D01*
X015997Y015567D02*
X021392Y015567D01*
X021392Y015806D02*
X015987Y015806D01*
X016137Y016044D02*
X021392Y016044D01*
X021392Y016283D02*
X016162Y016283D01*
X016081Y016521D02*
X021392Y016521D01*
X021392Y016760D02*
X015869Y016760D01*
X016077Y016998D02*
X019449Y016998D01*
X019519Y016969D02*
X019324Y017050D01*
X019174Y017200D01*
X019093Y017396D01*
X019093Y017607D01*
X019174Y017803D01*
X019324Y017953D01*
X019519Y018034D01*
X020436Y018034D01*
X020632Y017953D01*
X020782Y017803D01*
X020863Y017607D01*
X020863Y017396D01*
X020782Y017200D01*
X020632Y017050D01*
X020436Y016969D01*
X019519Y016969D01*
X019159Y017237D02*
X016125Y017237D01*
X016063Y017475D02*
X019093Y017475D01*
X019137Y017714D02*
X015788Y017714D01*
X016058Y017952D02*
X019323Y017952D01*
X019519Y018938D02*
X019324Y019019D01*
X019174Y019168D01*
X019093Y019364D01*
X019093Y019576D01*
X019174Y019772D01*
X019324Y019921D01*
X019519Y020002D01*
X020436Y020002D01*
X020632Y019921D01*
X020782Y019772D01*
X020863Y019576D01*
X020863Y019364D01*
X020782Y019168D01*
X020632Y019019D01*
X020436Y018938D01*
X019519Y018938D01*
X019198Y019145D02*
X016125Y019145D01*
X016101Y019383D02*
X019093Y019383D01*
X019112Y019622D02*
X015943Y019622D01*
X016041Y019860D02*
X019263Y019860D01*
X019519Y020906D02*
X019324Y020987D01*
X019174Y021137D01*
X019093Y021333D01*
X019093Y021544D01*
X019174Y021740D01*
X019324Y021890D01*
X019519Y021971D01*
X020436Y021971D01*
X020632Y021890D01*
X020782Y021740D01*
X020863Y021544D01*
X020863Y021333D01*
X020782Y021137D01*
X020632Y020987D01*
X020436Y020906D01*
X019519Y020906D01*
X019258Y021053D02*
X013645Y021053D01*
X013645Y021291D02*
X019110Y021291D01*
X019093Y021530D02*
X013645Y021530D01*
X013645Y021768D02*
X019202Y021768D01*
X019512Y022953D02*
X019316Y023034D01*
X019166Y023184D01*
X019085Y023380D01*
X019085Y023592D01*
X019166Y023787D01*
X019316Y023937D01*
X019512Y024018D01*
X020428Y024018D01*
X020624Y023937D01*
X020774Y023787D01*
X020855Y023592D01*
X020855Y023380D01*
X020774Y023184D01*
X020624Y023034D01*
X020428Y022953D01*
X019512Y022953D01*
X019494Y022961D02*
X013645Y022961D01*
X013645Y023199D02*
X019160Y023199D01*
X019085Y023438D02*
X013645Y023438D01*
X013645Y023676D02*
X019120Y023676D01*
X019293Y023915D02*
X013645Y023915D01*
X013645Y024153D02*
X021392Y024153D01*
X021392Y023915D02*
X020647Y023915D01*
X020820Y023676D02*
X021392Y023676D01*
X021392Y023438D02*
X020855Y023438D01*
X020780Y023199D02*
X021392Y023199D01*
X021392Y022961D02*
X020446Y022961D01*
X020754Y021768D02*
X021392Y021768D01*
X021392Y021530D02*
X020863Y021530D01*
X020846Y021291D02*
X021392Y021291D01*
X021392Y021053D02*
X020698Y021053D01*
X021392Y020814D02*
X013645Y020814D01*
X013645Y020576D02*
X015145Y020576D01*
X015027Y020337D02*
X013645Y020337D01*
X013645Y020099D02*
X015028Y020099D01*
X015149Y019860D02*
X013645Y019860D01*
X013645Y019622D02*
X015247Y019622D01*
X015089Y019383D02*
X013645Y019383D01*
X013645Y019145D02*
X015065Y019145D01*
X015159Y018906D02*
X013645Y018906D01*
X013645Y018668D02*
X015293Y018668D01*
X015108Y018429D02*
X013645Y018429D01*
X013645Y018191D02*
X015065Y018191D01*
X015132Y017952D02*
X013645Y017952D01*
X013645Y017714D02*
X015402Y017714D01*
X015127Y017475D02*
X013645Y017475D01*
X013645Y017237D02*
X015065Y017237D01*
X015113Y016998D02*
X013645Y016998D01*
X013645Y016760D02*
X015321Y016760D01*
X015109Y016521D02*
X013645Y016521D01*
X013645Y016283D02*
X015028Y016283D01*
X015053Y016044D02*
X013645Y016044D01*
X013645Y015806D02*
X015203Y015806D01*
X015193Y015567D02*
X013645Y015567D01*
X013645Y015329D02*
X015066Y015329D01*
X015075Y015090D02*
X013645Y015090D01*
X013645Y014852D02*
X015214Y014852D01*
X015239Y014613D02*
X013645Y014613D01*
X013645Y014375D02*
X015085Y014375D01*
X015065Y014136D02*
X013645Y014136D01*
X013645Y013898D02*
X015168Y013898D01*
X015285Y013659D02*
X013645Y013659D01*
X013645Y013421D02*
X015104Y013421D01*
X015065Y013182D02*
X013645Y013182D01*
X013645Y012944D02*
X015136Y012944D01*
X015381Y012705D02*
X013645Y012705D01*
X013645Y012467D02*
X015124Y012467D01*
X015065Y012228D02*
X013645Y012228D01*
X013645Y011990D02*
X015117Y011990D01*
X015342Y011751D02*
X013645Y011751D01*
X013645Y011513D02*
X015143Y011513D01*
X015065Y011274D02*
X013645Y011274D01*
X013645Y011036D02*
X015098Y011036D01*
X015268Y010797D02*
X013645Y010797D01*
X013645Y010559D02*
X015184Y010559D01*
X015065Y010320D02*
X013669Y010320D01*
X013908Y010082D02*
X015079Y010082D01*
X015222Y009843D02*
X014146Y009843D01*
X014385Y009605D02*
X015230Y009605D01*
X015595Y009220D02*
X014345Y009220D01*
X013345Y010220D01*
X013345Y027470D01*
X007345Y033470D01*
X007683Y033693D02*
X021392Y033693D01*
X021392Y033455D02*
X007785Y033455D01*
X008023Y033216D02*
X021392Y033216D01*
X021392Y032978D02*
X008262Y032978D01*
X008500Y032739D02*
X021392Y032739D01*
X021392Y032501D02*
X008739Y032501D01*
X008977Y032262D02*
X021392Y032262D01*
X021392Y032024D02*
X009216Y032024D01*
X009454Y031785D02*
X021392Y031785D01*
X021392Y031547D02*
X009693Y031547D01*
X009931Y031308D02*
X015757Y031308D01*
X015757Y031328D02*
X015757Y030862D01*
X015795Y030824D01*
X015795Y029270D01*
X015841Y029159D01*
X015925Y029075D01*
X019205Y025795D01*
X019166Y025756D01*
X019085Y025560D01*
X019085Y025348D01*
X019166Y025153D01*
X019316Y025003D01*
X019512Y024922D01*
X020428Y024922D01*
X020624Y025003D01*
X020774Y025153D01*
X020855Y025348D01*
X020855Y025560D01*
X020774Y025756D01*
X020624Y025906D01*
X020428Y025987D01*
X019862Y025987D01*
X016395Y029454D01*
X016395Y030824D01*
X016433Y030862D01*
X016433Y031328D01*
X016328Y031433D01*
X015862Y031433D01*
X015757Y031328D01*
X015757Y031070D02*
X010170Y031070D01*
X010408Y030831D02*
X015787Y030831D01*
X015795Y030593D02*
X010647Y030593D01*
X010885Y030354D02*
X015795Y030354D01*
X015795Y030116D02*
X011124Y030116D01*
X011362Y029877D02*
X015795Y029877D01*
X015795Y029639D02*
X011601Y029639D01*
X011839Y029400D02*
X015795Y029400D01*
X015840Y029162D02*
X012078Y029162D01*
X012316Y028923D02*
X016077Y028923D01*
X015925Y029075D02*
X015925Y029075D01*
X016095Y029329D02*
X016095Y031095D01*
X016433Y031070D02*
X021392Y031070D01*
X021392Y031308D02*
X016433Y031308D01*
X016403Y030831D02*
X021392Y030831D01*
X021392Y030593D02*
X016395Y030593D01*
X016395Y030354D02*
X021392Y030354D01*
X021392Y030116D02*
X016395Y030116D01*
X016395Y029877D02*
X019287Y029877D01*
X019316Y029906D02*
X019166Y029756D01*
X019085Y029560D01*
X019085Y029348D01*
X019166Y029153D01*
X019316Y029003D01*
X019512Y028922D01*
X020428Y028922D01*
X020624Y029003D01*
X020774Y029153D01*
X020855Y029348D01*
X020855Y029560D01*
X020774Y029756D01*
X020624Y029906D01*
X020428Y029987D01*
X019512Y029987D01*
X019316Y029906D01*
X019118Y029639D02*
X016395Y029639D01*
X016448Y029400D02*
X019085Y029400D01*
X019162Y029162D02*
X016687Y029162D01*
X016925Y028923D02*
X019508Y028923D01*
X019512Y028018D02*
X019316Y027937D01*
X019166Y027787D01*
X019085Y027592D01*
X019085Y027380D01*
X019166Y027184D01*
X019316Y027034D01*
X019512Y026953D01*
X020428Y026953D01*
X020624Y027034D01*
X020774Y027184D01*
X020855Y027380D01*
X020855Y027592D01*
X020774Y027787D01*
X020624Y027937D01*
X020428Y028018D01*
X019512Y028018D01*
X019393Y027969D02*
X017879Y027969D01*
X017641Y028208D02*
X021392Y028208D01*
X021392Y028446D02*
X017402Y028446D01*
X017164Y028685D02*
X021392Y028685D01*
X021392Y028923D02*
X020432Y028923D01*
X020778Y029162D02*
X021392Y029162D01*
X021392Y029400D02*
X020855Y029400D01*
X020822Y029639D02*
X021392Y029639D01*
X021392Y029877D02*
X020653Y029877D01*
X020547Y027969D02*
X021392Y027969D01*
X021392Y027731D02*
X020797Y027731D01*
X020855Y027492D02*
X021392Y027492D01*
X021392Y027254D02*
X020803Y027254D01*
X020578Y027015D02*
X021392Y027015D01*
X021392Y026777D02*
X019072Y026777D01*
X018833Y027015D02*
X019362Y027015D01*
X019137Y027254D02*
X018595Y027254D01*
X018356Y027492D02*
X019085Y027492D01*
X019143Y027731D02*
X018118Y027731D01*
X017985Y027015D02*
X013645Y027015D01*
X013645Y026777D02*
X018223Y026777D01*
X018462Y026538D02*
X013645Y026538D01*
X013645Y026300D02*
X018700Y026300D01*
X018939Y026061D02*
X013645Y026061D01*
X013645Y025823D02*
X019177Y025823D01*
X019095Y025584D02*
X013645Y025584D01*
X013645Y025346D02*
X019086Y025346D01*
X019211Y025107D02*
X013645Y025107D01*
X013645Y024869D02*
X021392Y024869D01*
X021392Y025107D02*
X020729Y025107D01*
X020854Y025346D02*
X021392Y025346D01*
X021392Y025584D02*
X020845Y025584D01*
X020707Y025823D02*
X021392Y025823D01*
X021392Y026061D02*
X019787Y026061D01*
X019549Y026300D02*
X021392Y026300D01*
X021392Y026538D02*
X019310Y026538D01*
X019970Y025454D02*
X016095Y029329D01*
X016315Y028685D02*
X012555Y028685D01*
X012793Y028446D02*
X016554Y028446D01*
X016792Y028208D02*
X013032Y028208D01*
X013270Y027969D02*
X017031Y027969D01*
X017269Y027731D02*
X013509Y027731D01*
X013645Y027492D02*
X017508Y027492D01*
X017746Y027254D02*
X013645Y027254D01*
X012970Y027095D02*
X012095Y027970D01*
X010970Y027970D01*
X010632Y027969D02*
X002147Y027969D01*
X002147Y027731D02*
X010638Y027731D01*
X010636Y028208D02*
X002147Y028208D01*
X002147Y028446D02*
X011945Y028446D01*
X011706Y028685D02*
X002147Y028685D01*
X002147Y028923D02*
X011468Y028923D01*
X011229Y029162D02*
X002147Y029162D01*
X002147Y029400D02*
X010991Y029400D01*
X010752Y029639D02*
X002147Y029639D01*
X002147Y029877D02*
X010514Y029877D01*
X010275Y030116D02*
X002147Y030116D01*
X002147Y030354D02*
X010037Y030354D01*
X009798Y030593D02*
X002147Y030593D01*
X002147Y030831D02*
X009560Y030831D01*
X009321Y031070D02*
X002147Y031070D01*
X002147Y031308D02*
X009083Y031308D01*
X008844Y031547D02*
X002147Y031547D01*
X002147Y031785D02*
X008606Y031785D01*
X008367Y032024D02*
X002147Y032024D01*
X002147Y032262D02*
X008129Y032262D01*
X007890Y032501D02*
X002147Y032501D01*
X002147Y032739D02*
X007652Y032739D01*
X007413Y032978D02*
X002147Y032978D01*
X002147Y033216D02*
X007027Y033216D01*
X007007Y033455D02*
X002147Y033455D01*
X002147Y033693D02*
X007007Y033693D01*
X006098Y034948D02*
X006542Y035204D01*
X006542Y035204D01*
X006891Y035580D01*
X007114Y036042D01*
X007190Y036549D01*
X007114Y037056D01*
X006891Y037518D01*
X006542Y037893D01*
X006098Y038150D01*
X005599Y038264D01*
X005599Y038264D01*
X005087Y038226D01*
X004610Y038038D01*
X004209Y037719D01*
X004209Y037719D01*
X004209Y037719D01*
X003920Y037295D01*
X003769Y036805D01*
X003769Y036292D01*
X003920Y035802D01*
X004209Y035379D01*
X004209Y035379D01*
X004209Y035379D01*
X004610Y035059D01*
X005087Y034872D01*
X005087Y034872D01*
X005599Y034834D01*
X006098Y034948D01*
X006098Y034948D01*
X005827Y034886D02*
X017709Y034886D01*
X017745Y034872D02*
X018256Y034834D01*
X018256Y034834D01*
X018756Y034948D01*
X019200Y035204D01*
X019549Y035580D01*
X019771Y036042D01*
X019847Y036549D01*
X019771Y037056D01*
X019549Y037518D01*
X019200Y037893D01*
X018756Y038150D01*
X018756Y038150D01*
X018256Y038264D01*
X017745Y038226D01*
X017745Y038226D01*
X017267Y038038D01*
X016867Y037719D01*
X016867Y037719D01*
X016578Y037295D01*
X016427Y036805D01*
X016427Y036292D01*
X016578Y035802D01*
X016867Y035379D01*
X017267Y035059D01*
X017745Y034872D01*
X017186Y035124D02*
X006404Y035124D01*
X006542Y035204D02*
X006542Y035204D01*
X006690Y035363D02*
X016887Y035363D01*
X016867Y035379D02*
X016867Y035379D01*
X016715Y035601D02*
X006901Y035601D01*
X006891Y035580D02*
X006891Y035580D01*
X007016Y035840D02*
X016566Y035840D01*
X016578Y035802D02*
X016578Y035802D01*
X016493Y036078D02*
X007119Y036078D01*
X007114Y036042D02*
X007114Y036042D01*
X007155Y036317D02*
X016427Y036317D01*
X016427Y036555D02*
X007189Y036555D01*
X007153Y036794D02*
X016427Y036794D01*
X016497Y037032D02*
X007117Y037032D01*
X007114Y037056D02*
X007114Y037056D01*
X007010Y037271D02*
X016570Y037271D01*
X016578Y037295D02*
X016578Y037295D01*
X016724Y037509D02*
X006895Y037509D01*
X006891Y037518D02*
X006891Y037518D01*
X006678Y037748D02*
X016903Y037748D01*
X017202Y037986D02*
X006382Y037986D01*
X006542Y037893D02*
X006542Y037893D01*
X006098Y038150D02*
X006098Y038150D01*
X005770Y038225D02*
X017742Y038225D01*
X017267Y038038D02*
X017267Y038038D01*
X018256Y038264D02*
X018256Y038264D01*
X018428Y038225D02*
X021185Y038225D01*
X021274Y037986D02*
X019039Y037986D01*
X019200Y037893D02*
X019200Y037893D01*
X019335Y037748D02*
X021322Y037748D01*
X021369Y037509D02*
X019553Y037509D01*
X019549Y037518D02*
X019549Y037518D01*
X019668Y037271D02*
X021387Y037271D01*
X021392Y037032D02*
X019775Y037032D01*
X019771Y037056D02*
X019771Y037056D01*
X019811Y036794D02*
X021392Y036794D01*
X021392Y036555D02*
X019847Y036555D01*
X019813Y036317D02*
X021392Y036317D01*
X021392Y036078D02*
X019777Y036078D01*
X019771Y036042D02*
X019771Y036042D01*
X019674Y035840D02*
X021392Y035840D01*
X021392Y035601D02*
X019559Y035601D01*
X019549Y035580D02*
X019549Y035580D01*
X019347Y035363D02*
X021392Y035363D01*
X021392Y035124D02*
X019062Y035124D01*
X019200Y035204D02*
X019200Y035204D01*
X018756Y034948D02*
X018756Y034948D01*
X018485Y034886D02*
X021392Y034886D01*
X021392Y034647D02*
X002147Y034647D01*
X002147Y034409D02*
X021392Y034409D01*
X021392Y034170D02*
X002147Y034170D01*
X002147Y033932D02*
X021392Y033932D01*
X021086Y038463D02*
X002453Y038463D01*
X002354Y038225D02*
X005085Y038225D01*
X005087Y038226D02*
X005087Y038226D01*
X004610Y038038D02*
X004610Y038038D01*
X004545Y037986D02*
X002264Y037986D01*
X002217Y037748D02*
X004246Y037748D01*
X004066Y037509D02*
X002169Y037509D01*
X002151Y037271D02*
X003913Y037271D01*
X003920Y037295D02*
X003920Y037295D01*
X003839Y037032D02*
X002147Y037032D01*
X002147Y036794D02*
X003769Y036794D01*
X003769Y036555D02*
X002147Y036555D01*
X002147Y036317D02*
X003769Y036317D01*
X003835Y036078D02*
X002147Y036078D01*
X002147Y035840D02*
X003909Y035840D01*
X003920Y035802D02*
X003920Y035802D01*
X004058Y035601D02*
X002147Y035601D01*
X002147Y035363D02*
X004229Y035363D01*
X004528Y035124D02*
X002147Y035124D01*
X002147Y034886D02*
X005052Y034886D01*
X004610Y035059D02*
X004610Y035059D01*
X005599Y034834D02*
X005599Y034834D01*
X002953Y039179D02*
X020585Y039179D01*
X020792Y038940D02*
X002747Y038940D01*
X002588Y038702D02*
X020951Y038702D01*
X020347Y039417D02*
X003192Y039417D01*
X003536Y039656D02*
X020003Y039656D01*
X019525Y039894D02*
X004014Y039894D01*
X002147Y027492D02*
X012149Y027492D01*
X012387Y027254D02*
X002147Y027254D01*
X002147Y027015D02*
X012626Y027015D01*
X012670Y026777D02*
X002147Y026777D01*
X002147Y026538D02*
X012670Y026538D01*
X012670Y026300D02*
X002147Y026300D01*
X002147Y026061D02*
X012670Y026061D01*
X012670Y025823D02*
X002147Y025823D01*
X002147Y025584D02*
X012670Y025584D01*
X012670Y025346D02*
X002147Y025346D01*
X002147Y025107D02*
X012670Y025107D01*
X012670Y024869D02*
X002147Y024869D01*
X002147Y024630D02*
X012670Y024630D01*
X012670Y024392D02*
X002147Y024392D01*
X002147Y024153D02*
X012670Y024153D01*
X012670Y023915D02*
X002147Y023915D01*
X002147Y023676D02*
X012670Y023676D01*
X012670Y023438D02*
X002147Y023438D01*
X002147Y023199D02*
X012670Y023199D01*
X012670Y022961D02*
X002147Y022961D01*
X002147Y022722D02*
X012670Y022722D01*
X012670Y022484D02*
X003882Y022484D01*
X003851Y021768D02*
X004873Y021768D01*
X005111Y021530D02*
X003836Y021530D01*
X003817Y021548D02*
X003641Y021621D01*
X002850Y021621D01*
X002674Y021548D01*
X002539Y021413D01*
X002466Y021237D01*
X002466Y021046D01*
X002539Y020869D01*
X002674Y020734D01*
X002850Y020661D01*
X003641Y020661D01*
X003817Y020734D01*
X003953Y020869D01*
X004026Y021046D01*
X004026Y021237D01*
X003953Y021413D01*
X003817Y021548D01*
X004003Y021291D02*
X005350Y021291D01*
X005588Y021053D02*
X004026Y021053D01*
X003897Y020814D02*
X005827Y020814D01*
X006065Y020576D02*
X003751Y020576D01*
X003817Y020548D02*
X003641Y020621D01*
X002850Y020621D01*
X002674Y020548D01*
X002539Y020413D01*
X002466Y020237D01*
X002466Y020046D01*
X002539Y019869D01*
X002674Y019734D01*
X002850Y019661D01*
X003641Y019661D01*
X003817Y019734D01*
X003953Y019869D01*
X004026Y020046D01*
X004026Y020237D01*
X003953Y020413D01*
X003817Y020548D01*
X003984Y020337D02*
X006304Y020337D01*
X006542Y020099D02*
X004026Y020099D01*
X003943Y019860D02*
X006670Y019860D01*
X006670Y019622D02*
X002147Y019622D01*
X002147Y019860D02*
X002548Y019860D01*
X002466Y020099D02*
X002147Y020099D01*
X002147Y020337D02*
X002507Y020337D01*
X002740Y020576D02*
X002147Y020576D01*
X002147Y020814D02*
X002594Y020814D01*
X002466Y021053D02*
X002147Y021053D01*
X002147Y021291D02*
X002488Y021291D01*
X002655Y021530D02*
X002147Y021530D01*
X002147Y021768D02*
X002640Y021768D01*
X002482Y022007D02*
X002147Y022007D01*
X002147Y022245D02*
X002469Y022245D01*
X002609Y022484D02*
X002147Y022484D01*
X003246Y022141D02*
X004924Y022141D01*
X006970Y020095D01*
X006970Y015345D01*
X009095Y013220D01*
X009595Y013220D01*
X009285Y013659D02*
X009080Y013659D01*
X009168Y013898D02*
X008842Y013898D01*
X009065Y014136D02*
X008603Y014136D01*
X008365Y014375D02*
X009085Y014375D01*
X009239Y014613D02*
X008126Y014613D01*
X007888Y014852D02*
X009214Y014852D01*
X009075Y015090D02*
X007649Y015090D01*
X007411Y015329D02*
X009066Y015329D01*
X009193Y015567D02*
X007270Y015567D01*
X007270Y015806D02*
X009260Y015806D01*
X009094Y016044D02*
X007270Y016044D01*
X007270Y016283D02*
X009065Y016283D01*
X009147Y016521D02*
X007270Y016521D01*
X007270Y016760D02*
X009321Y016760D01*
X009113Y016998D02*
X007270Y016998D01*
X007270Y017237D02*
X009065Y017237D01*
X009127Y017475D02*
X007270Y017475D01*
X007270Y017714D02*
X009402Y017714D01*
X009132Y017952D02*
X007270Y017952D01*
X007270Y018191D02*
X009065Y018191D01*
X009108Y018429D02*
X007270Y018429D01*
X007270Y018668D02*
X009293Y018668D01*
X009065Y018906D02*
X007270Y018906D01*
X007270Y019145D02*
X009065Y019145D01*
X009065Y019383D02*
X007270Y019383D01*
X007270Y019622D02*
X009065Y019622D01*
X009149Y019860D02*
X007270Y019860D01*
X007270Y020099D02*
X009028Y020099D01*
X009027Y020337D02*
X007152Y020337D01*
X006914Y020576D02*
X009145Y020576D01*
X010045Y020576D02*
X012670Y020576D01*
X012670Y020814D02*
X006675Y020814D01*
X006437Y021053D02*
X012670Y021053D01*
X012670Y021291D02*
X006198Y021291D01*
X005960Y021530D02*
X012670Y021530D01*
X012670Y021768D02*
X005721Y021768D01*
X005483Y022007D02*
X012670Y022007D01*
X012670Y022245D02*
X005244Y022245D01*
X003817Y019548D02*
X003641Y019621D01*
X002850Y019621D01*
X002674Y019548D01*
X002539Y019413D01*
X002466Y019237D01*
X002466Y019046D01*
X002539Y018869D01*
X002674Y018734D01*
X002850Y018661D01*
X003641Y018661D01*
X003817Y018734D01*
X003953Y018869D01*
X004026Y019046D01*
X004026Y019237D01*
X003953Y019413D01*
X003817Y019548D01*
X003965Y019383D02*
X006670Y019383D01*
X006670Y019145D02*
X004026Y019145D01*
X003968Y018906D02*
X006670Y018906D01*
X006670Y018668D02*
X003657Y018668D01*
X003667Y018648D02*
X003587Y018661D01*
X003246Y018661D01*
X003246Y018141D01*
X003246Y018141D01*
X004066Y018141D01*
X004066Y018100D01*
X004053Y018019D01*
X004027Y017942D01*
X003990Y017869D01*
X003942Y017803D01*
X003884Y017745D01*
X003818Y017697D01*
X003745Y017659D01*
X003667Y017634D01*
X003587Y017621D01*
X003246Y017621D01*
X003246Y018141D01*
X003246Y018141D01*
X004066Y018141D01*
X004066Y018182D01*
X004053Y018263D01*
X004027Y018341D01*
X003990Y018414D01*
X003942Y018480D01*
X003884Y018538D01*
X003818Y018586D01*
X003745Y018623D01*
X003667Y018648D01*
X003979Y018429D02*
X006670Y018429D01*
X006670Y018191D02*
X004064Y018191D01*
X004031Y017952D02*
X006670Y017952D01*
X006670Y017714D02*
X003842Y017714D01*
X003817Y017548D02*
X003641Y017621D01*
X002850Y017621D01*
X002674Y017548D01*
X002539Y017413D01*
X002466Y017237D01*
X002466Y017046D01*
X002539Y016869D01*
X002674Y016734D01*
X002850Y016661D01*
X003641Y016661D01*
X003817Y016734D01*
X003953Y016869D01*
X004026Y017046D01*
X004026Y017237D01*
X003953Y017413D01*
X003817Y017548D01*
X003890Y017475D02*
X006670Y017475D01*
X006670Y017237D02*
X004026Y017237D01*
X004006Y016998D02*
X006670Y016998D01*
X006670Y016760D02*
X003843Y016760D01*
X003817Y016548D02*
X003641Y016621D01*
X002850Y016621D01*
X002674Y016548D01*
X002539Y016413D01*
X002466Y016237D01*
X002466Y016046D01*
X002539Y015869D01*
X002674Y015734D01*
X002850Y015661D01*
X003641Y015661D01*
X003817Y015734D01*
X003953Y015869D01*
X004026Y016046D01*
X004026Y016237D01*
X003953Y016413D01*
X003817Y016548D01*
X003844Y016521D02*
X006670Y016521D01*
X006670Y016283D02*
X004007Y016283D01*
X004025Y016044D02*
X006670Y016044D01*
X006670Y015806D02*
X003889Y015806D01*
X003772Y015567D02*
X006670Y015567D01*
X006670Y015329D02*
X003987Y015329D01*
X003953Y015413D02*
X004026Y015237D01*
X004026Y015046D01*
X003953Y014869D01*
X003817Y014734D01*
X003641Y014661D01*
X002850Y014661D01*
X002674Y014734D01*
X002539Y014869D01*
X002466Y015046D01*
X002466Y015237D01*
X002539Y015413D01*
X002674Y015548D01*
X002850Y015621D01*
X003641Y015621D01*
X003817Y015548D01*
X003953Y015413D01*
X004026Y015090D02*
X006801Y015090D01*
X007039Y014852D02*
X003935Y014852D01*
X003817Y014548D02*
X003641Y014621D01*
X002850Y014621D01*
X002674Y014548D01*
X002539Y014413D01*
X002466Y014237D01*
X002466Y014046D01*
X002539Y013869D01*
X002674Y013734D01*
X002850Y013661D01*
X003641Y013661D01*
X003817Y013734D01*
X003953Y013869D01*
X004026Y014046D01*
X004026Y014237D01*
X003953Y014413D01*
X003817Y014548D01*
X003661Y014613D02*
X007278Y014613D01*
X007516Y014375D02*
X003968Y014375D01*
X004026Y014136D02*
X007755Y014136D01*
X007993Y013898D02*
X003964Y013898D01*
X003818Y013586D02*
X003745Y013623D01*
X003667Y013648D01*
X003587Y013661D01*
X003246Y013661D01*
X003246Y013141D01*
X003246Y013141D01*
X004066Y013141D01*
X004066Y013100D01*
X004053Y013019D01*
X004027Y012942D01*
X003990Y012869D01*
X003942Y012803D01*
X003884Y012745D01*
X003818Y012697D01*
X003745Y012659D01*
X003667Y012634D01*
X003587Y012621D01*
X003246Y012621D01*
X003246Y013141D01*
X003246Y013141D01*
X004066Y013141D01*
X004066Y013182D01*
X004053Y013263D01*
X004027Y013341D01*
X003990Y013414D01*
X003942Y013480D01*
X003884Y013538D01*
X003818Y013586D01*
X003599Y013659D02*
X008232Y013659D01*
X008470Y013421D02*
X003985Y013421D01*
X004066Y013182D02*
X008709Y013182D01*
X008978Y012944D02*
X004028Y012944D01*
X003830Y012705D02*
X009381Y012705D01*
X009146Y012920D02*
X009146Y012920D01*
X009124Y012467D02*
X002147Y012467D01*
X002147Y012705D02*
X002661Y012705D01*
X002673Y012697D02*
X002746Y012659D01*
X002824Y012634D01*
X002905Y012621D01*
X003246Y012621D01*
X003246Y013141D01*
X003246Y013141D01*
X002426Y013141D01*
X002426Y013100D01*
X002438Y013019D01*
X002464Y012942D01*
X002501Y012869D01*
X002549Y012803D01*
X002607Y012745D01*
X002673Y012697D01*
X002463Y012944D02*
X002147Y012944D01*
X002147Y013182D02*
X002426Y013182D01*
X002438Y013263D01*
X002464Y013341D01*
X002501Y013414D01*
X002549Y013480D01*
X002607Y013538D01*
X002673Y013586D01*
X002746Y013623D01*
X002824Y013648D01*
X002905Y013661D01*
X003246Y013661D01*
X003246Y013141D01*
X003246Y013141D01*
X002426Y013141D01*
X002426Y013182D01*
X002506Y013421D02*
X002147Y013421D01*
X002147Y013659D02*
X002892Y013659D01*
X003246Y013659D02*
X003246Y013659D01*
X003246Y013421D02*
X003246Y013421D01*
X003246Y013182D02*
X003246Y013182D01*
X003246Y012944D02*
X003246Y012944D01*
X003246Y012705D02*
X003246Y012705D01*
X003344Y011513D02*
X009143Y011513D01*
X009065Y011274D02*
X003643Y011274D01*
X003715Y011036D02*
X009098Y011036D01*
X009268Y010797D02*
X003784Y010797D01*
X004022Y010559D02*
X009184Y010559D01*
X009595Y010220D02*
X003937Y010220D01*
X003165Y010992D01*
X002986Y011513D02*
X002147Y011513D01*
X002147Y011751D02*
X009342Y011751D01*
X009117Y011990D02*
X002147Y011990D01*
X002147Y012228D02*
X009065Y012228D01*
X009809Y012705D02*
X012670Y012705D01*
X012670Y012467D02*
X010066Y012467D01*
X010125Y012228D02*
X012670Y012228D01*
X012670Y011990D02*
X010073Y011990D01*
X009848Y011751D02*
X012670Y011751D01*
X012670Y011513D02*
X010047Y011513D01*
X010125Y011274D02*
X012670Y011274D01*
X012670Y011036D02*
X010092Y011036D01*
X009922Y010797D02*
X012670Y010797D01*
X012670Y010559D02*
X010006Y010559D01*
X010125Y010320D02*
X012670Y010320D01*
X012670Y010082D02*
X010111Y010082D01*
X009968Y009843D02*
X012698Y009843D01*
X012970Y009970D02*
X014720Y008220D01*
X015595Y008220D01*
X015361Y007697D02*
X009829Y007697D01*
X010051Y007935D02*
X014624Y007935D01*
X014342Y008174D02*
X010125Y008174D01*
X010089Y008412D02*
X014104Y008412D01*
X013865Y008651D02*
X009914Y008651D01*
X010014Y008889D02*
X013627Y008889D01*
X013388Y009128D02*
X010125Y009128D01*
X010108Y009366D02*
X013150Y009366D01*
X012911Y009605D02*
X009960Y009605D01*
X009276Y008651D02*
X002147Y008651D01*
X002147Y008889D02*
X009176Y008889D01*
X009065Y009128D02*
X002147Y009128D01*
X002147Y009366D02*
X009082Y009366D01*
X009230Y009605D02*
X002147Y009605D01*
X002147Y009843D02*
X009222Y009843D01*
X009146Y009920D02*
X009146Y009920D01*
X009101Y008412D02*
X002147Y008412D01*
X002147Y008174D02*
X005445Y008174D01*
X005599Y008185D02*
X005087Y008147D01*
X004610Y007960D01*
X004209Y007640D01*
X003920Y007216D01*
X003769Y006726D01*
X003769Y006214D01*
X003920Y005724D01*
X003920Y005724D01*
X004209Y005300D01*
X004209Y005300D01*
X004209Y005300D01*
X004610Y004980D01*
X005087Y004793D01*
X005087Y004793D01*
X005599Y004755D01*
X006098Y004869D01*
X006098Y004869D01*
X006542Y005125D01*
X006542Y005125D01*
X006891Y005501D01*
X007114Y005963D01*
X007190Y006470D01*
X007114Y006977D01*
X006891Y007439D01*
X006542Y007815D01*
X006098Y008071D01*
X005599Y008185D01*
X005599Y008185D01*
X005649Y008174D02*
X009065Y008174D01*
X009139Y007935D02*
X006334Y007935D01*
X006542Y007815D02*
X006542Y007815D01*
X006652Y007697D02*
X009361Y007697D01*
X009120Y007458D02*
X006873Y007458D01*
X006891Y007439D02*
X006891Y007439D01*
X006997Y007220D02*
X009065Y007220D01*
X009120Y006981D02*
X007112Y006981D01*
X007114Y006977D02*
X007114Y006977D01*
X007149Y006743D02*
X009362Y006743D01*
X009139Y006504D02*
X007185Y006504D01*
X007190Y006470D02*
X007190Y006470D01*
X007159Y006266D02*
X009065Y006266D01*
X009101Y006027D02*
X007123Y006027D01*
X007030Y005789D02*
X009277Y005789D01*
X009176Y005550D02*
X006915Y005550D01*
X006715Y005312D02*
X009065Y005312D01*
X009082Y005073D02*
X006452Y005073D01*
X006542Y005125D02*
X006542Y005125D01*
X005949Y004835D02*
X009231Y004835D01*
X009165Y004596D02*
X002559Y004596D01*
X002435Y004835D02*
X004981Y004835D01*
X004610Y004980D02*
X004610Y004980D01*
X004494Y005073D02*
X002336Y005073D01*
X002256Y005312D02*
X004201Y005312D01*
X004039Y005550D02*
X002208Y005550D01*
X002161Y005789D02*
X003900Y005789D01*
X003827Y006027D02*
X002149Y006027D01*
X002147Y006266D02*
X003769Y006266D01*
X003769Y006504D02*
X002147Y006504D01*
X002147Y006743D02*
X003774Y006743D01*
X003848Y006981D02*
X002147Y006981D01*
X002147Y007220D02*
X003923Y007220D01*
X003920Y007216D02*
X003920Y007216D01*
X004085Y007458D02*
X002147Y007458D01*
X002147Y007697D02*
X004280Y007697D01*
X004209Y007640D02*
X004209Y007640D01*
X004579Y007935D02*
X002147Y007935D01*
X002147Y010082D02*
X003651Y010082D01*
X003412Y010320D02*
X002147Y010320D01*
X002147Y010559D02*
X002820Y010559D01*
X002650Y010797D02*
X002147Y010797D01*
X002147Y011036D02*
X002615Y011036D01*
X002687Y011274D02*
X002147Y011274D01*
X002147Y013898D02*
X002527Y013898D01*
X002466Y014136D02*
X002147Y014136D01*
X002147Y014375D02*
X002523Y014375D01*
X002831Y014613D02*
X002147Y014613D01*
X002147Y014852D02*
X002556Y014852D01*
X002466Y015090D02*
X002147Y015090D01*
X002147Y015329D02*
X002504Y015329D01*
X002720Y015567D02*
X002147Y015567D01*
X002147Y015806D02*
X002602Y015806D01*
X002466Y016044D02*
X002147Y016044D01*
X002147Y016283D02*
X002485Y016283D01*
X002647Y016521D02*
X002147Y016521D01*
X002147Y016760D02*
X002648Y016760D01*
X002485Y016998D02*
X002147Y016998D01*
X002147Y017237D02*
X002466Y017237D01*
X002601Y017475D02*
X002147Y017475D01*
X002147Y017714D02*
X002649Y017714D01*
X002673Y017697D02*
X002746Y017659D01*
X002824Y017634D01*
X002905Y017621D01*
X003246Y017621D01*
X003246Y018141D01*
X003246Y018141D01*
X002426Y018141D01*
X002426Y018100D01*
X002438Y018019D01*
X002464Y017942D01*
X002501Y017869D01*
X002549Y017803D01*
X002607Y017745D01*
X002673Y017697D01*
X002460Y017952D02*
X002147Y017952D01*
X002147Y018191D02*
X002427Y018191D01*
X002426Y018182D02*
X002438Y018263D01*
X002464Y018341D01*
X002501Y018414D01*
X002549Y018480D01*
X002607Y018538D01*
X002673Y018586D01*
X002746Y018623D01*
X002824Y018648D01*
X002905Y018661D01*
X003246Y018661D01*
X003246Y018141D01*
X003246Y018141D01*
X002426Y018141D01*
X002426Y018182D01*
X002512Y018429D02*
X002147Y018429D01*
X002147Y018668D02*
X002835Y018668D01*
X002523Y018906D02*
X002147Y018906D01*
X002147Y019145D02*
X002466Y019145D01*
X002526Y019383D02*
X002147Y019383D01*
X003246Y018429D02*
X003246Y018429D01*
X003246Y018191D02*
X003246Y018191D01*
X003246Y017952D02*
X003246Y017952D01*
X003246Y017714D02*
X003246Y017714D01*
X005087Y008147D02*
X005087Y008147D01*
X004610Y007960D02*
X004610Y007960D01*
X006098Y008071D02*
X006098Y008071D01*
X005599Y004755D02*
X005599Y004755D01*
X004767Y003165D02*
X018771Y003165D01*
X019628Y003404D02*
X003910Y003404D01*
X002718Y004358D02*
X009035Y004358D01*
X009913Y005789D02*
X015277Y005789D01*
X015176Y005550D02*
X010014Y005550D01*
X010125Y005312D02*
X015065Y005312D01*
X015082Y005073D02*
X010108Y005073D01*
X009959Y004835D02*
X015231Y004835D01*
X015165Y004596D02*
X010025Y004596D01*
X010155Y004358D02*
X015035Y004358D01*
X015025Y004119D02*
X010165Y004119D01*
X010062Y003881D02*
X015128Y003881D01*
X015959Y004835D02*
X017639Y004835D01*
X017151Y005073D02*
X016108Y005073D01*
X016125Y005312D02*
X016859Y005312D01*
X016696Y005550D02*
X016014Y005550D01*
X015913Y005789D02*
X016558Y005789D01*
X016484Y006027D02*
X016089Y006027D01*
X016125Y006266D02*
X016427Y006266D01*
X016427Y006504D02*
X016051Y006504D01*
X015828Y006743D02*
X016432Y006743D01*
X016505Y006981D02*
X016070Y006981D01*
X016125Y007220D02*
X016580Y007220D01*
X016743Y007458D02*
X016070Y007458D01*
X015829Y007697D02*
X016938Y007697D01*
X017237Y007935D02*
X016051Y007935D01*
X015362Y006743D02*
X009828Y006743D01*
X010051Y006504D02*
X015139Y006504D01*
X015065Y006266D02*
X010125Y006266D01*
X010089Y006027D02*
X015101Y006027D01*
X015120Y006981D02*
X010070Y006981D01*
X010125Y007220D02*
X015065Y007220D01*
X015120Y007458D02*
X010070Y007458D01*
X012970Y009970D02*
X012970Y027095D01*
X013645Y024630D02*
X021392Y024630D01*
X021392Y024392D02*
X013645Y024392D01*
X013645Y022722D02*
X021392Y022722D01*
X021392Y022484D02*
X013645Y022484D01*
X013645Y022245D02*
X021392Y022245D01*
X021392Y022007D02*
X013645Y022007D01*
X012670Y020337D02*
X010163Y020337D01*
X010162Y020099D02*
X012670Y020099D01*
X012670Y019860D02*
X010041Y019860D01*
X010125Y019622D02*
X012670Y019622D01*
X012670Y019383D02*
X010125Y019383D01*
X010125Y019145D02*
X012670Y019145D01*
X012670Y018906D02*
X010125Y018906D01*
X009897Y018668D02*
X012670Y018668D01*
X012670Y018429D02*
X010082Y018429D01*
X010125Y018191D02*
X012670Y018191D01*
X012670Y017952D02*
X010058Y017952D01*
X009788Y017714D02*
X012670Y017714D01*
X012670Y017475D02*
X010063Y017475D01*
X010125Y017237D02*
X012670Y017237D01*
X012670Y016998D02*
X010077Y016998D01*
X009869Y016760D02*
X012670Y016760D01*
X012670Y016521D02*
X010043Y016521D01*
X010125Y016283D02*
X012670Y016283D01*
X012670Y016044D02*
X010096Y016044D01*
X009930Y015806D02*
X012670Y015806D01*
X012670Y015567D02*
X009997Y015567D01*
X010124Y015329D02*
X012670Y015329D01*
X012670Y015090D02*
X010115Y015090D01*
X009976Y014852D02*
X012670Y014852D01*
X012670Y014613D02*
X009951Y014613D01*
X010105Y014375D02*
X012670Y014375D01*
X012670Y014136D02*
X010125Y014136D01*
X010022Y013898D02*
X012670Y013898D01*
X012670Y013659D02*
X009905Y013659D01*
X010086Y013421D02*
X012670Y013421D01*
X012670Y013182D02*
X010125Y013182D01*
X010054Y012944D02*
X012670Y012944D01*
X015146Y007920D02*
X015146Y007920D01*
X020507Y016998D02*
X021392Y016998D01*
X021392Y017237D02*
X020797Y017237D01*
X020863Y017475D02*
X021392Y017475D01*
X021392Y017714D02*
X020819Y017714D01*
X020633Y017952D02*
X021392Y017952D01*
X021392Y018191D02*
X016125Y018191D01*
X016082Y018429D02*
X021392Y018429D01*
X021392Y018668D02*
X015897Y018668D01*
X016031Y018906D02*
X021392Y018906D01*
X021392Y019145D02*
X020758Y019145D01*
X020863Y019383D02*
X021392Y019383D01*
X021392Y019622D02*
X020844Y019622D01*
X020693Y019860D02*
X021392Y019860D01*
X021392Y020099D02*
X016162Y020099D01*
X016163Y020337D02*
X021392Y020337D01*
X021392Y020576D02*
X016045Y020576D01*
D17*
X010970Y027970D03*
X009220Y023970D03*
X006720Y027470D03*
X007345Y033470D03*
X007970Y037470D03*
X016095Y031095D03*
X019720Y009470D03*
M02*
