%
M48
M72
T01C0.0197
T02C0.0315
T03C0.0400
T04C0.0470
T05C0.0700
T06C0.1417
%
T01
X19720Y9470
X10970Y27970
X9220Y23970
X6720Y27470
X7345Y33470
X7970Y37470
X16095Y31095
T02
X9595Y19220
X9595Y18220
X9595Y17220
X9595Y16220
X9595Y15220
X9595Y14220
X9595Y13220
X9595Y12220
X9595Y11220
X9595Y10220
X9595Y9220
X9595Y8220
X9595Y7220
X9595Y6220
X9595Y5220
X15595Y6220
X15595Y7220
X15595Y8220
X15595Y9220
X15595Y10220
X15595Y11220
X15595Y12220
X15595Y13220
X15595Y14220
X15595Y15220
X15595Y16220
X15595Y17220
X15595Y18220
X15595Y19220
X15595Y5220
T03
X3165Y10992
X3246Y13141
X3246Y14141
X3246Y15141
X3246Y16141
X3246Y17141
X3246Y18141
X3246Y19141
X3246Y20141
X3246Y21141
X3246Y22141
T04
X19978Y17501
X19978Y19470
X19978Y21439
X19970Y23486
X19970Y25454
X19970Y27486
X19970Y29454
T05
X9595Y20220
X15595Y20220
X15595Y4220
X9595Y4220
T06
X5470Y36549
X18127Y6470
X5470Y6470
X18127Y36549
M30
